<?xml version="1.0" encoding="UTF-8" standalone="no"?>
<!DOCTYPE svg PUBLIC "-//W3C//DTD SVG 1.1//EN" "http://www.w3.org/Graphics/SVG/1.1/DTD/svg11.dtd">
<svg width="100%" height="100%" viewBox="0 0 400 189" version="1.1" xmlns="http://www.w3.org/2000/svg" xmlns:xlink="http://www.w3.org/1999/xlink" xml:space="preserve" xmlns:serif="http://www.serif.com/" style="fill-rule:evenodd;clip-rule:evenodd;stroke-linejoin:round;stroke-miterlimit:2;">
    <g transform="matrix(1,0,0,1,-406.155,-124.429)">
        <g transform="matrix(0.995772,-0.091855,0.091855,0.995772,-8.50021,70.4479)">
            <path d="M620.763,259.003C623.335,248.943 626.455,237.239 634.998,231.394C638.644,228.9 643.266,229.889 647.979,231.124C652.319,232.262 656.737,233.612 660.42,231.885C687.446,219.216 689.038,225.187 717.92,217.008C718.191,216.931 718.535,216.66 718.973,216.27C719.775,215.557 720.792,214.454 721.994,213.081C726.782,207.616 734.409,197.971 742.77,191.331C748.888,186.472 755.414,183.242 761.521,184.213C767.632,185.184 773.428,190.34 777.962,202.515C783.484,217.342 789.189,238.839 787.705,256.04C786.697,267.717 782.377,277.419 772.617,281.904C719.142,306.473 654.376,295.071 596.132,286.648C593.927,286.329 592.871,285.441 592.581,284.343C592.306,283.296 592.748,281.904 593.858,280.331C598.304,274.027 613.519,263.828 620.763,259.003ZM621.374,259.436C623.919,249.478 626.91,237.776 635.393,231.972C642.362,227.204 653.072,236.103 660.717,232.519C687.692,219.874 689.284,225.845 718.111,217.681C723.724,216.091 759.683,155.439 777.306,202.759C786.458,227.332 796.152,270.32 772.325,281.267C718.969,305.782 654.346,294.36 596.232,285.955C584.177,284.211 611.236,266.188 621.374,259.436Z" style="fill:rgb(31,160,226);"/>
        </g>
        <g transform="matrix(1,0,0,1,-5.04235,12.3894)">
            <g transform="matrix(0.98577,-0.1681,0.1681,0.98577,-9.96671,117.582)">
                <path d="M621.374,259.436C623.919,249.478 626.91,237.776 635.393,231.972C642.362,227.204 653.072,236.103 660.717,232.519C687.692,219.874 689.284,225.845 718.111,217.681C723.724,216.091 759.683,155.439 777.306,202.759C786.458,227.332 796.152,270.32 772.325,281.267C718.969,305.782 654.346,294.36 596.232,285.955C584.177,284.211 611.236,266.188 621.374,259.436Z" style="fill:rgb(1,0,51);"/>
                <path d="M620.763,259.003C623.335,248.943 626.455,237.239 634.998,231.394C638.644,228.9 643.266,229.889 647.979,231.124C652.319,232.262 656.737,233.612 660.42,231.885C687.446,219.216 689.038,225.187 717.92,217.008C718.191,216.931 718.535,216.66 718.973,216.27C719.775,215.557 720.792,214.454 721.994,213.081C726.782,207.616 734.409,197.971 742.77,191.331C748.888,186.472 755.414,183.242 761.521,184.213C767.632,185.184 773.428,190.34 777.962,202.515C783.484,217.342 789.189,238.839 787.705,256.04C786.697,267.717 782.377,277.419 772.617,281.904C719.142,306.473 654.376,295.071 596.132,286.648C593.927,286.329 592.871,285.441 592.581,284.343C592.306,283.296 592.748,281.904 593.858,280.331C598.304,274.027 613.519,263.828 620.763,259.003ZM621.374,259.436C623.919,249.478 626.91,237.776 635.393,231.972C642.362,227.204 653.072,236.103 660.717,232.519C687.692,219.874 689.284,225.845 718.111,217.681C723.724,216.091 759.683,155.439 777.306,202.759C786.458,227.332 796.152,270.32 772.325,281.267C718.969,305.782 654.346,294.36 596.232,285.955C584.177,284.211 611.236,266.188 621.374,259.436Z" style="fill:rgb(254,217,217);"/>
            </g>
        </g>
        <g transform="matrix(2.15683,0,0,2.15683,-591.205,-339.65)">
            <circle cx="475.132" cy="227.879" r="12.712" style="fill:rgb(1,0,51);"/>
        </g>
        <g transform="matrix(1.60503,0,0,1.60503,-432.08,-189.335)">
            <path d="M551.442,216.315C544.17,216.315 538.267,222.218 538.267,229.49C538.267,236.761 544.17,242.665 551.442,242.665C558.713,242.665 564.617,236.761 564.617,229.49C564.617,222.218 558.713,216.315 551.442,216.315ZM551.442,216.751C558.473,216.751 564.181,222.459 564.181,229.49C564.181,236.521 558.473,242.229 551.442,242.229C544.411,242.229 538.703,236.521 538.703,229.49C538.703,222.459 544.411,216.751 551.442,216.751Z" style="fill:rgb(31,160,226);"/>
        </g>
        <g transform="matrix(1.02937,0,0,1.02937,-89.6095,-50.8568)">
            <circle cx="507.391" cy="238.834" r="7.405" style="fill:rgb(1,0,51);"/>
        </g>
    </g>
</svg>
