<svg width="894" height="887" viewBox="0 0 894 887" fill="none" xmlns="http://www.w3.org/2000/svg">
<path fill-rule="evenodd" clip-rule="evenodd" d="M688.043 670.306C652.67 724.226 586.845 754.467 522.726 761.346C462.808 767.774 410.867 729.259 355.271 706.008C300.552 683.123 240.501 670.841 200.849 626.732C156.356 577.238 126.52 514.513 123.365 448.035C119.96 376.322 126.646 291.24 182.799 246.505C238.611 202.043 320.566 244.057 391.293 234.589C450.343 226.684 502.849 184.257 561.29 195.839C625.823 208.628 694.521 241.025 723.004 300.327C751.001 358.617 707.884 424.004 701.801 488.382C695.936 550.446 722.239 618.182 688.043 670.306Z" fill="url(#paint0_linear)"/>
<defs>
<linearGradient id="paint0_linear" x1="701.015" y1="656.605" x2="192.992" y2="230.474" gradientUnits="userSpaceOnUse">
<stop stop-color="#E0C8DA"/>
<stop offset="1" stop-color="#A6DCEF"/>
</linearGradient>
</defs>
</svg>
