<svg width="189" height="199" viewBox="0 0 189 199" fill="none" xmlns="http://www.w3.org/2000/svg">
<path fill-rule="evenodd" clip-rule="evenodd" d="M88.6915 1.03274C111.321 -2.07559 138.116 1.30715 153.238 18.427C168.097 35.2487 155.547 61.9655 161.603 83.5773C167.247 103.72 193.856 119.444 187.093 139.24C180.306 159.105 150.754 157.107 132.778 167.947C117.069 177.42 106.994 197.346 88.6915 198.58C70.146 199.831 53.863 186.651 40.0639 174.198C27.4004 162.769 20.7705 147.222 14.2961 131.44C7.24458 114.252 -3.13192 96.8785 0.903971 78.7437C5.08648 59.9501 21.4425 47.3115 35.8589 34.5498C51.8669 20.3793 67.5114 3.94198 88.6915 1.03274Z" fill="url(#paint0_linear)"/>
<defs>
<linearGradient id="paint0_linear" x1="94.0928" y1="0" x2="94.0928" y2="198.663" gradientUnits="userSpaceOnUse">
<stop stop-color="#A9A4FE"/>
<stop offset="1" stop-color="#FC99E8"/>
</linearGradient>
</defs>
</svg>
