<svg width="299" height="459" viewBox="0 0 299 459" fill="none" xmlns="http://www.w3.org/2000/svg">
<path fill-rule="evenodd" clip-rule="evenodd" d="M186.513 2.80426C232.883 4.66343 283.497 3.74022 318.703 33.9754C353.022 63.449 354.842 113.724 366.55 157.421C377.536 198.423 392.848 238.655 384.707 280.315C375.841 325.688 353.915 368.061 319.384 398.799C282.388 431.731 234.783 467.843 186.513 456.74C138.074 445.597 126.193 382.208 91.6965 346.422C65.6581 319.411 25.1019 307.584 9.73641 273.357C-6.47268 237.25 1.17795 196.723 6.91282 157.562C13.8533 110.169 10.1059 54.3241 46.3917 23.0573C83.0395 -8.5214 138.176 0.866208 186.513 2.80426Z" fill="url(#paint0_linear)"/>
<defs>
<linearGradient id="paint0_linear" x1="193.5" y1="0" x2="193.5" y2="458.789" gradientUnits="userSpaceOnUse">
<stop stop-color="#A6A5FF"/>
<stop offset="1" stop-color="#FF88E5" stop-opacity="0.85"/>
</linearGradient>
</defs>
</svg>
