<?xml version="1.0" encoding="UTF-8" standalone="no"?>
<!DOCTYPE svg PUBLIC "-//W3C//DTD SVG 1.1//EN" "http://www.w3.org/Graphics/SVG/1.1/DTD/svg11.dtd">
<svg width="100%" height="100%" viewBox="0 0 400 304" version="1.1" xmlns="http://www.w3.org/2000/svg" xmlns:xlink="http://www.w3.org/1999/xlink" xml:space="preserve" xmlns:serif="http://www.serif.com/" style="fill-rule:evenodd;clip-rule:evenodd;stroke-linejoin:round;stroke-miterlimit:2;">
    <g transform="matrix(1,0,0,1,-406.155,-78.0757)">
        <g transform="matrix(0.995772,-0.091855,0.091855,0.995772,-8.50021,70.4479)">
            <path d="M620.763,259.003C623.335,248.943 626.455,237.239 634.998,231.394C638.644,228.9 643.266,229.889 647.979,231.124C652.319,232.262 656.737,233.612 660.42,231.885C687.446,219.216 689.038,225.187 717.92,217.008C718.191,216.931 718.535,216.66 718.973,216.27C719.775,215.557 720.792,214.454 721.994,213.081C726.782,207.616 734.409,197.971 742.77,191.331C748.888,186.472 755.414,183.242 761.521,184.213C767.632,185.184 773.428,190.34 777.962,202.515C783.484,217.342 789.189,238.839 787.705,256.04C786.697,267.717 782.377,277.419 772.617,281.904C719.142,306.473 654.376,295.071 596.132,286.648C593.927,286.329 592.871,285.441 592.581,284.343C592.306,283.296 592.748,281.904 593.858,280.331C598.304,274.027 613.519,263.828 620.763,259.003ZM621.374,259.436C623.919,249.478 626.91,237.776 635.393,231.972C642.362,227.204 653.072,236.103 660.717,232.519C687.692,219.874 689.284,225.845 718.111,217.681C723.724,216.091 759.683,155.439 777.306,202.759C786.458,227.332 796.152,270.32 772.325,281.267C718.969,305.782 654.346,294.36 596.232,285.955C584.177,284.211 611.236,266.188 621.374,259.436Z" style="fill:rgb(31,160,226);"/>
        </g>
        <g transform="matrix(1,0,0,1,-5.04235,12.3894)">
            <g transform="matrix(0.98577,-0.1681,0.1681,0.98577,-9.96671,117.582)">
                <path d="M621.374,259.436C623.919,249.478 626.91,237.776 635.393,231.972C642.362,227.204 653.072,236.103 660.717,232.519C687.692,219.874 689.284,225.845 718.111,217.681C723.724,216.091 759.683,155.439 777.306,202.759C786.458,227.332 796.152,270.32 772.325,281.267C718.969,305.782 654.346,294.36 596.232,285.955C584.177,284.211 611.236,266.188 621.374,259.436Z" style="fill:rgb(249,217,217);"/>
                <path d="M620.763,259.003C623.335,248.943 626.455,237.239 634.998,231.394C638.644,228.9 643.266,229.889 647.979,231.124C652.319,232.262 656.737,233.612 660.42,231.885C687.446,219.216 689.038,225.187 717.92,217.008C718.191,216.931 718.535,216.66 718.973,216.27C719.775,215.557 720.792,214.454 721.994,213.081C726.782,207.616 734.409,197.971 742.77,191.331C748.888,186.472 755.414,183.242 761.521,184.213C767.632,185.184 773.428,190.34 777.962,202.515C783.484,217.342 789.189,238.839 787.705,256.04C786.697,267.717 782.377,277.419 772.617,281.904C719.142,306.473 654.376,295.071 596.132,286.648C593.927,286.329 592.871,285.441 592.581,284.343C592.306,283.296 592.748,281.904 593.858,280.331C598.304,274.027 613.519,263.828 620.763,259.003ZM621.374,259.436C623.919,249.478 626.91,237.776 635.393,231.972C642.362,227.204 653.072,236.103 660.717,232.519C687.692,219.874 689.284,225.845 718.111,217.681C723.724,216.091 759.683,155.439 777.306,202.759C786.458,227.332 796.152,270.32 772.325,281.267C718.969,305.782 654.346,294.36 596.232,285.955C584.177,284.211 611.236,266.188 621.374,259.436Z" style="fill:rgb(254,217,217);"/>
            </g>
        </g>
        <g transform="matrix(2.15683,0,0,2.15683,-591.205,-339.65)">
            <circle cx="475.132" cy="227.879" r="12.712" style="fill:rgb(249,217,217);"/>
        </g>
        <g transform="matrix(1.60503,0,0,1.60503,-432.08,-189.335)">
            <path d="M551.442,216.315C544.17,216.315 538.267,222.218 538.267,229.49C538.267,236.761 544.17,242.665 551.442,242.665C558.713,242.665 564.617,236.761 564.617,229.49C564.617,222.218 558.713,216.315 551.442,216.315ZM551.442,216.751C558.473,216.751 564.181,222.459 564.181,229.49C564.181,236.521 558.473,242.229 551.442,242.229C544.411,242.229 538.703,236.521 538.703,229.49C538.703,222.459 544.411,216.751 551.442,216.751Z" style="fill:rgb(31,160,226);"/>
        </g>
        <g transform="matrix(1.02937,0,0,1.02937,-89.6095,-50.8568)">
            <circle cx="507.391" cy="238.834" r="7.405" style="fill:rgb(249,217,217);"/>
        </g>
        <g transform="matrix(1.08525,0,0,1.08525,-80.6219,0.10731)">
            <path d="M626.086,72.362C549.209,72.362 486.795,134.776 486.795,211.652C486.795,288.529 549.209,350.943 626.086,350.943C702.962,350.943 765.377,288.529 765.377,211.652C765.377,134.776 702.962,72.362 626.086,72.362ZM626.086,73.007C702.606,73.007 764.731,135.132 764.731,211.652C764.731,288.173 702.606,350.298 626.086,350.298C549.565,350.298 487.44,288.173 487.44,211.652C487.44,135.132 549.565,73.007 626.086,73.007Z" style="fill:rgb(249,217,217);"/>
        </g>
        <g transform="matrix(0.993229,0,0,0.993229,-44.7098,31.2596)">
            <path d="M625.419,350.296C625.642,350.297 625.864,350.298 626.086,350.298L626.124,350.298L626.124,351.003L625.416,351.001L625.419,350.296ZM627.534,350.29L627.541,350.995C627.305,350.998 627.069,351 626.832,351.001L626.829,350.296C627.065,350.295 627.301,350.293 627.534,350.29ZM624.295,350.287L624.715,350.291L624.708,350.996C624.472,350.994 624.236,350.991 624,350.987L624.01,350.283L624.295,350.287ZM628.943,350.269L628.957,350.974C628.721,350.978 628.485,350.983 628.249,350.986L628.238,350.281C628.472,350.278 628.706,350.274 628.943,350.269ZM622.956,350.263L623.305,350.27L623.292,350.975C623.055,350.971 622.819,350.965 622.584,350.959L622.601,350.255L622.956,350.263ZM630.352,350.233L630.373,350.938C630.137,350.945 629.901,350.952 629.665,350.958L629.647,350.253C629.88,350.247 630.112,350.241 630.352,350.233ZM621.619,350.227L621.896,350.236L621.875,350.94C621.639,350.933 621.403,350.926 621.168,350.917L621.192,350.213L621.619,350.227ZM631.761,350.184L631.789,350.888C631.553,350.897 631.317,350.906 631.081,350.915L631.056,350.21L631.442,350.196L631.761,350.184ZM619.784,350.157C620.018,350.167 620.253,350.177 620.488,350.187L620.46,350.891C620.224,350.882 619.988,350.872 619.752,350.861L619.784,350.157ZM633.169,350.12L633.204,350.824C632.969,350.836 632.733,350.847 632.497,350.858L632.465,350.153L632.773,350.139L633.169,350.12ZM618.376,350.087C618.61,350.099 618.845,350.112 619.08,350.123L619.045,350.828C618.809,350.816 618.573,350.803 618.337,350.79L618.376,350.087ZM634.576,350.042L634.619,350.745C634.383,350.759 634.147,350.773 633.912,350.786L633.872,350.082C634.106,350.069 634.339,350.056 634.576,350.042ZM616.969,350.002C617.204,350.017 617.438,350.032 617.673,350.046L617.63,350.75C617.395,350.736 617.159,350.721 616.923,350.706L616.969,350.002ZM635.983,349.949L636.032,350.652C635.797,350.669 635.561,350.685 635.326,350.701L635.279,349.997C635.511,349.982 635.742,349.966 635.983,349.949ZM615.865,349.926L616.266,349.955L616.217,350.658C615.981,350.641 615.745,350.624 615.51,350.607L615.563,349.904L615.865,349.926ZM637.388,349.843L637.445,350.545C637.21,350.564 636.974,350.583 636.739,350.601L636.685,349.898C636.922,349.88 637.158,349.862 637.388,349.843ZM614.546,349.824L614.861,349.849L614.804,350.552C614.569,350.533 614.333,350.513 614.098,350.493L614.158,349.791L614.546,349.824ZM638.792,349.722L638.856,350.424C638.621,350.446 638.386,350.466 638.151,350.487L638.09,349.784L638.503,349.748L638.792,349.722ZM612.754,349.664C612.988,349.686 613.222,349.708 613.456,349.729L613.393,350.431C613.157,350.41 612.922,350.388 612.687,350.366L612.754,349.664ZM640.196,349.587L640.267,350.289C640.032,350.312 639.797,350.336 639.562,350.358L639.494,349.657L639.816,349.625L640.196,349.587ZM611.352,349.523C611.585,349.547 611.819,349.571 612.053,349.595L611.982,350.296C611.747,350.273 611.512,350.248 611.278,350.224L611.352,349.523ZM641.597,349.438L641.675,350.139C641.441,350.165 641.206,350.19 640.971,350.215L640.897,349.514C641.133,349.489 641.369,349.464 641.597,349.438ZM609.951,349.367C610.184,349.394 610.417,349.421 610.651,349.447L610.573,350.147C610.338,350.121 610.104,350.095 609.869,350.067L609.951,349.367ZM642.997,349.275L643.082,349.975C642.848,350.003 642.614,350.031 642.379,350.058L642.297,349.358C642.532,349.331 642.766,349.303 642.997,349.275ZM608.871,349.238L609.251,349.284L609.166,349.984C608.931,349.955 608.697,349.926 608.463,349.897L608.551,349.197L608.871,349.238ZM644.396,349.097L644.488,349.796C644.254,349.827 644.02,349.857 643.785,349.887L643.697,349.188C643.929,349.158 644.16,349.128 644.396,349.097ZM607.572,349.07L607.852,349.107L607.76,349.806C607.526,349.775 607.292,349.744 607.058,349.712L607.154,349.014L607.572,349.07ZM645.792,348.905L645.891,349.603C645.658,349.637 645.424,349.669 645.19,349.701L645.094,349.003L645.465,348.952L645.792,348.905ZM605.758,348.815C605.991,348.85 606.223,348.883 606.456,348.916L606.357,349.614C606.123,349.581 605.889,349.547 605.656,349.513L605.758,348.815ZM647.186,348.7L647.293,349.396C647.06,349.432 646.826,349.467 646.592,349.502L646.489,348.804L646.758,348.764L647.186,348.7ZM604.365,348.603C604.597,348.64 604.829,348.676 605.061,348.711L604.955,349.408C604.721,349.372 604.488,349.336 604.255,349.299L604.365,348.603ZM648.579,348.479L648.692,349.175C648.459,349.213 648.226,349.25 647.993,349.287L647.883,348.591C648.114,348.554 648.346,348.517 648.579,348.479ZM603.267,348.425L603.669,348.492L603.555,349.187C603.322,349.149 603.089,349.111 602.856,349.072L602.973,348.376L603.267,348.425ZM649.968,348.245L650.089,348.939C649.857,348.98 649.624,349.02 649.391,349.059L649.274,348.364C649.503,348.325 649.732,348.286 649.968,348.245ZM601.983,348.206L602.278,348.258L602.158,348.952C601.925,348.912 601.693,348.871 601.46,348.829L601.584,348.136L601.983,348.206ZM651.356,347.996L651.484,348.689C651.252,348.732 651.019,348.774 650.787,348.816L650.662,348.122L651.041,348.054L651.356,347.996ZM600.198,347.881C600.428,347.924 600.659,347.967 600.891,348.01L600.763,348.703C600.531,348.66 600.299,348.617 600.067,348.573L600.198,347.881ZM652.741,347.733L652.876,348.425C652.644,348.47 652.412,348.515 652.18,348.559L652.049,347.866L652.318,347.815L652.741,347.733ZM598.814,347.611C599.044,347.657 599.274,347.703 599.506,347.748L599.371,348.44C599.139,348.395 598.908,348.349 598.676,348.303L598.814,347.611ZM654.123,347.456L654.265,348.147C654.034,348.194 653.802,348.241 653.571,348.288L653.432,347.597C653.66,347.551 653.889,347.505 654.123,347.456ZM597.736,347.392L598.123,347.472L597.982,348.162C597.75,348.115 597.519,348.067 597.288,348.018L597.433,347.328L597.736,347.392ZM655.502,347.165L655.651,347.854C655.42,347.904 655.189,347.954 654.958,348.002L654.813,347.313C655.045,347.264 655.277,347.214 655.502,347.165ZM596.471,347.122L596.744,347.181L596.595,347.87C596.364,347.821 596.134,347.77 595.903,347.719L596.055,347.031L596.471,347.122ZM656.878,346.86L657.034,347.548C656.804,347.6 656.574,347.652 656.343,347.703L656.19,347.015L656.542,346.936L656.878,346.86ZM594.681,346.719C594.91,346.773 595.139,346.825 595.368,346.877L595.212,347.564C594.982,347.512 594.751,347.459 594.521,347.406L594.681,346.719ZM658.251,346.541L658.414,347.227C658.185,347.281 657.955,347.335 657.725,347.389L657.565,346.702C657.792,346.649 658.019,346.596 658.251,346.541ZM593.309,346.394C593.537,346.449 593.766,346.504 593.995,346.559L593.832,347.244C593.602,347.19 593.372,347.135 593.143,347.079L593.309,346.394ZM659.621,346.208L659.791,346.892C659.562,346.949 659.332,347.005 659.103,347.061L658.936,346.376C659.167,346.32 659.397,346.263 659.621,346.208ZM592.285,346.141L592.625,346.226L592.455,346.91C592.226,346.853 591.997,346.796 591.768,346.738L591.941,346.054L592.285,346.141ZM660.987,345.86L661.164,346.543C660.935,346.602 660.707,346.661 660.478,346.719L660.304,346.036L660.718,345.93L660.987,345.86ZM590.577,345.701C590.803,345.761 591.03,345.82 591.258,345.879L591.082,346.562C590.853,346.502 590.624,346.443 590.396,346.382L590.577,345.701ZM662.349,345.499L662.533,346.179C662.305,346.241 662.077,346.302 661.849,346.363L661.668,345.681L661.962,345.603L662.349,345.499ZM589.216,345.333C589.442,345.396 589.669,345.458 589.896,345.519L589.712,346.199C589.484,346.138 589.256,346.076 589.028,346.013L589.216,345.333ZM663.708,345.124L663.899,345.802C663.672,345.866 663.444,345.93 663.217,345.993L663.029,345.313C663.258,345.25 663.486,345.186 663.708,345.124ZM588.148,345.035L588.537,345.144L588.346,345.823C588.118,345.759 587.891,345.694 587.664,345.629L587.859,344.952L588.148,345.035ZM665.063,344.735L665.261,345.411C665.034,345.478 664.807,345.543 664.58,345.609L664.386,344.931C664.612,344.866 664.837,344.801 665.063,344.735ZM586.506,344.557C586.73,344.623 586.955,344.69 587.182,344.756L586.984,345.432C586.757,345.366 586.531,345.299 586.305,345.232L586.506,344.557ZM666.413,344.332L666.618,345.006C666.392,345.075 666.166,345.143 665.94,345.21L665.738,344.535L666.073,344.435L666.413,344.332ZM585.157,344.147C585.382,344.217 585.607,344.286 585.831,344.354L585.626,345.028C585.4,344.96 585.174,344.89 584.949,344.821L585.157,344.147ZM667.76,343.915L667.972,344.587C667.747,344.658 667.521,344.729 667.296,344.798L667.087,344.125C667.313,344.055 667.539,343.984 667.76,343.915ZM583.812,343.724C584.036,343.796 584.26,343.867 584.484,343.938L584.273,344.61C584.047,344.539 583.822,344.468 583.597,344.396L583.812,343.724ZM669.102,343.484L669.321,344.154C669.096,344.228 668.872,344.3 668.647,344.372L668.431,343.701C668.655,343.63 668.878,343.557 669.102,343.484ZM582.848,343.412L583.142,343.508L582.923,344.178C582.699,344.105 582.474,344.031 582.25,343.957L582.472,343.288L582.848,343.412ZM670.44,343.04L670.665,343.708C670.442,343.783 670.218,343.858 669.994,343.933L669.771,343.264L670.131,343.144L670.44,343.04ZM581.137,342.837C581.359,342.914 581.582,342.989 581.804,343.064L581.579,343.732C581.355,343.657 581.131,343.58 580.908,343.504L581.137,342.837ZM671.773,342.582L672.005,343.247C671.782,343.325 671.559,343.402 671.336,343.479L671.107,342.813C671.33,342.736 671.553,342.659 671.773,342.582ZM579.806,342.373C580.028,342.452 580.249,342.53 580.471,342.607L580.239,343.272C580.016,343.195 579.793,343.116 579.57,343.037L579.806,342.373ZM673.101,342.11L673.34,342.773C673.118,342.853 672.896,342.933 672.673,343.012L672.437,342.348C672.658,342.269 672.878,342.191 673.101,342.11ZM578.834,342.024L579.142,342.136L578.903,342.799C578.681,342.719 578.459,342.638 578.238,342.557L578.48,341.895L578.834,342.024ZM674.424,341.625L674.67,342.285C674.449,342.368 674.228,342.45 674.006,342.531L673.763,341.869L674.134,341.733L674.424,341.625ZM577.159,341.404C577.378,341.487 577.598,341.569 577.819,341.651L577.573,342.312C577.352,342.23 577.131,342.147 576.91,342.064L577.159,341.404ZM675.743,341.126L675.996,341.784C675.775,341.869 675.555,341.953 675.334,342.036L675.084,341.377C675.304,341.294 675.524,341.21 675.743,341.126ZM575.843,340.899C576.061,340.984 576.279,341.069 576.5,341.153L576.248,341.812C576.027,341.727 575.807,341.642 575.587,341.556L575.843,340.899ZM677.056,340.614L677.315,341.269C677.096,341.356 676.876,341.443 676.656,341.528L676.4,340.872C676.617,340.787 676.834,340.702 677.056,340.614ZM574.876,340.519L575.187,340.642L574.928,341.297C574.708,341.211 574.489,341.123 574.269,341.035L574.532,340.381L574.876,340.519ZM678.364,340.088L678.63,340.741C678.411,340.83 678.193,340.919 677.973,341.007L677.711,340.353L678.08,340.204L678.364,340.088ZM573.227,339.849C573.443,339.939 573.66,340.028 573.879,340.117L573.613,340.77C573.394,340.681 573.176,340.591 572.957,340.501L573.227,339.849ZM679.666,339.549L679.939,340.199C679.721,340.29 679.504,340.381 679.285,340.472L679.016,339.82C679.232,339.731 679.448,339.641 679.666,339.549ZM571.927,339.304C572.143,339.396 572.36,339.488 572.576,339.579L572.303,340.229C572.086,340.137 571.868,340.046 571.651,339.953L571.927,339.304ZM680.963,338.997L681.243,339.644C681.026,339.737 680.809,339.831 680.592,339.923L680.315,339.275C680.534,339.182 680.752,339.088 680.963,338.997ZM570.977,338.897L571.279,339.027L571,339.674C570.783,339.581 570.566,339.487 570.35,339.392L570.633,338.746L570.977,338.897ZM682.254,338.431L682.54,339.075C682.325,339.171 682.109,339.267 681.892,339.361L681.609,338.716L681.967,338.558L682.254,338.431ZM569.344,338.175C569.559,338.272 569.774,338.368 569.988,338.462L569.702,339.107C569.486,339.011 569.27,338.915 569.055,338.818L569.344,338.175ZM683.539,337.853L683.832,338.494C683.617,338.592 683.402,338.689 683.187,338.786L682.898,338.143C683.11,338.048 683.322,337.952 683.539,337.853ZM568.061,337.59C568.275,337.689 568.489,337.787 568.702,337.884L568.41,338.526C568.195,338.428 567.98,338.329 567.766,338.23L568.061,337.59ZM684.819,337.261L685.118,337.899C684.904,337.999 684.69,338.099 684.476,338.198L684.18,337.558C684.394,337.459 684.607,337.36 684.819,337.261ZM567.139,337.16L567.422,337.293L567.124,337.932C566.91,337.831 566.696,337.731 566.483,337.629L566.785,336.993L567.139,337.16ZM686.092,336.656L686.398,337.291C686.185,337.393 685.972,337.495 685.759,337.597L685.456,336.96L685.793,336.799L686.092,336.656ZM565.514,336.382C565.725,336.484 565.936,336.586 566.149,336.689L565.844,337.324C565.631,337.222 565.418,337.119 565.206,337.016L565.514,336.382ZM687.359,336.038L687.671,336.67C687.459,336.775 687.247,336.879 687.035,336.982L686.726,336.348C686.938,336.245 687.151,336.141 687.359,336.038ZM564.25,335.758C564.461,335.864 564.672,335.968 564.881,336.072L564.57,336.704C564.358,336.599 564.146,336.494 563.935,336.389L564.25,335.758ZM688.619,335.407L688.938,336.036C688.727,336.143 688.517,336.249 688.305,336.355L687.99,335.724C688.199,335.62 688.408,335.514 688.619,335.407ZM563.364,335.312L563.621,335.442L563.303,336.071C563.092,335.964 562.881,335.857 562.671,335.749L562.993,335.122L563.364,335.312ZM689.873,334.764L690.198,335.389C689.989,335.498 689.779,335.606 689.569,335.714L689.247,335.087L689.555,334.929L689.873,334.764ZM561.742,334.473C561.949,334.582 562.157,334.691 562.366,334.799L562.042,335.425C561.832,335.316 561.623,335.207 561.414,335.097L561.742,334.473ZM691.121,334.107L691.452,334.73C691.244,334.841 691.035,334.951 690.826,335.061L690.498,334.437C690.705,334.328 690.912,334.218 691.121,334.107ZM560.76,333.952L561.119,334.144L560.788,334.766C560.579,334.655 560.371,334.543 560.163,334.431L560.497,333.811L560.76,333.952ZM692.361,333.438L692.699,334.057C692.492,334.17 692.284,334.283 692.077,334.395L691.742,333.775C691.951,333.662 692.159,333.549 692.361,333.438ZM559.259,333.136C559.466,333.25 559.672,333.363 559.877,333.475L559.54,334.094C559.333,333.981 559.126,333.867 558.919,333.753L559.259,333.136ZM693.595,332.757L693.939,333.372C693.733,333.487 693.527,333.602 693.32,333.716L692.979,333.099L693.252,332.948L693.595,332.757ZM558.029,332.449C558.234,332.565 558.439,332.68 558.643,332.794L558.3,333.41C558.093,333.294 557.888,333.179 557.682,333.063L558.029,332.449ZM694.822,332.063L695.172,332.675C694.967,332.792 694.762,332.909 694.557,333.025L694.21,332.411C694.416,332.295 694.622,332.177 694.822,332.063ZM557.097,331.918L557.416,332.101L557.066,332.713C556.861,332.596 556.657,332.478 556.452,332.36L556.805,331.749L557.097,331.918ZM696.042,331.356L696.398,331.964C696.195,332.084 695.99,332.203 695.786,332.321L695.433,331.711C695.636,331.594 695.838,331.476 696.042,331.356ZM555.589,331.037C555.791,331.157 555.994,331.277 556.196,331.395L555.84,332.003C555.636,331.884 555.433,331.764 555.229,331.644L555.589,331.037ZM697.254,330.637L697.617,331.242C697.414,331.363 697.212,331.484 697.008,331.605L696.649,330.998C696.853,330.878 697.056,330.756 697.254,330.637ZM554.379,330.313C554.58,330.435 554.781,330.556 554.983,330.677L554.621,331.281C554.418,331.16 554.216,331.038 554.014,330.916L554.379,330.313ZM698.459,329.906L698.828,330.507C698.627,330.63 698.425,330.753 698.223,330.876L697.858,330.273C698.058,330.152 698.258,330.03 698.459,329.906ZM553.503,329.777L553.778,329.946L553.409,330.547C553.208,330.424 553.007,330.3 552.806,330.175L553.178,329.576L553.503,329.777ZM699.657,329.163L700.032,329.76C699.832,329.885 699.631,330.01 699.431,330.135L699.059,329.536L699.38,329.337L699.657,329.163ZM551.983,328.827C552.183,328.954 552.383,329.08 552.58,329.203L552.205,329.801C552.005,329.675 551.805,329.549 551.606,329.423L551.983,328.827ZM700.847,328.407L701.228,329C701.029,329.128 700.83,329.255 700.631,329.382L700.253,328.787C700.451,328.661 700.648,328.535 700.847,328.407ZM550.797,328.067C550.994,328.195 551.192,328.322 551.389,328.449L551.009,329.042C550.81,328.914 550.611,328.786 550.413,328.658L550.797,328.067ZM702.029,327.64L702.416,328.229C702.219,328.359 702.021,328.488 701.823,328.616L701.439,328.025C701.637,327.896 701.835,327.767 702.029,327.64ZM549.618,327.294C549.813,327.423 550.009,327.552 550.207,327.682L549.82,328.271C549.623,328.142 549.425,328.012 549.229,327.881L549.618,327.294ZM703.204,326.86L703.596,327.446C703.4,327.577 703.204,327.708 703.007,327.839L702.617,327.251L702.888,327.071L703.204,326.86ZM548.447,326.509C548.642,326.641 548.838,326.773 549.032,326.903L548.639,327.488C548.443,327.357 548.247,327.225 548.052,327.093L548.447,326.509ZM704.37,326.069L704.769,326.65C704.574,326.784 704.379,326.917 704.184,327.049L703.788,326.466C703.983,326.334 704.177,326.201 704.37,326.069ZM547.556,325.9L547.865,326.112L547.467,326.694C547.272,326.56 547.077,326.426 546.883,326.292L547.284,325.712L547.556,325.9ZM705.528,325.266L705.933,325.843C705.74,325.979 705.546,326.114 705.352,326.248L704.95,325.669C705.142,325.536 705.333,325.403 705.528,325.266ZM546.13,324.904C546.322,325.04 546.514,325.175 546.706,325.31L546.302,325.887C546.108,325.752 545.915,325.616 545.723,325.479L546.13,324.904ZM706.679,324.451L707.089,325.024C706.897,325.162 706.705,325.299 706.512,325.435L706.104,324.86C706.296,324.724 706.487,324.588 706.679,324.451ZM544.983,324.084C545.173,324.221 545.362,324.357 545.555,324.496L545.145,325.069C544.953,324.931 544.762,324.794 544.57,324.655L544.983,324.084ZM707.82,323.624L708.237,324.193C708.046,324.333 707.855,324.472 707.664,324.61L707.25,324.039C707.442,323.901 707.633,323.762 707.82,323.624ZM544.159,323.483L544.413,323.67L543.997,324.239C543.807,324.1 543.616,323.96 543.426,323.819L543.845,323.253L544.159,323.483ZM708.954,322.787L709.376,323.351C709.187,323.493 708.997,323.633 708.807,323.774L708.388,323.207L708.684,322.988L708.954,322.787ZM542.716,322.409C542.904,322.551 543.092,322.693 543.279,322.832L542.858,323.397C542.669,323.256 542.48,323.114 542.291,322.972L542.716,322.409ZM710.079,321.937L710.506,322.498C710.319,322.641 710.13,322.784 709.942,322.926L709.517,322.363C709.705,322.222 709.892,322.079 710.079,321.937ZM541.826,321.733L542.154,321.984L541.727,322.544C541.539,322.401 541.351,322.258 541.164,322.113L541.595,321.555L541.826,321.733ZM711.195,321.076L711.628,321.633C711.442,321.778 711.255,321.922 711.068,322.066L710.638,321.508C710.825,321.364 711.012,321.219 711.195,321.076ZM540.482,320.689C540.666,320.834 540.85,320.978 541.037,321.124L540.604,321.68C540.418,321.535 540.232,321.389 540.046,321.243L540.482,320.689ZM712.302,320.205L712.741,320.756C712.556,320.903 712.371,321.05 712.186,321.196L711.75,320.642L711.989,320.453L712.302,320.205ZM539.379,319.812C539.561,319.959 539.745,320.105 539.929,320.252L539.491,320.804C539.306,320.657 539.121,320.51 538.937,320.362L539.379,319.812ZM713.401,319.321L713.845,319.869C713.662,320.017 713.478,320.166 713.294,320.314L712.853,319.764C713.036,319.617 713.219,319.469 713.401,319.321ZM538.559,319.15L538.83,319.37L538.386,319.917C538.203,319.768 538.02,319.619 537.837,319.469L538.284,318.924L538.559,319.15ZM714.491,318.427L714.94,318.97C714.759,319.121 714.577,319.271 714.394,319.421L713.947,318.876L714.256,318.621L714.491,318.427ZM537.199,318.025C537.379,318.176 537.56,318.327 537.74,318.476L537.291,319.019C537.109,318.869 536.927,318.717 536.746,318.566L537.199,318.025ZM715.571,317.522L716.026,318.06C715.846,318.213 715.666,318.365 715.485,318.517L715.032,317.976C715.211,317.826 715.39,317.676 715.571,317.522ZM536.122,317.115C536.301,317.268 536.481,317.421 536.659,317.572L536.204,318.11C536.024,317.958 535.844,317.805 535.664,317.651L536.122,317.115ZM716.642,316.606L717.103,317.14C716.924,317.294 716.745,317.448 716.566,317.601L716.108,317.066C716.286,316.913 716.464,316.76 716.642,316.606ZM535.055,316.195C535.233,316.35 535.411,316.504 535.587,316.656L535.127,317.19C534.948,317.036 534.77,316.881 534.592,316.726L535.055,316.195ZM717.704,315.68L718.17,316.208C717.993,316.365 717.816,316.52 717.638,316.675L717.174,316.144L717.426,315.925L717.704,315.68ZM533.997,315.263C534.174,315.42 534.35,315.576 534.525,315.73L534.059,316.259C533.882,316.103 533.705,315.947 533.529,315.79L533.997,315.263ZM718.757,314.742L719.228,315.266C719.053,315.424 718.877,315.582 718.701,315.739L718.232,315.212C718.409,315.055 718.585,314.897 718.757,314.742ZM533.192,314.542L533.472,314.793L533.001,315.318C532.825,315.16 532.65,315.002 532.475,314.843L532.949,314.321L533.192,314.542ZM719.8,313.794L720.277,314.313C720.103,314.473 719.928,314.632 719.754,314.791L719.28,314.27C719.453,314.112 719.625,313.955 719.8,313.794ZM531.91,313.368C532.083,313.529 532.257,313.689 532.428,313.846L531.952,314.365C531.778,314.206 531.604,314.046 531.431,313.885L531.91,313.368ZM720.834,312.836L721.315,313.35C721.143,313.512 720.97,313.672 720.797,313.833L720.318,313.316C720.49,313.157 720.662,312.997 720.834,312.836ZM530.881,312.405C531.052,312.567 531.224,312.729 531.394,312.888L530.912,313.403C530.74,313.241 530.568,313.08 530.397,312.917L530.881,312.405ZM721.857,311.867L722.344,312.376C722.174,312.539 722.003,312.702 721.831,312.864L721.347,312.353C721.518,312.191 721.688,312.029 721.857,311.867ZM530.148,311.707L530.37,311.92L529.883,312.43C529.712,312.266 529.542,312.103 529.372,311.939L529.861,311.432L530.148,311.707ZM722.871,310.888L723.363,311.392C723.194,311.557 723.025,311.722 722.855,311.886L722.366,311.379L722.623,311.13L722.871,310.888ZM528.852,310.448C529.02,310.613 529.188,310.778 529.355,310.941L528.863,311.446C528.694,311.281 528.526,311.116 528.357,310.95L528.852,310.448ZM723.875,309.898L724.373,310.398C724.205,310.564 724.037,310.731 723.869,310.896L723.375,310.394C723.543,310.228 723.711,310.062 723.875,309.898ZM528.068,309.67L528.351,309.952L527.854,310.452C527.686,310.286 527.519,310.119 527.353,309.951L527.852,309.454L528.068,309.67ZM724.869,308.899L725.371,309.394C725.206,309.562 725.04,309.73 724.873,309.897L724.373,309.4C724.538,309.235 724.702,309.069 724.869,308.899ZM526.863,308.45C527.026,308.618 527.191,308.785 527.356,308.953L526.854,309.448C526.689,309.28 526.523,309.112 526.358,308.943L526.863,308.45ZM725.853,307.89L726.36,308.379C726.196,308.549 726.032,308.719 725.867,308.888L725.362,308.396C725.525,308.228 725.688,308.06 725.853,307.89ZM525.884,307.436C526.045,307.605 526.207,307.774 526.372,307.945L525.865,308.434C525.701,308.264 525.537,308.094 525.374,307.924L525.884,307.436ZM726.826,306.87L727.339,307.355C727.176,307.526 727.014,307.697 726.851,307.868L726.341,307.381C726.503,307.212 726.664,307.042 726.826,306.87ZM525.171,306.686L525.398,306.926L524.886,307.41C524.723,307.239 524.562,307.067 524.4,306.895L524.914,306.413L525.171,306.686ZM727.79,305.841L728.307,306.321C728.146,306.494 727.985,306.666 727.824,306.839L727.309,306.357L727.569,306.079L727.79,305.841ZM523.956,305.379C524.116,305.553 524.276,305.727 524.434,305.897L523.917,306.377C523.756,306.204 523.596,306.03 523.437,305.856L523.956,305.379ZM728.743,304.803L729.264,305.277C729.106,305.451 728.947,305.626 728.787,305.8L728.267,305.323C728.426,305.15 728.584,304.977 728.743,304.803ZM523.008,304.336C523.165,304.511 523.323,304.686 523.48,304.859L522.959,305.333C522.8,305.159 522.642,304.983 522.484,304.808L523.008,304.336ZM729.685,303.754L730.212,304.223C730.055,304.399 729.897,304.575 729.739,304.751L729.215,304.28C729.372,304.105 729.528,303.931 729.685,303.754ZM522.07,303.284C522.225,303.46 522.381,303.635 522.538,303.811L522.011,304.28C521.854,304.104 521.698,303.927 521.541,303.75L522.07,303.284ZM730.617,302.697L731.148,303.16C730.993,303.338 730.837,303.515 730.681,303.692L730.152,303.227L730.358,302.992L730.617,302.697ZM521.143,302.222C521.296,302.398 521.449,302.575 521.605,302.754L521.074,303.218C520.919,303.04 520.764,302.861 520.61,302.683L521.143,302.222ZM731.538,301.629L732.074,302.087C731.92,302.267 731.766,302.446 731.612,302.625L731.078,302.164C731.231,301.987 731.384,301.809 731.538,301.629ZM520.453,301.418L520.684,301.687L520.148,302.146C519.995,301.966 519.842,301.786 519.689,301.606L520.227,301.151L520.453,301.418ZM732.448,300.553L732.988,301.005C732.837,301.186 732.685,301.367 732.532,301.547L731.994,301.092L732.256,300.782L732.448,300.553ZM519.322,300.07C519.472,300.251 519.623,300.432 519.773,300.612L519.233,301.064C519.081,300.883 518.93,300.702 518.779,300.52L519.322,300.07ZM733.347,299.467L733.892,299.914C733.742,300.097 733.592,300.279 733.442,300.461L732.899,300.011C733.048,299.831 733.197,299.651 733.347,299.467ZM518.428,298.981C518.575,299.162 518.723,299.344 518.873,299.527L518.329,299.974C518.179,299.791 518.029,299.609 517.881,299.425L518.428,298.981ZM734.235,298.373L734.785,298.814C734.637,298.998 734.489,299.182 734.34,299.365L733.793,298.921C733.941,298.738 734.09,298.554 734.235,298.373ZM517.804,298.207L517.985,298.433L517.435,298.874C517.287,298.69 517.14,298.506 516.993,298.321L517.544,297.882L517.804,298.207ZM735.112,297.269L735.666,297.705C735.52,297.891 735.374,298.076 735.227,298.261L734.675,297.822L734.887,297.556L735.112,297.269ZM516.672,296.775C516.817,296.961 516.962,297.146 517.107,297.33L516.553,297.766C516.407,297.58 516.261,297.394 516.116,297.208L516.672,296.775ZM735.978,296.157L736.537,296.587C736.392,296.774 736.248,296.961 736.103,297.147L735.547,296.714C735.691,296.529 735.835,296.343 735.978,296.157ZM516.006,295.913L516.24,296.218L515.682,296.648C515.538,296.462 515.394,296.274 515.251,296.087L515.812,295.659L516.006,295.913ZM736.833,295.036L737.395,295.461C737.253,295.649 737.111,295.837 736.967,296.025L736.407,295.598C736.549,295.411 736.691,295.225 736.833,295.036ZM514.962,294.534C515.104,294.724 515.246,294.913 515.385,295.098L514.823,295.522C514.681,295.334 514.539,295.145 514.397,294.956L514.962,294.534ZM737.676,293.907L738.243,294.325C738.103,294.515 737.962,294.705 737.821,294.894L737.256,294.473C737.395,294.285 737.535,294.098 737.676,293.907ZM514.124,293.401C514.263,293.59 514.402,293.78 514.542,293.969L513.975,294.388C513.834,294.198 513.695,294.008 513.555,293.817L514.124,293.401ZM738.508,292.769L739.079,293.182C738.94,293.373 738.802,293.564 738.662,293.755L738.093,293.339C738.232,293.149 738.371,292.958 738.508,292.769ZM513.519,292.568L513.709,292.831L513.138,293.244C513,293.053 512.862,292.861 512.724,292.669L513.297,292.259L513.519,292.568ZM739.328,291.623L739.903,292.03C739.767,292.223 739.63,292.415 739.492,292.607L738.919,292.197L739.138,291.89L739.328,291.623ZM512.482,291.109C512.618,291.302 512.754,291.495 512.888,291.685L512.313,292.093C512.177,291.9 512.041,291.707 511.905,291.514L512.482,291.109ZM740.136,290.468L740.715,290.869C740.581,291.064 740.446,291.257 740.311,291.451L739.733,291.046C739.869,290.853 740.004,290.659 740.136,290.468ZM511.679,289.951C511.812,290.144 511.944,290.337 512.079,290.531L511.5,290.933C511.366,290.739 511.231,290.544 511.098,290.35L511.679,289.951ZM740.933,289.305L741.516,289.701C741.384,289.896 741.251,290.091 741.117,290.286L740.536,289.888C740.669,289.694 740.801,289.5 740.933,289.305ZM510.888,288.784C511.019,288.981 511.152,289.177 511.282,289.369L510.699,289.764C510.566,289.569 510.434,289.373 510.302,289.177L510.888,288.784ZM741.718,288.134L742.305,288.524C742.175,288.721 742.044,288.917 741.912,289.113L741.327,288.721L741.505,288.455L741.718,288.134ZM510.108,287.61C510.237,287.806 510.366,288.002 510.496,288.198L509.909,288.588C509.779,288.391 509.648,288.194 509.519,287.997L510.108,287.61ZM742.491,286.956L743.082,287.339C742.954,287.537 742.825,287.735 742.695,287.933L742.106,287.546C742.235,287.35 742.363,287.153 742.491,286.956ZM509.521,286.709L509.723,287.02L509.131,287.404C509.003,287.206 508.875,287.008 508.747,286.809L509.34,286.428L509.521,286.709ZM743.252,285.769L743.847,286.147C743.721,286.346 743.594,286.545 743.466,286.744L742.873,286.363C743,286.165 743.127,285.966 743.252,285.769ZM508.585,285.238C508.71,285.437 508.835,285.636 508.961,285.834L508.366,286.212C508.239,286.013 508.113,285.813 507.988,285.613L508.585,285.238ZM744.001,284.575L744.6,284.947C744.475,285.147 744.35,285.348 744.225,285.548L743.628,285.173C743.752,284.975 743.876,284.776 744.001,284.575ZM507.841,284.04C507.963,284.239 508.086,284.438 508.211,284.64L507.613,285.012C507.488,284.811 507.364,284.611 507.24,284.409L507.841,284.04ZM744.737,283.374L745.34,283.739C745.218,283.941 745.095,284.143 744.972,284.344L744.371,283.975C744.493,283.775 744.616,283.575 744.737,283.374ZM507.308,283.165L507.474,283.439L506.871,283.805C506.749,283.603 506.627,283.401 506.505,283.198L507.11,282.836L507.308,283.165ZM745.462,282.164L746.069,282.524C745.948,282.727 745.827,282.93 745.706,283.132L745.101,282.77L745.294,282.447L745.462,282.164ZM506.391,281.623C506.509,281.825 506.627,282.025 506.749,282.23L506.142,282.59C506.022,282.387 505.902,282.184 505.783,281.98L506.391,281.623ZM746.174,280.948L746.784,281.301C746.666,281.506 746.547,281.71 746.428,281.913L745.82,281.557C745.939,281.354 746.057,281.151 746.174,280.948ZM505.684,280.404C505.801,280.608 505.919,280.812 506.036,281.014L505.426,281.368C505.308,281.163 505.19,280.959 505.072,280.754L505.684,280.404ZM746.874,279.725L747.488,280.071C747.372,280.277 747.255,280.482 747.138,280.687L746.526,280.337C746.643,280.133 746.759,279.928 746.874,279.725ZM504.99,279.177C505.104,279.381 505.218,279.584 505.335,279.791L504.722,280.138C504.606,279.933 504.49,279.727 504.375,279.521L504.99,279.177ZM747.561,278.494L748.179,278.834C748.064,279.041 747.95,279.248 747.835,279.454L747.219,279.11L747.382,278.818L747.561,278.494ZM504.308,277.943C504.421,278.15 504.535,278.357 504.647,278.561L504.031,278.902C503.916,278.695 503.803,278.488 503.689,278.281L504.308,277.943ZM748.236,277.256L748.857,277.591C748.745,277.799 748.632,278.006 748.519,278.213L747.9,277.876C748.013,277.669 748.125,277.462 748.236,277.256ZM503.786,276.978L503.972,277.324L503.352,277.658C503.24,277.451 503.128,277.243 503.017,277.034L503.639,276.703L503.786,276.978ZM748.898,276.012L749.522,276.34C749.412,276.549 749.302,276.758 749.191,276.966L748.569,276.635C748.679,276.428 748.789,276.22 748.898,276.012ZM502.983,275.455C503.091,275.664 503.2,275.873 503.309,276.08L502.685,276.408C502.575,276.199 502.466,275.99 502.357,275.78L502.983,275.455ZM749.548,274.761L750.175,275.083C750.067,275.293 749.959,275.503 749.85,275.712L749.224,275.388L749.362,275.122L749.548,274.761ZM502.339,274.201C502.444,274.409 502.55,274.616 502.659,274.829L502.032,275.151C501.924,274.941 501.817,274.731 501.71,274.52L502.339,274.201ZM750.184,273.503L750.815,273.819C750.709,274.03 750.603,274.241 750.496,274.451L749.867,274.133C749.974,273.923 750.08,273.712 750.184,273.503ZM501.86,273.249L502.022,273.572L501.392,273.887C501.286,273.676 501.181,273.465 501.076,273.253L501.708,272.941L501.86,273.249ZM750.808,272.239L751.442,272.548C751.338,272.76 751.234,272.972 751.13,273.184L750.498,272.872C750.602,272.662 750.705,272.451 750.808,272.239ZM501.09,271.674C501.193,271.888 501.297,272.102 501.397,272.308L500.764,272.617C500.66,272.405 500.557,272.193 500.455,271.98L501.09,271.674ZM751.419,270.969L752.056,271.271C751.954,271.485 751.853,271.698 751.75,271.91L751.115,271.605C751.217,271.393 751.319,271.18 751.419,270.969ZM500.485,270.401C500.585,270.613 500.685,270.825 500.786,271.038L500.149,271.341C500.048,271.128 499.947,270.914 499.847,270.7L500.485,270.401ZM752.016,269.693L752.656,269.988C752.557,270.203 752.458,270.417 752.358,270.63L751.719,270.332C751.819,270.119 751.917,269.907 752.016,269.693ZM500.045,269.454L500.187,269.762L499.548,270.058C499.449,269.844 499.35,269.63 499.252,269.415L499.893,269.122L500.045,269.454ZM752.601,268.41L753.244,268.699C753.147,268.915 753.05,269.13 752.952,269.345L752.311,269.052L752.476,268.688L752.601,268.41ZM499.314,267.837C499.409,268.05 499.505,268.264 499.602,268.48L498.959,268.77C498.862,268.554 498.766,268.339 498.67,268.123L499.314,267.837ZM753.173,267.122L753.819,267.404C753.724,267.62 753.629,267.837 753.533,268.052L752.889,267.767C752.984,267.552 753.079,267.337 753.173,267.122ZM498.749,266.546C498.842,266.762 498.936,266.979 499.03,267.192L498.384,267.475C498.289,267.259 498.195,267.042 498.101,266.825L498.749,266.546ZM753.731,265.827L754.38,266.103C754.287,266.321 754.194,266.538 754.101,266.755L753.454,266.475C753.547,266.26 753.639,266.044 753.731,265.827ZM498.343,265.598L498.471,265.898L497.822,266.174C497.73,265.957 497.638,265.74 497.546,265.522L498.196,265.249L498.343,265.598ZM754.276,264.527L754.928,264.797C754.838,265.015 754.747,265.233 754.656,265.451L754.006,265.178L754.156,264.819L754.276,264.527ZM497.657,263.947C497.746,264.164 497.835,264.382 497.925,264.599L497.273,264.868C497.183,264.65 497.093,264.432 497.004,264.213L497.657,263.947ZM754.808,263.222L755.462,263.485C755.374,263.704 755.286,263.923 755.197,264.141L754.544,263.875C754.633,263.658 754.721,263.44 754.808,263.222ZM497.131,262.639C497.218,262.86 497.306,263.08 497.392,263.294L496.738,263.557C496.65,263.337 496.563,263.118 496.476,262.899L497.131,262.639ZM755.327,261.911L755.984,262.167C755.898,262.387 755.812,262.607 755.725,262.826L755.069,262.567C755.156,262.348 755.242,262.129 755.327,261.911ZM496.755,261.681L496.873,261.983L496.216,262.239C496.131,262.019 496.045,261.799 495.961,261.579L496.619,261.326L496.755,261.681ZM755.832,260.595L756.491,260.844C756.408,261.065 756.324,261.286 756.239,261.506L755.581,261.254L755.72,260.891L755.832,260.595ZM496.12,260.008C496.202,260.229 496.285,260.45 496.367,260.668L495.708,260.917C495.625,260.696 495.542,260.475 495.459,260.254L496.12,260.008ZM756.323,259.274L756.985,259.516C756.904,259.738 756.822,259.96 756.74,260.181L756.079,259.935C756.161,259.716 756.242,259.496 756.323,259.274ZM495.634,258.684C495.713,258.903 495.793,259.122 495.875,259.347L495.213,259.59C495.132,259.368 495.051,259.146 494.971,258.924L495.634,258.684ZM756.801,257.948L757.465,258.184C757.386,258.406 757.307,258.629 757.227,258.851L756.564,258.612C756.644,258.39 756.723,258.169 756.801,257.948ZM495.285,257.706L495.397,258.021L494.732,258.257C494.653,258.034 494.575,257.812 494.497,257.589L495.162,257.356L495.285,257.706ZM757.265,256.617L757.932,256.846C757.855,257.07 757.778,257.293 757.7,257.516L757.035,257.284L757.167,256.904L757.265,256.617ZM494.704,256.023C494.78,256.248 494.857,256.472 494.932,256.69L494.265,256.919C494.188,256.696 494.112,256.473 494.036,256.249L494.704,256.023ZM757.716,255.282L758.385,255.504C758.311,255.728 758.236,255.952 758.16,256.175L757.492,255.95C757.567,255.727 757.642,255.505 757.716,255.282ZM494.26,254.686C494.332,254.908 494.405,255.129 494.48,255.355L493.811,255.577C493.737,255.353 493.663,255.129 493.59,254.904L494.26,254.686ZM758.153,253.942L758.824,254.157C758.752,254.382 758.679,254.606 758.606,254.831L757.936,254.612C758.009,254.389 758.081,254.165 758.153,253.942ZM493.934,253.675L494.042,254.015L493.371,254.231C493.299,254.006 493.228,253.781 493.157,253.556L493.829,253.344L493.934,253.675ZM758.576,252.597L759.25,252.805C759.18,253.031 759.109,253.256 759.039,253.481L758.366,253.27C758.437,253.045 758.507,252.82 758.576,252.597ZM493.412,251.997C493.481,252.225 493.551,252.452 493.619,252.671L492.945,252.879C492.875,252.654 492.806,252.428 492.737,252.202L493.412,251.997ZM758.985,251.248L759.661,251.449C759.594,251.676 759.526,251.902 759.457,252.128L758.782,251.923L758.868,251.639L758.985,251.248ZM493.009,250.646C493.074,250.871 493.141,251.095 493.208,251.322L492.533,251.524C492.466,251.298 492.399,251.071 492.332,250.845L493.009,250.646ZM759.381,249.895L760.058,250.089C759.993,250.316 759.928,250.543 759.862,250.77L759.185,250.572C759.251,250.347 759.316,250.122 759.381,249.895ZM492.704,249.59L492.812,249.97L492.135,250.164C492.07,249.937 492.005,249.71 491.941,249.483L492.619,249.292L492.704,249.59ZM759.762,248.538L760.442,248.726C760.379,248.953 760.316,249.181 760.252,249.408L759.574,249.217C759.637,248.991 759.7,248.765 759.762,248.538ZM492.244,247.933C492.304,248.157 492.366,248.381 492.43,248.613L491.75,248.801C491.688,248.573 491.625,248.345 491.564,248.117L492.244,247.933ZM760.13,247.178L760.812,247.358C760.751,247.586 760.69,247.814 760.629,248.042L759.948,247.858L760.037,247.528L760.13,247.178ZM491.882,246.571C491.941,246.797 492.001,247.024 492.061,247.252L491.38,247.433C491.32,247.205 491.26,246.977 491.2,246.748L491.882,246.571ZM760.484,245.813L761.167,245.986C761.109,246.215 761.05,246.444 760.991,246.673L760.309,246.496C760.368,246.268 760.426,246.041 760.484,245.813ZM491.535,245.205C491.592,245.434 491.65,245.663 491.707,245.888L491.024,246.062C490.966,245.833 490.908,245.604 490.851,245.375L491.535,245.205ZM760.824,244.445L761.509,244.612C761.453,244.841 761.396,245.07 761.34,245.3L760.655,245.13C760.712,244.902 760.768,244.675 760.824,244.445ZM491.289,244.203L491.366,244.52L490.682,244.687C490.626,244.458 490.57,244.228 490.516,243.998L491.201,243.835L491.289,244.203ZM761.149,243.074L761.836,243.233C761.782,243.463 761.729,243.693 761.674,243.923L760.988,243.76L761.081,243.367L761.149,243.074ZM490.882,242.462C490.934,242.691 490.986,242.919 491.04,243.149L490.353,243.309C490.3,243.079 490.247,242.849 490.195,242.619L490.882,242.462ZM761.461,241.699L762.149,241.852C762.098,242.082 762.046,242.313 761.994,242.543L761.307,242.387L761.37,242.109L761.461,241.699ZM490.577,241.086C490.627,241.317 490.677,241.548 490.728,241.775L490.04,241.927C489.988,241.697 489.938,241.466 489.888,241.235L490.577,241.086ZM761.758,240.322L762.448,240.467C762.399,240.698 762.35,240.929 762.3,241.16L761.611,241.011C761.661,240.782 761.71,240.552 761.758,240.322ZM490.346,240.002L490.429,240.397L489.74,240.543C489.691,240.312 489.643,240.081 489.595,239.849L490.286,239.707L490.346,240.002ZM762.042,238.941L762.733,239.079C762.687,239.311 762.64,239.542 762.592,239.773L761.902,239.632C761.949,239.402 761.996,239.172 762.042,238.941ZM490.088,238.733L490.145,239.016L489.454,239.155C489.408,238.924 489.362,238.692 489.317,238.46L490.008,238.325L490.088,238.733ZM762.311,237.558L763.004,237.689C762.96,237.921 762.915,238.153 762.87,238.384L762.178,238.25L762.249,237.884L762.311,237.558ZM489.745,236.94C489.788,237.172 489.832,237.404 489.875,237.633L489.183,237.765C489.139,237.533 489.095,237.301 489.052,237.068L489.745,236.94ZM762.566,236.171L763.26,236.295C763.218,236.528 763.176,236.76 763.134,236.992L762.44,236.865C762.483,236.634 762.525,236.403 762.566,236.171ZM489.497,235.553C489.537,235.787 489.579,236.022 489.619,236.247L488.925,236.371C488.884,236.139 488.843,235.906 488.802,235.674L489.497,235.553ZM762.807,234.783L763.502,234.9C763.463,235.132 763.423,235.365 763.383,235.598L762.688,235.477C762.728,235.246 762.768,235.015 762.807,234.783ZM489.313,234.472L489.377,234.858L488.682,234.976C488.643,234.743 488.604,234.51 488.566,234.277L489.262,234.163L489.313,234.472ZM763.034,233.391L763.73,233.501C763.693,233.734 763.656,233.968 763.618,234.201L762.922,234.087C762.96,233.856 762.997,233.624 763.034,233.391ZM489.105,233.185L489.15,233.467L488.454,233.577C488.417,233.344 488.381,233.111 488.345,232.877L489.042,232.771L489.105,233.185ZM763.246,231.998L763.944,232.101C763.909,232.334 763.874,232.568 763.839,232.801L763.142,232.695L763.198,232.325L763.246,231.998ZM488.835,231.376C488.869,231.612 488.903,231.847 488.937,232.074L488.239,232.177C488.205,231.944 488.171,231.71 488.138,231.476L488.835,231.376ZM763.445,230.602L764.143,230.698C764.111,230.932 764.078,231.166 764.045,231.399L763.347,231.3L763.385,231.031L763.445,230.602ZM488.643,229.98C488.674,230.211 488.705,230.441 488.738,230.678L488.039,230.774C488.007,230.541 487.976,230.307 487.945,230.072L488.643,229.98ZM763.629,229.205L764.328,229.293C764.298,229.528 764.268,229.762 764.237,229.996L763.538,229.904C763.569,229.671 763.599,229.439 763.629,229.205ZM488.501,228.867L488.553,229.281L487.853,229.37C487.824,229.136 487.795,228.902 487.766,228.667L488.466,228.582L488.501,228.867ZM763.799,227.806L764.499,227.887C764.471,228.122 764.444,228.356 764.415,228.59L763.715,228.505C763.744,228.273 763.771,228.04 763.799,227.806ZM488.345,227.563L488.382,227.882L487.682,227.964C487.655,227.729 487.628,227.495 487.602,227.26L488.302,227.182L488.345,227.563ZM763.954,226.405L764.655,226.479C764.63,226.714 764.605,226.949 764.579,227.183L763.878,227.105L763.924,226.692L763.954,226.405ZM488.153,225.78C488.176,226.011 488.2,226.241 488.226,226.481L487.525,226.556C487.5,226.321 487.475,226.086 487.451,225.851L488.153,225.78ZM764.096,225.002L764.797,225.07C764.775,225.305 764.752,225.54 764.728,225.774L764.027,225.704L764.059,225.383L764.096,225.002ZM488.018,224.377C488.039,224.61 488.061,224.843 488.083,225.079L487.382,225.146C487.359,224.911 487.337,224.676 487.316,224.441L488.018,224.377ZM764.223,223.599L764.925,223.659C764.905,223.894 764.884,224.129 764.863,224.364L764.161,224.301C764.182,224.067 764.203,223.833 764.223,223.599ZM487.897,222.973C487.916,223.208 487.936,223.443 487.955,223.675L487.253,223.736C487.233,223.5 487.213,223.265 487.194,223.03L487.897,222.973ZM764.336,222.194L765.039,222.246C765.021,222.482 765.003,222.718 764.984,222.953L764.281,222.896C764.3,222.662 764.318,222.428 764.336,222.194ZM487.812,221.873L487.842,222.27L487.139,222.323C487.121,222.088 487.104,221.853 487.087,221.617L487.79,221.567L487.812,221.873ZM764.435,220.788L765.138,220.833C765.123,221.069 765.107,221.305 765.09,221.54L764.387,221.491C764.403,221.256 764.419,221.022 764.435,220.788ZM487.722,220.551L487.742,220.864L487.039,220.91C487.023,220.675 487.008,220.439 486.994,220.203L487.698,220.161L487.722,220.551ZM764.519,219.38L765.223,219.419C765.21,219.655 765.196,219.891 765.182,220.126L764.479,220.084L764.503,219.667L764.519,219.38ZM487.619,218.753C487.631,218.988 487.644,219.222 487.657,219.457L486.953,219.496C486.94,219.261 486.927,219.025 486.916,218.789L487.619,218.753ZM764.59,217.973L765.294,218.005C765.283,218.241 765.272,218.476 765.26,218.712L764.556,218.677L764.573,218.34L764.59,217.973ZM487.555,217.345C487.565,217.582 487.575,217.818 487.586,218.049L486.882,218.081C486.871,217.846 486.861,217.61 486.851,217.374L487.555,217.345ZM764.646,216.565L765.35,216.589C765.342,216.825 765.333,217.061 765.324,217.297L764.619,217.269L764.63,217.008L764.646,216.565ZM487.506,215.937C487.513,216.175 487.521,216.414 487.529,216.641L486.824,216.666C486.816,216.43 486.808,216.194 486.801,215.958L487.506,215.937ZM764.688,215.156L765.393,215.174C765.387,215.41 765.38,215.646 765.373,215.881L764.669,215.86C764.676,215.626 764.682,215.391 764.688,215.156ZM487.47,214.528C487.475,214.761 487.48,214.994 487.486,215.232L486.781,215.25C486.775,215.014 486.77,214.778 486.765,214.542L487.47,214.528ZM764.716,213.747L765.421,213.757C765.417,213.994 765.413,214.23 765.408,214.466L764.704,214.452C764.708,214.217 764.712,213.982 764.716,213.747ZM487.452,213.443L487.457,213.823L486.752,213.834C486.749,213.598 486.746,213.362 486.743,213.126L487.448,213.118L487.452,213.443ZM764.73,212.337L765.435,212.341C765.433,212.577 765.432,212.813 765.429,213.049L764.725,213.042C764.727,212.809 764.729,212.574 764.73,212.337ZM487.441,212.101L487.442,212.413L486.738,212.417C486.736,212.181 486.736,211.945 486.736,211.709L487.44,211.709L487.441,212.101ZM764.729,210.928L765.434,210.924C765.436,211.16 765.436,211.396 765.436,211.632L764.731,211.632L764.731,211.204L764.729,210.928ZM487.447,210.299C487.445,210.534 487.443,210.769 487.442,211.004L486.737,211.001C486.738,210.765 486.74,210.529 486.742,210.293L487.447,210.299ZM764.715,209.518L765.42,209.508C765.424,209.743 765.427,209.98 765.429,210.216L764.724,210.223L764.72,209.862L764.715,209.518ZM487.467,208.89C487.463,209.124 487.459,209.359 487.455,209.595L486.751,209.584C486.754,209.348 486.758,209.112 486.763,208.876L487.467,208.89ZM764.687,208.109L765.392,208.091C765.397,208.327 765.403,208.563 765.408,208.799L764.703,208.814L764.697,208.522L764.687,208.109ZM487.502,207.481C487.495,207.716 487.489,207.951 487.483,208.185L486.778,208.168C486.784,207.932 486.791,207.696 486.798,207.46L487.502,207.481ZM764.644,206.7L765.349,206.675C765.357,206.911 765.365,207.147 765.372,207.383L764.667,207.404C764.66,207.166 764.652,206.927 764.644,206.7ZM487.551,206.072C487.542,206.307 487.533,206.542 487.525,206.776L486.82,206.752C486.828,206.516 486.837,206.28 486.847,206.044L487.551,206.072ZM764.588,205.292L765.292,205.26C765.303,205.496 765.313,205.731 765.322,205.967L764.618,205.996C764.608,205.759 764.598,205.523 764.588,205.292ZM487.614,204.664L487.599,204.965L487.581,205.368L486.876,205.336C486.887,205.1 486.898,204.865 486.91,204.629L487.614,204.664ZM764.517,203.884L765.221,203.845C765.234,204.081 765.246,204.316 765.258,204.552L764.554,204.588C764.542,204.353 764.53,204.119 764.517,203.884ZM487.691,203.257L487.669,203.637L487.651,203.96L486.947,203.922C486.96,203.686 486.973,203.45 486.987,203.214L487.691,203.257ZM764.432,202.477L765.135,202.431C765.151,202.666 765.166,202.902 765.18,203.138L764.476,203.18L764.45,202.754L764.432,202.477ZM487.782,201.85C487.766,202.084 487.75,202.319 487.735,202.553L487.031,202.508C487.047,202.272 487.063,202.036 487.079,201.801L487.782,201.85ZM764.333,201.071L765.036,201.018C765.053,201.253 765.071,201.489 765.087,201.724L764.384,201.774L764.36,201.431L764.333,201.071ZM487.888,200.445C487.869,200.679 487.851,200.913 487.833,201.147L487.13,201.094C487.148,200.859 487.166,200.623 487.185,200.388L487.888,200.445ZM764.22,199.666L764.922,199.606C764.942,199.841 764.961,200.076 764.98,200.312L764.278,200.368C764.259,200.133 764.239,199.898 764.22,199.666ZM488.008,199.04C487.986,199.274 487.966,199.508 487.946,199.742L487.244,199.682C487.264,199.447 487.284,199.212 487.305,198.977L488.008,199.04ZM764.092,198.262L764.793,198.195C764.816,198.43 764.838,198.665 764.859,198.9L764.157,198.964C764.136,198.731 764.114,198.498 764.092,198.262ZM488.141,197.637L488.113,197.922L488.073,198.338L487.371,198.271C487.393,198.036 487.416,197.801 487.44,197.566L488.141,197.637ZM763.95,196.86L764.651,196.785C764.676,197.02 764.7,197.255 764.724,197.49L764.023,197.561C763.999,197.33 763.975,197.1 763.95,196.86ZM488.29,196.235L488.248,196.612L488.214,196.936L487.513,196.862C487.538,196.627 487.563,196.392 487.589,196.158L488.29,196.235ZM763.794,195.459L764.494,195.377C764.521,195.612 764.548,195.846 764.574,196.081L763.874,196.159L763.827,195.741L763.794,195.459ZM488.452,194.835C488.424,195.068 488.396,195.302 488.369,195.535L487.669,195.454C487.696,195.219 487.724,194.985 487.752,194.75L488.452,194.835ZM763.624,194.06L764.323,193.971C764.353,194.205 764.382,194.439 764.41,194.674L763.711,194.759L763.671,194.438L763.624,194.06ZM488.629,193.437C488.598,193.67 488.568,193.903 488.539,194.136L487.839,194.047C487.869,193.813 487.899,193.579 487.93,193.345L488.629,193.437ZM763.439,192.662L764.137,192.566C764.17,192.8 764.201,193.034 764.232,193.269L763.533,193.361C763.503,193.13 763.472,192.899 763.439,192.662ZM488.82,192.04C488.787,192.273 488.754,192.506 488.722,192.738L488.024,192.643C488.056,192.409 488.088,192.175 488.122,191.941L488.82,192.04ZM763.24,191.267L763.938,191.164C763.972,191.397 764.006,191.631 764.039,191.865L763.342,191.964C763.308,191.729 763.274,191.494 763.24,191.267ZM489.025,190.645L488.974,190.98L488.92,191.343L488.223,191.24C488.257,191.006 488.292,190.773 488.328,190.539L489.025,190.645ZM763.027,189.874L763.724,189.763C763.761,189.997 763.797,190.23 763.833,190.463L763.136,190.57C763.1,190.337 763.064,190.104 763.027,189.874ZM489.244,189.253C489.206,189.485 489.169,189.716 489.132,189.949L488.436,189.839C488.473,189.606 488.51,189.373 488.548,189.14L489.244,189.253ZM762.8,188.482L763.495,188.365C763.535,188.598 763.573,188.831 763.611,189.064L762.916,189.178L762.859,188.833L762.8,188.482ZM489.477,187.864C489.437,188.095 489.398,188.326 489.359,188.558L488.664,188.441C488.703,188.209 488.742,187.976 488.783,187.743L489.477,187.864ZM762.559,187.094L763.253,186.97C763.294,187.202 763.335,187.434 763.376,187.667L762.681,187.788C762.641,187.553 762.599,187.319 762.559,187.094ZM489.725,186.476C489.682,186.707 489.641,186.938 489.599,187.169L488.905,187.045C488.947,186.813 488.989,186.581 489.032,186.348L489.725,186.476ZM762.303,185.708L762.996,185.576C763.04,185.808 763.083,186.04 763.126,186.273L762.433,186.4C762.39,186.168 762.347,185.936 762.303,185.708ZM489.987,185.091L489.923,185.42L489.854,185.783L489.161,185.652C489.205,185.42 489.25,185.188 489.295,184.956L489.987,185.091ZM762.034,184.324L762.725,184.186C762.771,184.417 762.817,184.649 762.862,184.881L762.17,185.015C762.126,184.786 762.08,184.556 762.034,184.324ZM490.263,183.708C490.215,183.939 490.169,184.169 490.123,184.399L489.432,184.261C489.478,184.03 489.525,183.798 489.572,183.567L490.263,183.708ZM761.75,182.943L762.44,182.798C762.488,183.029 762.537,183.26 762.584,183.491L761.894,183.633L761.825,183.302L761.75,182.943ZM490.553,182.329C490.503,182.559 490.454,182.789 490.406,183.018L489.716,182.873C489.765,182.642 489.814,182.411 489.864,182.181L490.553,182.329ZM761.452,181.566L762.14,181.413C762.191,181.644 762.242,181.874 762.292,182.105L761.603,182.254C761.553,182.023 761.502,181.792 761.452,181.566ZM490.857,180.953C490.805,181.182 490.754,181.412 490.703,181.641L490.015,181.489C490.066,181.258 490.117,181.028 490.169,180.797L490.857,180.953ZM761.14,180.191L761.827,180.032C761.88,180.261 761.933,180.492 761.985,180.722L761.298,180.878C761.246,180.65 761.194,180.421 761.14,180.191ZM491.175,179.58L491.091,179.938L491.014,180.266L490.328,180.107C490.381,179.877 490.435,179.647 490.489,179.417L491.175,179.58ZM760.814,178.82L761.499,178.653C761.555,178.883 761.61,179.112 761.665,179.342L760.979,179.505L760.882,179.102L760.814,178.82ZM491.508,178.21C491.451,178.438 491.395,178.666 491.34,178.895L490.655,178.728C490.71,178.499 490.767,178.269 490.823,178.04L491.508,178.21ZM760.474,177.452L761.157,177.278C761.215,177.507 761.273,177.736 761.33,177.965L760.646,178.135L760.575,177.851L760.474,177.452ZM491.854,176.844C491.795,177.07 491.737,177.298 491.679,177.526L490.996,177.353C491.054,177.124 491.112,176.895 491.172,176.667L491.854,176.844ZM760.12,176.088L760.801,175.907C760.862,176.135 760.921,176.364 760.981,176.592L760.298,176.769C760.24,176.543 760.18,176.316 760.12,176.088ZM492.214,175.481L492.135,175.776L492.032,176.162L491.351,175.981C491.411,175.753 491.472,175.525 491.534,175.297L492.214,175.481ZM759.752,174.727L760.431,174.539C760.494,174.767 760.556,174.995 760.618,175.223L759.937,175.407C759.877,175.183 759.816,174.959 759.752,174.727ZM492.589,174.122C492.525,174.348 492.462,174.574 492.4,174.801L491.72,174.614C491.783,174.386 491.846,174.159 491.91,173.931L492.589,174.122ZM759.37,173.37L760.047,173.176C760.112,173.403 760.177,173.63 760.241,173.857L759.562,174.048L759.468,173.715L759.37,173.37ZM492.977,172.767C492.911,172.992 492.846,173.218 492.781,173.444L492.103,173.25C492.168,173.023 492.234,172.796 492.3,172.569L492.977,172.767ZM758.974,172.017L759.649,171.816C759.717,172.042 759.784,172.269 759.85,172.495L759.173,172.693C759.108,172.469 759.041,172.244 758.974,172.017ZM493.379,171.416C493.311,171.64 493.244,171.865 493.176,172.091L492.501,171.89C492.568,171.663 492.636,171.437 492.704,171.211L493.379,171.416ZM758.564,170.669L759.237,170.46C759.307,170.686 759.376,170.912 759.445,171.138L758.771,171.343C758.701,171.115 758.632,170.888 758.564,170.669ZM493.795,170.069L493.678,170.442L493.585,170.742L492.912,170.534C492.981,170.308 493.052,170.083 493.122,169.858L493.795,170.069ZM758.14,169.324L758.812,169.109C758.884,169.334 758.955,169.559 759.026,169.784L758.354,169.996L758.238,169.63L758.14,169.324ZM494.225,168.727C494.152,168.949 494.08,169.173 494.008,169.397L493.337,169.182C493.409,168.957 493.481,168.733 493.554,168.508L494.225,168.727ZM757.703,167.984L758.372,167.762C758.447,167.986 758.52,168.211 758.594,168.435L757.923,168.654C757.851,168.432 757.778,168.21 757.703,167.984ZM494.668,167.389C494.593,167.611 494.519,167.834 494.445,168.057L493.775,167.835C493.85,167.611 493.925,167.387 494,167.163L494.668,167.389ZM757.252,166.649L757.919,166.42C757.995,166.643 758.072,166.867 758.147,167.091L757.479,167.316C757.403,167.091 757.327,166.867 757.252,166.649ZM495.125,166.055L495.005,166.4L494.895,166.721L494.228,166.493C494.305,166.269 494.382,166.046 494.459,165.823L495.125,166.055ZM756.787,165.318L757.452,165.082C757.531,165.305 757.609,165.528 757.687,165.751L757.022,165.983L756.887,165.599L756.787,165.318ZM495.596,164.727C495.516,164.948 495.437,165.17 495.359,165.39L494.694,165.155C494.773,164.932 494.853,164.71 494.933,164.488L495.596,164.727ZM756.309,163.992L756.971,163.75C757.052,163.971 757.133,164.193 757.213,164.416L756.55,164.655C756.471,164.436 756.391,164.217 756.309,163.992ZM496.08,163.403C495.999,163.622 495.918,163.842 495.836,164.064L495.174,163.822C495.256,163.6 495.337,163.379 495.419,163.157L496.08,163.403ZM755.817,162.671L756.477,162.422C756.56,162.643 756.643,162.864 756.725,163.085L756.065,163.331C755.982,163.11 755.899,162.889 755.817,162.671ZM496.578,162.084L496.452,162.414L496.327,162.743L495.668,162.494C495.751,162.273 495.835,162.052 495.92,161.832L496.578,162.084ZM755.312,161.355L755.969,161.099C756.054,161.319 756.14,161.54 756.224,161.76L755.566,162.013L755.416,161.624L755.312,161.355ZM497.089,160.771C497.003,160.99 496.917,161.209 496.832,161.427L496.175,161.171C496.261,160.951 496.347,160.731 496.434,160.512L497.089,160.771ZM754.793,160.045L755.447,159.782C755.535,160.001 755.623,160.22 755.71,160.44L755.054,160.7C754.967,160.479 754.879,160.258 754.793,160.045ZM497.614,159.463C497.526,159.68 497.438,159.898 497.35,160.116L496.696,159.854C496.784,159.635 496.872,159.416 496.961,159.197L497.614,159.463ZM754.261,158.74L754.912,158.47C755.003,158.688 755.092,158.907 755.181,159.125L754.529,159.392C754.44,159.174 754.35,158.956 754.261,158.74ZM498.152,158.16L498.016,158.485L497.882,158.811L497.23,158.541C497.32,158.323 497.411,158.105 497.502,157.888L498.152,158.16ZM753.715,157.44L754.364,157.164C754.456,157.381 754.548,157.599 754.64,157.816L753.99,158.089L753.829,157.707L753.715,157.44ZM498.704,156.863C498.611,157.078 498.519,157.294 498.426,157.511L497.778,157.235C497.87,157.018 497.963,156.8 498.056,156.584L498.704,156.863ZM753.157,156.146L753.802,155.863C753.897,156.08 753.991,156.296 754.085,156.513L753.438,156.792C753.344,156.576 753.25,156.359 753.157,156.146ZM499.268,155.571C499.173,155.786 499.079,156 498.984,156.216L498.339,155.934C498.433,155.717 498.528,155.501 498.624,155.286L499.268,155.571ZM752.585,154.858L753.227,154.568C753.324,154.784 753.421,154.999 753.517,155.215L752.872,155.501C752.777,155.287 752.682,155.074 752.585,154.858ZM499.846,154.286L499.696,154.617L499.556,154.928L498.913,154.639C499.01,154.423 499.107,154.208 499.205,153.993L499.846,154.286ZM752,153.575L752.639,153.28C752.738,153.494 752.837,153.708 752.935,153.923L752.294,154.216L752.126,153.85L752,153.575ZM500.437,153.006C500.338,153.218 500.239,153.43 500.14,153.645L499.5,153.349C499.599,153.135 499.699,152.921 499.799,152.707L500.437,153.006ZM751.401,152.299L752.038,151.997C752.139,152.21 752.24,152.423 752.34,152.637L751.702,152.936C751.603,152.724 751.502,152.512 751.401,152.299ZM501.041,151.732C500.939,151.945 500.838,152.157 500.737,152.368L500.101,152.066C500.202,151.853 500.304,151.64 500.406,151.427L501.041,151.732ZM750.79,151.029L751.424,150.72C751.527,150.932 751.63,151.145 751.733,151.358L751.097,151.663C750.994,151.449 750.891,151.236 750.79,151.029ZM501.658,150.465L501.489,150.81L501.348,151.098L500.714,150.789C500.818,150.577 500.921,150.365 501.026,150.153L501.658,150.465ZM750.166,149.765L750.797,149.45C750.902,149.661 751.007,149.872 751.112,150.084L750.48,150.396L750.311,150.056L750.166,149.765ZM502.288,149.204C502.182,149.414 502.076,149.625 501.971,149.834L501.341,149.519C501.446,149.307 501.552,149.096 501.659,148.886L502.288,149.204ZM749.529,148.508L750.156,148.186C750.264,148.396 750.371,148.606 750.478,148.817L749.849,149.136C749.744,148.928 749.638,148.72 749.529,148.508ZM502.931,147.95C502.823,148.157 502.715,148.366 502.608,148.576L501.98,148.255C502.088,148.044 502.196,147.835 502.305,147.625L502.931,147.95ZM748.879,147.257L749.503,146.929C749.613,147.138 749.723,147.347 749.831,147.556L749.206,147.881C749.097,147.672 748.988,147.464 748.879,147.257ZM503.586,146.702L503.392,147.067L503.257,147.325L502.633,146.997C502.742,146.788 502.853,146.579 502.964,146.371L503.586,146.702ZM748.217,146.013L748.837,145.678C748.949,145.886 749.061,146.094 749.172,146.302L748.55,146.634L748.386,146.326L748.217,146.013ZM504.254,145.461C504.141,145.667 504.029,145.874 503.918,146.08L503.298,145.746C503.41,145.538 503.522,145.331 503.635,145.123L504.254,145.461ZM747.542,144.775L748.159,144.434C748.273,144.641 748.387,144.848 748.5,145.055L747.881,145.393C747.768,145.186 747.655,144.979 747.542,144.775ZM504.935,144.227L504.79,144.486L504.593,144.843L503.976,144.502C504.09,144.296 504.204,144.089 504.319,143.883L504.935,144.227ZM746.854,143.545L747.468,143.198C747.584,143.403 747.7,143.609 747.815,143.815L747.2,144.159C747.086,143.955 746.971,143.752 746.854,143.545ZM505.628,142.999C505.511,143.204 505.395,143.409 505.28,143.612L504.666,143.265C504.782,143.06 504.899,142.854 505.016,142.65L505.628,142.999ZM746.154,142.321L746.764,141.968C746.882,142.172 747,142.377 747.117,142.582L746.506,142.932L746.351,142.663L746.154,142.321ZM506.333,141.779C506.215,141.982 506.096,142.186 505.979,142.388L505.369,142.035C505.487,141.831 505.606,141.627 505.725,141.423L506.333,141.779ZM745.441,141.105L746.048,140.746C746.168,140.949 746.288,141.152 746.407,141.356L745.799,141.713C745.681,141.511 745.563,141.31 745.441,141.105ZM507.051,140.566L506.877,140.857L506.691,141.172L506.084,140.813C506.205,140.61 506.325,140.407 506.447,140.204L507.051,140.566ZM744.717,139.897L745.319,139.531C745.442,139.733 745.564,139.935 745.685,140.137L745.081,140.5C744.959,140.298 744.838,140.096 744.717,139.897ZM507.782,139.361C507.659,139.561 507.537,139.761 507.415,139.963L506.812,139.597C506.935,139.395 507.058,139.194 507.181,138.992L507.782,139.361ZM743.98,138.695L744.578,138.323C744.703,138.524 744.827,138.725 744.95,138.926L744.35,139.295C744.228,139.096 744.105,138.898 743.98,138.695ZM508.524,138.163C508.4,138.361 508.276,138.56 508.152,138.761L507.552,138.389C507.677,138.189 507.802,137.988 507.927,137.788L508.524,138.163ZM743.23,137.501L743.825,137.123C743.952,137.323 744.078,137.522 744.203,137.722L743.606,138.097C743.481,137.898 743.356,137.699 743.23,137.501ZM509.279,136.972L509.07,137.298L508.9,137.567L508.305,137.189C508.431,136.99 508.558,136.791 508.686,136.592L509.279,136.972ZM742.469,136.315L743.06,135.931C743.189,136.129 743.317,136.328 743.444,136.526L742.851,136.907L742.65,136.595L742.469,136.315ZM510.046,135.79C509.917,135.986 509.789,136.182 509.661,136.38L509.069,135.996C509.198,135.798 509.327,135.601 509.456,135.403L510.046,135.79ZM741.695,135.136L742.283,134.747C742.413,134.943 742.543,135.141 742.673,135.338L742.084,135.725C741.955,135.528 741.825,135.332 741.695,135.136ZM510.824,134.615C510.693,134.811 510.562,135.007 510.433,135.201L509.846,134.812C509.976,134.615 510.107,134.418 510.239,134.222L510.824,134.615ZM740.91,133.966L741.493,133.57C741.626,133.766 741.758,133.961 741.89,134.158L741.304,134.55C741.172,134.354 741.04,134.157 740.91,133.966ZM511.615,133.448C511.482,133.641 511.35,133.835 511.218,134.03L510.635,133.635C510.767,133.439 510.9,133.244 511.033,133.049L511.615,133.448ZM740.113,132.803L740.692,132.402C740.827,132.596 740.961,132.79 741.094,132.985L740.513,133.384L740.334,133.123L740.113,132.803ZM512.417,132.289C512.282,132.482 512.147,132.676 512.015,132.867L511.435,132.466C511.569,132.272 511.704,132.078 511.84,131.885L512.417,132.289ZM739.304,131.649L739.879,131.242C740.016,131.434 740.152,131.627 740.287,131.821L739.71,132.225C739.575,132.032 739.439,131.839 739.304,131.649ZM513.231,131.138L513.034,131.414L512.823,131.712L512.247,131.305C512.384,131.113 512.521,130.92 512.658,130.728L513.231,131.138ZM738.484,130.503L739.055,130.09C739.193,130.281 739.331,130.473 739.469,130.665L738.895,131.075L738.652,130.736L738.484,130.503ZM514.057,129.996C513.918,130.186 513.779,130.377 513.643,130.566L513.071,130.153C513.21,129.962 513.348,129.771 513.488,129.58L514.057,129.996ZM737.652,129.365L738.219,128.946C738.359,129.136 738.499,129.326 738.638,129.517L738.069,129.933C737.93,129.743 737.791,129.554 737.652,129.365ZM514.894,128.862C514.754,129.049 514.615,129.237 514.474,129.428L513.907,129.009C514.047,128.819 514.188,128.629 514.329,128.44L514.894,128.862ZM736.808,128.236L737.371,127.811C737.513,128 737.655,128.188 737.796,128.378L737.231,128.799C737.09,128.61 736.948,128.421 736.808,128.236ZM515.742,127.736L515.501,128.055L515.317,128.298L514.754,127.874C514.896,127.685 515.039,127.497 515.182,127.309L515.742,127.736ZM735.953,127.115L736.512,126.685C736.656,126.872 736.799,127.059 736.943,127.247L736.382,127.674L736.166,127.392L735.953,127.115ZM516.602,126.619C516.458,126.805 516.314,126.991 516.171,127.177L515.613,126.747C515.757,126.56 515.901,126.373 516.046,126.187L516.602,126.619ZM735.087,126.003L735.641,125.567C735.787,125.753 735.932,125.939 736.078,126.125L735.521,126.558C735.377,126.372 735.232,126.187 735.087,126.003ZM517.474,125.511L517.285,125.749L517.037,126.064L516.482,125.629C516.628,125.443 516.775,125.258 516.922,125.073L517.474,125.511ZM734.21,124.9L734.759,124.458C734.907,124.643 735.054,124.827 735.201,125.012L734.65,125.45C734.502,125.265 734.355,125.08 734.21,124.9ZM518.356,124.412C518.207,124.596 518.059,124.779 517.913,124.961L517.364,124.519C517.512,124.335 517.66,124.152 517.809,123.968L518.356,124.412ZM733.321,123.806L733.866,123.359C734.016,123.541 734.165,123.724 734.314,123.907L733.767,124.352L733.583,124.126L733.321,123.806ZM519.249,123.322C519.1,123.502 518.952,123.682 518.801,123.866L518.256,123.419C518.406,123.236 518.556,123.054 518.706,122.872L519.249,123.322ZM732.422,122.721L732.962,122.268C733.114,122.449 733.265,122.63 733.415,122.812L732.873,123.262C732.723,123.081 732.572,122.9 732.422,122.721ZM520.154,122.241L519.916,122.523L519.7,122.78L519.16,122.328C519.311,122.147 519.463,121.966 519.615,121.786L520.154,122.241ZM731.511,121.644L732.047,121.186C732.2,121.366 732.353,121.546 732.506,121.726L731.968,122.181L731.718,121.887L731.511,121.644ZM521.069,121.169C520.916,121.346 520.764,121.524 520.61,121.704L520.074,121.246C520.227,121.066 520.381,120.887 520.535,120.708L521.069,121.169ZM730.59,120.578L731.121,120.114C731.276,120.292 731.431,120.47 731.585,120.649L731.052,121.11C730.899,120.933 730.746,120.757 730.59,120.578ZM521.995,120.106C521.84,120.282 521.686,120.458 521.531,120.636L520.999,120.173C521.155,119.995 521.31,119.817 521.466,119.64L521.995,120.106ZM729.658,119.52L730.184,119.051C730.341,119.228 730.498,119.405 730.654,119.582L730.125,120.048C729.97,119.872 729.815,119.696 729.658,119.52ZM522.932,119.052C522.775,119.227 522.619,119.402 522.462,119.578L521.936,119.11C522.092,118.933 522.25,118.757 522.408,118.581L522.932,119.052ZM728.715,118.472L729.237,117.998C729.396,118.173 729.554,118.348 729.712,118.524L729.188,118.995L728.975,118.759L728.715,118.472ZM523.879,118.009C523.721,118.181 523.563,118.355 523.404,118.529L522.882,118.056C523.041,117.881 523.2,117.706 523.36,117.532L523.879,118.009ZM727.762,117.434L728.279,116.954C728.44,117.128 728.6,117.301 728.759,117.475L728.24,117.952C728.08,117.778 727.92,117.604 727.762,117.434ZM524.837,116.975L524.602,117.226L524.357,117.49L523.84,117.011C524,116.838 524.161,116.665 524.322,116.493L524.837,116.975ZM726.799,116.405L727.311,115.921C727.473,116.092 727.635,116.264 727.796,116.436L727.282,116.918L727.001,116.619L726.799,116.405ZM525.805,115.95C525.644,116.119 525.483,116.289 525.32,116.461L524.808,115.977C524.97,115.805 525.132,115.634 525.295,115.463L525.805,115.95ZM725.825,115.386L726.332,114.896C726.496,115.066 726.66,115.236 726.823,115.407L726.313,115.894C726.151,115.725 725.989,115.556 725.825,115.386ZM526.784,114.936C526.621,115.103 526.458,115.271 526.293,115.442L525.786,114.952C525.95,114.782 526.114,114.613 526.279,114.444L526.784,114.936ZM724.841,114.377L725.343,113.882C725.509,114.05 725.674,114.219 725.839,114.388L725.334,114.88C725.17,114.712 725.006,114.545 724.841,114.377ZM527.772,113.931L527.481,114.224L527.277,114.432L526.774,113.938C526.94,113.769 527.106,113.601 527.272,113.434L527.772,113.931ZM723.846,113.378L724.344,112.878C724.511,113.044 724.678,113.211 724.844,113.379L724.345,113.876L724.104,113.634L723.846,113.378ZM528.771,112.936C528.603,113.102 528.435,113.269 528.27,113.432L527.773,112.933C527.94,112.766 528.108,112.6 528.276,112.434L528.771,112.936ZM722.842,112.389L723.334,111.884C723.503,112.049 723.672,112.214 723.84,112.38L723.346,112.882C723.178,112.717 723.01,112.552 722.842,112.389ZM529.78,111.952L529.549,112.175L529.274,112.443L528.782,111.938C528.951,111.773 529.12,111.609 529.29,111.445L529.78,111.952ZM721.828,111.41L722.315,110.9C722.486,111.063 722.656,111.227 722.826,111.391L722.336,111.898C722.167,111.734 721.997,111.571 721.828,111.41ZM530.798,110.977C530.627,111.139 530.457,111.301 530.288,111.463L529.801,110.954C529.971,110.791 530.142,110.628 530.314,110.466L530.798,110.977ZM720.804,110.441L721.286,109.927C721.458,110.088 721.63,110.25 721.802,110.412L721.317,110.924C721.146,110.762 720.974,110.6 720.804,110.441ZM531.827,110.014C531.655,110.173 531.483,110.333 531.311,110.494L530.829,109.98C531.001,109.819 531.174,109.657 531.347,109.497L531.827,110.014ZM719.77,109.483L720.247,108.964C720.421,109.123 720.594,109.283 720.767,109.444L720.288,109.961C720.115,109.8 719.942,109.64 719.77,109.483ZM532.865,109.06L532.577,109.323L532.344,109.536L531.868,109.016C532.042,108.857 532.216,108.697 532.391,108.539L532.865,109.06ZM718.727,108.535L719.198,108.011C719.374,108.169 719.549,108.327 719.724,108.486L719.25,109.008L718.979,108.763L718.727,108.535ZM533.912,108.117C533.735,108.275 533.559,108.433 533.387,108.587L532.916,108.063C533.091,107.905 533.267,107.748 533.443,107.591L533.912,108.117ZM717.674,107.598L718.14,107.069C718.317,107.226 718.494,107.382 718.67,107.539L718.202,108.066C718.025,107.909 717.848,107.752 717.674,107.598ZM534.969,107.185L534.746,107.38L534.44,107.65L533.973,107.121C534.15,106.965 534.328,106.809 534.506,106.654L534.969,107.185ZM716.612,106.672L717.072,106.138C717.251,106.293 717.429,106.447 717.607,106.603L717.144,107.134C716.966,106.979 716.788,106.824 716.612,106.672ZM536.036,106.263C535.857,106.416 535.679,106.569 535.501,106.723L535.041,106.189C535.219,106.035 535.398,105.881 535.578,105.727L536.036,106.263ZM715.54,105.756L715.995,105.218C716.176,105.371 716.355,105.523 716.535,105.677L716.077,106.213L715.851,106.02L715.54,105.756ZM537.112,105.352C536.933,105.502 536.754,105.653 536.573,105.806L536.117,105.268C536.297,105.116 536.478,104.964 536.659,104.812L537.112,105.352ZM714.459,104.851L714.909,104.309C715.091,104.459 715.272,104.61 715.453,104.762L715.001,105.303C714.82,105.151 714.639,105.001 714.459,104.851ZM538.197,104.452L537.916,104.683L537.653,104.901L537.203,104.358C537.385,104.207 537.567,104.057 537.749,103.907L538.197,104.452ZM713.37,103.958L713.814,103.41C713.997,103.559 714.18,103.708 714.363,103.858L713.916,104.403L713.612,104.155L713.37,103.958ZM539.29,103.563C539.107,103.711 538.924,103.859 538.742,104.006L538.298,103.459C538.481,103.31 538.665,103.162 538.849,103.014L539.29,103.563ZM712.271,103.075L712.709,102.523C712.894,102.67 713.079,102.818 713.263,102.965L712.821,103.515C712.638,103.368 712.455,103.222 712.271,103.075ZM540.393,102.685C540.209,102.83 540.026,102.976 539.841,103.123L539.402,102.571C539.586,102.424 539.772,102.278 539.957,102.132L540.393,102.685ZM711.163,102.203L711.596,101.647C711.782,101.792 711.968,101.938 712.154,102.084L711.718,102.638C711.534,102.493 711.35,102.349 711.163,102.203ZM541.505,101.819C541.317,101.963 541.13,102.108 540.948,102.251L540.515,101.695C540.701,101.55 540.887,101.405 541.074,101.261L541.505,101.819ZM710.047,101.343L710.474,100.783C710.662,100.926 710.849,101.069 711.036,101.213L710.606,101.772L710.346,101.572L710.047,101.343ZM542.625,100.964C542.437,101.105 542.25,101.248 542.064,101.39L541.636,100.83C541.824,100.686 542.012,100.544 542.2,100.401L542.625,100.964ZM708.922,100.494L709.343,99.929C709.533,100.071 709.721,100.212 709.91,100.355L709.485,100.917C709.297,100.775 709.109,100.634 708.922,100.494ZM543.754,100.12L543.488,100.317L543.188,100.54L542.766,99.976C542.956,99.834 543.145,99.693 543.335,99.553L543.754,100.12ZM707.788,99.656L708.204,99.087C708.395,99.227 708.585,99.367 708.775,99.507L708.356,100.074C708.167,99.934 707.978,99.795 707.788,99.656ZM544.891,99.287C544.7,99.426 544.509,99.565 544.322,99.702L543.905,99.133C544.096,98.994 544.287,98.855 544.478,98.716L544.891,99.287ZM706.646,98.83L707.056,98.257C707.248,98.394 707.44,98.532 707.631,98.671L707.218,99.242C707.029,99.105 706.839,98.968 706.646,98.83ZM546.037,98.466C545.846,98.602 545.655,98.738 545.463,98.875L545.053,98.302C545.245,98.165 545.437,98.028 545.63,97.891L546.037,98.466ZM705.495,98.016L705.9,97.438C706.093,97.574 706.286,97.71 706.479,97.846L706.072,98.422C705.879,98.286 705.687,98.15 705.495,98.016ZM547.191,97.657L546.871,97.88L546.613,98.06L546.209,97.483C546.402,97.347 546.596,97.212 546.79,97.078L547.191,97.657ZM704.337,97.213L704.735,96.632C704.93,96.765 705.124,96.899 705.319,97.034L704.917,97.613L704.615,97.404L704.337,97.213ZM548.353,96.859C548.159,96.992 547.964,97.124 547.771,97.257L547.373,96.675C547.567,96.542 547.762,96.409 547.958,96.276L548.353,96.859ZM703.17,96.422L703.563,95.837C703.759,95.968 703.955,96.1 704.15,96.233L703.754,96.816C703.559,96.684 703.364,96.552 703.17,96.422ZM549.524,96.074L549.283,96.233L548.937,96.465L548.545,95.88C548.741,95.748 548.937,95.617 549.134,95.486L549.524,96.074ZM701.996,95.643L702.382,95.054C702.58,95.183 702.777,95.313 702.974,95.444L702.584,96.031C702.389,95.901 702.193,95.772 701.996,95.643ZM550.702,95.3C550.504,95.428 550.306,95.557 550.112,95.685L549.725,95.096C549.922,94.966 550.12,94.837 550.318,94.709L550.702,95.3ZM700.813,94.876L701.194,94.282C701.393,94.41 701.591,94.538 701.789,94.666L701.405,95.258L701.143,95.088L700.813,94.876ZM551.888,94.538C551.69,94.663 551.493,94.789 551.294,94.917L550.913,94.324C551.112,94.197 551.31,94.07 551.51,93.943L551.888,94.538ZM699.623,94.12L699.997,93.523C700.197,93.649 700.397,93.775 700.597,93.901L700.219,94.497C700.022,94.371 699.824,94.247 699.623,94.12ZM553.081,93.788L552.792,93.968L552.484,94.161L552.109,93.565C552.309,93.439 552.509,93.314 552.709,93.189L553.081,93.788ZM698.425,93.378L698.794,92.777C698.995,92.9 699.196,93.024 699.397,93.148L699.025,93.747C698.826,93.624 698.626,93.501 698.425,93.378ZM554.282,93.051C554.082,93.172 553.882,93.294 553.681,93.418L553.312,92.817C553.513,92.694 553.715,92.571 553.917,92.448L554.282,93.051ZM697.22,92.647L697.582,92.042C697.785,92.163 697.987,92.285 698.189,92.408L697.823,93.011C697.622,92.889 697.421,92.767 697.22,92.647ZM555.491,92.325C555.287,92.446 555.084,92.567 554.886,92.686L554.523,92.082C554.725,91.96 554.928,91.839 555.131,91.719L555.491,92.325ZM696.007,91.928L696.363,91.32C696.567,91.439 696.771,91.559 696.974,91.679L696.614,92.286C696.412,92.166 696.209,92.046 696.007,91.928ZM556.707,91.612L556.372,91.806L556.098,91.967L555.741,91.359C555.945,91.24 556.149,91.121 556.353,91.002L556.707,91.612ZM694.788,91.222L695.138,90.61C695.343,90.727 695.547,90.845 695.751,90.964L695.398,91.574L695.075,91.387L694.788,91.222ZM557.93,90.911C557.724,91.028 557.518,91.145 557.318,91.26L556.967,90.649C557.172,90.531 557.377,90.414 557.583,90.298L557.93,90.911ZM693.561,90.528L693.904,89.913C694.111,90.028 694.316,90.144 694.522,90.26L694.175,90.874C693.97,90.758 693.764,90.642 693.561,90.528ZM559.16,90.223C558.955,90.337 558.75,90.451 558.544,90.566L558.2,89.951C558.406,89.835 558.613,89.721 558.819,89.606L559.16,90.223ZM692.327,89.847L692.664,89.228C692.872,89.341 693.079,89.455 693.285,89.569L692.945,90.186C692.738,90.072 692.532,89.959 692.327,89.847ZM560.397,89.548C560.189,89.66 559.981,89.773 559.778,89.884L559.44,89.265C559.647,89.152 559.855,89.039 560.063,88.927L560.397,89.548ZM691.086,89.179L691.417,88.556C691.626,88.667 691.834,88.779 692.041,88.891L691.707,89.511L691.412,89.353L691.086,89.179ZM561.641,88.885C561.434,88.994 561.227,89.103 561.018,89.215L560.687,88.593C560.895,88.482 561.104,88.371 561.313,88.261L561.641,88.885ZM689.838,88.523L690.163,87.897C690.373,88.006 690.582,88.115 690.791,88.225L690.463,88.849C690.255,88.74 690.047,88.631 689.838,88.523ZM562.892,88.234L562.617,88.376L562.266,88.558L561.94,87.933C562.15,87.824 562.36,87.715 562.57,87.607L562.892,88.234ZM688.584,87.88L688.903,87.251C689.113,87.357 689.324,87.465 689.534,87.572L689.212,88.2C689.004,88.093 688.795,87.986 688.584,87.88ZM564.149,87.597C563.94,87.702 563.731,87.807 563.52,87.914L563.201,87.285C563.411,87.179 563.622,87.072 563.833,86.967L564.149,87.597ZM687.324,87.249L687.635,86.617C687.847,86.722 688.059,86.827 688.27,86.932L687.955,87.563L687.682,87.427L687.324,87.249ZM565.412,86.972C565.2,87.076 564.988,87.18 564.78,87.283L564.467,86.651C564.679,86.547 564.891,86.442 565.103,86.339L565.412,86.972ZM686.057,86.632L686.362,85.997C686.575,86.099 686.787,86.202 687,86.305L686.691,86.939C686.48,86.836 686.269,86.734 686.057,86.632ZM566.682,86.361L566.379,86.505L566.047,86.665L565.741,86.03C565.953,85.927 566.166,85.826 566.38,85.724L566.682,86.361ZM684.783,86.027L685.082,85.389C685.296,85.489 685.51,85.59 685.723,85.691L685.421,86.328C685.208,86.227 684.996,86.127 684.783,86.027ZM567.958,85.762C567.744,85.861 567.531,85.961 567.32,86.06L567.02,85.422C567.234,85.321 567.448,85.222 567.662,85.122L567.958,85.762ZM683.504,85.436L683.796,84.795C684.011,84.893 684.226,84.991 684.44,85.09L684.144,85.73C683.93,85.631 683.716,85.533 683.504,85.436ZM569.24,85.177C569.028,85.272 568.816,85.368 568.599,85.468L568.306,84.826C568.52,84.728 568.735,84.631 568.951,84.534L569.24,85.177ZM682.218,84.858L682.504,84.213C682.72,84.309 682.936,84.406 683.151,84.502L682.862,85.145C682.647,85.049 682.432,84.952 682.218,84.858ZM570.528,84.604L570.204,84.746L569.884,84.889L569.597,84.244C569.813,84.149 570.029,84.053 570.245,83.958L570.528,84.604ZM680.927,84.292L681.206,83.645C681.423,83.739 681.64,83.833 681.856,83.928L681.574,84.573L681.195,84.408L680.927,84.292ZM571.822,84.045C571.604,84.138 571.386,84.231 571.175,84.323L570.895,83.676C571.112,83.582 571.329,83.489 571.546,83.396L571.822,84.045ZM679.63,83.74L679.903,83.09C680.121,83.182 680.338,83.274 680.555,83.366L680.279,84.015C680.063,83.923 679.846,83.831 679.63,83.74ZM573.122,83.499C572.906,83.588 572.69,83.678 572.471,83.77L572.198,83.12C572.416,83.029 572.634,82.938 572.852,82.847L573.122,83.499ZM678.328,83.202L678.594,82.549C678.812,82.638 679.031,82.728 679.249,82.818L678.98,83.469C678.763,83.38 678.546,83.291 678.328,83.202ZM574.427,82.966L574.091,83.101L573.774,83.231L573.507,82.578C573.726,82.489 573.945,82.4 574.164,82.312L574.427,82.966ZM677.02,82.677L677.279,82.021C677.499,82.108 677.718,82.195 677.937,82.283L677.674,82.937L677.296,82.786L677.02,82.677ZM575.737,82.447C575.52,82.531 575.303,82.617 575.081,82.705L574.822,82.049C575.041,81.962 575.261,81.876 575.481,81.79L575.737,82.447ZM675.707,82.165L675.959,81.507C676.18,81.591 676.4,81.676 676.62,81.762L676.364,82.419C676.145,82.334 675.927,82.249 675.707,82.165ZM577.053,81.941C576.833,82.024 576.613,82.108 576.394,82.192L576.141,81.534C576.362,81.449 576.582,81.365 576.803,81.281L577.053,81.941ZM674.388,81.666L674.634,81.006C674.855,81.088 675.076,81.171 675.297,81.254L675.048,81.914C674.829,81.831 674.609,81.749 674.388,81.666ZM578.374,81.448L578.038,81.572L577.713,81.693L577.466,81.032C577.687,80.95 577.909,80.868 578.131,80.787L578.374,81.448ZM673.064,81.181L673.304,80.518C673.526,80.598 673.748,80.679 673.969,80.76L673.727,81.422L673.338,81.28L673.064,81.181ZM579.699,80.969C579.479,81.048 579.259,81.127 579.036,81.207L578.796,80.544C579.018,80.464 579.241,80.384 579.463,80.305L579.699,80.969ZM671.736,80.71L671.968,80.044C672.191,80.122 672.414,80.201 672.636,80.28L672.401,80.944C672.179,80.865 671.957,80.787 671.736,80.71ZM581.03,80.504C580.807,80.581 580.584,80.658 580.364,80.735L580.131,80.07C580.354,79.992 580.577,79.914 580.801,79.838L581.03,80.504ZM670.403,80.252L670.628,79.584C670.852,79.66 671.075,79.736 671.299,79.813L671.07,80.479C670.848,80.403 670.626,80.328 670.403,80.252ZM582.365,80.053L582.041,80.161L581.697,80.277L581.471,79.609C581.695,79.533 581.919,79.458 582.143,79.384L582.365,80.053ZM669.065,79.808L669.283,79.138C669.508,79.211 669.732,79.285 669.956,79.36L669.734,80.029C669.511,79.954 669.287,79.881 669.065,79.808ZM583.705,79.615C583.482,79.686 583.259,79.759 583.034,79.832L582.815,79.162C583.04,79.089 583.264,79.016 583.489,78.944L583.705,79.615ZM667.723,79.378L667.934,78.706C668.16,78.777 668.385,78.848 668.609,78.92L668.394,79.591L668.109,79.5L667.723,79.378ZM585.049,79.191C584.823,79.261 584.597,79.331 584.376,79.401L584.164,78.729C584.389,78.658 584.615,78.587 584.84,78.517L585.049,79.191ZM666.376,78.962L666.581,78.287C666.807,78.356 667.033,78.425 667.258,78.495L667.05,79.168C666.826,79.099 666.601,79.03 666.376,78.962ZM586.398,78.78L586.099,78.87L585.723,78.984L585.518,78.31C585.743,78.241 585.97,78.173 586.196,78.105L586.398,78.78ZM665.025,78.559L665.223,77.883C665.45,77.949 665.676,78.016 665.903,78.083L665.701,78.759C665.477,78.692 665.252,78.625 665.025,78.559ZM587.75,78.384C587.524,78.449 587.299,78.514 587.073,78.581L586.875,77.904C587.102,77.838 587.328,77.772 587.555,77.707L587.75,78.384ZM663.67,78.17L663.861,77.492C664.089,77.556 664.316,77.62 664.543,77.685L664.348,78.363L664.024,78.27L663.67,78.17ZM589.107,78.001C588.878,78.065 588.65,78.128 588.428,78.191L588.237,77.513C588.464,77.448 588.691,77.385 588.919,77.322L589.107,78.001ZM662.312,77.795L662.496,77.115C662.724,77.177 662.951,77.239 663.179,77.302L662.992,77.981C662.765,77.919 662.538,77.857 662.312,77.795ZM590.467,77.633C590.242,77.693 590.017,77.753 589.787,77.815L589.602,77.135C589.83,77.073 590.058,77.012 590.286,76.952L590.467,77.633ZM660.949,77.435L661.126,76.752C661.355,76.812 661.583,76.871 661.811,76.932L661.631,77.613C661.404,77.553 661.177,77.494 660.949,77.435ZM591.831,77.278L591.453,77.375L591.149,77.454L590.972,76.772C591.2,76.712 591.429,76.653 591.658,76.595L591.831,77.278ZM659.583,77.088L659.753,76.404C659.982,76.461 660.212,76.518 660.44,76.576L660.267,77.259L659.887,77.163L659.583,77.088ZM593.199,76.937C592.969,76.994 592.738,77.05 592.515,77.106L592.345,76.422C592.574,76.365 592.803,76.309 593.032,76.253L593.199,76.937ZM658.214,76.755L658.376,76.069C658.606,76.124 658.836,76.179 659.065,76.235L658.899,76.92C658.67,76.864 658.442,76.809 658.214,76.755ZM594.57,76.611C594.343,76.664 594.117,76.717 593.884,76.772L593.721,76.087C593.951,76.032 594.181,75.978 594.411,75.924L594.57,76.611ZM656.84,76.436L656.996,75.749C657.227,75.801 657.457,75.854 657.687,75.907L657.528,76.594C657.299,76.541 657.071,76.488 656.84,76.436ZM595.945,76.298L595.63,76.368L595.257,76.453L595.101,75.765C595.331,75.713 595.561,75.661 595.792,75.61L595.945,76.298ZM655.464,76.131L655.613,75.442C655.844,75.492 656.075,75.543 656.305,75.594L656.153,76.282C655.923,76.231 655.694,76.181 655.464,76.131ZM597.322,76C597.09,76.049 596.858,76.098 596.633,76.147L596.484,75.458C596.715,75.408 596.946,75.359 597.177,75.31L597.322,76ZM654.085,75.84L654.227,75.15C654.458,75.198 654.689,75.246 654.92,75.294L654.775,75.984L654.436,75.913L654.085,75.84ZM598.703,75.715C598.475,75.761 598.247,75.808 598.012,75.856L597.87,75.165C598.101,75.118 598.333,75.071 598.564,75.024L598.703,75.715ZM652.703,75.564L652.838,74.872C653.069,74.917 653.301,74.963 653.533,75.009L653.394,75.701C653.164,75.654 652.933,75.609 652.703,75.564ZM600.086,75.445C599.856,75.489 599.625,75.533 599.394,75.578L599.259,74.887C599.491,74.841 599.723,74.797 599.955,74.753L600.086,75.445ZM651.318,75.302L651.446,74.608C651.678,74.651 651.91,74.694 652.142,74.738L652.011,75.431C651.78,75.387 651.549,75.344 651.318,75.302ZM601.472,75.189L601.13,75.251L600.779,75.315L600.651,74.622C600.883,74.579 601.115,74.537 601.348,74.495L601.472,75.189ZM649.931,75.053L650.051,74.359C650.284,74.399 650.517,74.44 650.749,74.482L650.625,75.176C650.394,75.134 650.162,75.094 649.931,75.053ZM602.861,74.947C602.632,74.986 602.403,75.025 602.166,75.066L602.045,74.372C602.278,74.331 602.511,74.291 602.744,74.252L602.861,74.947ZM648.541,74.819L648.654,74.124C648.887,74.162 649.12,74.2 649.353,74.239L649.236,74.935L648.905,74.879L648.541,74.819ZM604.252,74.719C604.021,74.756 603.789,74.793 603.556,74.832L603.442,74.136C603.675,74.098 603.908,74.06 604.142,74.023L604.252,74.719ZM647.149,74.599L647.255,73.903C647.488,73.938 647.722,73.975 647.955,74.011L647.845,74.708C647.613,74.671 647.381,74.635 647.149,74.599ZM605.645,74.506C605.411,74.541 605.178,74.576 604.948,74.611L604.842,73.914C605.075,73.878 605.308,73.843 605.542,73.809L605.645,74.506ZM645.754,74.394L645.854,73.696C646.087,73.729 646.321,73.763 646.555,73.798L646.452,74.495C646.22,74.461 645.987,74.427 645.754,74.394ZM607.041,74.307L606.707,74.353L606.343,74.405L606.243,73.707C606.477,73.673 606.711,73.641 606.945,73.608L607.041,74.307ZM644.358,74.202L644.45,73.504C644.684,73.534 644.918,73.566 645.152,73.598L645.056,74.296C644.824,74.264 644.591,74.233 644.358,74.202ZM608.438,74.121C608.206,74.151 607.974,74.181 607.739,74.212L607.647,73.514C607.881,73.483 608.115,73.452 608.349,73.422L608.438,74.121ZM642.959,74.025L643.044,73.326C643.279,73.354 643.513,73.383 643.747,73.413L643.659,74.112L643.3,74.067L642.959,74.025ZM609.837,73.951C609.603,73.978 609.369,74.006 609.137,74.034L609.052,73.335C609.286,73.306 609.521,73.278 609.755,73.251L609.837,73.951ZM641.559,73.862L641.637,73.162C641.872,73.188 642.106,73.215 642.341,73.242L642.259,73.942C642.026,73.915 641.792,73.888 641.559,73.862ZM611.238,73.794C611.002,73.819 610.765,73.845 610.537,73.871L610.459,73.17C610.694,73.144 610.928,73.118 611.163,73.093L611.238,73.794ZM640.158,73.714L640.228,73.012C640.463,73.036 640.698,73.06 640.933,73.085L640.859,73.786C640.625,73.761 640.391,73.737 640.158,73.714ZM612.64,73.652L612.356,73.679L611.939,73.721L611.868,73.02C612.103,72.996 612.338,72.973 612.573,72.95L612.64,73.652ZM638.755,73.579L638.818,72.877C639.054,72.898 639.289,72.92 639.524,72.943L639.456,73.645C639.222,73.622 638.988,73.6 638.755,73.579ZM614.044,73.524L613.669,73.556L613.342,73.586L613.278,72.884C613.513,72.862 613.748,72.842 613.983,72.821L614.044,73.524ZM637.35,73.459L637.407,72.756C637.642,72.775 637.877,72.795 638.113,72.815L638.052,73.517L637.626,73.481L637.35,73.459ZM615.449,73.41C615.213,73.428 614.977,73.446 614.746,73.465L614.689,72.762C614.925,72.743 615.16,72.725 615.396,72.707L615.449,73.41ZM635.944,73.353L635.994,72.649C636.23,72.666 636.465,72.683 636.7,72.701L636.647,73.404L636.307,73.379L635.944,73.353ZM616.855,73.31C616.624,73.325 616.393,73.341 616.152,73.358L616.102,72.655C616.337,72.638 616.573,72.622 616.809,72.607L616.855,73.31ZM634.538,73.261L634.58,72.557C634.816,72.571 635.052,72.586 635.287,72.602L635.241,73.305C635.007,73.29 634.773,73.275 634.538,73.261ZM618.262,73.224C618.029,73.237 617.796,73.251 617.558,73.265L617.516,72.562C617.751,72.547 617.987,72.534 618.223,72.521L618.262,73.224ZM633.13,73.183L633.166,72.479C633.402,72.491 633.637,72.503 633.873,72.516L633.834,73.22C633.6,73.207 633.365,73.195 633.13,73.183ZM619.67,73.153L619.399,73.166L618.966,73.187L618.93,72.483C619.166,72.471 619.401,72.46 619.637,72.449L619.67,73.153ZM631.722,73.12L631.75,72.415C631.986,72.425 632.222,72.435 632.458,72.445L632.426,73.15C632.192,73.139 631.957,73.129 631.722,73.12ZM621.078,73.096L620.73,73.109L620.374,73.123L620.345,72.418C620.581,72.409 620.817,72.4 621.053,72.391L621.078,73.096ZM630.314,73.07L630.335,72.366C630.571,72.373 630.807,72.38 631.043,72.389L631.018,73.093C630.784,73.085 630.549,73.077 630.314,73.07ZM622.487,73.053L622.064,73.064L621.782,73.073L621.761,72.368C621.997,72.361 622.233,72.354 622.469,72.348L622.487,73.053ZM628.905,73.035L628.919,72.33C629.155,72.335 629.391,72.34 629.627,72.346L629.61,73.051L629.216,73.041L628.905,73.035ZM623.896,73.024C623.662,73.027 623.428,73.032 623.191,73.037L623.177,72.332C623.413,72.327 623.649,72.323 623.885,72.319L623.896,73.024ZM627.495,73.014L627.503,72.309C627.739,72.311 627.975,72.314 628.211,72.318L628.2,73.023L627.877,73.018L627.495,73.014ZM625.306,73.009C625.069,73.01 624.834,73.012 624.601,73.015L624.593,72.31C624.829,72.307 625.065,72.305 625.302,72.304L625.306,73.009ZM626.01,73.007L626.01,72.302L626.794,72.304L626.791,73.009C626.56,73.007 626.323,73.007 626.086,73.007L626.01,73.007Z" style="fill:rgb(31,160,226);"/>
        </g>
    </g>
</svg>
