<svg width="333" height="500" viewBox="0 0 333 500" fill="none" xmlns="http://www.w3.org/2000/svg">
<path fill-rule="evenodd" clip-rule="evenodd" d="M75.7342 7.93123C125.331 0.777507 179.569 -9.19458 222.086 17.3274C265.531 44.4289 280.554 98.4007 297.961 146.557C315.977 196.399 347.883 252.105 324.064 299.45C300.199 346.884 227.92 337.908 185.574 369.944C141.769 403.082 128.018 470.478 75.7342 487.312C17.6173 506.024 -58.6296 506.052 -101.185 462.271C-144.133 418.086 -105.874 342.513 -122.646 283.22C-138.334 227.758 -214.005 185.209 -194.942 130.815C-175.764 76.0933 -95.6517 79.5109 -42.8533 55.5411C-3.09431 37.491 32.517 14.1647 75.7342 7.93123Z" fill="url(#paint0_linear)"/>
<defs>
<linearGradient id="paint0_linear" x1="67.2847" y1="-1.69245e-06" x2="94" y2="411" gradientUnits="userSpaceOnUse">
<stop stop-color="#AEA4FD"/>
<stop offset="1" stop-color="#FB99E9" stop-opacity="0.8"/>
</linearGradient>
</defs>
</svg>
