<?xml version="1.0" encoding="UTF-8" standalone="no"?>
<!DOCTYPE svg PUBLIC "-//W3C//DTD SVG 1.1//EN" "http://www.w3.org/Graphics/SVG/1.1/DTD/svg11.dtd">
<svg width="100%" height="100%" viewBox="0 0 36 34" version="1.1" xmlns="http://www.w3.org/2000/svg" xmlns:xlink="http://www.w3.org/1999/xlink" xml:space="preserve" xmlns:serif="http://www.serif.com/" style="fill-rule:evenodd;clip-rule:evenodd;stroke-linejoin:round;stroke-miterlimit:2;">
    <g transform="matrix(1,0,0,1,-231.814,-77.2396)">
        <g transform="matrix(1.05089,0,0,1.05089,-330.078,-149.28)">
            <path d="M551.442,216.085C547.772,216.085 543.697,218.282 540.554,221.426C537.411,224.571 535.215,228.647 535.215,232.317C535.215,235.304 537.445,238.277 540.672,240.722C545.344,244.263 552.057,246.725 556.385,246.725C563.774,246.725 568.186,238.877 568.186,231.488C568.186,227.805 565.852,223.926 562.561,220.986C559.293,218.067 555.1,216.085 551.442,216.085ZM551.442,216.751C558.473,216.751 567.52,224.458 567.52,231.488C567.52,238.519 563.416,246.059 556.385,246.059C549.354,246.059 535.882,239.347 535.882,232.317C535.882,225.286 544.411,216.751 551.442,216.751Z" style="fill:rgb(31,160,226);"/>
        </g>
    </g>
</svg>
