<?xml version="1.0" encoding="UTF-8" standalone="no"?>
<!DOCTYPE svg PUBLIC "-//W3C//DTD SVG 1.1//EN" "http://www.w3.org/Graphics/SVG/1.1/DTD/svg11.dtd">
<svg width="100%" height="100%" viewBox="0 0 32 31" version="1.1" xmlns="http://www.w3.org/2000/svg" xmlns:xlink="http://www.w3.org/1999/xlink" xml:space="preserve" xmlns:serif="http://www.serif.com/" style="fill-rule:evenodd;clip-rule:evenodd;stroke-linejoin:round;stroke-miterlimit:2;">
    <g transform="matrix(1,0,0,1,-233.541,-39.5679)">
        <g transform="matrix(1.05089,0,0,1.05089,-330.078,-186.952)">
            <path d="M551.442,216.085C547.756,216.085 544.102,217.88 541.375,220.612C538.649,223.343 536.858,227.001 536.858,230.687C536.858,238.073 543.829,244.006 551.215,244.006C558.623,244.006 565.53,239.86 565.53,232.452C565.53,228.068 563.152,223.065 559.661,219.768C557.292,217.532 554.416,216.085 551.442,216.085ZM551.442,216.751C558.473,216.751 564.864,225.421 564.864,232.452C564.864,239.483 558.246,243.34 551.215,243.34C544.184,243.34 537.524,237.718 537.524,230.687C537.524,223.656 544.411,216.751 551.442,216.751Z" style="fill:rgb(31,160,226);"/>
        </g>
    </g>
</svg>
