<?xml version="1.0" encoding="UTF-8" standalone="no"?>
<!DOCTYPE svg PUBLIC "-//W3C//DTD SVG 1.1//EN" "http://www.w3.org/Graphics/SVG/1.1/DTD/svg11.dtd">
<svg width="100%" height="100%" viewBox="0 0 50 39" version="1.1" xmlns="http://www.w3.org/2000/svg" xmlns:xlink="http://www.w3.org/1999/xlink" xml:space="preserve" xmlns:serif="http://www.serif.com/" style="fill-rule:evenodd;clip-rule:evenodd;stroke-linejoin:round;stroke-miterlimit:2;">
    <g transform="matrix(1,0,0,1,-226.077,-157.537)">
        <g transform="matrix(1.05089,0,0,1.05089,-330.078,-66.728)">
            <path d="M555.562,248.994L555.619,249.658C554.619,249.744 553.462,249.768 552.214,249.729L552.234,249.063C553.454,249.101 554.584,249.079 555.562,248.994ZM547.589,248.677C548.716,248.826 549.833,248.934 550.903,249.001L550.862,249.666C549.776,249.598 548.644,249.488 547.502,249.337L547.589,248.677ZM560.055,247.832L560.31,248.447C559.389,248.828 558.498,249.129 557.664,249.341C557.458,249.393 557.236,249.44 557,249.482L556.883,248.826C557.103,248.787 557.309,248.743 557.5,248.695C558.306,248.491 559.166,248.199 560.055,247.832ZM543.005,247.839C544.063,248.092 545.164,248.307 546.271,248.484L546.166,249.142C545.042,248.963 543.925,248.744 542.85,248.487L543.005,247.839ZM538.569,246.421C539.513,246.827 540.578,247.19 541.715,247.506L541.536,248.148C540.369,247.823 539.276,247.45 538.305,247.032L538.569,246.421ZM564.195,245.697L564.544,246.264C563.546,246.877 562.542,247.425 561.559,247.892L561.273,247.29C562.235,246.833 563.218,246.297 564.195,245.697ZM534.733,243.827C535.485,244.6 536.36,245.283 537.37,245.84L537.048,246.424C535.978,245.834 535.052,245.11 534.255,244.291L534.733,243.827ZM567.989,242.993L568.412,243.507C567.536,244.228 566.62,244.906 565.687,245.531L565.316,244.977C566.231,244.365 567.13,243.699 567.989,242.993ZM532.178,239.956C532.619,240.967 533.175,241.936 533.86,242.821L533.334,243.229C532.614,242.3 532.03,241.283 531.568,240.223L532.178,239.956ZM571.346,239.764L571.848,240.203C571.117,241.039 570.308,241.85 569.445,242.622L569.001,242.126C569.843,241.372 570.633,240.581 571.346,239.764ZM573.967,235.924L574.566,236.216C574.085,237.204 573.458,238.186 572.72,239.143L572.192,238.736C572.902,237.817 573.505,236.874 573.967,235.924ZM530.947,235.474C531.094,236.551 531.339,237.646 531.699,238.714L531.068,238.927C530.694,237.818 530.439,236.682 530.287,235.564L530.947,235.474ZM574.98,231.426L575.646,231.404C575.652,231.586 575.655,231.763 575.655,231.933C575.655,232.916 575.464,233.917 575.112,234.918L574.483,234.697C574.81,233.77 574.989,232.843 574.989,231.933C574.989,231.77 574.986,231.601 574.98,231.426ZM530.911,230.825C530.78,231.846 530.74,232.975 530.815,234.149L530.15,234.191C530.073,232.972 530.114,231.801 530.25,230.74L530.911,230.825ZM574.275,226.827L574.919,226.654C575.237,227.839 575.438,228.991 575.548,230.027L574.886,230.097C574.779,229.093 574.584,227.976 574.275,226.827ZM532.651,226.555C531.966,227.518 531.454,228.513 531.166,229.519L530.526,229.335C530.834,228.261 531.377,227.198 532.107,226.169L532.651,226.555ZM572.528,222.518L573.105,222.185C573.689,223.199 574.154,224.269 574.518,225.337L573.887,225.552C573.537,224.524 573.09,223.493 572.528,222.518ZM535.855,223.186C534.969,223.923 534.164,224.701 533.472,225.507L532.966,225.073C533.681,224.24 534.513,223.435 535.429,222.674L535.855,223.186ZM539.681,220.531C538.713,221.095 537.777,221.709 536.902,222.362L536.504,221.828C537.399,221.16 538.355,220.532 539.346,219.955L539.681,220.531ZM569.546,218.969L569.961,218.449C570.891,219.191 571.684,220.062 572.355,221.01L571.811,221.395C571.176,220.498 570.426,219.672 569.546,218.969ZM543.865,218.481C542.852,218.889 541.837,219.36 540.846,219.884L540.534,219.295C541.546,218.76 542.582,218.279 543.616,217.863L543.865,218.481ZM565.376,216.972L565.535,216.325C566.563,216.577 567.523,216.925 568.371,217.389C568.517,217.469 568.66,217.552 568.801,217.637L568.455,218.206C568.323,218.126 568.188,218.048 568.051,217.973C567.251,217.535 566.346,217.21 565.376,216.972ZM548.314,217.105C547.283,217.319 546.204,217.625 545.111,218.01L544.89,217.382C546.013,216.986 547.12,216.672 548.178,216.453L548.314,217.105ZM554.767,216.573C553.423,216.663 552.266,216.751 551.442,216.751C550.869,216.751 550.261,216.795 549.626,216.88L549.538,216.219C550.203,216.13 550.841,216.085 551.442,216.085L551.598,216.084C552.399,216.074 553.479,215.992 554.723,215.908L554.767,216.573ZM560.757,216.401L560.779,215.735C561.929,215.774 563.08,215.868 564.179,216.049L564.071,216.706C562.999,216.53 561.878,216.438 560.757,216.401ZM559.425,216.381C558.276,216.382 557.149,216.43 556.097,216.49L556.059,215.825C557.122,215.764 558.263,215.716 559.424,215.715L559.425,216.381Z" style="fill:rgb(31,160,226);"/>
        </g>
        <g transform="matrix(1,0,0,1,0.144184,40.3266)">
            <path d="M269.483,127.538L269.4,127.198C269.452,127.185 269.507,127.178 269.563,127.178L269.599,127.179C269.964,127.198 270.254,127.5 270.254,127.869C270.254,128.25 269.945,128.56 269.563,128.56C269.182,128.56 268.873,128.25 268.873,127.869C268.873,127.768 268.895,127.671 268.934,127.585L269.253,127.729C269.233,127.772 269.223,127.819 269.223,127.869C269.223,128.057 269.375,128.21 269.563,128.21C269.751,128.21 269.904,128.057 269.904,127.869C269.904,127.681 269.751,127.528 269.563,127.528C269.536,127.528 269.508,127.532 269.483,127.538Z" style="fill:rgb(31,160,226);"/>
        </g>
        <g transform="matrix(1,0,0,1,0.144184,40.3266)">
            <path d="M235.707,146.698L235.707,146.348C236.13,146.348 236.474,146.691 236.474,147.114C236.474,147.538 236.13,147.881 235.707,147.881C235.421,147.881 235.171,147.724 235.039,147.492L235.344,147.319C235.415,147.446 235.551,147.531 235.707,147.531C235.937,147.531 236.124,147.344 236.124,147.114C236.124,146.884 235.937,146.698 235.707,146.698Z" style="fill:rgb(31,160,226);"/>
        </g>
        <g transform="matrix(1,0,0,1,0.144184,40.3266)">
            <path d="M237.096,128.121L237.096,127.771C237.469,127.771 237.759,128.066 237.759,128.413C237.759,128.76 237.469,129.055 237.096,129.055C236.723,129.055 236.432,128.76 236.432,128.413C236.432,128.167 236.576,127.949 236.794,127.841L236.949,128.155C236.85,128.204 236.782,128.301 236.782,128.413C236.782,128.574 236.923,128.705 237.096,128.705C237.269,128.705 237.409,128.574 237.409,128.413C237.409,128.252 237.269,128.121 237.096,128.121Z" style="fill:rgb(31,160,226);"/>
        </g>
        <g transform="matrix(1,0,0,1,0.144184,40.3266)">
            <path d="M246.286,117.491C245.902,117.491 245.632,117.78 245.632,118.075C245.632,118.37 245.902,118.658 246.286,118.658C246.669,118.658 246.94,118.37 246.94,118.075C246.94,117.78 246.669,117.491 246.286,117.491ZM246.286,117.841C246.453,117.841 246.59,117.946 246.59,118.075C246.59,118.204 246.453,118.308 246.286,118.308C246.118,118.308 245.982,118.204 245.982,118.075C245.982,117.946 246.118,117.841 246.286,117.841Z" style="fill:rgb(31,160,226);"/>
        </g>
        <g transform="matrix(1,0,0,1,0.144184,40.3266)">
            <path d="M265.204,139.266L265.204,138.916C265.566,138.916 265.916,139.267 265.916,139.755C265.916,140.243 265.566,140.594 265.204,140.594C264.948,140.594 264.706,140.435 264.579,140.163L264.897,140.015C264.961,140.152 265.074,140.244 265.204,140.244C265.404,140.244 265.566,140.025 265.566,139.755C265.566,139.485 265.404,139.266 265.204,139.266Z" style="fill:rgb(31,160,226);"/>
        </g>
        <g transform="matrix(1,0,0,1,0.144184,40.3266)">
            <path d="M259.416,153.423L259.416,153.073C259.873,153.073 260.215,153.417 260.215,153.801C260.215,154.061 260.067,154.297 259.825,154.428L259.658,154.12C259.783,154.053 259.865,153.935 259.865,153.801C259.865,153.593 259.664,153.423 259.416,153.423Z" style="fill:rgb(31,160,226);"/>
        </g>
        <g transform="matrix(1,0,0,1,0.144184,40.3266)">
            <path d="M227.042,128.551L227.022,128.201L227.093,128.2C227.557,128.212 227.929,128.591 227.929,129.054C227.929,129.205 227.89,129.346 227.821,129.469L227.515,129.299C227.556,129.226 227.579,129.143 227.579,129.054C227.579,128.776 227.351,128.55 227.071,128.55C227.061,128.55 227.052,128.55 227.042,128.551Z" style="fill:rgb(31,160,226);"/>
        </g>
    </g>
</svg>
