<?xml version="1.0" encoding="UTF-8" standalone="no"?>
<!DOCTYPE svg PUBLIC "-//W3C//DTD SVG 1.1//EN" "http://www.w3.org/Graphics/SVG/1.1/DTD/svg11.dtd">
<svg width="100%" height="100%" viewBox="0 0 37 40" version="1.1" xmlns="http://www.w3.org/2000/svg" xmlns:xlink="http://www.w3.org/1999/xlink" xml:space="preserve" xmlns:serif="http://www.serif.com/" style="fill-rule:evenodd;clip-rule:evenodd;stroke-linejoin:round;stroke-miterlimit:2;">
    <g transform="matrix(1,0,0,1,-765.265,-32.1998)">
        <g transform="matrix(1.05089,0,0,1.05089,203.566,-189.192)">
            <path d="M553.18,211.204C552.888,211.204 552.138,211.405 551.213,211.721C549.317,212.369 546.553,213.473 545.911,213.587C544.362,213.863 542.849,213.946 541.504,214.26C540.013,214.608 538.719,215.231 537.75,216.571C537.091,217.482 536.637,218.87 536.35,220.416C535.943,222.612 535.856,225.131 535.867,226.913C535.871,227.49 536.299,228.104 536.792,228.663C536.962,228.856 537.134,229.045 537.262,229.231C537.317,229.31 537.38,229.375 537.38,229.449C537.38,230.101 537.179,230.849 536.911,231.645C536.466,232.962 535.832,234.394 535.432,235.752C534.927,237.465 534.821,239.072 535.639,240.284C536.923,242.184 540.736,245.408 543.056,246.527C545.305,247.612 549.043,247.308 551.113,247.308C553.037,247.308 556.368,247.209 559.229,246.604C561.255,246.175 563.043,245.473 564.033,244.433C564.685,243.748 564.905,242.68 564.906,241.469C564.907,239.991 564.588,238.28 564.859,237.082C565.144,235.827 566.383,234.208 567.311,232.691C568.032,231.513 568.566,230.38 568.566,229.49C568.566,228.189 568.003,226.842 567.182,225.55C566.049,223.766 564.429,222.079 563.398,220.766C562.962,220.211 562.723,219.447 562.378,218.698C561.959,217.789 561.414,216.9 560.431,216.265C558.886,215.267 557.625,213.705 556.339,212.619C555.336,211.772 554.307,211.204 553.18,211.204ZM553.18,211.871C555.626,211.871 557.456,215.136 560.069,216.824C561.802,217.943 561.944,219.992 562.874,221.177C564.573,223.342 567.9,226.527 567.9,229.49C567.9,231.482 564.704,234.754 564.21,236.934C563.742,238.998 564.921,242.534 563.55,243.974C561.261,246.379 554.265,246.642 551.113,246.642C549.119,246.642 545.512,246.973 543.345,245.927C541.109,244.848 537.429,241.743 536.191,239.911C534.401,237.259 538.046,232.427 538.046,229.449C538.046,228.681 536.539,227.793 536.533,226.909C536.515,223.997 536.76,219.076 538.29,216.961C540.023,214.564 542.953,214.79 546.028,214.243C546.962,214.077 552.31,211.871 553.18,211.871Z" style="fill:rgb(31,160,226);"/>
        </g>
    </g>
</svg>
