<?xml version="1.0" encoding="UTF-8" standalone="no"?>
<!DOCTYPE svg PUBLIC "-//W3C//DTD SVG 1.1//EN" "http://www.w3.org/Graphics/SVG/1.1/DTD/svg11.dtd">
<svg width="100%" height="100%" viewBox="0 0 42 35" version="1.1" xmlns="http://www.w3.org/2000/svg" xmlns:xlink="http://www.w3.org/1999/xlink" xml:space="preserve" xmlns:serif="http://www.serif.com/" style="fill-rule:evenodd;clip-rule:evenodd;stroke-linejoin:round;stroke-miterlimit:2;">
    <g transform="matrix(1,0,0,1,-229.887,-117.21)">
        <g transform="matrix(1.05089,0,0,1.05089,-330.078,-108.009)">
            <path d="M552.577,245.418C554.341,245.846 555.954,246.082 557.254,246.082C557.675,246.082 558.095,246.056 558.511,246.006L558.59,246.668C558.147,246.72 557.702,246.748 557.254,246.748C555.911,246.748 554.244,246.508 552.42,246.066L552.577,245.418ZM564.601,243.494L564.996,244.031C563.273,245.299 561.322,246.197 559.288,246.563L559.17,245.908C561.105,245.559 562.961,244.701 564.601,243.494ZM546.268,243.303C548.182,244.114 550.123,244.779 551.931,245.255L551.761,245.899C549.925,245.416 547.953,244.74 546.008,243.916L546.268,243.303ZM540.372,240.221C541.992,241.268 543.803,242.22 545.657,243.039L545.388,243.648C543.501,242.815 541.659,241.846 540.011,240.781L540.372,240.221ZM568.998,238.554L569.577,238.885C568.546,240.685 567.16,242.31 565.547,243.607L565.129,243.088C566.678,241.842 568.01,240.282 568.998,238.554ZM535.412,235.829C536.442,237.25 537.988,238.612 539.817,239.853L539.443,240.405C537.544,239.116 535.942,237.696 534.873,236.221L535.412,235.829ZM570.861,232.229L571.528,232.246C571.474,234.312 570.889,236.377 569.909,238.275L569.317,237.969C570.251,236.162 570.81,234.196 570.861,232.229ZM534.494,229.528C534.205,230.417 534.048,231.304 534.048,232.169C534.048,233.216 534.406,234.26 535.04,235.277L534.474,235.629C533.77,234.497 533.381,233.333 533.381,232.169C533.381,231.236 533.549,230.28 533.86,229.323L534.494,229.528ZM568.486,226.152L569.012,225.742C570.477,227.625 571.403,229.611 571.519,231.523L570.854,231.563C570.746,229.77 569.859,227.916 568.486,226.152ZM537.965,223.9C536.537,225.473 535.393,227.184 534.719,228.902L534.098,228.658C534.8,226.871 535.986,225.088 537.472,223.452L537.965,223.9ZM563.65,221.603L564.041,221.063C565.764,222.312 567.331,223.722 568.577,225.205L568.067,225.634C566.854,224.19 565.327,222.818 563.65,221.603ZM543.06,219.64C541.385,220.7 539.79,221.992 538.42,223.414L537.941,222.952C539.347,221.492 540.984,220.165 542.704,219.077L543.06,219.64ZM557.873,218.314L558.135,217.701C559.943,218.474 561.779,219.491 563.485,220.67L563.106,221.218C561.438,220.065 559.642,219.07 557.873,218.314ZM549.146,217.014C547.352,217.404 545.452,218.206 543.628,219.292L543.287,218.719C545.177,217.594 547.147,216.766 549.004,216.363L549.146,217.014ZM549.8,216.89L549.693,216.232C550.292,216.135 550.877,216.085 551.442,216.085L551.442,216.402L551.442,216.085C553.221,216.085 555.331,216.577 557.503,217.441L557.257,218.06C555.172,217.231 553.149,216.751 551.442,216.751C550.912,216.751 550.363,216.798 549.8,216.89Z" style="fill:rgb(31,160,226);"/>
        </g>
        <path d="M269.563,127.528L269.563,127.178C269.945,127.178 270.254,127.488 270.254,127.869C270.254,128.236 269.967,128.537 269.604,128.558L269.584,128.209C269.762,128.198 269.904,128.05 269.904,127.869C269.904,127.681 269.751,127.528 269.563,127.528Z" style="fill:rgb(31,160,226);"/>
        <path d="M235.707,146.698L235.707,146.348C236.13,146.348 236.474,146.691 236.474,147.114C236.474,147.371 236.348,147.598 236.154,147.737L235.95,147.453C236.055,147.377 236.124,147.254 236.124,147.114C236.124,146.884 235.937,146.698 235.707,146.698Z" style="fill:rgb(31,160,226);"/>
        <path d="M237.096,128.121L237.096,127.771C237.469,127.771 237.759,128.066 237.759,128.413C237.759,128.76 237.469,129.055 237.096,129.055C237.026,129.055 236.959,129.044 236.896,129.025L236.998,128.69C237.029,128.699 237.062,128.705 237.096,128.705C237.269,128.705 237.409,128.574 237.409,128.413C237.409,128.252 237.269,128.121 237.096,128.121Z" style="fill:rgb(31,160,226);"/>
        <path d="M246.286,117.841L246.286,117.491C246.669,117.491 246.94,117.78 246.94,118.075C246.94,118.37 246.669,118.658 246.286,118.658C246.142,118.658 246.01,118.617 245.907,118.552L246.093,118.256C246.146,118.289 246.213,118.308 246.286,118.308C246.453,118.308 246.59,118.204 246.59,118.075C246.59,117.946 246.453,117.841 246.286,117.841Z" style="fill:rgb(31,160,226);"/>
        <path d="M265.204,139.266L265.204,138.916C265.566,138.916 265.916,139.267 265.916,139.755C265.916,139.979 265.842,140.18 265.731,140.323L265.454,140.108C265.523,140.019 265.566,139.894 265.566,139.755C265.566,139.485 265.404,139.266 265.204,139.266Z" style="fill:rgb(31,160,226);"/>
    </g>
</svg>
