<?xml version="1.0" encoding="UTF-8" standalone="no"?>
<!DOCTYPE svg PUBLIC "-//W3C//DTD SVG 1.1//EN" "http://www.w3.org/Graphics/SVG/1.1/DTD/svg11.dtd">
<svg width="100%" height="100%" viewBox="0 0 55 46" version="1.1" xmlns="http://www.w3.org/2000/svg" xmlns:xlink="http://www.w3.org/1999/xlink" xml:space="preserve" xmlns:serif="http://www.serif.com/" style="fill-rule:evenodd;clip-rule:evenodd;stroke-linejoin:round;stroke-miterlimit:2;">
    <g transform="matrix(1,0,0,1,-224.235,-201.6)">
        <g transform="matrix(1.04624,0,0,1.16884,-325.203,-47.9345)">
            <path d="M553.805,251.649C554.309,251.693 554.744,251.716 555.096,251.716L555.141,251.715L555.145,252.315C555.129,252.315 555.112,252.315 555.096,252.315C554.727,252.315 554.269,252.292 553.74,252.246L553.805,251.649ZM559.041,250.951L559.282,251.51C558.833,251.664 558.391,251.798 557.96,251.91L557.774,251.335C558.188,251.228 558.611,251.099 559.041,250.951ZM549.839,251.102C550.293,251.182 550.733,251.254 551.155,251.319L551.042,251.909C550.615,251.844 550.169,251.771 549.711,251.69L549.839,251.102ZM545.924,250.309C546.36,250.409 546.794,250.505 547.223,250.596L547.069,251.179C546.636,251.087 546.198,250.99 545.758,250.889L545.924,250.309ZM562.633,249.355L562.977,249.869C562.579,250.083 562.181,250.285 561.785,250.475L561.469,249.946C561.856,249.761 562.244,249.564 562.633,249.355ZM542.07,249.307C542.491,249.431 542.917,249.55 543.346,249.666L543.153,250.24C542.719,250.123 542.287,250.001 541.861,249.876L542.07,249.307ZM538.321,248.026C538.537,248.117 538.757,248.204 538.979,248.287C539.167,248.357 539.358,248.427 539.552,248.496L539.305,249.053C539.107,248.982 538.912,248.911 538.72,248.839C538.49,248.753 538.262,248.663 538.038,248.569L538.321,248.026ZM565.935,247.316L566.347,247.788C565.987,248.041 565.623,248.285 565.257,248.522L564.865,248.036C565.225,247.804 565.582,247.563 565.935,247.316ZM534.903,246.156C535.255,246.398 535.617,246.631 535.991,246.853L535.621,247.352C535.234,247.123 534.859,246.882 534.495,246.631L534.903,246.156ZM568.951,244.948L569.421,245.375C569.097,245.659 568.767,245.94 568.43,246.214L567.98,245.771C568.31,245.502 568.634,245.227 568.951,244.948ZM531.98,243.701C532.273,243.999 532.579,244.29 532.895,244.574L532.422,244.998C532.095,244.705 531.781,244.405 531.478,244.098L531.98,243.701ZM571.628,242.274L572.156,242.642C571.878,242.961 571.588,243.277 571.287,243.59L570.78,243.2C571.073,242.894 571.357,242.585 571.628,242.274ZM529.591,240.819C529.824,241.154 530.069,241.488 530.327,241.819L529.778,242.162C529.513,241.822 529.261,241.479 529.023,241.134L529.591,240.819ZM573.817,239.267L574.411,239.543C574.203,239.903 573.975,240.263 573.729,240.623L573.158,240.31C573.396,239.962 573.616,239.615 573.817,239.267ZM527.762,237.625C527.928,237.986 528.11,238.351 528.306,238.718L527.703,238.977C527.501,238.6 527.314,238.225 527.143,237.853L527.762,237.625ZM575.117,235.885L575.779,235.972C575.711,236.383 575.608,236.8 575.47,237.221L574.828,237.053C574.956,236.659 575.054,236.269 575.117,235.885ZM526.588,234.195C526.668,234.569 526.769,234.959 526.892,235.361L526.246,235.519C526.119,235.101 526.014,234.696 525.931,234.307L526.588,234.195ZM575.219,232.296L575.888,232.283C575.898,232.705 575.897,233.113 575.891,233.501L575.222,233.493C575.227,233.112 575.229,232.711 575.219,232.296ZM526.614,230.635C526.496,231.036 526.418,231.43 526.383,231.813L525.716,231.764C525.754,231.348 525.839,230.919 525.967,230.482L526.614,230.635ZM574.721,228.739L575.367,228.583C575.49,228.992 575.586,229.404 575.66,229.815L574.999,229.91C574.929,229.52 574.838,229.128 574.721,228.739ZM528.292,227.386C528.044,227.731 527.817,228.076 527.613,228.418L527.023,228.136C527.235,227.78 527.471,227.421 527.729,227.062L528.292,227.386ZM572.913,225.564L573.423,225.176C573.743,225.512 574.022,225.864 574.266,226.227L573.693,226.536C573.468,226.2 573.209,225.875 572.913,225.564ZM530.77,224.565C530.462,224.862 530.166,225.161 529.884,225.462L529.371,225.078C529.66,224.768 529.964,224.461 530.28,224.157L530.77,224.565ZM569.934,223.164L570.336,222.685C570.707,222.934 571.066,223.188 571.413,223.448L570.984,223.908C570.646,223.655 570.296,223.407 569.934,223.164ZM533.702,222.115C533.355,222.369 533.015,222.628 532.684,222.892L532.239,222.445C532.577,222.176 532.924,221.911 533.279,221.651L533.702,222.115ZM566.572,221.206L566.903,220.686C567.299,220.888 567.69,221.096 568.075,221.309L567.722,221.818C567.345,221.609 566.961,221.405 566.572,221.206ZM536.964,220.025C536.586,220.236 536.212,220.455 535.844,220.68L535.466,220.186C535.842,219.956 536.224,219.732 536.61,219.517L536.964,220.025ZM562.99,219.587L563.264,219.04C563.675,219.205 564.086,219.376 564.495,219.554L564.203,220.093C563.8,219.918 563.395,219.749 562.99,219.587ZM540.513,218.353C540.136,218.491 539.764,218.641 539.399,218.804L539.296,218.85L538.995,218.315C539.03,218.3 539.065,218.284 539.1,218.268C539.48,218.099 539.867,217.943 540.258,217.799L540.513,218.353ZM559.259,218.263L559.479,217.696C559.9,217.827 560.326,217.965 560.755,218.111L560.517,218.671C560.094,218.527 559.675,218.391 559.259,218.263ZM544.353,217.326C543.921,217.406 543.486,217.496 543.051,217.599L542.88,217.02C543.328,216.914 543.775,216.821 544.219,216.74L544.353,217.326ZM555.408,217.253L555.561,216.67C555.988,216.76 556.43,216.86 556.883,216.972L556.705,217.55C556.26,217.44 555.827,217.341 555.408,217.253ZM548.329,216.845C547.901,216.873 547.455,216.909 546.996,216.955L546.922,216.36C547.389,216.313 547.844,216.277 548.28,216.248L548.329,216.845ZM551.003,216.752L550.997,216.153L551.602,216.153C551.98,216.159 552.4,216.185 552.853,216.232L552.776,216.827C552.286,216.776 551.839,216.751 551.442,216.751C551.302,216.751 551.155,216.751 551.003,216.752Z" style="fill:rgb(31,160,226);"/>
        </g>
        <g transform="matrix(1,0,0,1,0.144184,84.3895)">
            <path d="M269.563,127.178C269.182,127.178 268.873,127.488 268.873,127.869C268.873,128.25 269.182,128.56 269.563,128.56C269.945,128.56 270.254,128.25 270.254,127.869C270.254,127.488 269.945,127.178 269.563,127.178ZM269.563,127.528C269.751,127.528 269.904,127.681 269.904,127.869C269.904,128.057 269.751,128.21 269.563,128.21C269.375,128.21 269.223,128.057 269.223,127.869C269.223,127.681 269.375,127.528 269.563,127.528Z" style="fill:rgb(31,160,226);"/>
        </g>
        <g transform="matrix(1,0,0,1,0.144184,84.3895)">
            <path d="M235.707,146.348C235.283,146.348 234.94,146.691 234.94,147.114C234.94,147.538 235.283,147.881 235.707,147.881C236.13,147.881 236.474,147.538 236.474,147.114C236.474,146.691 236.13,146.348 235.707,146.348ZM235.707,146.698C235.937,146.698 236.124,146.884 236.124,147.114C236.124,147.344 235.937,147.531 235.707,147.531C235.477,147.531 235.29,147.344 235.29,147.114C235.29,146.884 235.477,146.698 235.707,146.698Z" style="fill:rgb(31,160,226);"/>
        </g>
        <g transform="matrix(1,0,0,1,0.144184,84.3895)">
            <path d="M237.096,127.771C236.723,127.771 236.432,128.066 236.432,128.413C236.432,128.76 236.723,129.055 237.096,129.055C237.469,129.055 237.759,128.76 237.759,128.413C237.759,128.066 237.469,127.771 237.096,127.771ZM237.096,128.121C237.269,128.121 237.409,128.252 237.409,128.413C237.409,128.574 237.269,128.705 237.096,128.705C236.923,128.705 236.782,128.574 236.782,128.413C236.782,128.252 236.923,128.121 237.096,128.121Z" style="fill:rgb(31,160,226);"/>
        </g>
        <g transform="matrix(2.34718,0,0,1.1759,-286.689,55.3324)">
            <path d="M237.096,127.823C236.93,127.823 236.789,127.929 236.718,128.058C236.659,128.162 236.633,128.287 236.633,128.413C236.633,128.539 236.659,128.664 236.718,128.768C236.789,128.896 236.93,129.002 237.096,129.002C237.261,129.002 237.402,128.896 237.474,128.768C237.532,128.664 237.558,128.539 237.558,128.413C237.558,128.287 237.532,128.162 237.474,128.058C237.402,127.929 237.261,127.823 237.096,127.823ZM237.096,128.121C237.269,128.121 237.409,128.252 237.409,128.413C237.409,128.574 237.269,128.705 237.096,128.705C236.923,128.705 236.782,128.574 236.782,128.413C236.782,128.252 236.923,128.121 237.096,128.121Z" style="fill:rgb(31,160,226);"/>
        </g>
        <g transform="matrix(-0.157962,0,0,-0.936414,315.945,355.386)">
            <path d="M237.096,127.747C236.584,127.747 236.05,127.773 235.561,127.847C235.348,127.88 235.077,127.933 234.888,128.018C234.729,128.088 234.567,128.238 234.567,128.413C234.567,128.587 234.729,128.737 234.888,128.808C235.077,128.892 235.348,128.946 235.561,128.978C236.05,129.053 236.584,129.078 237.096,129.078C237.607,129.078 238.141,129.053 238.63,128.978C238.843,128.946 239.115,128.892 239.304,128.808C239.462,128.737 239.625,128.587 239.625,128.413C239.625,128.238 239.462,128.088 239.304,128.018C239.115,127.933 238.843,127.88 238.63,127.847C238.141,127.773 237.607,127.747 237.096,127.747ZM236.795,128.491C236.831,128.614 236.952,128.705 237.096,128.705C237.239,128.705 237.361,128.614 237.396,128.491C237.718,128.484 238.04,128.464 238.349,128.427C238.373,128.424 238.402,128.419 238.436,128.413C238.402,128.406 238.373,128.402 238.349,128.399C238.04,128.361 237.718,128.341 237.396,128.334C237.361,128.211 237.239,128.121 237.096,128.121C236.952,128.121 236.831,128.211 236.795,128.334C236.474,128.341 236.152,128.361 235.843,128.399C235.819,128.402 235.789,128.406 235.755,128.413C235.789,128.419 235.819,128.424 235.843,128.427C236.152,128.464 236.474,128.484 236.795,128.491Z" style="fill:rgb(31,160,226);"/>
        </g>
        <g transform="matrix(0.244314,-2.47591e-17,-1.46774e-16,0.249811,175.871,201.455)">
            <path d="M237.096,126.72C236.113,126.72 235.35,127.498 235.35,128.413C235.35,129.328 236.113,130.106 237.096,130.106C238.078,130.106 238.842,129.328 238.842,128.413C238.842,127.498 238.078,126.72 237.096,126.72ZM237.096,129.522C236.459,129.522 235.976,129.006 235.976,128.413C235.976,127.82 236.459,127.304 237.096,127.304C237.733,127.304 238.215,127.82 238.215,128.413C238.215,129.006 237.733,129.522 237.096,129.522Z" style="fill:rgb(31,160,226);"/>
        </g>
        <g transform="matrix(1,0,0,1,0.144184,84.3895)">
            <path d="M246.286,117.491C245.902,117.491 245.632,117.78 245.632,118.075C245.632,118.37 245.902,118.658 246.286,118.658C246.669,118.658 246.94,118.37 246.94,118.075C246.94,117.78 246.669,117.491 246.286,117.491ZM246.286,117.841C246.453,117.841 246.59,117.946 246.59,118.075C246.59,118.204 246.453,118.308 246.286,118.308C246.118,118.308 245.982,118.204 245.982,118.075C245.982,117.946 246.118,117.841 246.286,117.841Z" style="fill:rgb(31,160,226);"/>
        </g>
        <g transform="matrix(1,0,0,1,0.144184,84.3895)">
            <path d="M265.204,138.916C264.842,138.916 264.491,139.267 264.491,139.755C264.491,140.243 264.842,140.594 265.204,140.594C265.566,140.594 265.916,140.243 265.916,139.755C265.916,139.267 265.566,138.916 265.204,138.916ZM265.204,139.266C265.404,139.266 265.566,139.485 265.566,139.755C265.566,140.025 265.404,140.244 265.204,140.244C265.004,140.244 264.841,140.025 264.841,139.755C264.841,139.485 265.004,139.266 265.204,139.266Z" style="fill:rgb(31,160,226);"/>
        </g>
        <g transform="matrix(1,0,0,1,0.144184,84.3895)">
            <path d="M259.416,153.073C258.96,153.073 258.617,153.417 258.617,153.801C258.617,154.186 258.96,154.53 259.416,154.53C259.873,154.53 260.215,154.186 260.215,153.801C260.215,153.417 259.873,153.073 259.416,153.073ZM259.416,153.423C259.664,153.423 259.865,153.593 259.865,153.801C259.865,154.01 259.664,154.18 259.416,154.18C259.168,154.18 258.967,154.01 258.967,153.801C258.967,153.593 259.168,153.423 259.416,153.423Z" style="fill:rgb(31,160,226);"/>
        </g>
        <g transform="matrix(1,0,0,1,0.144184,84.3895)">
            <path d="M227.071,128.2C226.597,128.2 226.214,128.583 226.214,129.054C226.214,129.525 226.597,129.909 227.071,129.909C227.545,129.909 227.929,129.525 227.929,129.054C227.929,128.583 227.545,128.2 227.071,128.2ZM227.071,128.55C227.351,128.55 227.579,128.776 227.579,129.054C227.579,129.333 227.351,129.559 227.071,129.559C226.791,129.559 226.564,129.333 226.564,129.054C226.564,128.776 226.791,128.55 227.071,128.55Z" style="fill:rgb(31,160,226);"/>
        </g>
    </g>
</svg>
