<?xml version="1.0" encoding="UTF-8" standalone="no"?>
<!DOCTYPE svg PUBLIC "-//W3C//DTD SVG 1.1//EN" "http://www.w3.org/Graphics/SVG/1.1/DTD/svg11.dtd">
<svg width="100%" height="100%" viewBox="0 0 33 33" version="1.1" xmlns="http://www.w3.org/2000/svg" xmlns:xlink="http://www.w3.org/1999/xlink" xml:space="preserve" xmlns:serif="http://www.serif.com/" style="fill-rule:evenodd;clip-rule:evenodd;stroke-linecap:round;stroke-miterlimit:1.5;">
    <g transform="matrix(1,0,0,1,-317.214,-391.532)">
        <g transform="matrix(1.05089,0,0,1.05089,-247.644,167.868)">
            <path d="M551.876,214.693C547.385,214.693 544.115,217.837 541.549,221.655C539.895,224.115 538.037,226.595 538.037,229.49C538.037,233.429 540.573,235.952 543.278,238.41C544.428,239.456 545.564,240.676 546.824,241.574C548.204,242.558 549.728,243.166 551.543,242.887C557.67,241.947 563.131,235.64 564.822,229.671C565.326,227.89 565.02,226.331 564.272,224.853C563.578,223.481 562.489,222.18 561.356,220.824C558.791,217.757 555.765,214.693 551.876,214.693ZM551.876,215.359C555.573,215.359 558.407,218.336 560.845,221.252C563.043,223.88 565.089,226.282 564.181,229.49C562.555,235.229 557.334,241.324 551.442,242.229C548.184,242.729 545.988,239.974 543.726,237.917C541.161,235.586 538.703,233.225 538.703,229.49C538.703,226.725 540.522,224.377 542.102,222.027C544.54,218.4 547.609,215.359 551.876,215.359Z" style="fill:rgb(222,108,131);"/>
        </g>
        <g transform="matrix(-0.0814934,0.0151362,0.0424094,0.228333,365.053,389.149)">
            <path d="M248.509,95.242L253.425,93.376" style="fill:none;stroke:rgb(222,108,131);stroke-width:8.6px;"/>
        </g>
        <g transform="matrix(0.106719,-0.00734936,-0.000630447,-0.00915464,312.174,404.744)">
            <path d="M248.509,95.242L253.425,93.376" style="fill:none;stroke:rgb(222,108,131);stroke-width:19.76px;"/>
        </g>
        <g transform="matrix(-0.00416557,-0.000283162,0.000496915,-0.00731007,327.404,415.596)">
            <path d="M248.509,95.242L253.425,93.376" style="fill:none;stroke:rgb(222,108,131);stroke-width:150.93px;"/>
        </g>
        <g transform="matrix(-0.00416557,-0.000283162,0.000496915,-0.00731007,321.876,393.11)">
            <path d="M248.509,95.242L253.425,93.376" style="fill:none;stroke:rgb(222,108,131);stroke-width:150.93px;"/>
        </g>
    </g>
</svg>
