<?xml version="1.0" encoding="UTF-8" standalone="no"?>
<!DOCTYPE svg PUBLIC "-//W3C//DTD SVG 1.1//EN" "http://www.w3.org/Graphics/SVG/1.1/DTD/svg11.dtd">
<svg width="100%" height="100%" viewBox="0 0 45 41" version="1.1" xmlns="http://www.w3.org/2000/svg" xmlns:xlink="http://www.w3.org/1999/xlink" xml:space="preserve" xmlns:serif="http://www.serif.com/" style="fill-rule:evenodd;clip-rule:evenodd;stroke-linecap:round;stroke-miterlimit:1.5;">
    <g transform="matrix(1,0,0,1,-308.595,-434.739)">
        <g transform="matrix(1.05089,0,0,1.05089,-247.644,213.266)">
            <path d="M549.507,242.082C550.139,242.179 550.784,242.229 551.442,242.229L551.498,242.228L551.501,242.895C551.481,242.895 551.462,242.895 551.442,242.895C550.75,242.895 550.07,242.842 549.407,242.741L549.507,242.082ZM554.142,241.941L554.283,242.592C553.606,242.739 552.911,242.834 552.201,242.874L552.164,242.208C552.839,242.17 553.5,242.08 554.142,241.941ZM546.935,241.407C547.553,241.641 548.193,241.828 548.852,241.965L548.717,242.617C548.023,242.474 547.349,242.276 546.699,242.03L546.935,241.407ZM556.668,241.109L556.942,241.716C556.307,242.002 555.646,242.241 554.964,242.426L554.789,241.783C555.437,241.607 556.065,241.381 556.668,241.109ZM544.56,240.209C545.118,240.568 545.706,240.885 546.319,241.155L546.05,241.765C545.405,241.481 544.787,241.147 544.2,240.77L544.56,240.209ZM558.965,239.768L559.359,240.305C558.795,240.719 558.198,241.089 557.573,241.411L557.268,240.819C557.862,240.513 558.429,240.161 558.965,239.768ZM542.486,238.545C542.959,239.013 543.469,239.445 544.01,239.834L543.621,240.375C543.051,239.965 542.515,239.511 542.017,239.019L542.486,238.545ZM560.935,237.981L561.431,238.426C560.964,238.948 560.456,239.433 559.913,239.876L559.491,239.36C560.008,238.939 560.49,238.478 560.935,237.981ZM540.799,236.489C541.166,237.046 541.576,237.573 542.024,238.065L541.532,238.514C541.061,237.996 540.629,237.442 540.243,236.856L540.799,236.489ZM562.493,235.826L563.071,236.158C562.72,236.768 562.323,237.347 561.885,237.892L561.366,237.474C561.783,236.956 562.16,236.406 562.493,235.826ZM539.575,234.128C539.819,234.752 540.111,235.352 540.447,235.924L539.872,236.261C539.519,235.659 539.212,235.028 538.955,234.371L539.575,234.128ZM563.57,233.394L564.204,233.599C563.988,234.271 563.719,234.92 563.404,235.542L562.81,235.24C563.109,234.65 563.364,234.033 563.57,233.394ZM538.871,231.563C538.98,232.228 539.141,232.876 539.349,233.502L538.716,233.712C538.497,233.053 538.328,232.371 538.214,231.671L538.871,231.563ZM564.115,230.791L564.778,230.859C564.706,231.566 564.579,232.256 564.401,232.926L563.757,232.755C563.926,232.119 564.047,231.463 564.115,230.791ZM538.716,228.908C538.707,229.101 538.703,229.295 538.703,229.49C538.703,229.968 538.729,230.44 538.781,230.904L538.118,230.977C538.064,230.488 538.037,229.992 538.037,229.49C538.037,229.285 538.041,229.081 538.05,228.878L538.716,228.908ZM564.109,228.132L564.771,228.062C564.821,228.531 564.847,229.007 564.847,229.49C564.847,229.715 564.841,229.938 564.83,230.16L564.165,230.127C564.175,229.916 564.181,229.703 564.181,229.49C564.181,229.031 564.156,228.578 564.109,228.132ZM539.112,226.278C538.946,226.916 538.828,227.572 538.763,228.244L538.1,228.179C538.169,227.472 538.293,226.781 538.467,226.111L539.112,226.278ZM563.553,225.531L564.186,225.324C564.402,225.984 564.568,226.666 564.679,227.367L564.021,227.472C563.915,226.807 563.758,226.159 563.553,225.531ZM540.048,223.789C539.751,224.381 539.499,224.999 539.296,225.639L538.661,225.437C538.875,224.764 539.14,224.113 539.453,223.491L540.048,223.789ZM562.465,223.104L563.041,222.77C563.391,223.373 563.696,224.006 563.95,224.664L563.329,224.904C563.087,224.279 562.798,223.678 562.465,223.104ZM541.483,221.55C541.068,222.069 540.693,222.621 540.362,223.202L539.783,222.873C540.131,222.261 540.526,221.68 540.962,221.134L541.483,221.55ZM560.897,220.956L561.391,220.51C561.86,221.029 562.289,221.585 562.673,222.173L562.115,222.537C561.75,221.978 561.343,221.45 560.897,220.956ZM543.349,219.655C542.834,220.078 542.354,220.542 541.911,221.04L541.413,220.598C541.878,220.074 542.384,219.586 542.925,219.141L543.349,219.655ZM558.919,219.178L559.311,218.639C559.879,219.052 560.413,219.508 560.908,220.002L560.438,220.474C559.967,220.004 559.459,219.57 558.919,219.178ZM545.566,218.186C544.973,218.495 544.407,218.849 543.873,219.245L543.477,218.709C544.039,218.293 544.634,217.92 545.258,217.595L545.566,218.186ZM556.616,217.847L556.888,217.239C557.531,217.526 558.148,217.862 558.733,218.242L558.37,218.801C557.814,218.439 557.228,218.12 556.616,217.847ZM548.04,217.211C547.393,217.39 546.766,217.619 546.164,217.894L545.888,217.288C546.521,216.999 547.181,216.757 547.862,216.569L548.04,217.211ZM554.087,217.026L554.225,216.374C554.918,216.521 555.591,216.721 556.24,216.97L556.001,217.592C555.385,217.356 554.745,217.165 554.087,217.026ZM550.663,216.774C549.989,216.815 549.329,216.908 548.686,217.05L548.543,216.4C549.219,216.25 549.913,216.152 550.623,216.109L550.663,216.774ZM551.329,216.751L551.323,216.085L551.575,216.085C552.241,216.092 552.896,216.147 553.535,216.247L553.432,216.906C552.784,216.804 552.119,216.751 551.442,216.751L551.329,216.751Z" style="fill:rgb(222,108,131);"/>
        </g>
        <g transform="matrix(0.102956,-0.0191226,-0.0102557,-0.0552168,326.4,457.488)">
            <path d="M248.509,95.242L253.425,93.376" style="fill:none;stroke:rgb(222,108,131);stroke-width:17.85px;"/>
        </g>
        <g transform="matrix(-0.0814934,0.0151362,0.0424094,0.228333,368.522,414.046)">
            <path d="M248.509,95.242L253.425,93.376" style="fill:none;stroke:rgb(222,108,131);stroke-width:3.73px;"/>
        </g>
        <g transform="matrix(0.040184,0.0602856,-0.0199398,0.0132911,301.86,430.776)">
            <path d="M248.509,95.242L253.425,93.376" style="fill:none;stroke:rgb(222,108,131);stroke-width:27.8px;"/>
        </g>
        <g transform="matrix(0.106719,-0.00734936,-0.000630447,-0.00915464,284.668,465.412)">
            <path d="M248.509,95.242L253.425,93.376" style="fill:none;stroke:rgb(222,108,131);stroke-width:8.56px;"/>
        </g>
        <g transform="matrix(0.106719,-0.00734936,-0.000630447,-0.00915464,311.173,452.166)">
            <path d="M248.509,95.242L253.425,93.376" style="fill:none;stroke:rgb(222,108,131);stroke-width:19.76px;"/>
        </g>
        <g transform="matrix(0.00273028,-0.0872647,0.681129,0.0213107,275.561,493.153)">
            <path d="M248.509,95.242L253.425,93.376" style="fill:none;stroke:rgb(222,108,131);stroke-width:3.09px;"/>
        </g>
        <g transform="matrix(-0.00416557,-0.000283162,0.000496915,-0.00731007,350.834,468.436)">
            <path d="M248.509,95.242L253.425,93.376" style="fill:none;stroke:rgb(222,108,131);stroke-width:150.93px;"/>
        </g>
        <g transform="matrix(-0.00416557,-0.000283162,0.000496915,-0.00731007,325.892,458.92)">
            <path d="M248.509,95.242L253.425,93.376" style="fill:none;stroke:rgb(222,108,131);stroke-width:150.93px;"/>
        </g>
        <g transform="matrix(-0.00416557,-0.000283162,0.000496915,-0.00731007,322.668,473.475)">
            <path d="M248.509,95.242L253.425,93.376" style="fill:none;stroke:rgb(222,108,131);stroke-width:150.93px;"/>
        </g>
        <g transform="matrix(0.0787554,-0.0995798,0.138085,0.109208,299.272,450.363)">
            <path d="M248.509,95.242L253.425,93.376" style="fill:none;stroke:rgb(222,108,131);stroke-width:4.24px;"/>
        </g>
    </g>
</svg>
