<svg width="1190" height="713" viewBox="0 0 1190 713" fill="none" xmlns="http://www.w3.org/2000/svg">
<g clip-path="url(#clip0)">
<rect width="1190" height="713" fill="white"/>
<rect x="716" y="435.917" width="65" height="65" transform="rotate(30 716 435.917)" stroke="#B3B3B3"/>
<rect x="878.5" y="154.458" width="65" height="65" transform="rotate(30 878.5 154.458)" stroke="#B3B3B3"/>
<rect x="997.458" y="598.417" width="65" height="65" transform="rotate(30 997.458 598.417)" stroke="#B3B3B3"/>
<rect x="1159.96" y="316.958" width="65" height="65" transform="rotate(30 1159.96 316.958)" stroke="#B3B3B3"/>
<rect x="772.292" y="468.417" width="65" height="65" transform="rotate(30 772.292 468.417)" stroke="#B3B3B3"/>
<rect x="934.792" y="186.958" width="65" height="65" transform="rotate(30 934.792 186.958)" stroke="#B3B3B3"/>
<rect x="1053.75" y="630.917" width="65" height="65" transform="rotate(30 1053.75 630.917)" stroke="#B3B3B3"/>
<rect x="1216.25" y="349.458" width="65" height="65" transform="rotate(30 1216.25 349.458)" stroke="#B3B3B3"/>
<rect x="828.583" y="500.917" width="65" height="65" transform="rotate(30 828.583 500.917)" stroke="#B3B3B3"/>
<rect x="1153.58" y="-62" width="65" height="65" transform="rotate(30 1153.58 -62)" stroke="#B3B3B3"/>
<rect x="991.083" y="219.458" width="65" height="65" transform="rotate(30 991.083 219.458)" stroke="#B3B3B3"/>
<rect x="1110.04" y="663.417" width="65" height="65" transform="rotate(30 1110.04 663.417)" stroke="#B3B3B3"/>
<rect x="884.875" y="533.417" width="65" height="65" transform="rotate(30 884.875 533.417)" stroke="#B3B3B3"/>
<rect x="1209.88" y="-29.5" width="65" height="65" transform="rotate(30 1209.88 -29.5)" stroke="#B3B3B3"/>
<rect x="1047.38" y="251.958" width="65" height="65" transform="rotate(30 1047.38 251.958)" stroke="#B3B3B3"/>
<rect x="1166.33" y="695.917" width="65" height="65" transform="rotate(30 1166.33 695.917)" stroke="#B3B3B3"/>
<rect x="941.167" y="565.917" width="65" height="65" transform="rotate(30 941.167 565.917)" stroke="#B3B3B3"/>
<rect x="1103.67" y="284.458" width="65" height="65" transform="rotate(30 1103.67 284.458)" stroke="#B3B3B3"/>
<rect x="683.5" y="492.208" width="65" height="65" transform="rotate(30 683.5 492.208)" stroke="#B3B3B3"/>
<rect x="1008.5" y="-70.7084" width="65" height="65" transform="rotate(30 1008.5 -70.7084)" stroke="#B3B3B3"/>
<rect x="846" y="210.75" width="65" height="65" transform="rotate(30 846 210.75)" stroke="#B3B3B3"/>
<rect x="964.958" y="654.708" width="65" height="65" transform="rotate(30 964.958 654.708)" stroke="#B3B3B3"/>
<rect x="1127.46" y="373.25" width="65" height="65" transform="rotate(30 1127.46 373.25)" stroke="#B3B3B3"/>
<rect x="739.792" y="524.708" width="65" height="65" transform="rotate(30 739.792 524.708)" stroke="#B3B3B3"/>
<rect x="1064.79" y="-38.2084" width="65" height="65" transform="rotate(30 1064.79 -38.2084)" stroke="#B3B3B3"/>
<rect x="902.292" y="243.25" width="65" height="65" transform="rotate(30 902.292 243.25)" stroke="#B3B3B3"/>
<rect x="1021.25" y="687.208" width="65" height="65" transform="rotate(30 1021.25 687.208)" stroke="#B3B3B3"/>
<rect x="1183.75" y="405.75" width="65" height="65" transform="rotate(30 1183.75 405.75)" stroke="#B3B3B3"/>
<rect x="796.083" y="557.208" width="65" height="65" transform="rotate(30 796.083 557.208)" stroke="#B3B3B3"/>
<rect x="1121.08" y="-5.70837" width="65" height="65" transform="rotate(30 1121.08 -5.70837)" stroke="#B3B3B3"/>
<rect x="958.583" y="275.75" width="65" height="65" transform="rotate(30 958.583 275.75)" stroke="#B3B3B3"/>
<rect x="852.375" y="589.708" width="65" height="65" transform="rotate(30 852.375 589.708)" stroke="#B3B3B3"/>
<rect x="1177.38" y="26.7916" width="65" height="65" transform="rotate(30 1177.38 26.7916)" stroke="#B3B3B3"/>
<rect x="1014.88" y="308.25" width="65" height="65" transform="rotate(30 1014.88 308.25)" stroke="#B3B3B3"/>
<rect x="908.667" y="622.208" width="65" height="65" transform="rotate(30 908.667 622.208)" stroke="#B3B3B3"/>
<rect x="1071.17" y="340.75" width="65" height="65" transform="rotate(30 1071.17 340.75)" stroke="#B3B3B3"/>
<rect x="651" y="548.5" width="65" height="65" transform="rotate(30 651 548.5)" stroke="#B3B3B3"/>
<rect x="976" y="-14.4167" width="65" height="65" transform="rotate(30 976 -14.4167)" stroke="#B3B3B3"/>
<rect x="813.5" y="267.042" width="65" height="65" transform="rotate(30 813.5 267.042)" stroke="#B3B3B3"/>
<rect x="932.458" y="711" width="65" height="65" transform="rotate(30 932.458 711)" stroke="#B3B3B3"/>
<rect x="1094.96" y="429.542" width="65" height="65" transform="rotate(30 1094.96 429.542)" stroke="#B3B3B3"/>
<rect x="707.292" y="581" width="65" height="65" transform="rotate(30 707.292 581)" stroke="#B3B3B3"/>
<rect x="1032.29" y="18.0833" width="65" height="65" transform="rotate(30 1032.29 18.0833)" stroke="#B3B3B3"/>
<rect x="869.792" y="299.542" width="65" height="65" transform="rotate(30 869.792 299.542)" stroke="#B3B3B3"/>
<rect x="1151.25" y="462.042" width="65" height="65" transform="rotate(30 1151.25 462.042)" stroke="#B3B3B3"/>
<rect x="763.583" y="613.5" width="65" height="65" transform="rotate(30 763.583 613.5)" stroke="#B3B3B3"/>
<rect x="1088.58" y="50.5833" width="65" height="65" transform="rotate(30 1088.58 50.5833)" stroke="#B3B3B3"/>
<rect x="926.083" y="332.042" width="65" height="65" transform="rotate(30 926.083 332.042)" stroke="#B3B3B3"/>
<rect x="1207.54" y="494.542" width="65" height="65" transform="rotate(30 1207.54 494.542)" stroke="#B3B3B3"/>
<rect x="819.875" y="646" width="65" height="65" transform="rotate(30 819.875 646)" stroke="#B3B3B3"/>
<rect x="1144.88" y="83.0833" width="65" height="65" transform="rotate(30 1144.88 83.0833)" stroke="#B3B3B3"/>
<rect x="982.375" y="364.542" width="65" height="65" transform="rotate(30 982.375 364.542)" stroke="#B3B3B3"/>
<rect x="876.167" y="678.5" width="65" height="65" transform="rotate(30 876.167 678.5)" stroke="#B3B3B3"/>
<rect x="1201.17" y="115.583" width="65" height="65" transform="rotate(30 1201.17 115.583)" stroke="#B3B3B3"/>
<rect x="1038.67" y="397.042" width="65" height="65" transform="rotate(30 1038.67 397.042)" stroke="#B3B3B3"/>
<rect x="618.5" y="604.791" width="65" height="65" transform="rotate(30 618.5 604.791)" stroke="#B3B3B3"/>
<rect x="943.5" y="41.8749" width="65" height="65" transform="rotate(30 943.5 41.8749)" stroke="#B3B3B3"/>
<rect x="781" y="323.333" width="65" height="65" transform="rotate(30 781 323.333)" stroke="#B3B3B3"/>
<rect x="1062.46" y="485.833" width="65" height="65" transform="rotate(30 1062.46 485.833)" stroke="#B3B3B3"/>
<rect x="674.792" y="637.291" width="65" height="65" transform="rotate(30 674.792 637.291)" stroke="#B3B3B3"/>
<rect x="999.792" y="74.3749" width="65" height="65" transform="rotate(30 999.792 74.3749)" stroke="#B3B3B3"/>
<rect x="837.292" y="355.833" width="65" height="65" transform="rotate(30 837.292 355.833)" stroke="#B3B3B3"/>
<rect x="1118.75" y="518.333" width="65" height="65" transform="rotate(30 1118.75 518.333)" stroke="#B3B3B3"/>
<rect x="731.083" y="669.791" width="65" height="65" transform="rotate(30 731.083 669.791)" stroke="#B3B3B3"/>
<rect x="1056.08" y="106.875" width="65" height="65" transform="rotate(30 1056.08 106.875)" stroke="#B3B3B3"/>
<rect x="893.583" y="388.333" width="65" height="65" transform="rotate(30 893.583 388.333)" stroke="#B3B3B3"/>
<rect x="1175.04" y="550.833" width="65" height="65" transform="rotate(30 1175.04 550.833)" stroke="#B3B3B3"/>
<rect x="787.375" y="702.291" width="65" height="65" transform="rotate(30 787.375 702.291)" stroke="#B3B3B3"/>
<rect x="1112.38" y="139.375" width="65" height="65" transform="rotate(30 1112.38 139.375)" stroke="#B3B3B3"/>
<rect x="949.875" y="420.833" width="65" height="65" transform="rotate(30 949.875 420.833)" stroke="#B3B3B3"/>
<rect x="1168.67" y="171.875" width="65" height="65" transform="rotate(30 1168.67 171.875)" stroke="#B3B3B3"/>
<rect x="1006.17" y="453.333" width="65" height="65" transform="rotate(30 1006.17 453.333)" stroke="#B3B3B3"/>
<rect x="586" y="661.083" width="65" height="65" transform="rotate(30 586 661.083)" stroke="#B3B3B3"/>
<rect x="911" y="98.1666" width="65" height="65" transform="rotate(30 911 98.1666)" stroke="#B3B3B3"/>
<rect x="748.5" y="379.625" width="65" height="65" transform="rotate(30 748.5 379.625)" stroke="#B3B3B3"/>
<rect x="1192.46" y="260.667" width="65" height="65" transform="rotate(30 1192.46 260.667)" stroke="#B3B3B3"/>
<rect x="1029.96" y="542.125" width="65" height="65" transform="rotate(30 1029.96 542.125)" stroke="#B3B3B3"/>
<rect x="642.292" y="693.583" width="65" height="65" transform="rotate(30 642.292 693.583)" stroke="#B3B3B3"/>
<rect x="967.292" y="130.667" width="65" height="65" transform="rotate(30 967.292 130.667)" stroke="#B3B3B3"/>
<rect x="804.792" y="412.125" width="65" height="65" transform="rotate(30 804.792 412.125)" stroke="#B3B3B3"/>
<rect x="1086.25" y="574.625" width="65" height="65" transform="rotate(30 1086.25 574.625)" stroke="#B3B3B3"/>
<rect x="1023.58" y="163.167" width="65" height="65" transform="rotate(30 1023.58 163.167)" stroke="#B3B3B3"/>
<rect x="861.083" y="444.625" width="65" height="65" transform="rotate(30 861.083 444.625)" stroke="#B3B3B3"/>
<rect x="1142.54" y="607.125" width="65" height="65" transform="rotate(30 1142.54 607.125)" stroke="#B3B3B3"/>
<rect x="1079.88" y="195.667" width="65" height="65" transform="rotate(30 1079.88 195.667)" stroke="#B3B3B3"/>
<rect x="917.375" y="477.125" width="65" height="65" transform="rotate(30 917.375 477.125)" stroke="#B3B3B3"/>
<rect x="1198.83" y="639.625" width="65" height="65" transform="rotate(30 1198.83 639.625)" stroke="#B3B3B3"/>
<rect x="1136.17" y="228.167" width="65" height="65" transform="rotate(30 1136.17 228.167)" stroke="#B3B3B3"/>
<rect x="973.667" y="509.625" width="65" height="65" transform="rotate(30 973.667 509.625)" stroke="#B3B3B3"/>
</g>
<defs>
<clipPath id="clip0">
<rect width="1190" height="713" fill="white"/>
</clipPath>
</defs>
</svg>
