<svg width="556" height="96" viewBox="0 0 556 96" fill="none" xmlns="http://www.w3.org/2000/svg">
<path d="M2.97661 85.761C125.022 80.7175 405.881 74.5522 552.958 90.2389" stroke="url(#paint0_linear)" stroke-width="8"/>
<path d="M56.56 41.92L44.96 80H36.24L28.8 52.88L21.2 80H12.24L1.28 41.92H9.84L17.36 71.04L25.68 41.92H33.12L40.96 71.12L48.64 41.92H56.56ZM78.0006 80.96C72.3473 80.96 67.974 79.2267 64.8806 75.76C61.7873 72.2933 60.2406 67.36 60.2406 60.96C60.2406 54.6133 61.7873 49.7067 64.8806 46.24C67.974 42.72 72.294 40.96 77.8406 40.96C83.0673 40.96 86.9873 42.5067 89.6006 45.6C92.214 48.6933 93.5206 53.1733 93.5206 59.04C93.5206 60.48 93.4673 61.5467 93.3606 62.24H68.3206C68.3206 66.1867 69.2806 69.1733 71.2006 71.2C73.1206 73.2267 75.8406 74.24 79.3606 74.24C81.7073 74.24 83.9473 73.8667 86.0806 73.12C88.214 72.32 90.0806 71.2 91.6806 69.76L92.5606 76.16C90.854 77.7067 88.7473 78.9067 86.2406 79.76C83.734 80.56 80.9873 80.96 78.0006 80.96ZM85.4406 57.28C85.4406 54.1867 84.774 51.8133 83.4406 50.16C82.1073 48.4533 80.1606 47.6 77.6006 47.6C74.774 47.6 72.5873 48.48 71.0406 50.24C69.5473 51.9467 68.6673 54.2933 68.4006 57.28H85.4406ZM122.069 40.96C126.976 40.96 130.763 42.7467 133.429 46.32C136.149 49.84 137.509 54.72 137.509 60.96C137.509 67.2533 136.149 72.16 133.429 75.68C130.709 79.2 126.949 80.96 122.149 80.96C119.643 80.96 117.376 80.48 115.349 79.52C113.323 78.5067 111.616 76.9867 110.229 74.96L109.349 80H103.029V21.6H110.869V45.52C112.309 43.9733 113.989 42.8267 115.909 42.08C117.883 41.3333 119.936 40.96 122.069 40.96ZM119.749 74.24C122.789 74.24 125.163 73.0933 126.869 70.8C128.576 68.5067 129.429 65.2267 129.429 60.96C129.429 56.7467 128.576 53.4667 126.869 51.12C125.216 48.7733 122.869 47.6 119.829 47.6C118.123 47.6 116.469 48 114.869 48.8C113.269 49.5467 111.936 50.6133 110.869 52V69.92C111.989 71.3067 113.323 72.3733 114.869 73.12C116.416 73.8667 118.043 74.24 119.749 74.24ZM179.174 21.6V80H172.774L171.894 74.96C169.174 78.96 165.2 80.96 159.974 80.96C155.12 80.96 151.36 79.2 148.694 75.68C146.027 72.16 144.694 67.28 144.694 61.04C144.694 54.7467 146.027 49.84 148.694 46.32C151.414 42.7467 155.227 40.96 160.134 40.96C162.267 40.96 164.294 41.3333 166.214 42.08C168.187 42.8267 169.894 43.9733 171.334 45.52V21.6H179.174ZM162.534 74.24C164.24 74.24 165.867 73.8667 167.414 73.12C168.96 72.3733 170.267 71.3067 171.334 69.92V52C170.267 50.6133 168.934 49.5467 167.334 48.8C165.734 48 164.08 47.6 162.374 47.6C159.387 47.6 157.04 48.7733 155.334 51.12C153.627 53.4667 152.774 56.72 152.774 60.88C152.774 65.2533 153.654 68.5867 155.414 70.88C157.174 73.12 159.547 74.24 162.534 74.24ZM206.438 80.96C200.785 80.96 196.411 79.2267 193.318 75.76C190.225 72.2933 188.678 67.36 188.678 60.96C188.678 54.6133 190.225 49.7067 193.318 46.24C196.411 42.72 200.731 40.96 206.278 40.96C211.505 40.96 215.425 42.5067 218.038 45.6C220.651 48.6933 221.958 53.1733 221.958 59.04C221.958 60.48 221.905 61.5467 221.798 62.24H196.758C196.758 66.1867 197.718 69.1733 199.638 71.2C201.558 73.2267 204.278 74.24 207.798 74.24C210.145 74.24 212.385 73.8667 214.518 73.12C216.651 72.32 218.518 71.2 220.118 69.76L220.998 76.16C219.291 77.7067 217.185 78.9067 214.678 79.76C212.171 80.56 209.425 80.96 206.438 80.96ZM213.878 57.28C213.878 54.1867 213.211 51.8133 211.878 50.16C210.545 48.4533 208.598 47.6 206.038 47.6C203.211 47.6 201.025 48.48 199.478 50.24C197.985 51.9467 197.105 54.2933 196.838 57.28H213.878ZM242.991 80.96C240.377 80.96 237.764 80.64 235.151 80C232.537 79.3067 230.457 78.4267 228.911 77.36L229.551 70.48C231.204 71.5467 233.444 72.48 236.271 73.28C239.151 74.0267 241.684 74.4 243.871 74.4C246.057 74.4 247.764 74 248.991 73.2C250.217 72.4 250.831 71.2 250.831 69.6C250.831 68.0533 250.084 66.8533 248.591 66C247.097 65.0933 244.884 64.2133 241.951 63.36C238.057 62.1867 234.991 60.8 232.751 59.2C230.511 57.6 229.391 55.2 229.391 52C229.391 48.3733 230.644 45.6267 233.151 43.76C235.657 41.8933 238.911 40.96 242.911 40.96C244.991 40.96 247.204 41.2 249.551 41.68C251.951 42.16 254.137 42.8267 256.111 43.68L255.551 50.16C253.844 49.36 251.844 48.6667 249.551 48.08C247.257 47.44 245.257 47.12 243.551 47.12C241.684 47.12 240.164 47.52 238.991 48.32C237.817 49.12 237.231 50.2133 237.231 51.6C237.231 52.6133 237.577 53.44 238.271 54.08C238.964 54.72 239.764 55.2267 240.671 55.6C241.631 55.92 243.151 56.4 245.231 57.04C249.177 58.16 252.324 59.5733 254.671 61.28C257.017 62.9333 258.191 65.4667 258.191 68.88C258.191 72.8267 256.804 75.84 254.031 77.92C251.311 79.9467 247.631 80.96 242.991 80.96ZM266.936 41.92H274.776V80H266.936V41.92ZM270.936 37.2C267.736 37.2 266.136 35.68 266.136 32.64C266.136 31.1467 266.536 30 267.336 29.2C268.189 28.4 269.389 28 270.936 28C272.482 28 273.656 28.4 274.456 29.2C275.256 30 275.656 31.1467 275.656 32.64C275.656 35.68 274.082 37.2 270.936 37.2ZM302.703 72.08C313.476 72.88 318.863 76.7467 318.863 83.68C318.863 87.7333 317.236 90.8 313.983 92.88C310.783 94.96 306.036 96 299.743 96C293.983 96 289.556 95.0933 286.463 93.28C283.37 91.4667 281.823 88.8267 281.823 85.36C281.823 80.4533 284.703 77.0667 290.463 75.2C288.436 74.4533 287.423 72.96 287.423 70.72C287.423 69.5467 287.796 68.5333 288.543 67.68C289.343 66.7733 290.436 66.1067 291.823 65.68C289.583 64.6133 287.876 63.12 286.703 61.2C285.583 59.2267 285.023 56.88 285.023 54.16C285.023 50 286.356 46.7733 289.023 44.48C291.743 42.1333 295.503 40.96 300.303 40.96C304.89 40.96 308.516 42 311.183 44.08L317.663 40.88L319.183 46.48L314.223 47.92C315.13 49.7333 315.583 51.8133 315.583 54.16C315.583 58.32 314.25 61.5733 311.583 63.92C308.916 66.2133 305.156 67.36 300.303 67.36C299.343 67.36 298.65 67.3333 298.223 67.28L298.063 67.36C296.836 67.36 295.903 67.5467 295.263 67.92C294.623 68.2933 294.303 68.8 294.303 69.44C294.303 70.1867 294.916 70.7467 296.143 71.12C297.37 71.4933 299.556 71.8133 302.703 72.08ZM300.383 46.16C297.823 46.16 295.85 46.8533 294.463 48.24C293.13 49.6267 292.463 51.5733 292.463 54.08C292.463 56.5333 293.156 58.48 294.543 59.92C295.983 61.3067 297.93 62 300.383 62C302.89 62 304.836 61.3067 306.223 59.92C307.61 58.48 308.303 56.5333 308.303 54.08C308.303 51.5733 307.61 49.6267 306.223 48.24C304.89 46.8533 302.943 46.16 300.383 46.16ZM300.863 90C304.116 90 306.65 89.52 308.463 88.56C310.276 87.6 311.183 86.24 311.183 84.48C311.183 83.2533 310.73 82.2667 309.823 81.52C308.97 80.8267 307.796 80.2933 306.303 79.92C304.81 79.4933 302.623 79.0133 299.743 78.48C298.996 78.3733 297.823 78.16 296.223 77.84C293.77 78.0533 291.876 78.6933 290.543 79.76C289.21 80.8267 288.543 82.1333 288.543 83.68C288.543 85.7067 289.636 87.2533 291.823 88.32C294.01 89.44 297.023 90 300.863 90ZM347.336 40.96C350.642 40.96 353.282 41.8933 355.256 43.76C357.229 45.6267 358.216 48.1867 358.216 51.44V80H350.376V54.08C350.376 52.2133 349.789 50.72 348.616 49.6C347.496 48.48 346.029 47.92 344.216 47.92C342.669 47.92 341.042 48.3733 339.336 49.28C337.682 50.1867 336.162 51.4133 334.776 52.96V80H326.936V41.92H333.256L333.976 47.36C335.842 45.3333 337.896 43.76 340.136 42.64C342.429 41.52 344.829 40.96 347.336 40.96ZM384.876 80.96C379.222 80.96 374.849 79.2267 371.756 75.76C368.662 72.2933 367.116 67.36 367.116 60.96C367.116 54.56 368.662 49.6267 371.756 46.16C374.849 42.6933 379.249 40.96 384.956 40.96C387.569 40.96 389.942 41.3333 392.076 42.08C394.209 42.7733 395.942 43.7867 397.276 45.12L395.356 51.68C394.129 50.3467 392.689 49.3333 391.036 48.64C389.382 47.9467 387.622 47.6 385.756 47.6C382.342 47.6 379.702 48.7733 377.836 51.12C375.969 53.4133 375.036 56.6933 375.036 60.96C375.036 65.28 375.942 68.5867 377.756 70.88C379.569 73.12 382.156 74.24 385.516 74.24C389.409 74.24 392.929 72.6667 396.076 69.52L397.916 76.08C396.369 77.6267 394.476 78.8267 392.236 79.68C390.049 80.5333 387.596 80.96 384.876 80.96ZM421.833 80.96C416.126 80.96 411.699 79.2267 408.553 75.76C405.459 72.2933 403.913 67.36 403.913 60.96C403.913 54.56 405.459 49.6267 408.553 46.16C411.699 42.6933 416.126 40.96 421.833 40.96C427.593 40.96 432.019 42.6933 435.113 46.16C438.259 49.6267 439.833 54.56 439.833 60.96C439.833 67.36 438.259 72.2933 435.113 75.76C432.019 79.2267 427.593 80.96 421.833 80.96ZM421.913 74.24C425.166 74.24 427.646 73.12 429.353 70.88C431.059 68.5867 431.913 65.28 431.913 60.96C431.913 56.64 431.059 53.3333 429.353 51.04C427.646 48.7467 425.166 47.6 421.913 47.6C418.659 47.6 416.153 48.7467 414.393 51.04C412.686 53.3333 411.833 56.64 411.833 60.96C411.833 65.28 412.686 68.5867 414.393 70.88C416.153 73.12 418.659 74.24 421.913 74.24ZM481.439 21.6V80H475.039L474.159 74.96C471.439 78.96 467.466 80.96 462.239 80.96C457.386 80.96 453.626 79.2 450.959 75.68C448.293 72.16 446.959 67.28 446.959 61.04C446.959 54.7467 448.293 49.84 450.959 46.32C453.679 42.7467 457.493 40.96 462.399 40.96C464.533 40.96 466.559 41.3333 468.479 42.08C470.453 42.8267 472.159 43.9733 473.599 45.52V21.6H481.439ZM464.799 74.24C466.506 74.24 468.133 73.8667 469.679 73.12C471.226 72.3733 472.533 71.3067 473.599 69.92V52C472.533 50.6133 471.199 49.5467 469.599 48.8C467.999 48 466.346 47.6 464.639 47.6C461.653 47.6 459.306 48.7733 457.599 51.12C455.893 53.4667 455.039 56.72 455.039 60.88C455.039 65.2533 455.919 68.5867 457.679 70.88C459.439 73.12 461.813 74.24 464.799 74.24ZM508.704 80.96C503.05 80.96 498.677 79.2267 495.584 75.76C492.49 72.2933 490.944 67.36 490.944 60.96C490.944 54.6133 492.49 49.7067 495.584 46.24C498.677 42.72 502.997 40.96 508.544 40.96C513.77 40.96 517.69 42.5067 520.304 45.6C522.917 48.6933 524.224 53.1733 524.224 59.04C524.224 60.48 524.17 61.5467 524.064 62.24H499.024C499.024 66.1867 499.984 69.1733 501.904 71.2C503.824 73.2267 506.544 74.24 510.064 74.24C512.41 74.24 514.65 73.8667 516.784 73.12C518.917 72.32 520.784 71.2 522.384 69.76L523.264 76.16C521.557 77.7067 519.45 78.9067 516.944 79.76C514.437 80.56 511.69 80.96 508.704 80.96ZM516.144 57.28C516.144 54.1867 515.477 51.8133 514.144 50.16C512.81 48.4533 510.864 47.6 508.304 47.6C505.477 47.6 503.29 48.48 501.744 50.24C500.25 51.9467 499.37 54.2933 499.104 57.28H516.144ZM553.813 47.6C551.519 47.7067 549.306 48.2133 547.173 49.12C545.093 50.0267 543.226 51.2267 541.573 52.72V80H533.733V41.92H540.053L540.933 47.28C542.693 45.3067 544.666 43.76 546.853 42.64C549.039 41.52 551.146 40.96 553.173 40.96L553.813 47.6Z" fill="white"/>
<defs>
<linearGradient id="paint0_linear" x1="-13.0657" y1="90.8995" x2="564.62" y2="73.6031" gradientUnits="userSpaceOnUse">
<stop stop-color="#EF5277"/>
<stop offset="0.921875" stop-color="#B9CDE6"/>
</linearGradient>
</defs>
</svg>
