<svg width="84" height="81" viewBox="0 0 84 81" fill="none" xmlns="http://www.w3.org/2000/svg">
<path d="M30.6642 70.6405L30.5154 70.6688C30.4796 70.6674 30.4544 70.6658 30.4331 70.6558C30.191 70.5408 30.6104 69.7562 29.7237 69.2779C29.107 68.9434 28.5609 69.1838 28.095 70.1649C27.8308 70.7212 27.5646 71.2819 27.3004 71.8382L28.4407 71.344L28.471 71.2803L28.25 71.3731C28.3972 71.0631 28.5507 70.7508 28.6937 70.4387C29.026 69.7169 28.9598 69.2535 29.3708 69.2977C29.4151 69.3031 29.4573 69.3128 29.4956 69.3309C29.9755 69.5588 29.8529 70.7706 29.4944 71.0324L30.64 70.6915L30.6642 70.6405ZM28.3601 71.5139L27.2195 71.9976L26.9878 72.4966C27.2287 72.4496 27.3928 72.4547 27.6367 72.5549L27.8276 72.6351C27.7331 72.5382 27.7399 72.4581 27.7944 72.3435L28.0525 71.7998L28.2693 71.705L28.3601 71.5139ZM27.4122 73.203C27.4947 73.0183 27.4231 72.8074 27.2447 72.7227C27.0664 72.638 26.8534 72.7138 26.7667 72.8964C26.684 73.0706 26.7598 73.2835 26.9382 73.3683C27.1166 73.453 27.3295 73.3771 27.4122 73.203Z" fill="#323232"/>
<path d="M25.2506 70.2761L25.3627 70.1021L24.2601 70.3893C23.9287 70.7952 23.5665 70.9362 23.2652 70.7607C22.8872 70.5391 22.8577 70.0877 23.2707 69.368C23.7142 68.5951 24.0974 68.423 24.4728 68.6486C25.0858 69.0179 24.6475 69.7999 24.3694 70.2362L25.4719 69.949L25.5076 69.8879L25.211 69.9655C25.3057 69.4732 25.1215 68.9399 24.6907 68.6201C24.09 68.1739 23.2468 68.2959 22.7967 68.894C22.3466 69.4921 22.4673 70.3458 23.0654 70.7959C23.7427 71.3052 24.7158 71.0666 25.0926 70.3168L25.2506 70.2761Z" fill="#323232"/>
<path d="M18.0002 67.545C17.9465 67.4207 17.9779 67.3516 18.0697 67.2639L18.9193 66.4516L19.149 66.4401L19.3054 66.2907L18.1636 66.3415C17.894 66.3521 17.7356 66.2953 17.6479 66.2036C17.4952 66.0438 17.5575 65.7892 17.6711 65.6155C17.8467 65.3501 18.5141 64.6534 18.7396 64.3858C18.8216 64.2879 18.9083 64.2765 19.0301 64.3358L18.273 63.5439C18.2943 63.6342 18.3448 63.7551 18.2587 63.8828C17.8597 64.4724 17.4398 64.8088 17.2155 65.1729C16.9567 65.5894 17.036 65.9105 17.2439 66.128C17.4324 66.3251 17.7293 66.4315 17.9751 66.4437L16.823 67.5451L16.6665 67.5516L16.6156 67.6003L18.0002 67.545ZM19.4654 64.7912C19.4868 64.8748 19.5079 64.9717 19.4196 65.0562L18.1961 66.2258L19.4279 66.1671L19.4821 66.1217L19.2457 66.133L19.854 65.5515C19.9458 65.4637 20.0228 65.4422 20.1445 65.5015L19.4654 64.7912Z" fill="#323232"/>
<path d="M15.4883 60.6351C15.669 60.4276 15.6169 60.1495 15.4571 59.8945C15.2599 59.5798 14.9012 59.2996 14.6036 59.2142C14.7042 59.1179 14.6765 58.941 14.5842 58.7936L14.3445 58.4111C14.3696 58.5397 14.3363 58.6105 14.2247 58.6804L13.6908 59.0149L13.4675 58.9773L13.2857 59.0856L14.3569 59.2633L14.353 59.2658C14.6725 59.3153 14.88 59.4516 14.9773 59.607C15.1046 59.8102 15.0601 60.049 14.8564 60.1932C14.3718 60.5357 13.7156 60.2145 13.359 59.9996L14.3391 59.3854L13.1144 59.193L13.0611 59.2319L13.2844 59.2695L12.7745 59.589C12.3766 59.8661 12.345 60.1522 12.5372 60.459C12.6645 60.6622 12.8945 60.8787 13.1804 61.1047C13.3884 61.2684 13.5564 61.3684 13.6313 61.4879C13.6663 61.5437 13.6803 61.6015 13.6679 61.6703L13.6402 61.8208L13.7079 61.7784L14.0003 60.7574C13.3585 60.8488 12.8158 60.4786 12.6386 60.1957C12.5912 60.12 12.5696 60.0503 12.5855 59.9959C12.6173 59.8873 12.8335 59.8073 13.1213 59.9654C13.6633 60.2639 14.8099 61.4208 15.4883 60.6351Z" fill="#323232"/>
<path d="M10.353 55.7213L10.9963 55.4817L11.2179 55.5647L11.4206 55.4892L10.7921 55.2567L10.311 55.0696C10.0961 54.964 9.98519 54.8548 9.94416 54.7447C9.86868 54.542 10.027 54.3475 10.2221 54.2247C10.4608 54.0706 11.1962 53.7014 11.6187 53.529C11.736 53.4803 11.8169 53.4953 11.9052 53.5978L11.5229 52.5712C11.5067 52.6626 11.5097 52.7919 11.3758 52.8769C10.9333 53.1571 10.2977 53.4038 9.94496 53.6556C9.53708 53.948 9.47528 54.2671 9.5803 54.549C9.67056 54.7914 9.88911 55.001 10.1117 55.1137C9.99492 55.1773 9.93469 55.285 9.99377 55.4436L10.1858 55.9592C10.1855 55.8238 10.2324 55.7612 10.353 55.7213ZM12.1251 54.1883C12.1117 54.2735 12.0912 54.3665 11.9782 54.4136L10.4273 54.9912L11.582 55.4241L11.6497 55.4039L11.4281 55.3209L12.1815 55.0402C12.2989 54.9915 12.3797 55.0066 12.4681 55.1091L12.1251 54.1883Z" fill="#323232"/>
<path d="M11.0659 47.0669L10.9659 46.9532C10.9489 46.9217 10.9374 46.8991 10.9353 46.8757C10.911 46.6088 11.7999 46.5706 11.7604 45.5639C11.7345 44.8628 11.2498 44.515 10.1681 44.6131C9.5547 44.6688 8.93662 44.7249 8.32321 44.7806L9.32897 45.5108L9.39921 45.5044L9.20683 45.3613C9.54865 45.3303 9.89557 45.3035 10.237 45.2678C11.0275 45.1866 11.3927 44.8938 11.5638 45.2702C11.5817 45.311 11.5949 45.3523 11.5987 45.3945C11.6467 45.9236 10.5412 46.4346 10.1334 46.2592L11.0097 47.072L11.0659 47.0669ZM9.14167 45.5278L8.14485 44.7921L7.59743 44.8465C7.76044 45.0299 7.83959 45.1738 7.87744 45.4348L7.9055 45.64C7.94085 45.5093 8.01322 45.4744 8.13965 45.4629L8.739 45.4085L8.93096 45.5469L9.14167 45.5278ZM7.20528 45.5713C7.4062 45.5484 7.55138 45.3794 7.53353 45.1827C7.51568 44.9861 7.34203 44.8413 7.14068 44.8596C6.9487 44.877 6.80394 45.0507 6.82179 45.2473C6.83964 45.444 7.0133 45.5887 7.20528 45.5713Z" fill="#323232"/>
<path d="M8.62518 42.2206L8.83196 42.2285L8.02367 41.4255C7.50562 41.3468 7.19996 41.1067 7.19769 40.758C7.19617 40.3198 7.56974 40.0647 8.39943 40.0541C9.29041 40.0426 9.63361 40.2849 9.63044 40.7228C9.62444 41.4384 8.72819 41.4591 8.2111 41.4416L9.01939 42.2447L9.09008 42.2443L8.87244 42.0284C9.34438 41.8594 9.70977 41.4295 9.76589 40.8959C9.84429 40.1517 9.31013 39.4879 8.56624 39.4048C7.82235 39.3218 7.14887 39.86 7.06578 40.6039C6.97198 41.4461 7.67251 42.1624 8.50975 42.1052L8.62518 42.2206Z" fill="#323232"/>
<path d="M7.28643 34.5895C7.36605 34.48 7.44157 34.4719 7.56378 34.5062L8.69536 34.8243L8.82212 35.0162L9.03033 35.0748L8.40558 34.1177C8.2593 33.891 8.22759 33.7258 8.26194 33.6036C8.32174 33.3909 8.57265 33.3149 8.78 33.3243C9.09782 33.3404 10.0372 33.5605 10.3823 33.6184C10.5083 33.6392 10.5622 33.7081 10.5731 33.843L10.8696 32.7884C10.8027 32.8526 10.7243 32.9576 10.5706 32.9485C9.85998 32.9051 9.3567 32.7148 8.92913 32.7069C8.43889 32.6961 8.20286 32.9277 8.12143 33.2174C8.04764 33.4799 8.10709 33.7896 8.22169 34.0074L6.68728 33.5761L6.60211 33.4447L6.53422 33.4257L7.28643 34.5895ZM10.4026 34.4495C10.3415 34.5105 10.2689 34.578 10.1512 34.5449L8.5217 34.0869L9.19907 35.1173L9.2657 35.1409L9.13568 34.9432L9.94589 35.1709C10.0681 35.2053 10.1258 35.2606 10.1367 35.3955L10.4026 34.4495Z" fill="#323232"/>
<path d="M11.9571 28.9112C12.2277 28.9612 12.4405 28.7748 12.5787 28.5075C12.7493 28.1776 12.808 27.7263 12.7301 27.4266C12.8641 27.4642 13.0024 27.3504 13.0823 27.1959L13.2896 26.7949C13.1917 26.8819 13.1138 26.8893 12.9968 26.8288L12.4372 26.5394L12.356 26.328L12.1702 26.2267L12.5623 27.2393L12.5581 27.2371C12.6781 27.5373 12.6663 27.7853 12.5821 27.9482C12.472 28.1612 12.2437 28.2443 12.0159 28.1424C11.4745 27.8995 11.4171 27.1712 11.4207 26.7548L12.4481 27.2861L11.9906 26.1338L11.93 26.1078L12.0112 26.3192L11.4766 26.0427C11.0357 25.8412 10.7733 25.9596 10.607 26.2812C10.4969 26.4942 10.4275 26.8023 10.3784 27.1634C10.3433 27.4258 10.3428 27.6213 10.278 27.7466C10.2478 27.8051 10.2051 27.8466 10.1396 27.8709L9.99591 27.9236L10.0669 27.9603L11.0946 27.6925C10.6893 27.1865 10.7319 26.531 10.8852 26.2345C10.9262 26.1551 10.9753 26.1011 11.0302 26.0871C11.1399 26.0592 11.3188 26.2046 11.3291 26.5328C11.348 27.1513 10.9355 28.7271 11.9571 28.9112Z" fill="#323232"/>
<path d="M13.5737 21.9899L14.1073 22.4217L14.1485 22.6547L14.3167 22.7908L14.197 22.1315L14.1133 21.6221C14.0948 21.3834 14.1324 21.2323 14.2063 21.141C14.3424 20.9728 14.5904 21.0102 14.7954 21.1157C15.0495 21.2427 15.7416 21.6879 16.105 21.9639C16.2066 22.0401 16.2348 22.1173 16.1915 22.2456L16.8807 21.3941C16.7939 21.4266 16.6841 21.495 16.5427 21.423C16.0763 21.1846 15.5405 20.763 15.1442 20.5875C14.685 20.3851 14.3789 20.4943 14.1896 20.7282C14.0269 20.9292 13.9577 21.224 13.9739 21.473C13.8597 21.4048 13.7363 21.4078 13.6299 21.5393L13.2838 21.9669C13.4002 21.8978 13.478 21.9064 13.5737 21.9899ZM15.7951 22.7353C15.7149 22.7672 15.6244 22.7968 15.5264 22.7235L14.24 21.6823L14.4548 22.8966L14.5067 22.9446L14.4654 22.7116L15.0904 23.2174C15.192 23.2936 15.2202 23.3709 15.1769 23.4992L15.7951 22.7353Z" fill="#323232"/>
<path d="M19.4966 18.1489C19.5012 18.0725 19.5301 18.0187 19.5849 17.9742C19.6943 17.8853 19.9055 17.847 20.1487 17.7585C20.4401 17.655 20.6801 17.5328 20.8552 17.3905C21.0815 17.2067 21.1937 16.9944 21.1604 16.767C21.144 16.6349 20.9461 15.9961 20.3162 16.108L19.5366 16.2446L19.4391 18.3168L19.4836 18.3715L19.4966 18.1489ZM19.0547 16.9935L19.2417 16.9627L19.2294 17.2757L19.3561 17.4392L19.4105 16.2683L18.8898 16.3581C18.529 16.421 18.4205 16.3396 18.4034 16.2142C18.394 16.143 18.4419 16.0678 18.5259 15.9996C18.7959 15.7802 19.4644 15.6188 19.9278 15.8238L19.9799 14.7396L19.9354 14.6849L19.9263 14.9346C19.9217 15.011 19.8927 15.0648 19.8416 15.1063C19.7322 15.1953 19.5217 15.2269 19.2785 15.3154C18.987 15.4189 18.7508 15.5382 18.5792 15.6775C18.3639 15.8525 18.2561 16.0552 18.2731 16.2776C18.2877 16.4596 18.4152 17.1011 19.0547 16.9935ZM19.5548 16.9083L20.481 16.7434C20.866 16.673 21.0044 16.7241 21.0341 16.8575C21.0402 16.8949 21.0053 16.9414 20.9433 16.9918C20.6769 17.2082 19.8896 17.4844 19.5445 17.2013L19.5548 16.9083Z" fill="#323232"/>
<path d="M24.7992 14.126C24.8194 14.0522 24.8588 14.0055 24.9215 13.9732C25.0469 13.9086 25.2615 13.9145 25.5176 13.8779C25.8241 13.8365 26.0841 13.7661 26.2847 13.6629C26.5439 13.5294 26.6973 13.3447 26.7115 13.1153C26.7226 12.9827 26.6601 12.3169 26.0206 12.297L25.2296 12.2705L24.7085 14.2785L24.7408 14.3412L24.7992 14.126ZM24.6041 12.9045L24.7935 12.9128L24.7171 13.2165L24.8076 13.4026L25.1013 12.2678L24.5733 12.2488C24.2073 12.2362 24.1177 12.1342 24.1268 12.008C24.1323 11.9364 24.1946 11.8726 24.2907 11.8231C24.6001 11.6639 25.2875 11.6432 25.6989 11.9391L25.9726 10.8887L25.9403 10.826L25.8801 11.0685C25.8599 11.1423 25.8205 11.1891 25.762 11.2192C25.6365 11.2837 25.424 11.2715 25.1679 11.3082C24.8614 11.3496 24.6056 11.4178 24.4091 11.5189C24.1625 11.6459 24.0153 11.8221 23.9863 12.0432C23.9632 12.2244 23.9561 12.8784 24.6041 12.9045ZM25.1111 12.9238L26.0514 12.9527C26.4426 12.9629 26.5676 13.0413 26.5692 13.178C26.5676 13.2158 26.5239 13.2542 26.4528 13.2908C26.1476 13.4479 25.3204 13.5564 25.0408 13.2085L25.1111 12.9238Z" fill="#323232"/>
<path d="M30.5213 10.6684L30.5797 10.8669L31.0831 9.84478C30.9926 9.32866 31.1226 8.96242 31.4524 8.84909C31.8672 8.70796 32.2282 8.98069 32.5027 9.7637C32.7977 10.6045 32.6775 11.0071 32.2614 11.1437C31.5812 11.3661 31.2759 10.5232 31.1276 10.0276L30.6242 11.0497L30.6471 11.1166L30.7823 10.8415C31.0929 11.2349 31.6169 11.4442 32.1405 11.3272C32.8709 11.1643 33.3297 10.4464 33.1713 9.7148C33.0129 8.98324 32.288 8.51653 31.5564 8.67494C30.7283 8.85454 30.2727 9.74691 30.5939 10.5222L30.5213 10.6684Z" fill="#323232"/>
<path d="M37.5255 7.72401L37.5601 8.40959L37.4142 8.59585L37.4251 8.81186L37.8362 8.28266L38.1595 7.88029C38.3249 7.70716 38.4625 7.63431 38.5799 7.62838C38.7959 7.61746 38.9336 7.82706 38.9919 8.05009C39.067 8.32405 39.1975 9.1366 39.2345 9.59137C39.2456 9.71792 39.2069 9.79049 39.0825 9.84385L40.1766 9.78858C40.0944 9.74566 39.9702 9.70956 39.9295 9.55627C39.7957 9.04989 39.7519 8.36948 39.6181 7.95726C39.4621 7.48024 39.1766 7.32519 38.876 7.34037C38.6178 7.35341 38.3521 7.49865 38.1775 7.67695C38.152 7.54642 38.0675 7.45654 37.8984 7.46508L37.349 7.49283C37.4782 7.53338 37.5238 7.59699 37.5255 7.72401ZM38.4533 9.87564C38.376 9.83717 38.2936 9.78955 38.2827 9.6677L38.1992 8.01481L37.4385 8.98536L37.4374 9.05603L37.5834 8.86977L37.6239 9.67274C37.635 9.79928 37.5963 9.87186 37.4719 9.92522L38.4533 9.87564Z" fill="#323232"/>
<path d="M49.4391 10.5294C49.4109 10.6679 49.4727 10.7629 49.645 10.81L50.171 10.9541C50.0656 10.8764 50.0421 10.8018 50.0757 10.6793L50.2507 10.0399L50.4488 9.90405L50.5047 9.69998L49.516 10.3555C49.3555 10.4431 49.2181 10.464 49.1048 10.433C48.8009 10.3498 48.6624 9.91214 48.7589 9.5242C48.9494 8.75739 49.5795 8.27184 49.9859 8.51473L49.5227 10.2062L50.5531 9.52312L50.5717 9.4551L50.3749 9.58645L51.0206 7.22836L51.1456 7.1456L51.1642 7.07757L50.0101 7.83888C50.1201 7.91775 50.1398 7.95241 50.1063 8.07485L50.012 8.41949C49.9118 8.35795 49.8034 8.30877 49.6991 8.28021C49.0506 8.10265 48.3566 8.53659 48.1195 9.34913C47.9221 10.0166 48.1718 10.5822 48.6299 10.7076C48.8566 10.7697 49.1371 10.7246 49.4391 10.5294Z" fill="#323232"/>
<path d="M54.1676 12.0987L53.9131 12.1973L53.8247 12.3844L57.1036 11.0976L57.1394 11.0262L56.9564 11.0975C56.8891 11.1269 56.826 11.1164 56.7671 11.0869C56.5611 10.9837 56.3953 10.6114 56.1031 10.4388C55.4558 10.062 54.6145 10.3033 54.2503 10.957C54.0482 11.3185 54.0332 11.7369 54.1676 12.0987ZM55.7036 10.4281C55.7646 10.4323 55.8256 10.4471 55.876 10.4723C56.2249 10.6471 56.2645 11.2611 55.5746 11.5361L54.6555 11.9013C54.7274 11.3589 55.0476 10.3835 55.7036 10.4281ZM53.7341 12.5547L53.7067 12.6198L54.3083 12.3742C54.4217 12.5467 54.5772 12.6982 54.7664 12.8035C55.5315 13.2287 55.8997 12.7664 56.2677 12.7771L55.8305 12.5581C55.8599 12.6255 55.8367 12.6927 55.7988 12.7158C55.6179 12.825 55.3235 12.9195 55.0586 12.8184C54.8463 12.7383 54.674 12.5574 54.649 12.2399L54.6448 12.1852L53.7341 12.5547Z" fill="#323232"/>
<path d="M59.7173 15.072C59.7929 15.0598 59.8517 15.0765 59.907 15.1202C60.0175 15.2078 60.1007 15.4057 60.2398 15.6239C60.4041 15.8859 60.5754 16.0937 60.7523 16.2338C60.9808 16.4148 61.2124 16.4783 61.4272 16.3965C61.5525 16.3519 62.1332 16.0201 61.8874 15.4295L61.585 14.6981L59.541 15.0522L59.4972 15.1075L59.7173 15.072ZM60.7494 14.39L60.82 14.5659L60.5119 14.6217L60.3797 14.7809L61.5345 14.5801L61.3339 14.0913C61.1943 13.7527 61.2502 13.6291 61.369 13.5852C61.4364 13.5607 61.5203 13.5911 61.605 13.6582C61.8777 13.8743 62.1803 14.4919 62.0806 14.9887L63.1503 14.8044L63.1941 14.7492L62.9483 14.7944C62.8728 14.8065 62.8139 14.7899 62.7623 14.749C62.6518 14.6614 62.5752 14.4628 62.4361 14.2447C62.2718 13.9826 62.1042 13.7778 61.931 13.6405C61.7135 13.4683 61.4922 13.4069 61.2788 13.4718C61.1043 13.5255 60.5057 13.7891 60.7494 14.39ZM60.9411 14.8598L61.3028 15.7282C61.4551 16.0887 61.4352 16.235 61.3114 16.2928C61.2762 16.3069 61.2232 16.283 61.1606 16.2333C60.8916 16.0202 60.4513 15.3115 60.6528 14.9133L60.9411 14.8598Z" fill="#323232"/>
<path d="M64.9605 20.0117C64.9089 19.8866 64.9318 19.8143 65.0285 19.7249L65.8989 18.9211L64.6565 18.9549L64.6047 19.0027L64.8444 18.9989L64.5681 19.2541C64.4748 19.3403 64.3728 19.3129 64.2906 19.2864L64.9605 20.0117ZM66.0334 18.8033L66.4343 18.4267C66.0713 18.3523 65.9593 18.2381 65.7066 17.9851C65.7581 18.1103 65.722 18.1821 65.6288 18.2682L65.1866 18.6765L64.9501 18.6837L64.7947 18.8273L66.0334 18.8033ZM66.2801 18.1211C66.4175 18.263 66.64 18.2751 66.7885 18.138C66.9301 18.0072 66.9391 17.7813 66.8051 17.6362C66.6711 17.4911 66.4452 17.4822 66.3036 17.6129C66.1551 17.7501 66.1461 17.976 66.2801 18.1211Z" fill="#323232"/>
<path d="M65.8422 22.4867L65.9818 22.5348C66.0092 22.5504 66.0327 22.5686 66.0457 22.5882C66.1947 22.811 65.379 23.2997 65.8977 24.1688C66.2558 24.7721 66.8479 24.8457 67.7509 24.2421C68.1339 23.9861 68.5196 23.7339 68.9027 23.4778L69.0813 23.4998L69.2598 23.3861L68.1239 23.235C67.9217 23.1948 67.7951 23.1154 67.7298 23.0177C67.5573 22.7597 67.7824 22.3604 68.1159 22.1148C68.6801 21.6981 69.4274 21.8093 69.6118 22.229L68.2398 23.1292L69.3992 23.2816L69.4644 23.2437L69.2896 23.2192L69.9072 22.8063C70.0167 22.7332 70.0923 22.7279 70.2019 22.8073L69.9485 22.4281C69.8884 22.3382 69.8048 22.264 69.7187 22.2367C69.6807 22.1037 69.6232 21.9838 69.5527 21.8783C69.1738 21.3115 68.3964 21.1638 67.7124 21.6041C67.1873 21.9438 66.9584 22.4814 67.2223 22.8762C67.3504 23.0677 67.5944 23.2213 67.9779 23.3043C67.7785 23.4375 67.574 23.563 67.3772 23.7001C66.7245 24.1534 66.5411 24.5814 66.2109 24.3327C66.1757 24.3054 66.1443 24.2754 66.1208 24.2403C65.8256 23.7986 66.552 22.8209 66.994 22.78L65.8865 22.4514L65.8422 22.4867Z" fill="#323232"/>
<path d="M72.3593 26.9107L71.7218 27.1653L71.4983 27.0874L71.2974 27.1676L71.9312 27.3854L72.4165 27.5612C72.6338 27.6617 72.7473 27.7683 72.7909 27.8775C72.8711 28.0783 72.7173 28.2764 72.5251 28.4038C72.2902 28.5634 71.5635 28.9497 71.1452 29.132C71.029 29.1834 70.9478 29.1703 70.8571 29.0698L71.2633 30.0872C71.2774 29.9955 71.2713 29.8663 71.4032 29.7782C71.8391 29.4877 72.4687 29.2262 72.8155 28.9662C73.2164 28.6644 73.2708 28.344 73.1592 28.0645C73.0633 27.8244 72.8399 27.6199 72.6147 27.5124C72.73 27.4461 72.7877 27.337 72.7249 27.1798L72.5209 26.669C72.5244 26.8043 72.4789 26.868 72.3593 26.9107ZM70.6235 28.4847C70.6349 28.3991 70.6533 28.3057 70.7651 28.256L72.3021 27.6423L71.1376 27.2365L71.0704 27.2583L71.2938 27.3361L70.5472 27.6342C70.431 27.6857 70.3498 27.6725 70.2591 27.5721L70.6235 28.4847Z" fill="#323232"/>
<path d="M73.4669 37.5647C73.2087 37.6599 73.1208 37.9288 73.1384 38.2292C73.1601 38.6 73.34 39.018 73.56 39.2359C73.4255 39.2721 73.3647 39.4405 73.3749 39.6141L73.4013 40.0647C73.4411 39.9399 73.5043 39.8938 73.6357 39.8862L74.2647 39.8493L74.4424 39.9896L74.6539 39.982L73.7999 39.3114L73.8046 39.3111C73.5482 39.1142 73.4317 38.8949 73.421 38.7119C73.407 38.4725 73.5608 38.2845 73.8088 38.2559C74.3982 38.1884 74.8194 38.7854 75.0288 39.1452L73.8742 39.2128L74.8558 39.9702L74.9212 39.9616L74.7434 39.8213L75.3442 39.7862C75.8263 39.7344 75.9915 39.4987 75.9703 39.1372C75.9563 38.8979 75.8587 38.5974 75.7166 38.2619C75.6128 38.0184 75.5135 37.85 75.5053 37.7091C75.5014 37.6434 75.5169 37.586 75.5608 37.5316L75.6575 37.4129L75.5777 37.4176L74.8306 38.1725C75.4374 38.4007 75.7354 38.9862 75.7549 39.3194C75.7601 39.4086 75.7455 39.4801 75.7054 39.5201C75.6253 39.6002 75.3973 39.5664 75.221 39.2894C74.889 38.7672 74.4394 37.2016 73.4669 37.5647Z" fill="#323232"/>
<path d="M75.6089 44.3415L74.9296 44.2425L74.7752 44.0632L74.5612 44.032L75.0006 44.5379L75.3326 44.9331C75.4704 45.129 75.5151 45.2781 75.4982 45.3944C75.467 45.6084 75.2347 45.7029 75.0046 45.7168C74.7213 45.7373 73.8988 45.7077 73.4455 45.6559C73.3192 45.6422 73.2555 45.5902 73.2273 45.4578L73.0693 46.5418C73.1273 46.4695 73.1868 46.3546 73.3451 46.3445C73.8679 46.3114 74.5438 46.4004 74.9742 46.3491C75.4724 46.2887 75.6799 46.0386 75.7233 45.7408C75.7606 45.4849 75.6696 45.1961 75.5286 44.9902C75.6616 44.9906 75.7662 44.9251 75.7906 44.7576L75.8699 44.2132C75.8051 44.3321 75.7338 44.3644 75.6089 44.3415ZM73.3182 44.8343C73.3709 44.766 73.4336 44.6944 73.5552 44.7073L75.1929 44.9461L74.3884 44.0115L74.3193 43.9967L74.4737 44.176L73.6781 44.0601C73.5518 44.0464 73.4881 43.9943 73.4599 43.8619L73.3182 44.8343Z" fill="#323232"/>
<path d="M71.972 51.9643C71.836 51.9256 71.7366 51.9798 71.6763 52.148L71.4923 52.6614C71.5778 52.5622 71.654 52.5446 71.7735 52.5874L72.3976 52.8112L72.5178 53.0191L72.717 53.0905L72.1395 52.0543C72.0644 51.8876 72.0541 51.749 72.0938 51.6384C72.2001 51.3419 72.6471 51.2374 73.0265 51.3634C73.7764 51.6123 74.212 52.2779 73.9386 52.6644L72.2878 52.0725L72.8896 53.1524L72.956 53.1762L72.8402 52.9699L75.1416 53.795L75.2145 53.926L75.2809 53.9498L74.6106 52.7405C74.5235 52.8441 74.4874 52.8612 74.3679 52.8183L74.0316 52.6977C74.1006 52.6026 74.158 52.4983 74.1945 52.3965C74.4214 51.7636 74.0421 51.0383 73.2502 50.7394C72.6 50.4913 72.0168 50.6967 71.8566 51.1438C71.7772 51.3651 71.8006 51.6481 71.972 51.9643Z" fill="#323232"/>
<path d="M69.6341 61.2924L67.8412 60.57C67.6146 60.4799 67.4171 60.5143 67.3034 60.646C67.2235 60.7385 67.1868 60.8745 67.2095 61.0495L67.3401 61.97L66.8428 61.733C66.6046 61.6204 66.4494 61.6417 66.3665 61.7378C66.2835 61.8339 66.2833 62.0139 66.3641 62.208L67.1992 64.1471C67.2472 64.2569 67.2079 64.4031 67.1692 64.5126L67.578 64.0394C67.4901 64.0692 67.3522 64.1426 67.2885 64.0006L66.7359 62.7342C66.6798 62.605 66.6842 62.528 66.7149 62.4924C66.7395 62.4639 66.7824 62.4575 66.8272 62.4775L67.4499 62.742L67.4587 62.8181L67.6046 62.9441L67.4135 61.468C67.3962 61.3226 67.4072 61.2451 67.4441 61.2024C67.4902 61.149 67.5819 61.1723 67.6954 61.2207L69.1792 61.819C69.3233 61.8752 69.3009 61.9801 69.2566 62.1034L70.0066 61.2352C69.9161 61.2752 69.7955 61.3573 69.6341 61.2924ZM68.5824 62.5026L67.6094 62.097L67.7505 63.0701L67.8039 63.1162L67.7732 62.8784L68.1372 63.0252C68.2885 63.0875 68.2524 63.1868 68.205 63.3136L68.9211 62.4846C68.8333 62.5143 68.7372 62.568 68.5824 62.5026Z" fill="#323232"/>
<path d="M61.2807 67.0647L61.3176 66.7943L61.1967 66.6263L60.7346 70.1182L60.7798 70.1841L60.8059 69.9895C60.8128 69.9164 60.8526 69.8663 60.9069 69.8291C61.0969 69.6988 61.503 69.734 61.7955 69.562C62.4387 69.1781 62.635 68.3252 62.2394 67.69C62.021 67.3381 61.6622 67.1224 61.2807 67.0647ZM61.9984 69.2177C61.9651 69.269 61.9227 69.3152 61.8762 69.3471C61.5543 69.5677 60.9979 69.3049 61.0914 68.5682L61.217 67.5872C61.6568 67.9127 62.3551 68.6653 61.9984 69.2177ZM61.0916 66.4646L61.0479 66.4091L60.9714 67.0544C60.7656 67.0701 60.5577 67.1327 60.374 67.2473C59.6315 67.7107 59.8576 68.2568 59.67 68.5735L60.0733 68.2971C60.0002 68.2902 59.9526 68.2373 59.9507 68.193C59.9427 67.9819 60.0027 67.6785 60.2194 67.4958C60.3923 67.3488 60.6341 67.2856 60.924 67.4175L60.9738 67.4404L61.0916 66.4646Z" fill="#323232"/>
<path d="M55.3222 70.4871C54.5386 70.7833 54.2083 71.5858 54.5255 72.3706C54.7894 73.0197 55.2527 73.2042 55.6285 73.0425C55.853 72.9459 56.0472 72.719 56.1436 72.396L56.8331 73.9983L56.7876 74.1305L56.8174 74.1996L57.2445 72.8846L57.2402 72.8864C57.1093 72.8916 57.0722 72.8768 57.0221 72.7602L56.4528 71.4491L56.529 71.2218L56.4454 71.0275L56.0735 72.1498C55.9998 72.3709 55.8956 72.4976 55.7747 72.5496C55.5501 72.6463 55.2763 72.4621 55.1067 72.1154C54.8125 71.5151 54.93 70.7889 55.3613 70.5778L55.9838 72.0246L56.3748 70.8634L56.3506 70.8072L56.2744 71.0345L56.0254 70.4558C55.9733 70.3349 55.9757 70.2571 56.078 70.1618L55.3222 70.4871Z" fill="#323232"/>
<path d="M27.5709 45.9046L27.0635 46.0367L27.1046 47.0695L27.136 47.2334L27.128 47.4004L27.1457 48.1023L28.3013 47.796L28.5322 47.7189L28.7797 47.6692L29.1406 47.5735L29.1267 47.3369L29.0997 47.2639L29.1168 47.1687L29.102 46.9163L29.0459 45.9627L29.0178 45.8352L29.0279 45.6565L29.0198 45.5186L28.8907 45.5587L28.769 45.5844L27.6907 45.8672L27.5995 45.9251L27.5709 45.9046Z" fill="#323232"/>
<path d="M54.3199 34.1512L53.8125 34.2833L53.8537 35.3161L53.885 35.48L53.877 35.6469L53.8948 36.3488L55.0503 36.0426L55.2812 35.9654L55.5287 35.9157L55.8896 35.8201L55.8757 35.5835L55.8487 35.5105L55.8658 35.4153L55.851 35.1629L55.7949 34.2093L55.7668 34.0818L55.7769 33.9031L55.7688 33.7651L55.6397 33.8052L55.518 33.8309L54.4398 34.1138L54.3486 34.1717L54.3199 34.1512Z" fill="#323232"/>
<path d="M31.5723 41.8564L48.3101 24.8843C49.3868 23.8077 50.7502 23.3395 52.1406 23.3826C51.8988 23.611 52.7805 23.5393 52.714 23.7528C52.733 23.7169 52.7883 23.722 53.6351 23.6218C56.2023 24.363 58.5387 26.7617 58.9576 30.1869L57.829 30.0164L56.4448 29.8035C55.5291 25.4167 51.2914 25.076 49.7582 26.6092L46.0918 30.3458L45.3521 30.9537L44.6681 31.7778L36.4611 40.1393L35.7771 40.5793L35.301 41.3139L32.3389 44.3267L31.5723 41.8564Z" fill="#323232"/>
<path d="M34.8738 57.0824C31.4027 60.5536 24.9504 57.7 24.2263 51.7799L25.355 51.9504L26.0471 52.0568L26.7391 52.1633C26.7391 52.1633 26.6834 52.3329 26.6834 52.6368C26.6529 52.7888 26.8607 53.9287 27.0116 53.1181C28.3003 56.5919 32.0123 56.7711 33.4257 55.3576L43.2976 45.291L43.9588 44.759L44.6559 43.9231L49.6312 38.8539L52.144 39.578L42.2363 49.6157L41.603 50.1291L41.1272 50.737L34.8738 57.0824Z" fill="#323232"/>
<path d="M40.9193 73.2372L40.6085 73.6125L41.191 74.3443L41.3022 74.4468L41.3853 74.5732L41.7736 75.0762L42.4786 74.2172L42.611 74.034L42.7705 73.8616L42.9907 73.5933L42.8539 73.4282L42.7946 73.3897L42.7566 73.3107L42.6106 73.1345L42.0591 72.4688L41.9698 72.3911L41.882 72.255L41.8022 72.1587L41.7266 72.259L41.6488 72.3446L40.9894 73.144L40.9518 73.2364L40.9193 73.2372Z" fill="#323232" stroke="#252525" stroke-width="0.0399646"/>
</svg>
