<svg width="431" height="417" viewBox="0 0 431 417" fill="none" xmlns="http://www.w3.org/2000/svg">
<path d="M158.618 366.219L157.847 366.366C157.662 366.358 157.531 366.35 157.421 366.298C156.168 365.703 158.34 361.64 153.748 359.162C150.554 357.43 147.726 358.675 145.313 363.756C143.945 366.637 142.566 369.54 141.198 372.422L147.103 369.862L147.26 369.532L146.115 370.013C146.878 368.407 147.673 366.79 148.413 365.174C150.134 361.436 149.791 359.036 151.92 359.265C152.149 359.293 152.368 359.343 152.566 359.437C155.051 360.617 154.416 366.893 152.56 368.248L158.492 366.483L158.618 366.219ZM146.686 370.742L140.779 373.247L139.579 375.831C140.826 375.588 141.676 375.614 142.939 376.133L143.928 376.549C143.439 376.047 143.474 375.632 143.756 375.038L145.093 372.223L146.215 371.732L146.686 370.742ZM141.777 379.49C142.204 378.533 141.833 377.441 140.909 377.002C139.986 376.563 138.883 376.956 138.434 377.902C138.005 378.804 138.398 379.907 139.322 380.345C140.246 380.784 141.349 380.391 141.777 379.49Z" fill="white"/>
<path d="M130.525 364.298L131.105 363.397L125.395 364.885C123.679 366.987 121.804 367.717 120.243 366.808C118.285 365.66 118.133 363.323 120.272 359.596C122.568 355.593 124.553 354.702 126.497 355.87C129.671 357.782 127.402 361.832 125.961 364.092L131.671 362.604L131.856 362.288L130.32 362.69C130.81 360.14 129.856 357.378 127.626 355.722C124.514 353.412 120.148 354.044 117.817 357.141C115.486 360.239 116.111 364.66 119.208 366.99C122.716 369.628 127.755 368.392 129.707 364.509L130.525 364.298Z" fill="white"/>
<path d="M92.9076 350.096C92.6293 349.452 92.7924 349.094 93.2676 348.64L97.6675 344.434L98.8572 344.374L99.6668 343.6L93.7538 343.863C92.3576 343.918 91.5376 343.624 91.0833 343.149C90.2924 342.322 90.6148 341.003 91.2034 340.103C92.1126 338.729 95.5691 335.121 96.7369 333.735C97.1616 333.228 97.6107 333.169 98.241 333.476L94.3205 329.375C94.4305 329.843 94.692 330.469 94.2466 331.13C92.1803 334.184 90.0056 335.926 88.8438 337.811C87.5037 339.969 87.9141 341.631 88.991 342.757C89.9669 343.778 91.5045 344.329 92.7775 344.392L86.8111 350.097L86.0009 350.13L85.7369 350.382L92.9076 350.096ZM100.496 335.835C100.607 336.268 100.716 336.769 100.258 337.207L93.9222 343.264L100.301 342.96L100.582 342.725L99.3579 342.784L102.508 339.772C102.983 339.318 103.382 339.206 104.012 339.513L100.496 335.835Z" fill="white"/>
<path d="M79.8458 314.243C80.7815 313.169 80.5115 311.729 79.6841 310.408C78.6627 308.778 76.8054 307.327 75.264 306.885C75.7848 306.386 75.6418 305.47 75.1635 304.707L73.9224 302.726C74.0522 303.392 73.8797 303.758 73.3019 304.12L70.537 305.853L69.3805 305.658L68.4391 306.219L73.9867 307.139L73.9661 307.152C75.6208 307.408 76.6953 308.114 77.1995 308.919C77.8588 309.971 77.6279 311.208 76.5731 311.955C74.0638 313.729 70.6654 312.065 68.8187 310.952L73.8945 307.772L67.5519 306.775L67.2759 306.977L68.4324 307.171L65.7914 308.826C63.7308 310.261 63.5672 311.743 64.5627 313.331C65.2221 314.384 66.4132 315.505 67.8934 316.675C68.9706 317.523 69.841 318.041 70.2289 318.66C70.4098 318.949 70.4825 319.248 70.4183 319.604L70.2747 320.384L70.6254 320.164L72.1397 314.877C68.8159 315.35 66.0056 313.433 65.0877 311.968C64.8421 311.576 64.7307 311.215 64.813 310.933C64.9775 310.371 66.0972 309.956 67.5873 310.775C70.3946 312.321 76.3325 318.312 79.8458 314.243Z" fill="white"/>
<path d="M53.2138 288.717L56.5452 287.476L57.6928 287.906L58.7424 287.515L55.4877 286.311L52.9963 285.342C51.8832 284.795 51.3088 284.23 51.0964 283.659C50.7054 282.61 51.5256 281.603 52.5359 280.966C53.7717 280.168 57.5805 278.256 59.7683 277.363C60.3759 277.111 60.7947 277.189 61.2523 277.72L59.2722 272.404C59.1885 272.876 59.2041 273.546 58.5106 273.986C56.2189 275.437 52.9273 276.715 51.1005 278.019C48.9882 279.534 48.6681 281.186 49.212 282.646C49.6794 283.901 50.8112 284.987 51.9641 285.571C51.3592 285.9 51.0473 286.458 51.3533 287.279L52.3476 289.949C52.3463 289.248 52.5893 288.923 53.2138 288.717ZM62.3911 280.778C62.3217 281.219 62.2152 281.701 61.6304 281.944L53.5985 284.936L59.5782 287.178L59.9289 287.073L58.7814 286.643L62.6833 285.19C63.2908 284.938 63.7096 285.016 64.1672 285.547L62.3911 280.778Z" fill="white"/>
<path d="M56.8785 243.785L56.3606 243.197C56.2724 243.034 56.2129 242.917 56.2019 242.795C56.0765 241.413 60.6794 241.216 60.4752 236.002C60.3412 232.371 57.8306 230.57 52.229 231.078C49.0523 231.367 45.8514 231.657 42.6747 231.945L47.8833 235.727L48.247 235.694L47.2507 234.953C49.0209 234.792 50.8176 234.654 52.5856 234.469C56.6794 234.048 58.571 232.532 59.4569 234.481C59.5495 234.692 59.6178 234.906 59.6376 235.124C59.8863 237.865 54.1609 240.511 52.0492 239.603L56.5876 243.812L56.8785 243.785ZM46.9133 235.815L41.751 232.005L38.9161 232.287C39.7602 233.237 40.1702 233.982 40.3662 235.333L40.5115 236.396C40.6946 235.719 41.0693 235.538 41.7241 235.479L44.828 235.197L45.8221 235.914L46.9133 235.815ZM36.8852 236.04C37.9257 235.922 38.6776 235.046 38.5851 234.028C38.4927 233.01 37.5934 232.26 36.5507 232.354C35.5564 232.445 34.8068 233.344 34.8992 234.363C34.9917 235.381 35.891 236.131 36.8852 236.04Z" fill="white"/>
<path d="M44.2376 218.624L45.3084 218.665L41.1225 214.506C38.4396 214.099 36.8567 212.855 36.8449 211.05C36.8371 208.78 38.7717 207.459 43.0685 207.404C47.6826 207.344 49.46 208.6 49.4436 210.867C49.4125 214.573 44.771 214.68 42.0932 214.59L46.2791 218.749L46.6452 218.747L45.5181 217.629C47.9621 216.753 49.8544 214.527 50.1451 211.764C50.5511 207.91 47.7848 204.472 43.9323 204.042C40.0799 203.612 36.5921 206.399 36.1618 210.252C35.676 214.613 39.3039 218.323 43.6398 218.026L44.2376 218.624Z" fill="white"/>
<path d="M37.3217 179.014C37.734 178.447 38.1252 178.405 38.7581 178.583L44.6182 180.23L45.2747 181.224L46.353 181.527L43.1176 176.571C42.36 175.397 42.1958 174.541 42.3737 173.908C42.6834 172.806 43.9827 172.413 45.0566 172.462C46.7025 172.545 51.5671 173.685 53.3544 173.985C54.0071 174.092 54.2862 174.449 54.3427 175.148L55.878 169.686C55.5315 170.019 55.1258 170.562 54.3296 170.516C50.6495 170.291 48.0432 169.305 45.8289 169.264C43.2901 169.208 42.0677 170.408 41.646 171.908C41.2639 173.267 41.5718 174.871 42.1652 175.999L34.2189 173.766L33.7778 173.085L33.4262 172.986L37.3217 179.014ZM53.4598 178.289C53.1434 178.605 52.767 178.954 52.1575 178.783L43.7189 176.411L47.2269 181.747L47.5719 181.869L46.8986 180.846L51.0945 182.025C51.7273 182.203 52.0262 182.489 52.0828 183.188L53.4598 178.289Z" fill="white"/>
<path d="M61.5395 149.526C62.9408 149.785 64.0429 148.819 64.7587 147.435C65.6422 145.726 65.9462 143.389 65.5426 141.837C66.2369 142.032 66.9527 141.443 67.3666 140.642L68.4402 138.566C67.9331 139.016 67.5297 139.055 66.9241 138.741L64.0258 137.243L63.6051 136.148L62.643 135.623L64.6736 140.867L64.652 140.856C65.2734 142.411 65.2124 143.695 64.7762 144.539C64.2059 145.642 63.0239 146.072 61.844 145.544C59.0405 144.286 58.7432 140.514 58.7616 138.358L64.0822 141.11L61.7129 135.142L61.3989 135.007L61.8197 136.102L59.0512 134.671C56.7676 133.627 55.4088 134.24 54.5477 135.905C53.9773 137.008 53.6181 138.604 53.364 140.474C53.1822 141.833 53.1793 142.846 52.8438 143.494C52.6872 143.797 52.4665 144.012 52.1272 144.138L51.383 144.411L51.7507 144.601L57.073 143.214C54.9741 140.594 55.1944 137.199 55.9885 135.664C56.201 135.253 56.4552 134.973 56.7394 134.901C57.3076 134.756 58.234 135.509 58.2871 137.208C58.3852 140.412 56.2489 148.572 61.5395 149.526Z" fill="white"/>
<path d="M69.9613 113.611L72.7246 115.848L72.9383 117.054L73.809 117.759L73.1895 114.345L72.7558 111.707C72.6601 110.47 72.8547 109.688 73.2376 109.215C73.9423 108.344 75.2265 108.538 76.2882 109.084C77.604 109.742 81.1883 112.047 83.0702 113.477C83.5965 113.871 83.7425 114.271 83.5182 114.936L87.0874 110.526C86.6377 110.694 86.0691 111.048 85.3373 110.675C82.922 109.441 80.147 107.258 78.0948 106.349C75.7165 105.301 74.1313 105.866 73.1509 107.077C72.3084 108.118 71.9499 109.645 72.0338 110.934C71.4426 110.581 70.8036 110.597 70.2522 111.278L68.4599 113.492C69.0628 113.135 69.4656 113.179 69.9613 113.611ZM81.4655 117.472C81.0501 117.637 80.5815 117.79 80.0741 117.411L73.4119 112.019L74.5246 118.307L74.7932 118.556L74.5794 117.349L77.8159 119.968C78.3423 120.363 78.4883 120.763 78.264 121.427L81.4655 117.472Z" fill="white"/>
<path d="M100.696 93.655C100.72 93.2593 100.87 92.9806 101.153 92.7503C101.72 92.2897 102.814 92.0913 104.073 91.6332C105.583 91.097 106.825 90.4641 107.732 89.7271C108.904 88.7752 109.485 87.6757 109.313 86.4981C109.228 85.8142 108.203 82.5059 104.941 83.0856L100.904 83.7928L100.398 94.5242L100.629 94.8077L100.696 93.655ZM98.4076 87.6713L99.3761 87.512L99.3122 89.1324L99.9688 89.9793L100.25 83.9156L97.5539 84.3807C95.6853 84.7066 95.1232 84.2849 95.0346 83.6353C94.9862 83.2668 95.2343 82.877 95.669 82.5239C97.0675 81.3878 100.529 80.5518 102.929 81.6138L103.199 75.9988L102.969 75.7153L102.921 77.0087C102.898 77.4043 102.748 77.683 102.483 77.898C101.916 78.3586 100.826 78.5227 99.5668 78.9809C98.0574 79.517 96.8337 80.1346 95.9454 80.8562C94.8304 81.762 94.2717 82.812 94.3602 83.9636C94.4357 84.9061 95.0957 88.2286 98.4076 87.6713ZM100.998 87.2298L105.794 86.3762C107.788 86.0114 108.505 86.276 108.658 86.9669C108.69 87.1606 108.51 87.4016 108.188 87.6626C106.809 88.7833 102.731 90.2134 100.945 88.7475L100.998 87.2298Z" fill="white"/>
<path d="M128.235 72.7719C128.339 72.3895 128.543 72.1476 128.868 71.9804C129.517 71.6461 130.629 71.6767 131.955 71.4869C133.542 71.2723 134.888 70.9081 135.928 70.3732C137.27 69.6823 138.065 68.7256 138.138 67.5377C138.195 66.851 137.872 63.4027 134.56 63.2998L130.464 63.1626L127.765 73.5615L127.932 73.8862L128.235 72.7719ZM127.224 66.4458L128.205 66.4887L127.809 68.0615L128.278 69.0253L129.799 63.1486L127.065 63.05C125.169 62.985 124.705 62.4568 124.752 61.8029C124.781 61.4323 125.103 61.1018 125.601 60.8455C127.203 60.0209 130.763 59.9139 132.894 61.4463L134.311 56.0065L134.144 55.6817L133.832 56.9377C133.728 57.3201 133.523 57.5621 133.22 57.7181C132.571 58.0524 131.47 57.989 130.144 58.1788C128.556 58.3934 127.232 58.7465 126.214 59.2702C124.937 59.9277 124.175 60.8405 124.025 61.9857C123.905 62.9236 123.868 66.3108 127.224 66.4458ZM129.85 66.5457L134.719 66.6956C136.745 66.7482 137.393 67.1544 137.401 67.8622C137.392 68.0583 137.166 68.2569 136.798 68.4464C135.218 69.2599 130.934 69.8218 129.486 68.0201L129.85 66.5457Z" fill="white"/>
<path d="M157.95 54.8338L158.253 55.8619L160.86 50.5685C160.391 47.8956 161.064 45.999 162.772 45.4121C164.921 44.6812 166.79 46.0936 168.211 50.1486C169.739 54.5029 169.116 56.5877 166.962 57.2951C163.439 58.4472 161.858 54.0821 161.09 51.5152L158.483 56.8086L158.602 57.1548L159.302 55.7302C160.911 57.7676 163.624 58.8514 166.336 58.2458C170.118 57.4019 172.494 53.684 171.674 49.8954C170.853 46.1068 167.099 43.6898 163.311 44.5102C159.022 45.4403 156.663 50.0616 158.326 54.0767L157.95 54.8338Z" fill="white"/>
<path d="M194.315 39.5715L194.495 43.122L193.739 44.0866L193.795 45.2052L195.924 42.4646L197.599 40.3809C198.456 39.4843 199.168 39.107 199.776 39.0763C200.894 39.0198 201.608 40.1052 201.91 41.2602C202.298 42.679 202.974 46.887 203.166 49.2422C203.224 49.8975 203.023 50.2734 202.379 50.5497L208.045 50.2635C207.619 50.0412 206.976 49.8543 206.765 49.0604C206.072 46.438 205.845 42.9143 205.152 40.7795C204.345 38.3091 202.866 37.5061 201.31 37.5848C199.972 37.6523 198.596 38.4045 197.692 39.3278C197.56 38.6518 197.122 38.1864 196.247 38.2306L193.402 38.3743C194.07 38.5843 194.306 38.9137 194.315 39.5715ZM199.12 50.7143C198.72 50.5151 198.293 50.2685 198.237 49.6375L197.805 41.0775L193.865 46.1038L193.859 46.4698L194.615 45.5052L194.825 49.6635C194.883 50.3189 194.682 50.6947 194.038 50.9711L199.12 50.7143Z" fill="white"/>
<path d="M256.146 54.1138C256 54.8312 256.32 55.3227 257.212 55.5671L259.937 56.313C259.39 55.9109 259.269 55.5243 259.443 54.8902L260.349 51.5789L261.375 50.8752L261.664 49.8184L256.544 53.213C255.713 53.667 255.002 53.7752 254.415 53.6145C252.841 53.1836 252.124 50.9171 252.623 48.908C253.61 44.9369 256.873 42.4224 258.978 43.6802L256.579 52.44L261.915 48.9025L262.012 48.5502L260.992 49.2304L264.336 37.0184L264.984 36.5898L265.08 36.2375L259.103 40.1801C259.673 40.5886 259.775 40.7681 259.601 41.4022L259.113 43.187C258.594 42.8683 258.033 42.6136 257.492 42.4657C254.134 41.5462 250.54 43.7934 249.312 48.0014C248.29 51.4578 249.583 54.3869 251.955 55.0364C253.129 55.3579 254.582 55.1245 256.146 54.1138Z" fill="white"/>
<path d="M280.714 62.2711L279.396 62.782L278.938 63.7509L295.919 57.0869L296.104 56.7168L295.157 57.0864C294.808 57.2387 294.481 57.184 294.177 57.0313C293.11 56.4971 292.251 54.5691 290.738 53.6752C287.385 51.7238 283.029 52.9732 281.143 56.3585C280.096 58.2308 280.018 60.3977 280.714 62.2711ZM288.669 53.6194C288.985 53.6414 289.3 53.7178 289.562 53.8487C291.369 54.7536 291.574 57.9334 288.001 59.3576L283.241 61.2492C283.613 58.44 285.272 53.3885 288.669 53.6194ZM278.469 64.6326L278.328 64.9701L281.443 63.6981C282.03 64.5914 282.836 65.3759 283.815 65.921C287.777 68.1233 289.685 65.7289 291.59 65.7846L289.326 64.6506C289.478 64.9992 289.358 65.3476 289.162 65.4672C288.225 66.0328 286.7 66.5218 285.329 65.9983C284.229 65.5837 283.337 64.6467 283.207 63.0023L283.186 62.7192L278.469 64.6326Z" fill="white"/>
<path d="M309.528 77.7169C309.919 77.6542 310.224 77.7402 310.51 77.967C311.083 78.4206 311.514 79.4453 312.234 80.5751C313.085 81.9324 313.972 83.0081 314.888 83.7339C316.072 84.6713 317.271 85.0003 318.383 84.5766C319.032 84.3454 322.04 82.6274 320.766 79.5685L319.201 75.7808L308.615 77.6148L308.388 77.9011L309.528 77.7169ZM314.873 74.1853L315.239 75.0962L313.643 75.3852L312.959 76.2099L318.939 75.1698L317.9 72.6384C317.177 70.885 317.467 70.2447 318.082 70.0174C318.431 69.8903 318.865 70.0479 319.304 70.3957C320.717 71.5145 322.283 74.7128 321.767 77.2859L327.307 76.3316L327.534 76.0453L326.261 76.2795C325.869 76.3422 325.565 76.2562 325.298 76.0446C324.725 75.591 324.328 74.5623 323.608 73.4325C322.757 72.0752 321.889 71.0146 320.992 70.304C319.866 69.4119 318.72 69.0941 317.615 69.4302C316.711 69.7083 313.611 71.0731 314.873 74.1853ZM315.866 76.6181L317.739 81.1154C318.528 82.9826 318.425 83.7398 317.784 84.0395C317.601 84.1126 317.327 83.9885 317.003 83.7314C315.609 82.6277 313.329 78.9575 314.373 76.8953L315.866 76.6181Z" fill="white"/>
<path d="M336.73 103.344C336.463 102.695 336.581 102.321 337.082 101.859L341.59 97.6956L335.156 97.8705L334.888 98.1183L336.129 98.0987L334.698 99.4203C334.215 99.8663 333.687 99.7247 333.261 99.5872L336.73 103.344ZM342.286 97.0857L344.363 95.135C342.483 94.7501 341.903 94.1584 340.594 92.8485C340.861 93.4967 340.674 93.8683 340.191 94.3143L337.901 96.4289L336.676 96.4663L335.871 97.2097L342.286 97.0857ZM343.564 93.5525C344.276 94.2872 345.428 94.3503 346.197 93.6399C346.93 92.9626 346.977 91.7928 346.283 91.0415C345.589 90.2902 344.419 90.2437 343.686 90.921C342.917 91.6313 342.87 92.8012 343.564 93.5525Z" fill="white"/>
<path d="M341.34 116.214L342.063 116.463C342.205 116.544 342.327 116.638 342.395 116.739C343.166 117.893 338.942 120.424 341.628 124.925C343.483 128.05 346.549 128.431 351.225 125.305C353.209 123.979 355.206 122.673 357.19 121.347L358.115 121.461L359.04 120.872L353.157 120.089C352.11 119.881 351.454 119.47 351.116 118.964C350.223 117.628 351.388 115.56 353.116 114.288C356.037 112.13 359.907 112.706 360.862 114.88L353.757 119.541L359.762 120.331L360.099 120.135L359.194 120.007L362.392 117.869C362.959 117.49 363.351 117.463 363.919 117.874L362.606 115.911C362.295 115.445 361.862 115.061 361.416 114.919C361.22 114.231 360.922 113.61 360.556 113.063C358.594 110.128 354.568 109.363 351.026 111.644C348.306 113.403 347.121 116.187 348.488 118.231C349.151 119.223 350.415 120.018 352.401 120.448C351.368 121.138 350.309 121.788 349.29 122.498C345.91 124.846 344.96 127.062 343.25 125.774C343.068 125.633 342.905 125.478 342.784 125.295C341.254 123.008 345.016 117.945 347.305 117.733L341.57 116.031L341.34 116.214Z" fill="white"/>
<path d="M375.131 139.203L371.829 140.522L370.672 140.118L369.632 140.534L372.914 141.662L375.427 142.572C376.553 143.093 377.14 143.645 377.366 144.21C377.781 145.25 376.985 146.276 375.99 146.936C374.773 147.762 371.01 149.763 368.843 150.707C368.242 150.973 367.821 150.905 367.351 150.385L369.455 155.654C369.528 155.179 369.497 154.51 370.18 154.053C372.437 152.549 375.698 151.195 377.493 149.848C379.57 148.285 379.851 146.626 379.273 145.179C378.777 143.935 377.62 142.876 376.454 142.319C377.051 141.976 377.349 141.411 377.024 140.597L375.968 137.951C375.986 138.652 375.75 138.982 375.131 139.203ZM366.142 147.355C366.201 146.911 366.296 146.428 366.875 146.17L374.835 142.992L368.804 140.89L368.456 141.003L369.613 141.406L365.746 142.95C365.145 143.217 364.724 143.149 364.254 142.628L366.142 147.355Z" fill="white"/>
<path d="M380.898 194.514C379.561 195.007 379.106 196.399 379.197 197.955C379.309 199.875 380.241 202.04 381.38 203.169C380.684 203.356 380.369 204.228 380.421 205.127L380.558 207.461C380.764 206.815 381.092 206.576 381.772 206.536L385.029 206.345L385.95 207.072L387.045 207.032L382.622 203.559L382.647 203.558C381.319 202.538 380.716 201.403 380.66 200.455C380.588 199.215 381.384 198.242 382.668 198.093C385.721 197.744 387.902 200.836 388.987 202.699L383.007 203.049L388.09 206.971L388.429 206.927L387.509 206.2L390.62 206.018C393.117 205.75 393.972 204.529 393.862 202.658C393.79 201.418 393.284 199.862 392.548 198.125C392.011 196.863 391.497 195.991 391.454 195.262C391.434 194.922 391.514 194.624 391.742 194.343L392.242 193.728L391.829 193.752L387.96 197.662C391.103 198.844 392.646 201.875 392.747 203.601C392.774 204.063 392.698 204.433 392.491 204.64C392.076 205.055 390.895 204.88 389.982 203.446C388.262 200.741 385.934 192.634 380.898 194.514Z" fill="white"/>
<path d="M391.988 229.697L388.47 229.184L387.67 228.255L386.562 228.094L388.838 230.714L390.557 232.761C391.27 233.775 391.502 234.547 391.414 235.149C391.253 236.258 390.05 236.747 388.858 236.819C387.391 236.925 383.132 236.772 380.784 236.504C380.13 236.433 379.8 236.163 379.654 235.478L378.836 241.092C379.136 240.717 379.444 240.122 380.264 240.07C382.971 239.898 386.472 240.359 388.701 240.093C391.281 239.781 392.355 238.485 392.58 236.943C392.773 235.618 392.302 234.122 391.572 233.056C392.261 233.058 392.802 232.719 392.929 231.851L393.34 229.032C393.004 229.648 392.635 229.816 391.988 229.697ZM380.125 232.249C380.398 231.895 380.722 231.524 381.352 231.591L389.834 232.828L385.667 227.988L385.309 227.911L386.109 228.84L381.989 228.239C381.335 228.168 381.005 227.899 380.859 227.213L380.125 232.249Z" fill="white"/>
<path d="M373.133 269.258C372.429 269.057 371.914 269.338 371.602 270.209L370.648 272.868C371.091 272.354 371.486 272.263 372.105 272.485L375.337 273.643L375.96 274.72L376.991 275.09L374 269.724C373.611 268.86 373.558 268.143 373.764 267.57C374.314 266.034 376.629 265.493 378.594 266.146C382.477 267.435 384.734 270.882 383.318 272.883L374.768 269.818L377.885 275.41L378.229 275.534L377.629 274.465L389.548 278.738L389.925 279.417L390.269 279.54L386.798 273.277C386.347 273.814 386.16 273.902 385.541 273.68L383.799 273.056C384.157 272.563 384.454 272.023 384.643 271.496C385.818 268.218 383.854 264.462 379.753 262.914C376.385 261.629 373.365 262.693 372.535 265.008C372.124 266.154 372.245 267.62 373.133 269.258Z" fill="white"/>
<path d="M360.942 317.7L351.658 313.959C350.484 313.492 349.461 313.671 348.873 314.352C348.459 314.831 348.268 315.536 348.386 316.442L349.063 321.209L346.487 319.982C345.253 319.399 344.45 319.509 344.02 320.007C343.591 320.504 343.59 321.436 344.008 322.442L348.333 332.484C348.581 333.052 348.378 333.81 348.177 334.377L350.294 331.926C349.84 332.08 349.125 332.46 348.795 331.725L345.934 325.167C345.643 324.497 345.666 324.099 345.825 323.914C345.952 323.767 346.174 323.734 346.406 323.837L349.631 325.207L349.677 325.601L350.432 326.254L349.442 318.609C349.353 317.856 349.41 317.455 349.601 317.234C349.84 316.957 350.315 317.078 350.903 317.329L358.587 320.427C359.333 320.718 359.217 321.261 358.988 321.9L362.872 317.404C362.403 317.611 361.778 318.036 360.942 317.7ZM355.496 323.967L350.457 321.867L351.188 326.906L351.464 327.145L351.305 325.914L353.191 326.674C353.974 326.996 353.787 327.51 353.542 328.167L357.25 323.874C356.795 324.028 356.298 324.306 355.496 323.967Z" fill="white"/>
<path d="M317.601 347.668L317.792 346.267L317.166 345.397L314.773 363.481L315.007 363.823L315.143 362.815C315.178 362.436 315.384 362.177 315.665 361.984C316.649 361.309 318.752 361.491 320.267 360.601C323.598 358.612 324.615 354.196 322.566 350.906C321.435 349.084 319.577 347.966 317.601 347.668ZM321.318 358.818C321.146 359.083 320.926 359.322 320.685 359.488C319.018 360.63 316.137 359.27 316.621 355.454L317.271 350.374C319.549 352.06 323.165 355.957 321.318 358.818ZM316.622 344.56L316.395 344.273L316 347.614C314.934 347.696 313.857 348.02 312.906 348.613C309.06 351.013 310.231 353.842 309.26 355.482L311.348 354.05C310.97 354.014 310.723 353.741 310.713 353.511C310.672 352.418 310.983 350.847 312.105 349.9C313 349.139 314.252 348.812 315.754 349.495L316.012 349.613L316.622 344.56Z" fill="white"/>
<path d="M286.672 365.43C282.614 366.964 280.903 371.12 282.546 375.184C283.913 378.546 286.312 379.501 288.258 378.664C289.421 378.164 290.426 376.989 290.926 375.316L294.497 383.614L294.261 384.298L294.415 384.656L296.627 377.846L296.605 377.856C295.927 377.882 295.735 377.806 295.475 377.202L292.527 370.412L292.922 369.235L292.489 368.229L290.563 374.041C290.181 375.186 289.641 375.842 289.015 376.112C287.852 376.612 286.434 375.658 285.556 373.863C284.033 370.754 284.641 366.993 286.874 365.9L290.098 373.392L292.123 367.379L291.998 367.088L291.603 368.265L290.313 365.268C290.044 364.642 290.056 364.239 290.586 363.746L286.672 365.43Z" fill="white"/>
<path d="M142.787 237.727L140.16 238.411L140.373 243.76L140.535 244.608L140.493 245.473L140.585 249.108L146.57 247.522L147.765 247.123L149.047 246.865L150.917 246.37L150.844 245.145L150.705 244.767L150.793 244.273L150.716 242.966L150.426 238.028L150.28 237.368L150.333 236.442L150.291 235.728L149.622 235.935L148.992 236.069L143.408 237.533L142.936 237.833L142.787 237.727Z" fill="white" stroke="#252525" stroke-width="0.206967"/>
<path d="M281.314 176.859L278.687 177.543L278.899 182.892L279.062 183.741L279.02 184.605L279.112 188.24L285.097 186.654L286.292 186.255L287.574 185.997L289.443 185.502L289.371 184.277L289.231 183.899L289.32 183.405L289.243 182.098L288.953 177.16L288.807 176.5L288.86 175.574L288.818 174.86L288.149 175.068L287.519 175.201L281.935 176.666L281.462 176.965L281.314 176.859Z" fill="white" stroke="#252525" stroke-width="0.206967"/>
<path d="M163.51 216.762L250.191 128.867C255.767 123.291 262.828 120.867 270.028 121.09C268.776 122.273 273.342 121.902 272.998 123.007C273.096 122.821 273.383 122.848 277.768 122.329C291.063 126.167 303.163 138.589 305.332 156.328L299.487 155.445L292.319 154.342C287.577 131.624 265.631 129.86 257.69 137.8L238.703 157.151L234.872 160.299L231.33 164.567L188.828 207.869L185.286 210.148L182.82 213.952L167.48 229.554L163.51 216.762Z" fill="white"/>
<path d="M292.319 154.342C287.577 131.624 265.631 129.86 257.69 137.8L238.703 157.151L234.872 160.299L231.33 164.567L188.828 207.869L185.286 210.148L182.82 213.952L167.48 229.554L163.51 216.762L250.191 128.867C255.767 123.291 262.828 120.867 270.028 121.09C268.717 122.329 273.789 121.863 272.914 123.175C273.177 122.781 272.39 122.965 277.768 122.329C291.063 126.167 303.163 138.589 305.332 156.328L299.487 155.445L292.319 154.342Z" stroke="#252525" stroke-width="0.827869"/>
<path d="M180.608 295.613C162.632 313.589 129.217 298.811 125.467 268.152L131.312 269.035L134.896 269.586L138.48 270.138C138.48 270.138 138.192 271.016 138.192 272.59C138.034 273.377 139.11 279.28 139.891 275.083C146.565 293.072 165.789 294 173.109 286.68L224.233 234.548L227.657 231.793L231.267 227.464L257.033 201.212L270.046 204.962L218.737 256.944L215.457 259.603L212.993 262.752L180.608 295.613Z" fill="white" stroke="#252525" stroke-width="0.827869"/>
<path d="M211.914 379.279L210.304 381.222L213.321 385.012L213.896 385.543L214.327 386.197L216.338 388.802L219.989 384.354L220.674 383.405L221.501 382.512L222.641 381.123L221.933 380.268L221.625 380.068L221.429 379.659L220.673 378.747L217.817 375.299L217.354 374.897L216.899 374.192L216.486 373.693L216.095 374.212L215.692 374.656L212.277 378.796L212.082 379.274L211.914 379.279Z" fill="white" stroke="#252525" stroke-width="0.206967"/>
</svg>
