<svg width="248" height="248" viewBox="0 0 248 248" fill="none" xmlns="http://www.w3.org/2000/svg">
<rect x="3.5" y="3.5" width="241" height="241" stroke="#242424" stroke-width="7"/>
<path d="M48.7363 82.832H84.6935V81.0858C83.2647 81.0858 82.6297 80.0539 82.6297 78.2282V31.8729C82.6297 30.0472 83.2647 29.0947 84.6935 29.0947V27.2691H71.279V29.0947C72.549 29.0947 73.184 30.0472 73.184 31.8729V73.4657H61.992V31.8729C61.992 30.0472 62.7064 29.0947 64.1352 29.0947V27.2691H50.6413V29.0947C51.9113 29.0947 52.6257 30.0472 52.6257 31.8729V73.4657H48.7363C46.0375 73.4657 44.6882 72.7513 43.4975 71.6401C42.3863 70.3701 41.4338 68.1475 41.4338 64.2581V31.8729C41.4338 30.0472 42.1481 29.0947 43.4181 29.0947V27.2691H30.083V29.0947C31.353 29.0947 32.0674 30.0472 32.0674 31.8729V64.2581C32.0674 69.735 33.4168 74.4976 36.5125 77.8314C39.6081 81.1651 44.0531 82.832 48.7363 82.832ZM114.534 82.832V71.4813H112.708C112.708 72.7513 111.676 73.4657 109.851 73.4657H98.2618V59.7337H106.12C107.946 59.7337 108.898 60.4481 108.898 61.6387H110.724V48.383H108.898C108.898 49.653 107.946 50.3674 106.12 50.3674H98.2618V36.4766H108.184C110.009 36.4766 110.962 37.2704 110.962 38.5404H112.787V27.1897H86.911V29.0153C88.181 29.0153 88.8954 30.0472 88.8954 31.8729V78.2282C88.8954 79.9745 88.181 81.0064 86.911 81.0064V82.832H114.534ZM142.718 82.832C145.178 82.832 147.321 80.6889 147.321 78.2282V59.575C147.321 58.1462 146.766 56.7968 145.655 55.9237L140.575 52.0343L143.988 49.3355C145.099 48.5418 145.813 47.113 145.813 45.6842V31.8729C145.813 29.3328 143.67 27.1897 141.13 27.1897H116.365V29.0153C117.794 29.0153 118.429 30.0472 118.429 31.8729V78.2282C118.429 79.9745 117.794 81.0064 116.365 81.0064V82.832H142.718ZM127.874 36.4766H136.368V43.4617L127.874 50.288V36.4766ZM127.874 62.115L133.193 57.9081L138.035 61.7975V73.4657H127.874V62.115Z" fill="#242424"/>
<path d="M47.0816 150.186C51.6854 150.186 56.2098 148.519 59.3055 145.106C62.2424 141.772 63.5918 137.009 63.5918 131.532V113.196C63.5918 107.72 62.2424 102.957 59.3055 99.6233C56.2098 96.2895 51.6854 94.5432 47.0816 94.5432H31.6828V96.3689C32.9528 96.3689 33.7465 97.4007 33.7465 99.2264V145.582C33.7465 147.328 32.9528 148.36 31.6828 148.36V150.186H47.0816ZM43.0335 103.83H47.0816C49.7804 103.83 51.1298 104.545 52.2411 105.815C53.3523 107.005 54.3842 109.307 54.3842 113.196V131.532C54.3842 135.501 53.3523 137.724 52.2411 138.994C51.1298 140.264 49.7804 140.819 47.0816 140.819H43.0335V103.83ZM93.8792 150.186V138.835H92.0535C92.0535 140.105 91.0216 140.819 89.196 140.819H77.6072V127.087H85.4653C87.291 127.087 88.2435 127.802 88.2435 128.992H90.0691V115.737H88.2435C88.2435 117.007 87.291 117.721 85.4653 117.721H77.6072V103.83H87.5291C89.3548 103.83 90.3073 104.624 90.3073 105.894H92.1329V94.5432H66.2564V96.3689C67.5264 96.3689 68.2408 97.4007 68.2408 99.2264V145.582C68.2408 147.328 67.5264 148.36 66.2564 148.36V150.186H93.8792ZM96.5835 150.186H124.841C127.381 150.186 129.524 148.122 129.524 145.582V129.469C129.524 128.119 128.81 126.69 127.699 125.817C120.396 120.102 113.094 114.228 105.791 108.513V103.83H120.237V108.513C120.237 110.418 119.444 111.291 118.174 111.291V113.276H129.524V94.6226H101.187C98.6473 94.6226 96.5835 96.6864 96.5835 99.2264V110.736C96.5835 112.244 97.1392 113.514 98.2504 114.387C105.553 120.261 112.856 125.976 120.237 131.77V140.978H105.791V131.294C105.791 129.469 106.664 128.675 107.934 128.675V126.69H96.5835V150.186ZM145.79 150.186V148.36C144.599 148.36 143.726 147.407 143.726 145.582V99.2264C143.726 97.4007 144.599 96.3689 145.79 96.3689V94.5432H132.375V96.3689C133.804 96.3689 134.439 97.4007 134.439 99.2264V145.582C134.439 147.328 133.804 148.36 132.375 148.36V150.186H145.79ZM173.753 150.186C176.293 150.186 178.357 148.042 178.357 145.582V119.943H161.688V131.294H163.513C163.513 130.024 164.466 129.151 166.291 129.151H169.149V140.819H158.433V103.83H169.149V109.307C169.149 111.133 168.276 112.085 167.006 112.085V113.911H178.357V99.2264C178.357 96.6864 176.293 94.5432 173.753 94.5432H153.829C151.289 94.5432 149.226 96.6864 149.226 99.2264V145.582C149.226 148.042 151.289 150.186 153.829 150.186H173.753ZM194.934 150.186V148.36C193.664 148.36 192.871 147.407 192.871 145.582V119.07L205.015 150.186H216.921V148.36C215.572 148.36 214.858 147.328 214.858 145.582V99.2264C214.858 97.4007 215.572 96.3689 216.921 96.3689V94.5432H203.507V96.3689C204.777 96.3689 205.491 97.4007 205.491 99.2264V125.658L193.267 94.5432H181.52V96.3689C182.79 96.3689 183.584 97.4007 183.584 99.2264V145.582C183.584 147.328 182.79 148.36 181.52 148.36V150.186H194.934Z" fill="#242424"/>
<path d="M57.4799 218.933C60.0992 218.933 62.0836 216.789 62.0836 214.329V199.565H50.7329V201.391C52.0029 201.391 52.7967 202.422 52.7967 204.248V209.566H42.3191V172.577H52.7967V178.054C52.7967 179.88 52.0029 180.832 50.7329 180.832V182.658H62.0836V167.973C62.0836 165.433 60.0992 163.29 57.4799 163.29H37.5566C35.0165 163.29 32.9528 165.433 32.9528 167.973V214.329C32.9528 216.789 35.0165 218.933 37.5566 218.933H57.4799ZM90.6601 218.933C93.1208 218.933 95.2639 216.869 95.2639 214.329V167.973C95.2639 165.433 93.1208 163.37 90.6601 163.37H70.7368C68.0381 163.37 65.9743 165.433 65.9743 167.973V214.329C65.9743 216.869 68.0381 218.933 70.7368 218.933H90.6601ZM75.3406 172.577H85.8976V209.566H75.3406V172.577ZM113.977 218.933C118.581 218.933 123.106 217.266 126.201 213.853C129.138 210.519 130.487 205.756 130.487 200.279V181.944C130.487 176.467 129.138 171.704 126.201 168.37C123.106 165.037 118.581 163.29 113.977 163.29H98.5785V165.116C99.8485 165.116 100.642 166.148 100.642 167.973V214.329C100.642 216.075 99.8485 217.107 98.5785 217.107V218.933H113.977ZM109.929 172.577H113.977C116.676 172.577 118.025 173.292 119.137 174.562C120.248 175.752 121.28 178.054 121.28 181.944V200.279C121.28 204.248 120.248 206.471 119.137 207.741C118.025 209.011 116.676 209.566 113.977 209.566H109.929V172.577ZM160.775 218.933V207.582H158.949C158.949 208.852 157.917 209.566 156.092 209.566H144.503V195.834H152.361C154.187 195.834 155.139 196.549 155.139 197.739H156.965V184.484H155.139C155.139 185.754 154.187 186.468 152.361 186.468H144.503V172.577H154.425C156.25 172.577 157.203 173.371 157.203 174.641H159.029V163.29H133.152V165.116C134.422 165.116 135.137 166.148 135.137 167.973V214.329C135.137 216.075 134.422 217.107 133.152 217.107V218.933H160.775ZM198.008 218.933V217.186C196.817 217.186 195.944 216.154 195.944 214.329V195.755C195.944 194.326 195.388 192.897 194.277 192.104L191.737 190.119L193.007 189.167C193.959 188.294 194.674 186.865 194.674 185.515V167.973C194.674 165.433 192.61 163.37 190.07 163.37H162.606V165.195C164.035 165.195 164.67 166.148 164.67 167.973V214.329C164.67 216.154 164.035 217.186 162.606 217.186V218.933H176.021V217.186C174.83 217.186 174.116 216.154 174.116 214.329V204.089L184.276 195.993L186.657 197.977V214.329C186.657 216.154 185.863 217.186 184.593 217.186V218.933H198.008ZM174.116 172.577H185.466V183.293L174.116 192.183V172.577Z" fill="#242424"/>
</svg>
