<svg width="2374" height="2374" viewBox="0 0 2374 2374" fill="none" xmlns="http://www.w3.org/2000/svg">
<rect x="33.504" y="33.504" width="2306.99" height="2306.99" stroke="black" stroke-width="67.0081"/>
<path d="M466.532 798.109H810.735V781.393C797.058 781.393 790.98 771.515 790.98 754.039V310.299C790.98 292.823 797.058 283.705 810.735 283.705V266.228H682.324V283.705C694.481 283.705 700.56 292.823 700.56 310.299V708.449H593.424V310.299C593.424 292.823 600.262 283.705 613.939 283.705V266.228H484.768V283.705C496.925 283.705 503.764 292.823 503.764 310.299V708.449H466.532C440.698 708.449 427.781 701.611 416.383 690.973C405.746 678.816 396.628 657.541 396.628 620.309V310.299C396.628 292.823 403.466 283.705 415.624 283.705V266.228H287.972V283.705C300.13 283.705 306.968 292.823 306.968 310.299V620.309C306.968 672.737 319.885 718.327 349.518 750.24C379.152 782.153 421.702 798.109 466.532 798.109ZM1096.38 798.109V689.454H1078.91C1078.91 701.611 1069.03 708.449 1051.55 708.449H940.619V576.999H1015.84C1033.32 576.999 1042.44 583.837 1042.44 595.235H1059.91V468.343H1042.44C1042.44 480.501 1033.32 487.339 1015.84 487.339H940.619V354.369H1035.6C1053.07 354.369 1062.19 361.967 1062.19 374.124H1079.67V265.469H831.963V282.945C844.12 282.945 850.959 292.823 850.959 310.299V754.039C850.959 770.756 844.12 780.633 831.963 780.633V798.109H1096.38ZM1366.18 798.109C1389.73 798.109 1410.25 777.594 1410.25 754.039V575.479C1410.25 561.802 1404.93 548.885 1394.29 540.527L1345.66 503.295L1378.33 477.461C1388.97 469.863 1395.81 456.186 1395.81 442.509V310.299C1395.81 285.984 1375.29 265.469 1350.98 265.469H1113.91V282.945C1127.59 282.945 1133.67 292.823 1133.67 310.299V754.039C1133.67 770.756 1127.59 780.633 1113.91 780.633V798.109H1366.18ZM1224.09 354.369H1305.39V421.234L1224.09 486.579V354.369ZM1224.09 599.794L1275 559.523L1321.35 596.754V708.449H1224.09V599.794Z" fill="black"/>
<path d="M450.693 1452.43C494.763 1452.43 538.073 1436.47 567.707 1403.8C595.82 1371.89 608.737 1326.3 608.737 1273.87V1098.35C608.737 1045.92 595.82 1000.33 567.707 968.418C538.073 936.505 494.763 919.789 450.693 919.789H303.286V937.265C315.443 937.265 323.041 947.143 323.041 964.619V1408.36C323.041 1425.08 315.443 1434.95 303.286 1434.95V1452.43H450.693ZM411.941 1008.69H450.693C476.527 1008.69 489.444 1015.53 500.082 1027.68C510.719 1039.08 520.597 1061.12 520.597 1098.35V1273.87C520.597 1311.86 510.719 1333.14 500.082 1345.29C489.444 1357.45 476.527 1362.77 450.693 1362.77H411.941V1008.69ZM898.666 1452.43V1343.77H881.19C881.19 1355.93 871.312 1362.77 853.836 1362.77H742.901V1231.32H818.124C835.6 1231.32 844.718 1238.16 844.718 1249.56H862.194V1122.66H844.718C844.718 1134.82 835.6 1141.66 818.124 1141.66H742.901V1008.69H837.879C855.356 1008.69 864.474 1016.29 864.474 1028.44H881.95V919.789H634.245V937.265C646.402 937.265 653.241 947.143 653.241 964.619V1408.36C653.241 1425.08 646.402 1434.95 634.245 1434.95V1452.43H898.666ZM924.553 1452.43H1195.05C1219.37 1452.43 1239.88 1432.67 1239.88 1408.36V1254.11C1239.88 1241.2 1233.04 1227.52 1222.41 1219.16C1152.5 1164.45 1082.6 1108.23 1012.69 1053.52V1008.69H1150.98V1053.52C1150.98 1071.75 1143.38 1080.11 1131.23 1080.11V1099.11H1239.88V920.549H968.624C944.309 920.549 924.553 940.304 924.553 964.619V1074.79C924.553 1089.23 929.872 1101.39 940.51 1109.75C1010.41 1165.97 1080.32 1220.68 1150.98 1276.15V1364.29H1012.69V1271.59C1012.69 1254.11 1021.05 1246.52 1033.21 1246.52V1227.52H924.553V1452.43ZM1395.58 1452.43V1434.95C1384.19 1434.95 1375.83 1425.84 1375.83 1408.36V964.619C1375.83 947.143 1384.19 937.265 1395.58 937.265V919.789H1267.17V937.265C1280.85 937.265 1286.93 947.143 1286.93 964.619V1408.36C1286.93 1425.08 1280.85 1434.95 1267.17 1434.95V1452.43H1395.58ZM1663.26 1452.43C1687.58 1452.43 1707.33 1431.91 1707.33 1408.36V1162.93H1547.77V1271.59H1565.24C1565.24 1259.43 1574.36 1251.07 1591.84 1251.07H1619.19V1362.77H1516.62V1008.69H1619.19V1061.12C1619.19 1078.59 1610.83 1087.71 1598.68 1087.71V1105.19H1707.33V964.619C1707.33 940.304 1687.58 919.789 1663.26 919.789H1472.55C1448.23 919.789 1428.47 940.304 1428.47 964.619V1408.36C1428.47 1431.91 1448.23 1452.43 1472.55 1452.43H1663.26ZM1866.02 1452.43V1434.95C1853.87 1434.95 1846.27 1425.84 1846.27 1408.36V1154.58L1962.52 1452.43H2076.5V1434.95C2063.58 1434.95 2056.74 1425.08 2056.74 1408.36V964.619C2056.74 947.143 2063.58 937.265 2076.5 937.265V919.789H1948.09V937.265C1960.24 937.265 1967.08 947.143 1967.08 964.619V1217.64L1850.07 919.789H1737.61V937.265C1749.77 937.265 1757.37 947.143 1757.37 964.619V1408.36C1757.37 1425.08 1749.77 1434.95 1737.61 1434.95V1452.43H1866.02Z" fill="black"/>
<path d="M550.231 2100.94C575.305 2100.94 594.301 2080.43 594.301 2056.87V1915.54H485.645V1933.02C497.802 1933.02 505.401 1942.9 505.401 1960.37V2011.28H405.103V1657.2H505.401V1709.63C505.401 1727.11 497.802 1736.23 485.645 1736.23V1753.7H594.301V1613.13C594.301 1588.82 575.305 1568.3 550.231 1568.3H359.513C335.199 1568.3 315.443 1588.82 315.443 1613.13V2056.87C315.443 2080.43 335.199 2100.94 359.513 2100.94H550.231ZM867.851 2100.94C891.406 2100.94 911.921 2081.19 911.921 2056.87V1613.13C911.921 1588.82 891.406 1569.06 867.851 1569.06H677.134C651.3 1569.06 631.544 1588.82 631.544 1613.13V2056.87C631.544 2081.19 651.3 2100.94 677.134 2100.94H867.851ZM721.204 1657.2H822.261V2011.28H721.204V1657.2ZM1091.06 2100.94C1135.13 2100.94 1178.44 2084.99 1208.07 2052.31C1236.18 2020.4 1249.1 1974.81 1249.1 1922.38V1746.86C1249.1 1694.43 1236.18 1648.84 1208.07 1616.93C1178.44 1585.02 1135.13 1568.3 1091.06 1568.3H943.65V1585.78C955.807 1585.78 963.406 1595.66 963.406 1613.13V2056.87C963.406 2073.59 955.807 2083.47 943.65 2083.47V2100.94H1091.06ZM1052.31 1657.2H1091.06C1116.89 1657.2 1129.81 1664.04 1140.45 1676.2C1151.08 1687.6 1160.96 1709.63 1160.96 1746.86V1922.38C1160.96 1960.37 1151.08 1981.65 1140.45 1993.81C1129.81 2005.96 1116.89 2011.28 1091.06 2011.28H1052.31V1657.2ZM1539.03 2100.94V1992.29H1521.55C1521.55 2004.44 1511.68 2011.28 1494.2 2011.28H1383.27V1879.83H1458.49C1475.96 1879.83 1485.08 1886.67 1485.08 1898.07H1502.56V1771.18H1485.08C1485.08 1783.33 1475.96 1790.17 1458.49 1790.17H1383.27V1657.2H1478.24C1495.72 1657.2 1504.84 1664.8 1504.84 1676.96H1522.31V1568.3H1274.61V1585.78C1286.77 1585.78 1293.61 1595.66 1293.61 1613.13V2056.87C1293.61 2073.59 1286.77 2083.47 1274.61 2083.47V2100.94H1539.03ZM1895.44 2100.94V2084.23C1884.05 2084.23 1875.69 2074.35 1875.69 2056.87V1879.07C1875.69 1865.4 1870.37 1851.72 1859.73 1844.12L1835.42 1825.13L1847.57 1816.01C1856.69 1807.65 1863.53 1793.97 1863.53 1781.05V1613.13C1863.53 1588.82 1843.78 1569.06 1819.46 1569.06H1556.56V1586.54C1570.24 1586.54 1576.32 1595.66 1576.32 1613.13V2056.87C1576.32 2074.35 1570.24 2084.23 1556.56 2084.23V2100.94H1684.97V2084.23C1673.57 2084.23 1666.74 2074.35 1666.74 2056.87V1958.86L1763.99 1881.35L1786.79 1900.35V2056.87C1786.79 2074.35 1779.19 2084.23 1767.03 2084.23V2100.94H1895.44ZM1666.74 1657.2H1775.39V1759.78L1666.74 1844.88V1657.2Z" fill="black"/>
</svg>
