<?xml version="1.0" encoding="UTF-8" standalone="no"?>
<!DOCTYPE svg PUBLIC "-//W3C//DTD SVG 1.1//EN" "http://www.w3.org/Graphics/SVG/1.1/DTD/svg11.dtd">
<svg width="100%" height="100%" viewBox="0 0 73 39" version="1.1" xmlns="http://www.w3.org/2000/svg" xmlns:xlink="http://www.w3.org/1999/xlink" xml:space="preserve" xmlns:serif="http://www.serif.com/" style="fill-rule:evenodd;clip-rule:evenodd;stroke-linejoin:round;stroke-miterlimit:2;">
    <g transform="matrix(1,0,0,1,-530.898,-168.938)">
        <g transform="matrix(1,0,0,1,-124.299,27.3029)">
            <g transform="matrix(1,0,0,1,1.27362,0.273622)">
                <g opacity="0.3">
                    <g transform="matrix(22,0,0,22,654.047,158.349)">
                        <path d="M0.075,-0.7L0.331,-0.7C0.394,-0.7 0.448,-0.686 0.496,-0.658C0.543,-0.629 0.579,-0.589 0.605,-0.537C0.63,-0.484 0.643,-0.422 0.643,-0.351C0.643,-0.28 0.63,-0.218 0.605,-0.165C0.579,-0.112 0.542,-0.071 0.495,-0.043C0.448,-0.014 0.393,0 0.33,0L0.075,0L0.075,-0.7ZM0.318,-0.08C0.389,-0.08 0.445,-0.103 0.488,-0.15C0.531,-0.196 0.552,-0.263 0.552,-0.351C0.552,-0.439 0.531,-0.506 0.489,-0.553C0.446,-0.599 0.389,-0.622 0.318,-0.622L0.159,-0.622L0.159,-0.08L0.318,-0.08Z" style="fill:none;fill-rule:nonzero;stroke:rgb(230,57,70);stroke-width:0.05px;"/>
                    </g>
                    <g transform="matrix(22,0,0,22,669.161,158.349)">
                        <path d="M0.161,-0.032C0.124,-0.058 0.096,-0.092 0.078,-0.134C0.06,-0.176 0.051,-0.22 0.051,-0.267C0.051,-0.314 0.06,-0.359 0.078,-0.401C0.096,-0.442 0.124,-0.476 0.161,-0.502C0.198,-0.528 0.244,-0.541 0.298,-0.541C0.369,-0.541 0.425,-0.517 0.468,-0.47C0.51,-0.423 0.531,-0.355 0.531,-0.266L0.531,-0.242L0.137,-0.242L0.137,-0.235C0.137,-0.206 0.144,-0.178 0.157,-0.152C0.17,-0.126 0.189,-0.105 0.213,-0.089C0.237,-0.073 0.265,-0.065 0.296,-0.065C0.33,-0.065 0.359,-0.074 0.384,-0.091C0.409,-0.108 0.427,-0.132 0.439,-0.161L0.524,-0.161C0.51,-0.113 0.484,-0.073 0.446,-0.041C0.407,-0.009 0.358,0.007 0.297,0.007C0.243,0.007 0.198,-0.006 0.161,-0.032ZM0.446,-0.303C0.443,-0.363 0.429,-0.406 0.402,-0.433C0.375,-0.46 0.34,-0.473 0.297,-0.473C0.25,-0.473 0.212,-0.457 0.184,-0.426C0.156,-0.395 0.141,-0.354 0.139,-0.303L0.446,-0.303Z" style="fill:none;fill-rule:nonzero;stroke:rgb(230,57,70);stroke-width:0.05px;"/>
                    </g>
                    <g transform="matrix(22,0,0,22,681.987,158.349)">
                        <path d="M0.144,-0.019C0.113,-0.035 0.089,-0.057 0.073,-0.084C0.056,-0.111 0.048,-0.139 0.048,-0.168L0.048,-0.173L0.134,-0.173L0.134,-0.169C0.134,-0.152 0.139,-0.136 0.148,-0.12C0.157,-0.103 0.171,-0.09 0.19,-0.08C0.209,-0.069 0.231,-0.064 0.258,-0.064C0.29,-0.064 0.317,-0.072 0.338,-0.088C0.359,-0.103 0.369,-0.125 0.369,-0.152C0.369,-0.175 0.361,-0.193 0.345,-0.206C0.328,-0.219 0.308,-0.228 0.283,-0.232L0.214,-0.242C0.171,-0.249 0.134,-0.264 0.105,-0.287C0.076,-0.31 0.061,-0.343 0.061,-0.387C0.061,-0.436 0.079,-0.474 0.114,-0.501C0.149,-0.528 0.193,-0.541 0.248,-0.541C0.289,-0.541 0.323,-0.534 0.353,-0.519C0.382,-0.503 0.404,-0.484 0.419,-0.46C0.434,-0.435 0.442,-0.409 0.442,-0.38L0.442,-0.376L0.356,-0.376L0.356,-0.378C0.356,-0.391 0.353,-0.405 0.346,-0.42C0.339,-0.435 0.327,-0.447 0.31,-0.458C0.293,-0.469 0.272,-0.474 0.246,-0.474C0.214,-0.474 0.188,-0.466 0.169,-0.451C0.15,-0.435 0.14,-0.414 0.14,-0.389C0.14,-0.368 0.148,-0.351 0.163,-0.338C0.178,-0.325 0.198,-0.316 0.221,-0.312L0.296,-0.3C0.34,-0.293 0.377,-0.278 0.407,-0.255C0.437,-0.232 0.452,-0.198 0.452,-0.153C0.452,-0.121 0.444,-0.093 0.427,-0.069C0.409,-0.045 0.386,-0.026 0.356,-0.013C0.326,0 0.292,0.007 0.255,0.007C0.212,0.007 0.175,-0.001 0.144,-0.019Z" style="fill:none;fill-rule:nonzero;stroke:rgb(230,57,70);stroke-width:0.05px;"/>
                    </g>
                    <g transform="matrix(22,0,0,22,692.899,158.349)">
                        <path d="M0.082,-0.527L0.168,-0.527L0.168,0L0.082,0L0.082,-0.527ZM0.084,-0.642C0.073,-0.653 0.068,-0.666 0.068,-0.681C0.068,-0.696 0.073,-0.709 0.084,-0.721C0.095,-0.732 0.108,-0.737 0.124,-0.737C0.14,-0.737 0.154,-0.732 0.165,-0.721C0.175,-0.709 0.181,-0.696 0.181,-0.681C0.181,-0.666 0.175,-0.653 0.165,-0.642C0.154,-0.63 0.14,-0.625 0.124,-0.625C0.108,-0.625 0.095,-0.63 0.084,-0.642Z" style="fill:none;fill-rule:nonzero;stroke:rgb(230,57,70);stroke-width:0.05px;"/>
                    </g>
                    <g transform="matrix(22,0,0,22,698.399,158.349)">
                        <path d="M0.263,0.207C0.25,0.204 0.238,0.201 0.225,0.196L0.225,0.124C0.234,0.127 0.245,0.129 0.26,0.132C0.275,0.134 0.289,0.135 0.303,0.135C0.355,0.135 0.394,0.12 0.421,0.091C0.447,0.062 0.46,0.023 0.46,-0.026L0.46,-0.121L0.452,-0.121C0.438,-0.09 0.416,-0.063 0.385,-0.042C0.354,-0.02 0.316,-0.009 0.272,-0.009C0.228,-0.009 0.189,-0.02 0.156,-0.043C0.123,-0.066 0.097,-0.097 0.079,-0.138C0.06,-0.178 0.051,-0.224 0.051,-0.276C0.051,-0.328 0.06,-0.374 0.079,-0.415C0.097,-0.455 0.123,-0.486 0.156,-0.509C0.189,-0.532 0.228,-0.543 0.272,-0.543C0.318,-0.543 0.357,-0.531 0.388,-0.508C0.419,-0.484 0.44,-0.456 0.453,-0.425L0.46,-0.425L0.46,-0.526L0.547,-0.526L0.547,-0.026C0.547,0.011 0.54,0.048 0.525,0.084C0.509,0.12 0.484,0.15 0.449,0.175C0.414,0.199 0.368,0.211 0.311,0.211C0.291,0.211 0.275,0.21 0.263,0.207ZM0.387,-0.111C0.411,-0.129 0.429,-0.153 0.441,-0.183C0.452,-0.212 0.458,-0.244 0.458,-0.278C0.458,-0.311 0.452,-0.342 0.441,-0.371C0.429,-0.4 0.411,-0.423 0.388,-0.441C0.364,-0.459 0.335,-0.468 0.3,-0.468C0.249,-0.468 0.21,-0.45 0.183,-0.413C0.156,-0.376 0.142,-0.331 0.142,-0.278C0.142,-0.243 0.148,-0.211 0.16,-0.182C0.171,-0.152 0.189,-0.128 0.213,-0.11C0.236,-0.092 0.265,-0.083 0.3,-0.083C0.334,-0.083 0.363,-0.092 0.387,-0.111Z" style="fill:none;fill-rule:nonzero;stroke:rgb(230,57,70);stroke-width:0.05px;"/>
                    </g>
                </g>
            </g>
            <g transform="matrix(1,0,0,1,-4.54209,0)">
                <g opacity="0.3">
                    <g transform="matrix(22,0,0,22,718.974,157.932)">
                        <path d="M0.075,-0.527L0.161,-0.527L0.161,-0.432L0.169,-0.432C0.182,-0.463 0.204,-0.489 0.234,-0.51C0.264,-0.531 0.301,-0.541 0.344,-0.541C0.389,-0.541 0.426,-0.531 0.456,-0.51C0.486,-0.489 0.508,-0.461 0.523,-0.427C0.537,-0.392 0.544,-0.355 0.544,-0.315L0.544,0L0.458,0L0.458,-0.304C0.458,-0.356 0.444,-0.396 0.418,-0.423C0.391,-0.45 0.355,-0.464 0.312,-0.464C0.266,-0.464 0.229,-0.449 0.202,-0.42C0.175,-0.39 0.161,-0.351 0.161,-0.304L0.161,0L0.075,0L0.075,-0.527Z" style="fill:none;fill-rule:nonzero;stroke:rgb(230,57,70);stroke-width:0.05px;"/>
                    </g>
                    <g transform="matrix(1.34711e-15,22,-22,1.34711e-15,719.832,159.702)">
                        <path d="M0.161,-0.032C0.124,-0.058 0.096,-0.092 0.078,-0.134C0.06,-0.176 0.051,-0.22 0.051,-0.267C0.051,-0.314 0.06,-0.359 0.078,-0.401C0.096,-0.442 0.124,-0.476 0.161,-0.502C0.198,-0.528 0.244,-0.541 0.298,-0.541C0.369,-0.541 0.425,-0.517 0.468,-0.47C0.51,-0.423 0.531,-0.355 0.531,-0.266L0.531,-0.242L0.137,-0.242L0.137,-0.235C0.137,-0.206 0.144,-0.178 0.157,-0.152C0.17,-0.126 0.189,-0.105 0.213,-0.089C0.237,-0.073 0.265,-0.065 0.296,-0.065C0.33,-0.065 0.359,-0.074 0.384,-0.091C0.409,-0.108 0.427,-0.132 0.439,-0.161L0.524,-0.161C0.51,-0.113 0.484,-0.073 0.446,-0.041C0.407,-0.009 0.358,0.007 0.297,0.007C0.243,0.007 0.198,-0.006 0.161,-0.032ZM0.446,-0.303C0.443,-0.363 0.429,-0.406 0.402,-0.433C0.375,-0.46 0.34,-0.473 0.297,-0.473C0.25,-0.473 0.212,-0.457 0.184,-0.426C0.156,-0.395 0.141,-0.354 0.139,-0.303L0.446,-0.303Z" style="fill:none;fill-rule:nonzero;stroke:rgb(230,57,70);stroke-width:0.05px;"/>
                    </g>
                    <g transform="matrix(1.34711e-15,22,-22,1.34711e-15,719.832,172.528)">
                        <path d="M0.071,-0.527L0.157,-0.527L0.157,-0.443L0.163,-0.443C0.172,-0.466 0.187,-0.486 0.21,-0.503C0.232,-0.519 0.26,-0.527 0.294,-0.527C0.305,-0.527 0.313,-0.527 0.32,-0.526C0.326,-0.525 0.333,-0.523 0.341,-0.52L0.338,-0.436C0.327,-0.439 0.318,-0.442 0.311,-0.443C0.303,-0.444 0.293,-0.445 0.281,-0.445C0.198,-0.445 0.157,-0.396 0.157,-0.298L0.157,0L0.071,0L0.071,-0.527Z" style="fill:none;fill-rule:nonzero;stroke:rgb(230,57,70);stroke-width:0.05px;"/>
                    </g>
                </g>
            </g>
            <g>
                <g transform="matrix(22,0,0,22,654.047,158.349)">
                    <path d="M0.075,-0.7L0.331,-0.7C0.394,-0.7 0.448,-0.686 0.496,-0.658C0.543,-0.629 0.579,-0.589 0.605,-0.537C0.63,-0.484 0.643,-0.422 0.643,-0.351C0.643,-0.28 0.63,-0.218 0.605,-0.165C0.579,-0.112 0.542,-0.071 0.495,-0.043C0.448,-0.014 0.393,0 0.33,0L0.075,0L0.075,-0.7ZM0.318,-0.08C0.389,-0.08 0.445,-0.103 0.488,-0.15C0.531,-0.196 0.552,-0.263 0.552,-0.351C0.552,-0.439 0.531,-0.506 0.489,-0.553C0.446,-0.599 0.389,-0.622 0.318,-0.622L0.159,-0.622L0.159,-0.08L0.318,-0.08Z" style="fill:none;fill-rule:nonzero;stroke:rgb(222,108,131);stroke-width:0.05px;"/>
                </g>
                <g transform="matrix(22,0,0,22,669.161,158.349)">
                    <path d="M0.161,-0.032C0.124,-0.058 0.096,-0.092 0.078,-0.134C0.06,-0.176 0.051,-0.22 0.051,-0.267C0.051,-0.314 0.06,-0.359 0.078,-0.401C0.096,-0.442 0.124,-0.476 0.161,-0.502C0.198,-0.528 0.244,-0.541 0.298,-0.541C0.369,-0.541 0.425,-0.517 0.468,-0.47C0.51,-0.423 0.531,-0.355 0.531,-0.266L0.531,-0.242L0.137,-0.242L0.137,-0.235C0.137,-0.206 0.144,-0.178 0.157,-0.152C0.17,-0.126 0.189,-0.105 0.213,-0.089C0.237,-0.073 0.265,-0.065 0.296,-0.065C0.33,-0.065 0.359,-0.074 0.384,-0.091C0.409,-0.108 0.427,-0.132 0.439,-0.161L0.524,-0.161C0.51,-0.113 0.484,-0.073 0.446,-0.041C0.407,-0.009 0.358,0.007 0.297,0.007C0.243,0.007 0.198,-0.006 0.161,-0.032ZM0.446,-0.303C0.443,-0.363 0.429,-0.406 0.402,-0.433C0.375,-0.46 0.34,-0.473 0.297,-0.473C0.25,-0.473 0.212,-0.457 0.184,-0.426C0.156,-0.395 0.141,-0.354 0.139,-0.303L0.446,-0.303Z" style="fill:none;fill-rule:nonzero;stroke:rgb(222,108,131);stroke-width:0.05px;"/>
                </g>
                <g transform="matrix(22,0,0,22,681.987,158.349)">
                    <path d="M0.144,-0.019C0.113,-0.035 0.089,-0.057 0.073,-0.084C0.056,-0.111 0.048,-0.139 0.048,-0.168L0.048,-0.173L0.134,-0.173L0.134,-0.169C0.134,-0.152 0.139,-0.136 0.148,-0.12C0.157,-0.103 0.171,-0.09 0.19,-0.08C0.209,-0.069 0.231,-0.064 0.258,-0.064C0.29,-0.064 0.317,-0.072 0.338,-0.088C0.359,-0.103 0.369,-0.125 0.369,-0.152C0.369,-0.175 0.361,-0.193 0.345,-0.206C0.328,-0.219 0.308,-0.228 0.283,-0.232L0.214,-0.242C0.171,-0.249 0.134,-0.264 0.105,-0.287C0.076,-0.31 0.061,-0.343 0.061,-0.387C0.061,-0.436 0.079,-0.474 0.114,-0.501C0.149,-0.528 0.193,-0.541 0.248,-0.541C0.289,-0.541 0.323,-0.534 0.353,-0.519C0.382,-0.503 0.404,-0.484 0.419,-0.46C0.434,-0.435 0.442,-0.409 0.442,-0.38L0.442,-0.376L0.356,-0.376L0.356,-0.378C0.356,-0.391 0.353,-0.405 0.346,-0.42C0.339,-0.435 0.327,-0.447 0.31,-0.458C0.293,-0.469 0.272,-0.474 0.246,-0.474C0.214,-0.474 0.188,-0.466 0.169,-0.451C0.15,-0.435 0.14,-0.414 0.14,-0.389C0.14,-0.368 0.148,-0.351 0.163,-0.338C0.178,-0.325 0.198,-0.316 0.221,-0.312L0.296,-0.3C0.34,-0.293 0.377,-0.278 0.407,-0.255C0.437,-0.232 0.452,-0.198 0.452,-0.153C0.452,-0.121 0.444,-0.093 0.427,-0.069C0.409,-0.045 0.386,-0.026 0.356,-0.013C0.326,0 0.292,0.007 0.255,0.007C0.212,0.007 0.175,-0.001 0.144,-0.019Z" style="fill:none;fill-rule:nonzero;stroke:rgb(222,108,131);stroke-width:0.05px;"/>
                </g>
                <g transform="matrix(22,0,0,22,692.899,158.349)">
                    <path d="M0.082,-0.527L0.168,-0.527L0.168,0L0.082,0L0.082,-0.527ZM0.084,-0.642C0.073,-0.653 0.068,-0.666 0.068,-0.681C0.068,-0.696 0.073,-0.709 0.084,-0.721C0.095,-0.732 0.108,-0.737 0.124,-0.737C0.14,-0.737 0.154,-0.732 0.165,-0.721C0.175,-0.709 0.181,-0.696 0.181,-0.681C0.181,-0.666 0.175,-0.653 0.165,-0.642C0.154,-0.63 0.14,-0.625 0.124,-0.625C0.108,-0.625 0.095,-0.63 0.084,-0.642Z" style="fill:none;fill-rule:nonzero;stroke:rgb(222,108,131);stroke-width:0.05px;"/>
                </g>
                <g transform="matrix(22,0,0,22,698.399,158.349)">
                    <path d="M0.263,0.207C0.25,0.204 0.238,0.201 0.225,0.196L0.225,0.124C0.234,0.127 0.245,0.129 0.26,0.132C0.275,0.134 0.289,0.135 0.303,0.135C0.355,0.135 0.394,0.12 0.421,0.091C0.447,0.062 0.46,0.023 0.46,-0.026L0.46,-0.121L0.452,-0.121C0.438,-0.09 0.416,-0.063 0.385,-0.042C0.354,-0.02 0.316,-0.009 0.272,-0.009C0.228,-0.009 0.189,-0.02 0.156,-0.043C0.123,-0.066 0.097,-0.097 0.079,-0.138C0.06,-0.178 0.051,-0.224 0.051,-0.276C0.051,-0.328 0.06,-0.374 0.079,-0.415C0.097,-0.455 0.123,-0.486 0.156,-0.509C0.189,-0.532 0.228,-0.543 0.272,-0.543C0.318,-0.543 0.357,-0.531 0.388,-0.508C0.419,-0.484 0.44,-0.456 0.453,-0.425L0.46,-0.425L0.46,-0.526L0.547,-0.526L0.547,-0.026C0.547,0.011 0.54,0.048 0.525,0.084C0.509,0.12 0.484,0.15 0.449,0.175C0.414,0.199 0.368,0.211 0.311,0.211C0.291,0.211 0.275,0.21 0.263,0.207ZM0.387,-0.111C0.411,-0.129 0.429,-0.153 0.441,-0.183C0.452,-0.212 0.458,-0.244 0.458,-0.278C0.458,-0.311 0.452,-0.342 0.441,-0.371C0.429,-0.4 0.411,-0.423 0.388,-0.441C0.364,-0.459 0.335,-0.468 0.3,-0.468C0.249,-0.468 0.21,-0.45 0.183,-0.413C0.156,-0.376 0.142,-0.331 0.142,-0.278C0.142,-0.243 0.148,-0.211 0.16,-0.182C0.171,-0.152 0.189,-0.128 0.213,-0.11C0.236,-0.092 0.265,-0.083 0.3,-0.083C0.334,-0.083 0.363,-0.092 0.387,-0.111Z" style="fill:none;fill-rule:nonzero;stroke:rgb(222,108,131);stroke-width:0.05px;"/>
                </g>
                <g transform="matrix(22,0,0,22,712.946,157.932)">
                    <path d="M0.075,-0.527L0.161,-0.527L0.161,-0.432L0.169,-0.432C0.182,-0.463 0.204,-0.489 0.234,-0.51C0.264,-0.531 0.301,-0.541 0.344,-0.541C0.389,-0.541 0.426,-0.531 0.456,-0.51C0.486,-0.489 0.508,-0.461 0.523,-0.427C0.537,-0.392 0.544,-0.355 0.544,-0.315L0.544,0L0.458,0L0.458,-0.304C0.458,-0.356 0.444,-0.396 0.418,-0.423C0.391,-0.45 0.355,-0.464 0.312,-0.464C0.266,-0.464 0.229,-0.449 0.202,-0.42C0.175,-0.39 0.161,-0.351 0.161,-0.304L0.161,0L0.075,0L0.075,-0.527Z" style="fill:none;fill-rule:nonzero;stroke:rgb(222,108,131);stroke-width:0.05px;"/>
                </g>
                <g transform="matrix(1.34711e-15,22,-22,1.34711e-15,713.804,159.702)">
                    <path d="M0.161,-0.032C0.124,-0.058 0.096,-0.092 0.078,-0.134C0.06,-0.176 0.051,-0.22 0.051,-0.267C0.051,-0.314 0.06,-0.359 0.078,-0.401C0.096,-0.442 0.124,-0.476 0.161,-0.502C0.198,-0.528 0.244,-0.541 0.298,-0.541C0.369,-0.541 0.425,-0.517 0.468,-0.47C0.51,-0.423 0.531,-0.355 0.531,-0.266L0.531,-0.242L0.137,-0.242L0.137,-0.235C0.137,-0.206 0.144,-0.178 0.157,-0.152C0.17,-0.126 0.189,-0.105 0.213,-0.089C0.237,-0.073 0.265,-0.065 0.296,-0.065C0.33,-0.065 0.359,-0.074 0.384,-0.091C0.409,-0.108 0.427,-0.132 0.439,-0.161L0.524,-0.161C0.51,-0.113 0.484,-0.073 0.446,-0.041C0.407,-0.009 0.358,0.007 0.297,0.007C0.243,0.007 0.198,-0.006 0.161,-0.032ZM0.446,-0.303C0.443,-0.363 0.429,-0.406 0.402,-0.433C0.375,-0.46 0.34,-0.473 0.297,-0.473C0.25,-0.473 0.212,-0.457 0.184,-0.426C0.156,-0.395 0.141,-0.354 0.139,-0.303L0.446,-0.303Z" style="fill:none;fill-rule:nonzero;stroke:rgb(222,108,131);stroke-width:0.05px;"/>
                </g>
                <g transform="matrix(1.34711e-15,22,-22,1.34711e-15,713.804,172.528)">
                    <path d="M0.071,-0.527L0.157,-0.527L0.157,-0.443L0.163,-0.443C0.172,-0.466 0.187,-0.486 0.21,-0.503C0.232,-0.519 0.26,-0.527 0.294,-0.527C0.305,-0.527 0.313,-0.527 0.32,-0.526C0.326,-0.525 0.333,-0.523 0.341,-0.52L0.338,-0.436C0.327,-0.439 0.318,-0.442 0.311,-0.443C0.303,-0.444 0.293,-0.445 0.281,-0.445C0.198,-0.445 0.157,-0.396 0.157,-0.298L0.157,0L0.071,0L0.071,-0.527Z" style="fill:none;fill-rule:nonzero;stroke:rgb(222,108,131);stroke-width:0.05px;"/>
                </g>
            </g>
        </g>
    </g>
</svg>
