<svg width="1403" height="778" viewBox="0 0 1403 778" fill="none" xmlns="http://www.w3.org/2000/svg">
<rect width="1403" height="777.272" fill="#F3F2F0"/>
<path d="M548.493 294H560.089V234.718H580.683V225.021H527.999V234.718H548.493V294ZM602.169 295.2C616.565 295.2 624.662 286.202 624.662 270.207C624.662 254.212 616.565 245.215 602.169 245.215C587.874 245.215 579.776 254.212 579.776 270.207C579.776 286.202 587.874 295.2 602.169 295.2ZM602.269 286.802C594.072 286.802 589.673 281.004 589.673 270.207C589.673 259.411 594.072 253.512 602.269 253.512C610.367 253.512 614.765 259.411 614.765 270.207C614.765 281.004 610.367 286.802 602.269 286.802ZM546.293 414H559.289L574.885 361.016H575.584L590.28 414H603.376L622.57 345.021H611.473L597.778 398.705H597.078L582.382 345.021H569.986L554.491 398.705H553.791L539.795 345.021H527.099L546.293 414ZM645.999 415.2C653.496 415.2 659.894 413.1 664.193 409.201L663.093 401.204C659.095 404.703 653.696 406.802 647.698 406.802C639.001 406.802 633.902 401.804 633.902 391.807H665.193C665.393 390.507 665.393 388.708 665.393 387.808C665.393 373.313 658.995 365.215 645.799 365.215C632.003 365.215 623.805 374.212 623.805 390.207C623.805 406.202 631.903 415.2 645.999 415.2ZM634.002 385.609C634.602 378.511 638.201 373.512 645.499 373.512C651.897 373.512 655.296 377.911 655.296 385.609H634.002ZM701.068 365.215C695.969 365.215 690.871 366.915 687.072 370.913V341.023H677.275V414H685.172L686.272 407.702C689.771 412.8 695.069 415.2 701.167 415.2C713.064 415.2 720.362 406.002 720.362 390.207C720.362 374.712 713.364 365.215 701.068 365.215ZM698.168 406.802C693.87 406.802 689.871 404.903 687.072 401.404V379.011C689.771 375.512 693.97 373.512 698.268 373.512C705.866 373.512 710.265 379.711 710.265 390.207C710.265 400.904 705.766 406.802 698.168 406.802ZM746.639 415.2C757.935 415.2 765.633 410.201 765.633 400.104C765.633 390.607 756.935 387.408 749.438 385.309C744.039 383.709 739.441 382.61 739.441 378.511C739.441 375.012 742.74 372.913 747.338 372.913C751.837 372.913 758.435 374.912 762.334 376.712L763.034 368.614C758.135 366.515 751.737 365.215 746.539 365.215C737.042 365.215 729.644 369.514 729.644 379.011C729.644 388.008 738.041 391.007 745.339 393.206C751.137 394.906 756.436 396.705 756.436 401.004C756.436 405.103 753.037 407.002 747.738 407.002C742.34 407.002 734.042 404.803 729.844 402.104L729.044 410.701C732.943 413.4 740.141 415.2 746.639 415.2ZM781.559 360.517C785.358 360.517 787.457 358.617 787.457 354.818C787.457 351.019 785.358 349.02 781.559 349.02C777.66 349.02 775.561 351.019 775.561 354.818C775.561 358.617 777.66 360.517 781.559 360.517ZM776.561 414H786.358V366.415H776.561V414ZM822.756 405.803C821.356 406.402 819.757 406.502 818.157 406.502C814.958 406.502 813.259 404.603 813.259 401.204V374.712H822.656V366.415H813.259V349.52H803.462V366.415H798.263L796.164 374.712H803.462V401.604C803.462 409.901 808.26 414.6 816.658 414.6C819.557 414.6 822.356 413.9 825.155 412.5L822.756 405.803ZM852.868 415.2C860.366 415.2 866.764 413.1 871.063 409.201L869.963 401.204C865.964 404.703 860.566 406.802 854.568 406.802C845.87 406.802 840.772 401.804 840.772 391.807H872.062C872.262 390.507 872.262 388.708 872.262 387.808C872.262 373.313 865.864 365.215 852.668 365.215C838.873 365.215 830.675 374.212 830.675 390.207C830.675 406.202 838.773 415.2 852.868 415.2ZM840.872 385.609C841.472 378.511 845.071 373.512 852.368 373.512C858.766 373.512 862.165 377.911 862.165 385.609H840.872Z" fill="#242424"/>
<path d="M535.982 548.935H847.205L781.989 499.933V605.049L867.018 548.935" stroke="#242424" stroke-width="4.70667"/>
</svg>
