<svg width="1403" height="778" viewBox="0 0 1403 778" fill="none" xmlns="http://www.w3.org/2000/svg">
<g clip-path="url(#clip0)">
<rect width="1403" height="777.272" fill="#F3F2F0"/>
<path d="M188.979 443.532C284.889 443.532 481.55 454.695 643.455 263.149C659.446 244.231 708.128 187.476 771.482 263.149C878.524 391.006 945.705 445.732 1281.83 445.732" stroke="#6D6969" stroke-width="6.518"/>
<path d="M191.615 442.244C227.985 453.39 286.294 458.314 288.406 434.732C291.046 405.255 290.606 324.303 302.485 324.303C314.363 324.303 350 339.701 353.08 364.779C356.159 389.856 353.96 471.248 373.318 498.526C392.676 525.803 429.632 582.558 446.351 582.998C463.069 583.438 494.746 525.803 536.982 434.732C579.218 343.661 651.371 224.432 706.805 224.872C762.24 225.312 853.751 381.937 862.55 545.161C871.349 708.386 892.467 875.569 897.747 777.459C903.026 679.348 896.427 434.292 999.817 391.616C1082.53 357.476 1195.3 338.381 1241.35 333.102" stroke="#6B6B6B" stroke-width="4.8885"/>
<path d="M166.209 474.769C202.579 485.915 260.888 490.839 263 467.257C265.639 437.78 265.199 356.828 277.078 356.828C288.957 356.828 324.594 372.226 327.673 397.304C330.753 422.381 328.553 503.774 347.911 531.051C367.27 558.328 404.226 615.083 420.944 615.523C437.663 615.963 469.34 558.328 511.576 467.257C553.811 376.186 625.964 256.957 681.399 257.397C736.834 257.837 828.345 414.462 837.144 577.687C845.943 740.911 867.061 908.095 872.341 809.984C877.62 711.874 871.021 466.817 974.411 424.141C1057.12 390.001 1169.9 370.907 1215.95 365.627" stroke="url(#paint0_linear)" stroke-width="3.259"/>
<circle cx="146.654" cy="638.764" r="18.3319" stroke="url(#paint1_linear)" stroke-width="2.44425"/>
<circle cx="1179.76" cy="154.803" r="10.1844" stroke="url(#paint2_linear)" stroke-width="2.44425"/>
<circle cx="1329.67" cy="101.029" r="6.92538" stroke="url(#paint3_linear)" stroke-width="2.44425"/>
<circle cx="1191.98" cy="696.611" r="22.4056" stroke="url(#paint4_linear)" stroke-width="2.44425"/>
<circle cx="483.961" cy="203.688" r="5.29588" stroke="url(#paint5_linear)" stroke-width="2.44425"/>
</g>
<defs>
<linearGradient id="paint0_linear" x1="691.078" y1="257.396" x2="691.078" y2="839.196" gradientUnits="userSpaceOnUse">
<stop stop-color="#FFA093"/>
<stop offset="1" stop-color="#8465FF" stop-opacity="0.99"/>
</linearGradient>
<linearGradient id="paint1_linear" x1="127.1" y1="631.046" x2="166.208" y2="650.6" gradientUnits="userSpaceOnUse">
<stop stop-color="#FFA093"/>
<stop offset="1" stop-color="#956EF1"/>
</linearGradient>
<linearGradient id="paint2_linear" x1="1168.35" y1="150.3" x2="1191.16" y2="161.706" gradientUnits="userSpaceOnUse">
<stop stop-color="#FFA093"/>
<stop offset="1" stop-color="#956EF1"/>
</linearGradient>
<linearGradient id="paint3_linear" x1="1321.53" y1="97.8127" x2="1337.82" y2="105.96" gradientUnits="userSpaceOnUse">
<stop stop-color="#FFA093"/>
<stop offset="1" stop-color="#956EF1"/>
</linearGradient>
<linearGradient id="paint4_linear" x1="1168.35" y1="687.285" x2="1215.61" y2="710.912" gradientUnits="userSpaceOnUse">
<stop stop-color="#FFA093"/>
<stop offset="1" stop-color="#956EF1"/>
</linearGradient>
<linearGradient id="paint5_linear" x1="477.443" y1="201.115" x2="490.479" y2="207.633" gradientUnits="userSpaceOnUse">
<stop stop-color="#FFA093"/>
<stop offset="1" stop-color="#956EF1"/>
</linearGradient>
<clipPath id="clip0">
<rect width="1403" height="777.272" fill="white"/>
</clipPath>
</defs>
</svg>
