<svg width="1055" height="183" viewBox="0 0 1055 183" fill="none" xmlns="http://www.w3.org/2000/svg">
<path d="M5.64361 162.589C237.021 153.027 769.484 141.339 1048.32 171.078" stroke="url(#paint0_linear)" stroke-width="15.1667"/>
<path d="M107.228 79.8067L85.2367 152H68.705L54.6 100.585L40.1917 152H23.205L2.42667 79.8067H18.655L32.9117 135.013L48.685 79.8067H62.79L77.6533 135.165L92.2133 79.8067H107.228ZM147.876 153.82C137.158 153.82 128.867 150.534 123.003 143.962C117.138 137.389 114.206 128.037 114.206 115.903C114.206 103.871 117.138 94.5689 123.003 87.9967C128.867 81.3233 137.057 77.9867 147.573 77.9867C157.482 77.9867 164.913 80.9189 169.868 86.7833C174.822 92.6478 177.3 101.141 177.3 112.263C177.3 114.993 177.198 117.016 176.996 118.33H129.525C129.525 125.812 131.345 131.474 134.985 135.317C138.625 139.159 143.781 141.08 150.455 141.08C154.903 141.08 159.15 140.372 163.195 138.957C167.239 137.44 170.778 135.317 173.811 132.587L175.48 144.72C172.244 147.652 168.25 149.927 163.498 151.545C158.746 153.062 153.538 153.82 147.876 153.82ZM161.981 108.927C161.981 103.062 160.717 98.5628 158.19 95.4283C155.662 92.1928 151.971 90.575 147.118 90.575C141.759 90.575 137.613 92.2433 134.681 95.58C131.85 98.8156 130.182 103.264 129.676 108.927H161.981ZM231.423 77.9867C240.725 77.9867 247.904 81.3739 252.96 88.1483C258.117 94.8217 260.695 104.073 260.695 115.903C260.695 127.834 258.117 137.137 252.96 143.81C247.803 150.483 240.675 153.82 231.575 153.82C226.823 153.82 222.525 152.91 218.683 151.09C214.841 149.169 211.605 146.287 208.977 142.445L207.308 152H195.327V41.2833H210.19V86.6317C212.92 83.6994 216.105 81.5256 219.745 80.11C223.486 78.6944 227.379 77.9867 231.423 77.9867ZM227.025 141.08C232.788 141.08 237.288 138.906 240.523 134.558C243.759 130.211 245.377 123.992 245.377 115.903C245.377 107.916 243.759 101.697 240.523 97.2483C237.389 92.7994 232.94 90.575 227.177 90.575C223.941 90.575 220.807 91.3333 217.773 92.85C214.74 94.2656 212.212 96.2878 210.19 98.9167V132.89C212.313 135.519 214.841 137.541 217.773 138.957C220.705 140.372 223.789 141.08 227.025 141.08ZM339.684 41.2833V152H327.55L325.882 142.445C320.725 150.028 313.192 153.82 303.284 153.82C294.082 153.82 286.954 150.483 281.899 143.81C276.843 137.137 274.315 127.885 274.315 116.055C274.315 104.124 276.843 94.8217 281.899 88.1483C287.055 81.3739 294.285 77.9867 303.587 77.9867C307.631 77.9867 311.474 78.6944 315.114 80.11C318.855 81.5256 322.09 83.6994 324.82 86.6317V41.2833H339.684ZM308.137 141.08C311.372 141.08 314.456 140.372 317.389 138.957C320.321 137.541 322.798 135.519 324.82 132.89V98.9167C322.798 96.2878 320.27 94.2656 317.237 92.85C314.204 91.3333 311.069 90.575 307.834 90.575C302.171 90.575 297.722 92.7994 294.487 97.2483C291.251 101.697 289.634 107.865 289.634 115.752C289.634 124.043 291.302 130.362 294.639 134.71C297.975 138.957 302.475 141.08 308.137 141.08ZM391.372 153.82C380.654 153.82 372.363 150.534 366.499 143.962C360.634 137.389 357.702 128.037 357.702 115.903C357.702 103.871 360.634 94.5689 366.499 87.9967C372.363 81.3233 380.553 77.9867 391.069 77.9867C400.978 77.9867 408.409 80.9189 413.364 86.7833C418.318 92.6478 420.796 101.141 420.796 112.263C420.796 114.993 420.694 117.016 420.492 118.33H373.021C373.021 125.812 374.841 131.474 378.481 135.317C382.121 139.159 387.277 141.08 393.951 141.08C398.399 141.08 402.646 140.372 406.691 138.957C410.735 137.44 414.274 135.317 417.307 132.587L418.976 144.72C415.74 147.652 411.746 149.927 406.994 151.545C402.242 153.062 397.034 153.82 391.372 153.82ZM405.477 108.927C405.477 103.062 404.213 98.5628 401.686 95.4283C399.158 92.1928 395.467 90.575 390.614 90.575C385.255 90.575 381.109 92.2433 378.177 95.58C375.346 98.8156 373.678 103.264 373.172 108.927H405.477ZM460.67 153.82C455.715 153.82 450.761 153.213 445.806 152C440.852 150.686 436.909 149.017 433.976 146.995L435.19 133.952C438.324 135.974 442.571 137.743 447.93 139.26C453.39 140.676 458.192 141.383 462.338 141.383C466.484 141.383 469.719 140.625 472.045 139.108C474.37 137.592 475.533 135.317 475.533 132.283C475.533 129.351 474.117 127.076 471.286 125.458C468.455 123.739 464.259 122.071 458.698 120.453C451.317 118.229 445.503 115.6 441.256 112.567C437.01 109.533 434.886 104.983 434.886 98.9167C434.886 92.0411 437.262 86.8339 442.015 83.295C446.767 79.7561 452.935 77.9867 460.518 77.9867C464.461 77.9867 468.657 78.4417 473.106 79.3517C477.656 80.2617 481.802 81.5256 485.543 83.1433L484.481 95.4283C481.246 93.9117 477.454 92.5972 473.106 91.485C468.759 90.2717 464.967 89.665 461.731 89.665C458.192 89.665 455.311 90.4233 453.086 91.94C450.862 93.4567 449.75 95.5294 449.75 98.1583C449.75 100.079 450.407 101.647 451.721 102.86C453.036 104.073 454.552 105.034 456.271 105.742C458.091 106.348 460.973 107.258 464.916 108.472C472.399 110.595 478.364 113.274 482.813 116.51C487.262 119.644 489.486 124.447 489.486 130.918C489.486 138.401 486.857 144.113 481.6 148.057C476.443 151.899 469.466 153.82 460.67 153.82ZM506.065 79.8067H520.929V152H506.065V79.8067ZM513.649 70.8583C507.582 70.8583 504.549 67.9767 504.549 62.2133C504.549 59.3822 505.307 57.2083 506.824 55.6917C508.442 54.175 510.717 53.4167 513.649 53.4167C516.581 53.4167 518.805 54.175 520.322 55.6917C521.839 57.2083 522.597 59.3822 522.597 62.2133C522.597 67.9767 519.614 70.8583 513.649 70.8583ZM573.875 136.985C594.299 138.502 604.511 145.832 604.511 158.977C604.511 166.661 601.427 172.475 595.26 176.418C589.193 180.362 580.194 182.333 568.263 182.333C557.343 182.333 548.951 180.614 543.086 177.177C537.222 173.739 534.29 168.734 534.29 162.162C534.29 152.859 539.75 146.439 550.67 142.9C546.827 141.484 544.906 138.653 544.906 134.407C544.906 132.182 545.614 130.261 547.03 128.643C548.546 126.924 550.619 125.661 553.248 124.852C549.001 122.829 545.766 119.998 543.541 116.358C541.418 112.617 540.356 108.168 540.356 103.012C540.356 95.125 542.884 89.0078 547.94 84.66C553.096 80.2111 560.225 77.9867 569.325 77.9867C578.02 77.9867 584.896 79.9583 589.951 83.9017L602.236 77.835L605.118 88.4517L595.715 91.1817C597.434 94.6194 598.293 98.5628 598.293 103.012C598.293 110.898 595.765 117.066 590.71 121.515C585.654 125.863 578.526 128.037 569.325 128.037C567.505 128.037 566.19 127.986 565.381 127.885L565.078 128.037C562.752 128.037 560.983 128.391 559.77 129.098C558.556 129.806 557.95 130.767 557.95 131.98C557.95 133.396 559.112 134.457 561.438 135.165C563.764 135.873 567.909 136.479 573.875 136.985ZM569.476 87.845C564.623 87.845 560.882 89.1594 558.253 91.7883C555.725 94.4172 554.461 98.1078 554.461 102.86C554.461 107.511 555.776 111.202 558.405 113.932C561.135 116.561 564.825 117.875 569.476 117.875C574.229 117.875 577.919 116.561 580.548 113.932C583.177 111.202 584.491 107.511 584.491 102.86C584.491 98.1078 583.177 94.4172 580.548 91.7883C578.02 89.1594 574.33 87.845 569.476 87.845ZM570.386 170.958C576.554 170.958 581.357 170.048 584.795 168.228C588.232 166.408 589.951 163.83 589.951 160.493C589.951 158.168 589.092 156.297 587.373 154.882C585.755 153.567 583.531 152.556 580.7 151.848C577.869 151.039 573.723 150.129 568.263 149.118C566.847 148.916 564.623 148.512 561.59 147.905C556.939 148.309 553.349 149.523 550.821 151.545C548.294 153.567 547.03 156.044 547.03 158.977C547.03 162.819 549.102 165.751 553.248 167.773C557.394 169.897 563.106 170.958 570.386 170.958ZM658.49 77.9867C664.759 77.9867 669.764 79.7561 673.505 83.295C677.247 86.8339 679.117 91.6872 679.117 97.855V152H664.254V102.86C664.254 99.3211 663.142 96.49 660.917 94.3667C658.794 92.2433 656.013 91.1817 652.575 91.1817C649.643 91.1817 646.559 92.0411 643.324 93.76C640.189 95.4789 637.308 97.8044 634.679 100.737V152H619.815V79.8067H631.797L633.162 90.12C636.701 86.2778 640.594 83.295 644.84 81.1717C649.188 79.0483 653.738 77.9867 658.49 77.9867ZM729.66 153.82C718.942 153.82 710.651 150.534 704.787 143.962C698.922 137.389 695.99 128.037 695.99 115.903C695.99 103.77 698.922 94.4172 704.787 87.845C710.651 81.2728 718.993 77.9867 729.812 77.9867C734.766 77.9867 739.266 78.6944 743.31 80.11C747.354 81.4244 750.641 83.3456 753.168 85.8733L749.528 98.31C747.203 95.7822 744.473 93.8611 741.338 92.5467C738.204 91.2322 734.867 90.575 731.328 90.575C724.857 90.575 719.852 92.7994 716.313 97.2483C712.774 101.596 711.005 107.814 711.005 115.903C711.005 124.093 712.724 130.362 716.162 134.71C719.599 138.957 724.503 141.08 730.873 141.08C738.254 141.08 744.928 138.097 750.893 132.132L754.382 144.568C751.449 147.501 747.86 149.776 743.613 151.393C739.468 153.011 734.817 153.82 729.66 153.82ZM799.724 153.82C788.905 153.82 780.513 150.534 774.547 143.962C768.683 137.389 765.751 128.037 765.751 115.903C765.751 103.77 768.683 94.4172 774.547 87.845C780.513 81.2728 788.905 77.9867 799.724 77.9867C810.644 77.9867 819.036 81.2728 824.901 87.845C830.866 94.4172 833.849 103.77 833.849 115.903C833.849 128.037 830.866 137.389 824.901 143.962C819.036 150.534 810.644 153.82 799.724 153.82ZM799.876 141.08C806.043 141.08 810.745 138.957 813.981 134.71C817.216 130.362 818.834 124.093 818.834 115.903C818.834 107.713 817.216 101.444 813.981 97.0967C810.745 92.7489 806.043 90.575 799.876 90.575C793.708 90.575 788.956 92.7489 785.619 97.0967C782.383 101.444 780.766 107.713 780.766 115.903C780.766 124.093 782.383 130.362 785.619 134.71C788.956 138.957 793.708 141.08 799.876 141.08ZM912.729 41.2833V152H900.595L898.927 142.445C893.77 150.028 886.238 153.82 876.329 153.82C867.128 153.82 859.999 150.483 854.944 143.81C849.888 137.137 847.36 127.885 847.36 116.055C847.36 104.124 849.888 94.8217 854.944 88.1483C860.1 81.3739 867.33 77.9867 876.632 77.9867C880.677 77.9867 884.519 78.6944 888.159 80.11C891.9 81.5256 895.135 83.6994 897.865 86.6317V41.2833H912.729ZM881.182 141.08C884.418 141.08 887.502 140.372 890.434 138.957C893.366 137.541 895.843 135.519 897.865 132.89V98.9167C895.843 96.2878 893.315 94.2656 890.282 92.85C887.249 91.3333 884.114 90.575 880.879 90.575C875.217 90.575 870.768 92.7994 867.532 97.2483C864.297 101.697 862.679 107.865 862.679 115.752C862.679 124.043 864.347 130.362 867.684 134.71C871.02 138.957 875.52 141.08 881.182 141.08ZM964.417 153.82C953.7 153.82 945.409 150.534 939.544 143.962C933.68 137.389 930.747 128.037 930.747 115.903C930.747 103.871 933.68 94.5689 939.544 87.9967C945.409 81.3233 953.599 77.9867 964.114 77.9867C974.023 77.9867 981.455 80.9189 986.409 86.7833C991.364 92.6478 993.841 101.141 993.841 112.263C993.841 114.993 993.74 117.016 993.537 118.33H946.066C946.066 125.812 947.886 131.474 951.526 135.317C955.166 139.159 960.322 141.08 966.996 141.08C971.445 141.08 975.691 140.372 979.736 138.957C983.78 137.44 987.319 135.317 990.352 132.587L992.021 144.72C988.785 147.652 984.791 149.927 980.039 151.545C975.287 153.062 970.08 153.82 964.417 153.82ZM978.522 108.927C978.522 103.062 977.259 98.5628 974.731 95.4283C972.203 92.1928 968.512 90.575 963.659 90.575C958.3 90.575 954.155 92.2433 951.222 95.58C948.391 98.8156 946.723 103.264 946.217 108.927H978.522ZM1049.94 90.575C1045.59 90.7772 1041.39 91.7378 1037.35 93.4567C1033.4 95.1756 1029.87 97.4506 1026.73 100.282V152H1011.87V79.8067H1023.85L1025.52 89.9683C1028.85 86.2272 1032.6 83.295 1036.74 81.1717C1040.89 79.0483 1044.88 77.9867 1048.72 77.9867L1049.94 90.575Z" fill="#2E2E2E"/>
<defs>
<linearGradient id="paint0_linear" x1="-24.77" y1="172.33" x2="1070.43" y2="139.539" gradientUnits="userSpaceOnUse">
<stop stop-color="#EF5277"/>
<stop offset="0.921875" stop-color="#B9CDE6"/>
</linearGradient>
</defs>
</svg>
