<svg width="1048" height="142" viewBox="0 0 1048 142" fill="none" xmlns="http://www.w3.org/2000/svg">
<path d="M105.228 38.8067L83.2367 111H66.705L52.6 59.585L38.1917 111H21.205L0.426667 38.8067H16.655L30.9117 94.0133L46.685 38.8067H60.79L75.6533 94.165L90.2133 38.8067H105.228ZM145.876 112.82C135.158 112.82 126.867 109.534 121.003 102.962C115.138 96.3894 112.206 87.0367 112.206 74.9033C112.206 62.8711 115.138 53.5689 121.003 46.9967C126.867 40.3233 135.057 36.9867 145.573 36.9867C155.482 36.9867 162.913 39.9189 167.868 45.7833C172.822 51.6478 175.3 60.1411 175.3 71.2633C175.3 73.9933 175.198 76.0156 174.996 77.33H127.525C127.525 84.8122 129.345 90.4744 132.985 94.3167C136.625 98.1589 141.781 100.08 148.455 100.08C152.903 100.08 157.15 99.3722 161.195 97.9567C165.239 96.44 168.778 94.3167 171.811 91.5867L173.48 103.72C170.244 106.652 166.25 108.927 161.498 110.545C156.746 112.062 151.538 112.82 145.876 112.82ZM159.981 67.9267C159.981 62.0622 158.717 57.5628 156.19 54.4283C153.662 51.1928 149.971 49.575 145.118 49.575C139.759 49.575 135.613 51.2433 132.681 54.58C129.85 57.8156 128.182 62.2644 127.676 67.9267H159.981ZM229.423 36.9867C238.725 36.9867 245.904 40.3739 250.96 47.1483C256.117 53.8217 258.695 63.0733 258.695 74.9033C258.695 86.8344 256.117 96.1367 250.96 102.81C245.803 109.483 238.675 112.82 229.575 112.82C224.823 112.82 220.525 111.91 216.683 110.09C212.841 108.169 209.605 105.287 206.977 101.445L205.308 111H193.327V0.283338H208.19V45.6317C210.92 42.6994 214.105 40.5256 217.745 39.11C221.486 37.6944 225.379 36.9867 229.423 36.9867ZM225.025 100.08C230.788 100.08 235.288 97.9061 238.523 93.5583C241.759 89.2106 243.377 82.9922 243.377 74.9033C243.377 66.9156 241.759 60.6972 238.523 56.2483C235.389 51.7994 230.94 49.575 225.177 49.575C221.941 49.575 218.807 50.3333 215.773 51.85C212.74 53.2656 210.212 55.2878 208.19 57.9167V91.89C210.313 94.5189 212.841 96.5411 215.773 97.9567C218.705 99.3722 221.789 100.08 225.025 100.08ZM337.684 0.283338V111H325.55L323.882 101.445C318.725 109.028 311.192 112.82 301.284 112.82C292.082 112.82 284.954 109.483 279.899 102.81C274.843 96.1367 272.315 86.885 272.315 75.055C272.315 63.1239 274.843 53.8217 279.899 47.1483C285.055 40.3739 292.285 36.9867 301.587 36.9867C305.631 36.9867 309.474 37.6944 313.114 39.11C316.855 40.5256 320.09 42.6994 322.82 45.6317V0.283338H337.684ZM306.137 100.08C309.372 100.08 312.456 99.3722 315.389 97.9567C318.321 96.5411 320.798 94.5189 322.82 91.89V57.9167C320.798 55.2878 318.27 53.2656 315.237 51.85C312.204 50.3333 309.069 49.575 305.834 49.575C300.171 49.575 295.722 51.7994 292.487 56.2483C289.251 60.6972 287.634 66.865 287.634 74.7517C287.634 83.0428 289.302 89.3622 292.639 93.71C295.975 97.9567 300.475 100.08 306.137 100.08ZM389.372 112.82C378.654 112.82 370.363 109.534 364.499 102.962C358.634 96.3894 355.702 87.0367 355.702 74.9033C355.702 62.8711 358.634 53.5689 364.499 46.9967C370.363 40.3233 378.553 36.9867 389.069 36.9867C398.978 36.9867 406.409 39.9189 411.364 45.7833C416.318 51.6478 418.796 60.1411 418.796 71.2633C418.796 73.9933 418.694 76.0156 418.492 77.33H371.021C371.021 84.8122 372.841 90.4744 376.481 94.3167C380.121 98.1589 385.277 100.08 391.951 100.08C396.399 100.08 400.646 99.3722 404.691 97.9567C408.735 96.44 412.274 94.3167 415.307 91.5867L416.976 103.72C413.74 106.652 409.746 108.927 404.994 110.545C400.242 112.062 395.034 112.82 389.372 112.82ZM403.477 67.9267C403.477 62.0622 402.213 57.5628 399.686 54.4283C397.158 51.1928 393.467 49.575 388.614 49.575C383.255 49.575 379.109 51.2433 376.177 54.58C373.346 57.8156 371.678 62.2644 371.172 67.9267H403.477ZM458.67 112.82C453.715 112.82 448.761 112.213 443.806 111C438.852 109.686 434.909 108.017 431.976 105.995L433.19 92.9517C436.324 94.9739 440.571 96.7433 445.93 98.26C451.39 99.6756 456.192 100.383 460.338 100.383C464.484 100.383 467.719 99.625 470.045 98.1083C472.37 96.5917 473.533 94.3167 473.533 91.2833C473.533 88.3511 472.117 86.0761 469.286 84.4583C466.455 82.7394 462.259 81.0711 456.698 79.4533C449.317 77.2289 443.503 74.6 439.256 71.5667C435.01 68.5333 432.886 63.9833 432.886 57.9167C432.886 51.0411 435.262 45.8339 440.015 42.295C444.767 38.7561 450.935 36.9867 458.518 36.9867C462.461 36.9867 466.657 37.4417 471.106 38.3517C475.656 39.2617 479.802 40.5256 483.543 42.1433L482.481 54.4283C479.246 52.9117 475.454 51.5972 471.106 50.485C466.759 49.2717 462.967 48.665 459.731 48.665C456.192 48.665 453.311 49.4233 451.086 50.94C448.862 52.4567 447.75 54.5294 447.75 57.1583C447.75 59.0794 448.407 60.6467 449.721 61.86C451.036 63.0733 452.552 64.0339 454.271 64.7417C456.091 65.3483 458.973 66.2583 462.916 67.4717C470.399 69.595 476.364 72.2744 480.813 75.51C485.262 78.6444 487.486 83.4472 487.486 89.9183C487.486 97.4006 484.857 103.113 479.6 107.057C474.443 110.899 467.466 112.82 458.67 112.82ZM504.065 38.8067H518.929V111H504.065V38.8067ZM511.649 29.8583C505.582 29.8583 502.549 26.9767 502.549 21.2133C502.549 18.3822 503.307 16.2083 504.824 14.6917C506.442 13.175 508.717 12.4167 511.649 12.4167C514.581 12.4167 516.805 13.175 518.322 14.6917C519.839 16.2083 520.597 18.3822 520.597 21.2133C520.597 26.9767 517.614 29.8583 511.649 29.8583ZM571.875 95.985C592.299 97.5017 602.511 104.832 602.511 117.977C602.511 125.661 599.427 131.475 593.26 135.418C587.193 139.362 578.194 141.333 566.263 141.333C555.343 141.333 546.951 139.614 541.086 136.177C535.222 132.739 532.29 127.734 532.29 121.162C532.29 111.859 537.75 105.439 548.67 101.9C544.827 100.484 542.906 97.6533 542.906 93.4067C542.906 91.1822 543.614 89.2611 545.03 87.6433C546.546 85.9244 548.619 84.6606 551.248 83.8517C547.001 81.8294 543.766 78.9983 541.541 75.3583C539.418 71.6172 538.356 67.1683 538.356 62.0117C538.356 54.125 540.884 48.0078 545.94 43.66C551.096 39.2111 558.225 36.9867 567.325 36.9867C576.02 36.9867 582.896 38.9583 587.951 42.9017L600.236 36.835L603.118 47.4517L593.715 50.1817C595.434 53.6194 596.293 57.5628 596.293 62.0117C596.293 69.8983 593.765 76.0661 588.71 80.515C583.654 84.8628 576.526 87.0367 567.325 87.0367C565.505 87.0367 564.19 86.9861 563.381 86.885L563.078 87.0367C560.752 87.0367 558.983 87.3906 557.77 88.0983C556.556 88.8061 555.95 89.7667 555.95 90.98C555.95 92.3956 557.112 93.4572 559.438 94.165C561.764 94.8728 565.909 95.4794 571.875 95.985ZM567.476 46.845C562.623 46.845 558.882 48.1594 556.253 50.7883C553.725 53.4172 552.461 57.1078 552.461 61.86C552.461 66.5111 553.776 70.2017 556.405 72.9317C559.135 75.5606 562.825 76.875 567.476 76.875C572.229 76.875 575.919 75.5606 578.548 72.9317C581.177 70.2017 582.491 66.5111 582.491 61.86C582.491 57.1078 581.177 53.4172 578.548 50.7883C576.02 48.1594 572.33 46.845 567.476 46.845ZM568.386 129.958C574.554 129.958 579.357 129.048 582.795 127.228C586.232 125.408 587.951 122.83 587.951 119.493C587.951 117.168 587.092 115.297 585.373 113.882C583.755 112.567 581.531 111.556 578.7 110.848C575.869 110.039 571.723 109.129 566.263 108.118C564.847 107.916 562.623 107.512 559.59 106.905C554.939 107.309 551.349 108.523 548.821 110.545C546.294 112.567 545.03 115.044 545.03 117.977C545.03 121.819 547.102 124.751 551.248 126.773C555.394 128.897 561.106 129.958 568.386 129.958ZM656.49 36.9867C662.759 36.9867 667.764 38.7561 671.505 42.295C675.247 45.8339 677.117 50.6872 677.117 56.855V111H662.254V61.86C662.254 58.3211 661.142 55.49 658.917 53.3667C656.794 51.2433 654.013 50.1817 650.575 50.1817C647.643 50.1817 644.559 51.0411 641.324 52.76C638.189 54.4789 635.308 56.8044 632.679 59.7367V111H617.815V38.8067H629.797L631.162 49.12C634.701 45.2778 638.594 42.295 642.84 40.1717C647.188 38.0483 651.738 36.9867 656.49 36.9867ZM727.66 112.82C716.942 112.82 708.651 109.534 702.787 102.962C696.922 96.3894 693.99 87.0367 693.99 74.9033C693.99 62.77 696.922 53.4172 702.787 46.845C708.651 40.2728 716.993 36.9867 727.812 36.9867C732.766 36.9867 737.266 37.6944 741.31 39.11C745.354 40.4244 748.641 42.3456 751.168 44.8733L747.528 57.31C745.203 54.7822 742.473 52.8611 739.338 51.5467C736.204 50.2322 732.867 49.575 729.328 49.575C722.857 49.575 717.852 51.7994 714.313 56.2483C710.774 60.5961 709.005 66.8144 709.005 74.9033C709.005 83.0933 710.724 89.3622 714.162 93.71C717.599 97.9567 722.503 100.08 728.873 100.08C736.254 100.08 742.928 97.0972 748.893 91.1317L752.382 103.568C749.449 106.501 745.86 108.776 741.613 110.393C737.468 112.011 732.817 112.82 727.66 112.82ZM797.724 112.82C786.905 112.82 778.513 109.534 772.547 102.962C766.683 96.3894 763.751 87.0367 763.751 74.9033C763.751 62.77 766.683 53.4172 772.547 46.845C778.513 40.2728 786.905 36.9867 797.724 36.9867C808.644 36.9867 817.036 40.2728 822.901 46.845C828.866 53.4172 831.849 62.77 831.849 74.9033C831.849 87.0367 828.866 96.3894 822.901 102.962C817.036 109.534 808.644 112.82 797.724 112.82ZM797.876 100.08C804.043 100.08 808.745 97.9567 811.981 93.71C815.216 89.3622 816.834 83.0933 816.834 74.9033C816.834 66.7133 815.216 60.4444 811.981 56.0967C808.745 51.7489 804.043 49.575 797.876 49.575C791.708 49.575 786.956 51.7489 783.619 56.0967C780.383 60.4444 778.766 66.7133 778.766 74.9033C778.766 83.0933 780.383 89.3622 783.619 93.71C786.956 97.9567 791.708 100.08 797.876 100.08ZM910.729 0.283338V111H898.595L896.927 101.445C891.77 109.028 884.238 112.82 874.329 112.82C865.128 112.82 857.999 109.483 852.944 102.81C847.888 96.1367 845.36 86.885 845.36 75.055C845.36 63.1239 847.888 53.8217 852.944 47.1483C858.1 40.3739 865.33 36.9867 874.632 36.9867C878.677 36.9867 882.519 37.6944 886.159 39.11C889.9 40.5256 893.135 42.6994 895.865 45.6317V0.283338H910.729ZM879.182 100.08C882.418 100.08 885.502 99.3722 888.434 97.9567C891.366 96.5411 893.843 94.5189 895.865 91.89V57.9167C893.843 55.2878 891.315 53.2656 888.282 51.85C885.249 50.3333 882.114 49.575 878.879 49.575C873.217 49.575 868.768 51.7994 865.532 56.2483C862.297 60.6972 860.679 66.865 860.679 74.7517C860.679 83.0428 862.347 89.3622 865.684 93.71C869.02 97.9567 873.52 100.08 879.182 100.08ZM962.417 112.82C951.7 112.82 943.409 109.534 937.544 102.962C931.68 96.3894 928.747 87.0367 928.747 74.9033C928.747 62.8711 931.68 53.5689 937.544 46.9967C943.409 40.3233 951.599 36.9867 962.114 36.9867C972.023 36.9867 979.455 39.9189 984.409 45.7833C989.364 51.6478 991.841 60.1411 991.841 71.2633C991.841 73.9933 991.74 76.0156 991.537 77.33H944.066C944.066 84.8122 945.886 90.4744 949.526 94.3167C953.166 98.1589 958.322 100.08 964.996 100.08C969.445 100.08 973.691 99.3722 977.736 97.9567C981.78 96.44 985.319 94.3167 988.352 91.5867L990.021 103.72C986.785 106.652 982.791 108.927 978.039 110.545C973.287 112.062 968.08 112.82 962.417 112.82ZM976.522 67.9267C976.522 62.0622 975.259 57.5628 972.731 54.4283C970.203 51.1928 966.512 49.575 961.659 49.575C956.3 49.575 952.155 51.2433 949.222 54.58C946.391 57.8156 944.723 62.2644 944.217 67.9267H976.522ZM1047.94 49.575C1043.59 49.7772 1039.39 50.7378 1035.35 52.4567C1031.4 54.1756 1027.87 56.4506 1024.73 59.2817V111H1009.87V38.8067H1021.85L1023.52 48.9683C1026.85 45.2272 1030.6 42.295 1034.74 40.1717C1038.89 38.0483 1042.88 36.9867 1046.72 36.9867L1047.94 49.575Z" fill="#2E2E2E"/>
</svg>
