<?xml version="1.0" encoding="UTF-8" standalone="no"?>
<!DOCTYPE svg PUBLIC "-//W3C//DTD SVG 1.1//EN" "http://www.w3.org/Graphics/SVG/1.1/DTD/svg11.dtd">
<svg width="100%" height="100%" viewBox="0 0 164 53" version="1.1" xmlns="http://www.w3.org/2000/svg" xmlns:xlink="http://www.w3.org/1999/xlink" xml:space="preserve" xmlns:serif="http://www.serif.com/" style="fill-rule:evenodd;clip-rule:evenodd;stroke-linejoin:round;stroke-miterlimit:2;">
    <g transform="matrix(1,0,0,1,-10.2798,-82.6255)">
        <g id="WEB2" transform="matrix(3.43465,0,0,3.43465,-2129.3,-398.612)">
            <clipPath id="_clip1">
                <path d="M622.94,140.112L625.998,140.112L628.66,151.53L628.792,151.53L632.312,140.112L634.974,140.112L638.494,151.53L638.626,151.53L641.31,140.112L644.368,140.112L640.408,155.534L636.734,155.534L633.72,145.568L633.588,145.568L630.574,155.534L626.9,155.534L622.94,140.112ZM649.384,142.774L649.384,146.492L655.434,146.492L655.434,148.89L649.384,148.89L649.384,152.85L656.512,152.85L656.512,155.512L646.326,155.512L646.326,140.112L656.512,140.112L656.512,142.774L649.384,142.774ZM658.778,140.112L665.29,140.112C666.243,140.112 667.05,140.292 667.71,140.651C668.37,141.011 668.857,141.487 669.173,142.081C669.488,142.675 669.646,143.324 669.646,144.028C669.646,144.923 669.411,145.645 668.942,146.195C668.472,146.745 667.937,147.101 667.336,147.262L667.336,147.394C667.776,147.453 668.234,147.618 668.711,147.889C669.187,148.161 669.602,148.564 669.954,149.099C670.306,149.635 670.482,150.291 670.482,151.068C670.482,151.802 670.317,152.509 669.987,153.191C669.657,153.873 669.136,154.434 668.425,154.874C667.713,155.314 666.822,155.534 665.752,155.534L658.778,155.534L658.778,140.112ZM664.366,146.514C665.011,146.514 665.572,146.353 666.049,146.03C666.525,145.708 666.764,145.194 666.764,144.49C666.764,143.801 666.529,143.302 666.06,142.994C665.59,142.686 665.026,142.532 664.366,142.532L661.77,142.532L661.77,146.514L664.366,146.514ZM665.048,153.092C665.722,153.092 666.316,152.924 666.83,152.586C667.343,152.249 667.6,151.684 667.6,150.892C667.6,150.115 667.343,149.554 666.83,149.209C666.316,148.865 665.722,148.692 665.048,148.692L661.77,148.692L661.77,153.092L665.048,153.092Z" clip-rule="nonzero"/>
            </clipPath>
            <g clip-path="url(#_clip1)">
                <text x="622.698px" y="155.512px" style="font-family:'BeVietnam-Bold', 'Be Vietnam';font-weight:700;font-size:22px;fill:rgb(54,54,54);">W<tspan x="645.05px " y="155.512px ">E</tspan>B</text>
                <g transform="matrix(22,0,0,22,657.524,155.512)">
                    <path d="M0.057,0.001C0.057,0.001 0.398,0.149 0.37,0.156L0.404,0.146C0.424,0.148 0.581,-0.023 0.548,-0.003C0.516,0.017 0.423,0.001 0.374,0.001L0.057,0.001ZM0.647,-0.048C0.677,-0.048 0.006,0.369 -0.025,0.369L0.056,-0.084L0.167,-0.053L0.266,-0.072L0.356,-0.063L0.457,-0.068L0.589,-0.107L0.593,-0.045L0.647,-0.048Z" style="fill:rgb(31,160,226);fill-rule:nonzero;"/>
                </g>
                <g transform="matrix(22,0,0,22,645.05,155.512)">
                    <path d="M0.058,-0.7L0.058,-0.081L0.137,-0.067L0.225,-0.082L0.348,-0.067L0.444,-0.078L0.522,-0.065L0.521,0L0.058,0L0.058,-0.7Z" style="fill:rgb(31,160,226);fill-rule:nonzero;"/>
                </g>
                <g transform="matrix(22,0,0,22,622.698,155.804)">
                    <path d="M0.166,-0.096L0.197,-0.081L0.25,-0.08L0.296,-0.09L0.36,-0.082L0.639,-0.08L0.703,-0.088L0.738,-0.078L0.781,-0.084L0.828,-0.088L0.805,0.001L0.638,0.001L0.501,-0.452L0.495,-0.452L0.358,0.001L0.191,0.001L0.166,-0.096Z" style="fill:rgb(31,160,226);fill-rule:nonzero;"/>
                </g>
            </g>
        </g>
    </g>
</svg>
