{
  "accessors": [
    {
      "bufferView": 2,
      "componentType": 5126,
      "count": 65532,
      "max": [
        3.0622498989105225,
        8.6632480621337891,
        6.862001895904541
      ],
      "min": [
        -3.0622498989105225,
        -11.518730163574219,
        -6.900543212890625
      ],
      "type": "VEC3"
    },
    {
      "bufferView": 2,
      "byteOffset": 786384,
      "componentType": 5126,
      "count": 65532,
      "max": [
        0.99999433755874634,
        0.99976146221160889,
        0.99998211860656738
      ],
      "min": [
        -0.99999547004699707,
        -0.99998354911804199,
        -0.99999749660491943
      ],
      "type": "VEC3"
    },
    {
      "bufferView": 3,
      "componentType": 5126,
      "count": 65532,
      "max": [
        0.99994724988937378,
        0.99999892711639404,
        0.99999988079071045,
        1
      ],
      "min": [
        -0.99998968839645386,
        -0.99999171495437622,
        -0.99998539686203003,
        -1
      ],
      "type": "VEC4"
    },
    {
      "bufferView": 1,
      "componentType": 5126,
      "count": 65532,
      "max": [
        0.99951201677322388,
        0.99790197610855103
      ],
      "min": [
        0.00048799999058246613,
        0.00048799999058246613
      ],
      "type": "VEC2"
    },
    {
      "bufferView": 0,
      "componentType": 5125,
      "count": 314514,
      "max": [
        65531
      ],
      "min": [
        0
      ],
      "type": "SCALAR"
    },
    {
      "bufferView": 2,
      "byteOffset": 1572768,
      "componentType": 5126,
      "count": 60151,
      "max": [
        2.4404630661010742,
        11.518728256225586,
        6.900543212890625
      ],
      "min": [
        -2.9542050361633301,
        -11.517650604248047,
        -6.5100870132446289
      ],
      "type": "VEC3"
    },
    {
      "bufferView": 2,
      "byteOffset": 2294580,
      "componentType": 5126,
      "count": 60151,
      "max": [
        0.99999690055847168,
        0.99999648332595825,
        0.99998873472213745
      ],
      "min": [
        -0.9999854564666748,
        -0.99999964237213135,
        -0.99999290704727173
      ],
      "type": "VEC3"
    },
    {
      "bufferView": 3,
      "byteOffset": 1048512,
      "componentType": 5126,
      "count": 60151,
      "max": [
        0.99992632865905762,
        0.99995386600494385,
        0.99994981288909912,
        1
      ],
      "min": [
        -0.99997222423553467,
        -0.99999725818634033,
        -0.99999153614044189,
        -1
      ],
      "type": "VEC4"
    },
    {
      "bufferView": 1,
      "byteOffset": 524256,
      "componentType": 5126,
      "count": 60151,
      "max": [
        0.99944198131561279,
        0.99951201677322388
      ],
      "min": [
        0.00048799999058246613,
        0.00048799999058246613
      ],
      "type": "VEC2"
    },
    {
      "bufferView": 0,
      "byteOffset": 1258056,
      "componentType": 5125,
      "count": 285582,
      "max": [
        60150
      ],
      "min": [
        0
      ],
      "type": "SCALAR"
    }
  ],
  "asset": {
    "extras": {
      "author": "Spogna (https://sketchfab.com/spogna)",
      "license": "CC-BY-NC-4.0 (http://creativecommons.org/licenses/by-nc/4.0/)",
      "source": "https://sketchfab.com/3d-models/dried-rose-02-rawscan-a0c121b94c444e2582f38c55e6ab1850",
      "title": "Dried Rose 02 .::RAWscan::."
    },
    "generator": "Sketchfab-7.58.0",
    "version": "2.0"
  },
  "bufferViews": [
    {
      "buffer": 0,
      "byteLength": 2400384,
      "byteOffset": 0,
      "name": "floatBufferViews",
      "target": 34963
    },
    {
      "buffer": 0,
      "byteLength": 1005464,
      "byteOffset": 2400384,
      "byteStride": 8,
      "name": "floatBufferViews",
      "target": 34962
    },
    {
      "buffer": 0,
      "byteLength": 3016392,
      "byteOffset": 3405848,
      "byteStride": 12,
      "name": "floatBufferViews",
      "target": 34962
    },
    {
      "buffer": 0,
      "byteLength": 2010928,
      "byteOffset": 6422240,
      "byteStride": 16,
      "name": "floatBufferViews",
      "target": 34962
    }
  ],
  "buffers": [
    {
      "byteLength": 8433168,
      "uri": "scene.bin"
    }
  ],
  "images": [
    {
      "uri": "textures/rosa02_baseColor.jpeg"
    },
    {
      "uri": "textures/rosa02_metallicRoughness.png"
    },
    {
      "uri": "textures/rosa02_normal.jpeg"
    }
  ],
  "materials": [
    {
      "doubleSided": true,
      "name": "rosa02",
      "normalTexture": {
        "index": 2,
        "scale": 1,
        "texCoord": 0
      },
      "occlusionTexture": {
        "index": 1,
        "strength": 1,
        "texCoord": 0
      },
      "pbrMetallicRoughness": {
        "baseColorFactor": [
          1,
          1,
          1,
          1
        ],
        "baseColorTexture": {
          "index": 0,
          "texCoord": 0
        },
        "metallicFactor": 0,
        "metallicRoughnessTexture": {
          "index": 1,
          "texCoord": 0
        },
        "roughnessFactor": 0
      }
    }
  ],
  "meshes": [
    {
      "primitives": [
        {
          "attributes": {
            "NORMAL": 1,
            "POSITION": 0,
            "TANGENT": 2,
            "TEXCOORD_0": 3
          },
          "indices": 4,
          "material": 0,
          "mode": 4
        }
      ]
    },
    {
      "primitives": [
        {
          "attributes": {
            "NORMAL": 6,
            "POSITION": 5,
            "TANGENT": 7,
            "TEXCOORD_0": 8
          },
          "indices": 9,
          "material": 0,
          "mode": 4
        }
      ]
    }
  ],
  "nodes": [
    {
      "children": [
        1
      ],
      "name": "RootNode (gltf orientation matrix)",
      "rotation": [
        -0.70710678118654746,
        -0,
        -0,
        0.70710678118654757
      ]
    },
    {
      "children": [
        2
      ],
      "matrix": [
        4.4408920985006262e-16,
        -1,
        2.2204460492503131e-16,
        0,
        2.2204460492503131e-16,
        -2.2204460492503131e-16,
        -1,
        0,
        1,
        4.4408920985006262e-16,
        2.2204460492503131e-16,
        0,
        6.4373016357421875e-06,
        3.7431716918945312e-05,
        3.0994415283203125e-05,
        1
      ],
      "name": "RootNode (model correction matrix)"
    },
    {
      "children": [
        3,
        4
      ],
      "name": "rosa02.obj.cleaner.materialmerger.gles"
    },
    {
      "mesh": 0,
      "name": ""
    },
    {
      "mesh": 1,
      "name": ""
    }
  ],
  "samplers": [
    {
      "magFilter": 9729,
      "minFilter": 9987,
      "wrapS": 10497,
      "wrapT": 10497
    }
  ],
  "scene": 0,
  "scenes": [
    {
      "name": "OSG_Scene",
      "nodes": [
        0
      ]
    }
  ],
  "textures": [
    {
      "sampler": 0,
      "source": 0
    },
    {
      "sampler": 0,
      "source": 1
    },
    {
      "sampler": 0,
      "source": 2
    }
  ]
}

