<?xml version="1.0" standalone="no"?>
<!DOCTYPE svg PUBLIC "-//W3C//DTD SVG 20010904//EN"
 "http://www.w3.org/TR/2001/REC-SVG-20010904/DTD/svg10.dtd">
<svg version="1.0" xmlns="http://www.w3.org/2000/svg"
 width="700.000000pt" height="700.000000pt" viewBox="0 0 700.000000 700.000000"
 preserveAspectRatio="xMidYMid meet">
<metadata>
Created by potrace 1.14, written by Peter Selinger 2001-2017
</metadata>
<g transform="translate(0.000000,700.000000) scale(0.100000,-0.100000)"
fill="#000000" stroke="none">
<path d="M0 3500 l0 -3500 3500 0 3500 0 0 3500 0 3500 -3500 0 -3500 0 0
-3500z m6797 3297 c3 -4 7 -1490 7 -3302 1 -3288 1 -3295 -19 -3296 -11 0
-1497 -1 -3302 -2 -3277 -2 -3283 -2 -3284 18 -1 26 -1 6590 0 6590 3850 0
6593 -4 6598 -8z"/>
<path d="M1243 5762 c-18 -2 -33 -6 -34 -10 0 -4 -1 -37 -2 -75 -2 -58 0 -67
16 -67 10 0 36 -9 58 -21 32 -16 46 -32 66 -76 l26 -57 2 -1505 c2 -828 5
-1517 8 -1531 3 -14 8 -50 12 -80 3 -30 13 -86 21 -125 8 -38 17 -80 20 -93
21 -105 105 -309 166 -407 213 -340 542 -537 998 -601 25 -4 749 -7 1608 -8
1382 -1 1565 1 1571 14 4 8 7 40 6 70 l0 54 -48 14 c-55 15 -94 58 -114 124
-10 34 -13 442 -13 2049 0 2183 -3 2069 55 2131 21 23 78 48 110 48 11 0 14
134 3 145 -5 6 -987 10 -1100 6 -16 -1 -18 -11 -18 -75 l0 -74 32 -8 c50 -10
75 -31 100 -82 l23 -47 3 -1792 2 -1793 -469 0 -469 0 0 1768 c0 1266 3 1781
11 1816 15 65 59 111 120 127 l47 11 0 74 c0 64 -2 74 -17 75 -23 1 -1060 1
-1090 0 -22 -1 -23 -5 -23 -75 l0 -74 35 -6 c46 -9 89 -47 111 -98 17 -41 18
-132 19 -1831 l1 -1788 -213 2 c-216 1 -312 12 -387 44 -65 28 -155 94 -188
138 -73 100 -130 275 -143 442 -4 50 -7 725 -7 1501 0 1260 2 1418 16 1466 19
65 52 102 109 121 l42 14 0 73 -1 73 -524 1 c-289 0 -540 0 -557 -2z"/>
</g>
</svg>
