{
  "accessors": [
    {
      "bufferView": 1,
      "componentType": 5126,
      "count": 65535,
      "max": [
        0.4326229989528656,
        0.22500200569629669,
        1.7264599800109863
      ],
      "min": [
        -0.49079999327659607,
        -1.6647200584411621,
        0.035304401069879532
      ],
      "type": "VEC3"
    },
    {
      "bufferView": 2,
      "componentType": 5126,
      "count": 65535,
      "max": [
        0.99607843160629272,
        0.98823529481887817,
        1,
        1
      ],
      "min": [
        0.99607843160629272,
        0.98823529481887817,
        1,
        1
      ],
      "type": "VEC4"
    },
    {
      "bufferView": 0,
      "componentType": 5126,
      "count": 65535,
      "max": [
        0,
        0
      ],
      "min": [
        0,
        0
      ],
      "type": "VEC2"
    },
    {
      "bufferView": 1,
      "byteOffset": 786420,
      "componentType": 5126,
      "count": 65535,
      "max": [
        0.49447301030158997,
        0.39134898781776428,
        2.5952401161193848
      ],
      "min": [
        -2.5136098861694336,
        -1.6422499418258667,
        0.50658100843429565
      ],
      "type": "VEC3"
    },
    {
      "bufferView": 2,
      "byteOffset": 1048560,
      "componentType": 5126,
      "count": 65535,
      "max": [
        0.99607843160629272,
        0.98823529481887817,
        1,
        1
      ],
      "min": [
        0.99607843160629272,
        0.98823529481887817,
        1,
        1
      ],
      "type": "VEC4"
    },
    {
      "bufferView": 0,
      "byteOffset": 524280,
      "componentType": 5126,
      "count": 65535,
      "max": [
        0,
        0
      ],
      "min": [
        0,
        0
      ],
      "type": "VEC2"
    },
    {
      "bufferView": 1,
      "byteOffset": 1572840,
      "componentType": 5126,
      "count": 65535,
      "max": [
        0.66332000494003296,
        0.48724299669265747,
        2.6050000190734863
      ],
      "min": [
        -2.5174698829650879,
        -1.5453799962997437,
        0.38231399655342102
      ],
      "type": "VEC3"
    },
    {
      "bufferView": 2,
      "byteOffset": 2097120,
      "componentType": 5126,
      "count": 65535,
      "max": [
        0.99607843160629272,
        0.98823529481887817,
        1,
        1
      ],
      "min": [
        0.99607843160629272,
        0.98823529481887817,
        1,
        1
      ],
      "type": "VEC4"
    },
    {
      "bufferView": 0,
      "byteOffset": 1048560,
      "componentType": 5126,
      "count": 65535,
      "max": [
        0,
        0
      ],
      "min": [
        0,
        0
      ],
      "type": "VEC2"
    },
    {
      "bufferView": 1,
      "byteOffset": 2359260,
      "componentType": 5126,
      "count": 65535,
      "max": [
        0.49231699109077454,
        0.14780500531196594,
        2.7642500400543213
      ],
      "min": [
        -0.8079419732093811,
        -1.5802299976348877,
        0.56969797611236572
      ],
      "type": "VEC3"
    },
    {
      "bufferView": 2,
      "byteOffset": 3145680,
      "componentType": 5126,
      "count": 65535,
      "max": [
        0.99607843160629272,
        0.98823529481887817,
        1,
        1
      ],
      "min": [
        0.99607843160629272,
        0.98823529481887817,
        1,
        1
      ],
      "type": "VEC4"
    },
    {
      "bufferView": 0,
      "byteOffset": 1572840,
      "componentType": 5126,
      "count": 65535,
      "max": [
        0,
        0
      ],
      "min": [
        0,
        0
      ],
      "type": "VEC2"
    },
    {
      "bufferView": 1,
      "byteOffset": 3145680,
      "componentType": 5126,
      "count": 65535,
      "max": [
        0.4713590145111084,
        0.17618800699710846,
        3.0150599479675293
      ],
      "min": [
        -0.79984098672866821,
        -1.7264200448989868,
        0.60701501369476318
      ],
      "type": "VEC3"
    },
    {
      "bufferView": 2,
      "byteOffset": 4194240,
      "componentType": 5126,
      "count": 65535,
      "max": [
        0.99607843160629272,
        0.98823529481887817,
        1,
        1
      ],
      "min": [
        0.99607843160629272,
        0.98823529481887817,
        1,
        1
      ],
      "type": "VEC4"
    },
    {
      "bufferView": 0,
      "byteOffset": 2097120,
      "componentType": 5126,
      "count": 65535,
      "max": [
        0,
        0
      ],
      "min": [
        0,
        0
      ],
      "type": "VEC2"
    },
    {
      "bufferView": 1,
      "byteOffset": 3932100,
      "componentType": 5126,
      "count": 65535,
      "max": [
        0.69173198938369751,
        0.18114499747753143,
        3.085050106048584
      ],
      "min": [
        -0.7699509859085083,
        -1.6241899728775024,
        0.51884597539901733
      ],
      "type": "VEC3"
    },
    {
      "bufferView": 2,
      "byteOffset": 5242800,
      "componentType": 5126,
      "count": 65535,
      "max": [
        0.99607843160629272,
        0.98823529481887817,
        1,
        1
      ],
      "min": [
        0.99607843160629272,
        0.98823529481887817,
        1,
        1
      ],
      "type": "VEC4"
    },
    {
      "bufferView": 0,
      "byteOffset": 2621400,
      "componentType": 5126,
      "count": 65535,
      "max": [
        0,
        0
      ],
      "min": [
        0,
        0
      ],
      "type": "VEC2"
    },
    {
      "bufferView": 1,
      "byteOffset": 4718520,
      "componentType": 5126,
      "count": 65535,
      "max": [
        2.1450099945068359,
        0.17720399796962738,
        3.1315600872039795
      ],
      "min": [
        -0.75496900081634521,
        -1.6745100021362305,
        0.58225202560424805
      ],
      "type": "VEC3"
    },
    {
      "bufferView": 2,
      "byteOffset": 6291360,
      "componentType": 5126,
      "count": 65535,
      "max": [
        0.99607843160629272,
        0.98823529481887817,
        1,
        1
      ],
      "min": [
        0.99607843160629272,
        0.98823529481887817,
        1,
        1
      ],
      "type": "VEC4"
    },
    {
      "bufferView": 0,
      "byteOffset": 3145680,
      "componentType": 5126,
      "count": 65535,
      "max": [
        0,
        0
      ],
      "min": [
        0,
        0
      ],
      "type": "VEC2"
    },
    {
      "bufferView": 1,
      "byteOffset": 5504940,
      "componentType": 5126,
      "count": 65535,
      "max": [
        2.2009000778198242,
        0.29847899079322815,
        1.7402399778366089
      ],
      "min": [
        -0.61519902944564819,
        -1.5611799955368042,
        0.080041296780109406
      ],
      "type": "VEC3"
    },
    {
      "bufferView": 2,
      "byteOffset": 7339920,
      "componentType": 5126,
      "count": 65535,
      "max": [
        0.99607843160629272,
        0.98823529481887817,
        1,
        1
      ],
      "min": [
        0.99607843160629272,
        0.98823529481887817,
        1,
        1
      ],
      "type": "VEC4"
    },
    {
      "bufferView": 0,
      "byteOffset": 3669960,
      "componentType": 5126,
      "count": 65535,
      "max": [
        0,
        0
      ],
      "min": [
        0,
        0
      ],
      "type": "VEC2"
    },
    {
      "bufferView": 1,
      "byteOffset": 6291360,
      "componentType": 5126,
      "count": 65535,
      "max": [
        2.3931300640106201,
        0.11441999673843384,
        1.2391599416732788
      ],
      "min": [
        -0.37030300498008728,
        -1.5583399534225464,
        -0.016860000789165497
      ],
      "type": "VEC3"
    },
    {
      "bufferView": 2,
      "byteOffset": 8388480,
      "componentType": 5126,
      "count": 65535,
      "max": [
        0.99607843160629272,
        0.98823529481887817,
        1,
        1
      ],
      "min": [
        0.99607843160629272,
        0.98823529481887817,
        1,
        1
      ],
      "type": "VEC4"
    },
    {
      "bufferView": 0,
      "byteOffset": 4194240,
      "componentType": 5126,
      "count": 65535,
      "max": [
        0,
        0
      ],
      "min": [
        0,
        0
      ],
      "type": "VEC2"
    },
    {
      "bufferView": 1,
      "byteOffset": 7077780,
      "componentType": 5126,
      "count": 65535,
      "max": [
        3.1142799854278564,
        0.17430199682712555,
        1.4177399873733521
      ],
      "min": [
        -0.27726501226425171,
        -1.5814900398254395,
        -0.66423898935317993
      ],
      "type": "VEC3"
    },
    {
      "bufferView": 2,
      "byteOffset": 9437040,
      "componentType": 5126,
      "count": 65535,
      "max": [
        0.99607843160629272,
        0.98823529481887817,
        1,
        1
      ],
      "min": [
        0.99607843160629272,
        0.98823529481887817,
        1,
        1
      ],
      "type": "VEC4"
    },
    {
      "bufferView": 0,
      "byteOffset": 4718520,
      "componentType": 5126,
      "count": 65535,
      "max": [
        0,
        0
      ],
      "min": [
        0,
        0
      ],
      "type": "VEC2"
    },
    {
      "bufferView": 1,
      "byteOffset": 7864200,
      "componentType": 5126,
      "count": 65535,
      "max": [
        3.4304900169372559,
        0.49789398908615112,
        1.3826999664306641
      ],
      "min": [
        -0.26582399010658264,
        -1.5425200462341309,
        -0.68583697080612183
      ],
      "type": "VEC3"
    },
    {
      "bufferView": 2,
      "byteOffset": 10485600,
      "componentType": 5126,
      "count": 65535,
      "max": [
        0.99607843160629272,
        0.98823529481887817,
        1,
        1
      ],
      "min": [
        0.99607843160629272,
        0.98823529481887817,
        1,
        1
      ],
      "type": "VEC4"
    },
    {
      "bufferView": 0,
      "byteOffset": 5242800,
      "componentType": 5126,
      "count": 65535,
      "max": [
        0,
        0
      ],
      "min": [
        0,
        0
      ],
      "type": "VEC2"
    },
    {
      "bufferView": 1,
      "byteOffset": 8650620,
      "componentType": 5126,
      "count": 65535,
      "max": [
        3.4335401058197021,
        0.69095999002456665,
        1.3823599815368652
      ],
      "min": [
        -0.23999199271202087,
        -1.5519900321960449,
        -0.96159100532531738
      ],
      "type": "VEC3"
    },
    {
      "bufferView": 2,
      "byteOffset": 11534160,
      "componentType": 5126,
      "count": 65535,
      "max": [
        0.99607843160629272,
        0.98823529481887817,
        1,
        1
      ],
      "min": [
        0.99607843160629272,
        0.98823529481887817,
        1,
        1
      ],
      "type": "VEC4"
    },
    {
      "bufferView": 0,
      "byteOffset": 5767080,
      "componentType": 5126,
      "count": 65535,
      "max": [
        0,
        0
      ],
      "min": [
        0,
        0
      ],
      "type": "VEC2"
    },
    {
      "bufferView": 1,
      "byteOffset": 9437040,
      "componentType": 5126,
      "count": 65535,
      "max": [
        2.3182098865509033,
        -0.13003000617027283,
        1.1071900129318237
      ],
      "min": [
        0.060026898980140686,
        -1.402459979057312,
        -3.6704199314117432
      ],
      "type": "VEC3"
    },
    {
      "bufferView": 2,
      "byteOffset": 12582720,
      "componentType": 5126,
      "count": 65535,
      "max": [
        0.99607843160629272,
        0.98823529481887817,
        1,
        1
      ],
      "min": [
        0.99607843160629272,
        0.98823529481887817,
        1,
        1
      ],
      "type": "VEC4"
    },
    {
      "bufferView": 0,
      "byteOffset": 6291360,
      "componentType": 5126,
      "count": 65535,
      "max": [
        0,
        0
      ],
      "min": [
        0,
        0
      ],
      "type": "VEC2"
    },
    {
      "bufferView": 1,
      "byteOffset": 10223460,
      "componentType": 5126,
      "count": 65535,
      "max": [
        2.5219600200653076,
        0.1872050017118454,
        1.1205600500106812
      ],
      "min": [
        -0.00193013995885849,
        -1.4005999565124512,
        -3.6841800212860107
      ],
      "type": "VEC3"
    },
    {
      "bufferView": 2,
      "byteOffset": 13631280,
      "componentType": 5126,
      "count": 65535,
      "max": [
        0.99607843160629272,
        0.98823529481887817,
        1,
        1
      ],
      "min": [
        0.99607843160629272,
        0.98823529481887817,
        1,
        1
      ],
      "type": "VEC4"
    },
    {
      "bufferView": 0,
      "byteOffset": 6815640,
      "componentType": 5126,
      "count": 65535,
      "max": [
        0,
        0
      ],
      "min": [
        0,
        0
      ],
      "type": "VEC2"
    },
    {
      "bufferView": 1,
      "byteOffset": 11009880,
      "componentType": 5126,
      "count": 65535,
      "max": [
        2.5258300304412842,
        0.74209302663803101,
        1.0569599866867065
      ],
      "min": [
        0.047913998365402222,
        -0.96842902898788452,
        -4.1921401023864746
      ],
      "type": "VEC3"
    },
    {
      "bufferView": 2,
      "byteOffset": 14679840,
      "componentType": 5126,
      "count": 65535,
      "max": [
        0.99607843160629272,
        0.98823529481887817,
        1,
        1
      ],
      "min": [
        0.99607843160629272,
        0.98823529481887817,
        1,
        1
      ],
      "type": "VEC4"
    },
    {
      "bufferView": 0,
      "byteOffset": 7339920,
      "componentType": 5126,
      "count": 65535,
      "max": [
        0,
        0
      ],
      "min": [
        0,
        0
      ],
      "type": "VEC2"
    },
    {
      "bufferView": 1,
      "byteOffset": 11796300,
      "componentType": 5126,
      "count": 16972,
      "max": [
        2.4944698810577393,
        0.74311500787734985,
        1.0351500511169434
      ],
      "min": [
        0.41022598743438721,
        -0.0048787901178002357,
        -4.2076802253723145
      ],
      "type": "VEC3"
    },
    {
      "bufferView": 2,
      "byteOffset": 15728400,
      "componentType": 5126,
      "count": 16972,
      "max": [
        0.99607843160629272,
        0.98823529481887817,
        1,
        1
      ],
      "min": [
        0.99607843160629272,
        0.98823529481887817,
        1,
        1
      ],
      "type": "VEC4"
    },
    {
      "bufferView": 0,
      "byteOffset": 7864200,
      "componentType": 5126,
      "count": 16972,
      "max": [
        0,
        0
      ],
      "min": [
        0,
        0
      ],
      "type": "VEC2"
    }
  ],
  "asset": {
    "extras": {
      "author": "MWintersberger (https://sketchfab.com/mwintersberger)",
      "license": "CC-BY-4.0 (http://creativecommons.org/licenses/by/4.0/)",
      "source": "https://sketchfab.com/3d-models/xr-studio-space-is-more-than-a-surface-2c5f726354b6477dbca2215416a23819",
      "title": "XR Studio - Space is more than a Surface"
    },
    "generator": "Sketchfab-7.28.0",
    "version": "2.0"
  },
  "bufferViews": [
    {
      "buffer": 0,
      "byteLength": 7999976,
      "byteOffset": 0,
      "byteStride": 8,
      "name": "floatBufferViews",
      "target": 34962
    },
    {
      "buffer": 0,
      "byteLength": 11999964,
      "byteOffset": 7999976,
      "byteStride": 12,
      "name": "floatBufferViews",
      "target": 34962
    },
    {
      "buffer": 0,
      "byteLength": 15999952,
      "byteOffset": 19999940,
      "byteStride": 16,
      "name": "floatBufferViews",
      "target": 34962
    }
  ],
  "buffers": [
    {
      "byteLength": 35999892,
      "uri": "scene.bin"
    }
  ],
  "images": [
    {
      "uri": "textures/Scene_-_Root_baseColor.png"
    },
    {
      "uri": "textures/Scene_-_Root_metallicRoughness.png"
    },
    {
      "uri": "textures/Scene_-_Root_emissive.jpeg"
    }
  ],
  "materials": [
    {
      "alphaMode": "BLEND",
      "doubleSided": true,
      "emissiveFactor": [
        1,
        1,
        1
      ],
      "emissiveTexture": {
        "index": 2,
        "texCoord": 0
      },
      "name": "Scene_-_Root",
      "occlusionTexture": {
        "index": 1,
        "strength": 1,
        "texCoord": 0
      },
      "pbrMetallicRoughness": {
        "baseColorFactor": [
          1,
          1,
          1,
          1
        ],
        "baseColorTexture": {
          "index": 0,
          "texCoord": 0
        },
        "metallicFactor": 1,
        "metallicRoughnessTexture": {
          "index": 1,
          "texCoord": 0
        },
        "roughnessFactor": 1
      }
    }
  ],
  "meshes": [
    {
      "primitives": [
        {
          "attributes": {
            "COLOR_0": 1,
            "POSITION": 0,
            "TEXCOORD_0": 2
          },
          "material": 0,
          "mode": 0
        }
      ]
    },
    {
      "primitives": [
        {
          "attributes": {
            "COLOR_0": 4,
            "POSITION": 3,
            "TEXCOORD_0": 5
          },
          "material": 0,
          "mode": 0
        }
      ]
    },
    {
      "primitives": [
        {
          "attributes": {
            "COLOR_0": 7,
            "POSITION": 6,
            "TEXCOORD_0": 8
          },
          "material": 0,
          "mode": 0
        }
      ]
    },
    {
      "primitives": [
        {
          "attributes": {
            "COLOR_0": 10,
            "POSITION": 9,
            "TEXCOORD_0": 11
          },
          "material": 0,
          "mode": 0
        }
      ]
    },
    {
      "primitives": [
        {
          "attributes": {
            "COLOR_0": 13,
            "POSITION": 12,
            "TEXCOORD_0": 14
          },
          "material": 0,
          "mode": 0
        }
      ]
    },
    {
      "primitives": [
        {
          "attributes": {
            "COLOR_0": 16,
            "POSITION": 15,
            "TEXCOORD_0": 17
          },
          "material": 0,
          "mode": 0
        }
      ]
    },
    {
      "primitives": [
        {
          "attributes": {
            "COLOR_0": 19,
            "POSITION": 18,
            "TEXCOORD_0": 20
          },
          "material": 0,
          "mode": 0
        }
      ]
    },
    {
      "primitives": [
        {
          "attributes": {
            "COLOR_0": 22,
            "POSITION": 21,
            "TEXCOORD_0": 23
          },
          "material": 0,
          "mode": 0
        }
      ]
    },
    {
      "primitives": [
        {
          "attributes": {
            "COLOR_0": 25,
            "POSITION": 24,
            "TEXCOORD_0": 26
          },
          "material": 0,
          "mode": 0
        }
      ]
    },
    {
      "primitives": [
        {
          "attributes": {
            "COLOR_0": 28,
            "POSITION": 27,
            "TEXCOORD_0": 29
          },
          "material": 0,
          "mode": 0
        }
      ]
    },
    {
      "primitives": [
        {
          "attributes": {
            "COLOR_0": 31,
            "POSITION": 30,
            "TEXCOORD_0": 32
          },
          "material": 0,
          "mode": 0
        }
      ]
    },
    {
      "primitives": [
        {
          "attributes": {
            "COLOR_0": 34,
            "POSITION": 33,
            "TEXCOORD_0": 35
          },
          "material": 0,
          "mode": 0
        }
      ]
    },
    {
      "primitives": [
        {
          "attributes": {
            "COLOR_0": 37,
            "POSITION": 36,
            "TEXCOORD_0": 38
          },
          "material": 0,
          "mode": 0
        }
      ]
    },
    {
      "primitives": [
        {
          "attributes": {
            "COLOR_0": 40,
            "POSITION": 39,
            "TEXCOORD_0": 41
          },
          "material": 0,
          "mode": 0
        }
      ]
    },
    {
      "primitives": [
        {
          "attributes": {
            "COLOR_0": 43,
            "POSITION": 42,
            "TEXCOORD_0": 44
          },
          "material": 0,
          "mode": 0
        }
      ]
    },
    {
      "primitives": [
        {
          "attributes": {
            "COLOR_0": 46,
            "POSITION": 45,
            "TEXCOORD_0": 47
          },
          "material": 0,
          "mode": 0
        }
      ]
    }
  ],
  "nodes": [
    {
      "children": [
        1
      ],
      "name": "RootNode (gltf orientation matrix)",
      "rotation": [
        -0.70710678118654746,
        -0,
        -0,
        0.70710678118654757
      ]
    },
    {
      "children": [
        2
      ],
      "matrix": [
        0.43422266840934753,
        0,
        0.90080559253692627,
        0,
        0,
        1,
        0,
        0,
        -0.90080559253692627,
        0,
        0.43422266840934753,
        0,
        -0.22553884983062744,
        0,
        -0.71702671051025391,
        1
      ],
      "name": "RootNode (model correction matrix)"
    },
    {
      "children": [
        3,
        4,
        5,
        6,
        7,
        8,
        9,
        10,
        11,
        12,
        13,
        14,
        15,
        16,
        17,
        18
      ],
      "name": "Geode"
    },
    {
      "mesh": 0,
      "name": ""
    },
    {
      "mesh": 1,
      "name": ""
    },
    {
      "mesh": 2,
      "name": ""
    },
    {
      "mesh": 3,
      "name": ""
    },
    {
      "mesh": 4,
      "name": ""
    },
    {
      "mesh": 5,
      "name": ""
    },
    {
      "mesh": 6,
      "name": ""
    },
    {
      "mesh": 7,
      "name": ""
    },
    {
      "mesh": 8,
      "name": ""
    },
    {
      "mesh": 9,
      "name": ""
    },
    {
      "mesh": 10,
      "name": ""
    },
    {
      "mesh": 11,
      "name": ""
    },
    {
      "mesh": 12,
      "name": ""
    },
    {
      "mesh": 13,
      "name": ""
    },
    {
      "mesh": 14,
      "name": ""
    },
    {
      "mesh": 15,
      "name": ""
    }
  ],
  "samplers": [
    {
      "magFilter": 9729,
      "minFilter": 9987,
      "wrapS": 10497,
      "wrapT": 10497
    }
  ],
  "scene": 0,
  "scenes": [
    {
      "name": "OSG_Scene",
      "nodes": [
        0
      ]
    }
  ],
  "textures": [
    {
      "sampler": 0,
      "source": 0
    },
    {
      "sampler": 0,
      "source": 1
    },
    {
      "sampler": 0,
      "source": 2
    }
  ]
}

