<?xml version="1.0" encoding="UTF-8" standalone="no"?><!DOCTYPE svg PUBLIC "-//W3C//DTD SVG 1.1//EN" "http://www.w3.org/Graphics/SVG/1.1/DTD/svg11.dtd"><svg width="100%" height="100%" viewBox="0 0 5342 560" version="1.1" xmlns="http://www.w3.org/2000/svg" xmlns:xlink="http://www.w3.org/1999/xlink" xml:space="preserve" xmlns:serif="http://www.serif.com/" style="fill-rule:evenodd;clip-rule:evenodd;stroke-linejoin:round;stroke-miterlimit:2;"><g><path d="M143.25,0l72.586,18.665c0.461,1.383 1.152,2.074 2.074,2.074l3.456,0c0,0.461 0.461,0.691 1.383,0.691l14.863,-0.345c2.535,-0.231 4.609,-0.461 6.222,-0.692c1.613,-0.23 3.802,-0.806 6.567,-1.728c1.383,0 5.53,-0.691 12.443,-2.074c1.844,0 4.148,-0.461 6.913,-1.382l6.222,-2.074c3.226,-0.922 7.374,-1.844 12.443,-2.766c2.305,0 6.453,-0.691 12.444,-2.073c7.835,-1.844 16.13,-2.766 24.887,-2.766c-0.461,0 -1.268,0.576 -2.42,1.729c-1.152,1.152 -2.074,1.958 -2.765,2.419l-6.222,4.494c-1.152,0.691 -2.88,2.189 -5.185,4.493c-1.843,0.461 -3.571,1.498 -5.184,3.111c-1.613,1.613 -2.996,2.535 -4.148,2.765c-1.152,0.231 -2.304,0.691 -3.457,1.383c-1.152,0.691 -2.88,2.189 -5.184,4.493c-16.592,11.983 -27.883,20.509 -33.874,25.578c-11.983,11.061 -20.509,22.352 -25.578,33.874c-0.922,0.922 -1.498,2.074 -1.728,3.456c-0.231,1.383 -0.807,3.226 -1.729,5.531c-2.765,9.678 -4.147,14.056 -4.147,13.134c0,0.461 -0.231,1.152 -0.692,2.074c-0.46,0.922 -1.037,1.844 -1.728,2.765c-0.691,0.922 -1.152,1.959 -1.382,3.111c-0.231,1.152 -0.807,2.881 -1.729,5.185l0,15.9c0,3.687 0.461,8.756 1.383,15.208l0,16.592c0,3.687 0.23,6.221 0.691,7.604l0,27.652c0,0.461 -0.23,7.374 -0.691,20.739c-0.922,15.669 -2.535,39.173 -4.839,70.512c-1.383,20.739 -2.074,30.878 -2.074,30.417l0,4.839c-0.461,1.383 -0.691,3.226 -0.691,5.531l0,4.839c-0.461,1.382 -0.692,2.996 -0.692,4.839c-4.147,13.826 -9.447,25.348 -15.9,34.565c-0.921,1.843 -8.295,12.213 -22.121,31.108c-0.922,0.922 -1.383,1.613 -1.383,2.074l-2.074,2.074c-1.382,1.383 -2.304,2.765 -2.765,4.148c19.817,-12.443 37.1,-27.076 51.848,-43.898c14.747,-16.821 23.734,-36.984 26.96,-60.488l0,-174.207c0,-48.852 39.865,-90.791 119.595,-125.817c2.765,-0.921 6.452,-2.534 11.061,-4.839l11.406,-4.839l11.061,-3.456c1.152,-0.461 2.995,-1.152 5.53,-2.074c2.535,-0.922 4.263,-1.383 5.185,-1.383l3.456,0c0.461,0 1.153,-0.23 2.074,-0.691l4.148,0c0.461,0 1.152,-0.231 2.074,-0.691l7.604,0c0.461,0.46 1.152,0.691 2.074,0.691c23.504,4.148 44.474,18.665 62.908,43.552c0.461,1.843 0.807,2.995 1.037,3.456c0.231,0.461 0.576,1.152 1.037,2.074l0,2.074c0,1.843 0.461,4.609 1.383,8.296l0,8.986c0,0.461 0.23,1.844 0.691,4.148l0,3.457c0,24.426 -7.835,47.008 -23.504,67.747c-8.756,11.522 -25.578,29.726 -50.465,54.613l-2.765,2.765c0,0 -0.346,0.23 -1.037,0.691c-0.691,0.461 -1.267,0.922 -1.728,1.383l4.839,0c0.461,0.46 2.074,0.691 4.839,0.691c4.609,0.922 8.065,1.383 10.369,1.383c46.087,8.756 71.665,30.877 76.735,66.364l0,138.951l-64.291,15.209c-13.826,5.991 -34.335,15.669 -61.526,29.034c-18.895,10.139 -38.252,21.43 -58.069,33.874l-87.103,-28.343c-4.148,0.46 -10.139,0.23 -17.974,-0.692c-9.678,-0.921 -15.9,-1.382 -18.665,-1.382c-2.765,0 -4.378,-0.231 -4.839,-0.692l-27.652,0c-0.922,0.461 -2.535,0.692 -4.839,0.692c-24.426,1.382 -47.93,8.756 -70.513,22.121c-0.461,0.922 -1.152,2.074 -2.074,3.457c-0.921,1.382 -1.728,2.419 -2.419,3.111c-0.691,0.691 -2.189,3.571 -4.494,8.641c-1.843,3.226 -2.765,6.682 -2.765,10.369c0,-1.382 1.383,4.839 4.148,18.665c0,0.461 0.23,1.153 0.691,2.074c0.461,0.922 0.922,1.844 1.383,2.765c0.461,0.922 0.691,1.613 0.691,2.074c1.383,2.766 2.996,6.683 4.839,11.752c-1.843,6.453 -5.3,10.6 -10.369,12.444c-0.922,0.921 -1.959,1.382 -3.111,1.382c-1.152,0 -1.959,0.231 -2.42,0.692l-2.765,0c-0.461,-0.461 -1.152,-0.692 -2.074,-0.692l-1.382,0c-0.461,-0.461 -0.922,-0.691 -1.383,-0.691c-5.069,-2.304 -9.102,-5.3 -12.098,-8.987c-2.995,-3.687 -4.493,-8.526 -4.493,-14.517l0,-2.765c-0.461,-0.461 -0.691,-0.922 -0.691,-1.383l0,-2.765c-0.461,-0.461 -0.692,-0.922 -0.692,-1.383l0,-1.382c0,-14.287 4.148,-26.73 12.444,-37.33c0.921,-1.383 5.3,-6.452 13.134,-15.209c3.226,-3.687 8.066,-8.987 14.518,-15.9l17.282,-17.282c5.07,-5.07 9.678,-10.37 13.826,-15.9c0.461,-1.383 1.152,-2.65 2.074,-3.802c0.922,-1.152 1.728,-2.189 2.42,-3.111c0.691,-0.922 1.036,-1.613 1.036,-2.074c1.844,-2.765 3.342,-5.761 4.494,-8.987c1.152,-3.226 2.419,-7.143 3.802,-11.752c0.922,-2.304 1.383,-3.917 1.383,-4.839c0,-0.922 0.23,-2.304 0.691,-4.148l0,-4.839c-0.461,-0.461 -0.691,-1.152 -0.691,-2.074l0,-2.074c-0.461,-0.461 -0.692,-1.152 -0.692,-2.074c0,-0.921 -0.23,-1.843 -0.691,-2.765l-4.493,-6.913c-1.153,-1.843 -4.263,-3.917 -9.333,-6.221l-2.765,0c-0.461,0 -1.383,-0.231 -2.765,-0.692l-5.531,0c-0.461,0 -0.921,-0.23 -1.382,-0.691l-1.383,0c-5.53,0 -12.674,1.613 -21.43,4.839c-4.609,2.304 -11.291,6.452 -20.048,12.443l-2.765,-2.765c-0.461,0 -0.691,-0.461 -0.691,-1.382l0,-4.839c-0.461,0 -0.692,-0.461 -0.692,-1.383l0,-5.53c0,-0.461 0.231,-0.922 0.692,-1.383l0,-4.148c0,-0.461 0.23,-0.922 0.691,-1.382l0,-1.383c5.991,-11.983 14.517,-20.969 25.578,-26.961c11.061,-7.834 23.274,-11.982 36.639,-12.443c0.461,0 1.152,-0.23 2.074,-0.691l6.913,0l4.148,-1.383c0,0.461 0.23,0.461 0.691,0l0,-1.383c0,-0.46 0.23,-1.036 0.691,-1.728c0.461,-0.691 0.691,-1.267 0.691,-1.728l0,-2.765c0,-0.461 0.231,-0.922 0.692,-1.383l0,-1.382c0,-7.835 -3.918,-16.015 -11.752,-24.542c-7.835,-8.526 -15.9,-14.402 -24.196,-17.628c-0.921,-0.46 -2.765,-1.152 -5.53,-2.074c-0.461,0 -2.074,-0.46 -4.839,-1.382c-4.609,-0.922 -7.605,-1.383 -8.987,-1.383c-12.443,1.383 -25.117,5.3 -38.022,11.752c-0.46,0.461 -1.843,1.153 -4.147,2.074c-0.461,0 -0.922,0.231 -1.383,0.692c-0.461,0.46 -1.037,0.691 -1.728,0.691c-0.691,0 -1.613,0.346 -2.765,1.037c-1.153,0.691 -2.074,1.152 -2.766,1.382c-0.691,0.231 -1.497,0.692 -2.419,1.383c-0.922,0.691 -1.844,1.037 -2.765,1.037l-1.383,-4.148c0,-29.034 21.43,-50.465 64.291,-64.291c1.382,-0.46 3.917,-1.152 7.604,-2.073c0.922,0 3.226,-0.461 6.913,-1.383c1.844,-0.461 4.263,-0.922 7.259,-1.383c2.995,-0.461 5.185,-0.691 6.567,-0.691l0,-4.148c0,-0.461 0.231,-1.152 0.691,-2.074l0,-2.074c0.461,-5.069 1.613,-12.673 3.457,-22.812c3.226,-20.278 12.904,-41.017 29.034,-62.217l57.378,-45.626c-1.843,1.844 -6.222,3.917 -13.134,6.222c-3.227,0.461 -7.605,1.843 -13.135,4.148c-3.226,0.46 -7.835,1.152 -13.826,2.073c-3.226,0.461 -7.604,0.692 -13.135,0.692l-6.221,0c-0.922,0 -2.074,-0.231 -3.457,-0.692l-2.765,0c-0.922,0 -2.074,-0.23 -3.457,-0.691l-3.456,0c-1.383,0 -3.226,-0.346 -5.531,-1.037c-2.304,-0.691 -3.571,-1.152 -3.802,-1.382c-0.23,-0.231 -1.497,-0.692 -3.802,-1.383c-2.304,-0.691 -3.687,-1.152 -4.148,-1.383c-0.46,-0.23 -1.152,-0.576 -2.073,-1.037l-2.074,0c-8.296,-2.765 -14.518,-4.378 -18.665,-4.839c-5.531,-1.382 -11.292,-2.074 -17.283,-2.074c-6.452,0 -14.056,1.613 -22.813,4.84c-7.834,4.608 -14.517,10.139 -20.047,16.591c-1.383,1.382 -2.535,2.765 -3.457,4.148c-0.922,1.382 -2.074,4.378 -3.456,8.986c-0.461,0.461 -1.153,1.844 -2.074,4.148c-0.922,0 -1.383,-0.461 -1.383,-1.382l0,-0.692c-0.461,0 -0.691,-0.23 -0.691,-0.691c-2.305,-6.913 -3.457,-10.83 -3.457,-11.752c0,-4.609 0.692,-8.065 2.074,-10.37l0,-2.073c0.461,-0.922 0.692,-1.613 0.692,-2.074c0,-0.461 0.23,-1.153 0.691,-2.074c0,0.461 0.691,-1.383 2.074,-5.531c1.382,-2.304 3.456,-5.991 6.221,-11.06c0.922,-1.844 3.457,-5.3 7.605,-10.37c0.921,-0.922 1.843,-1.959 2.765,-3.111c0.922,-1.152 1.613,-2.074 2.074,-2.765c0.461,-0.691 1.267,-1.613 2.419,-2.765c1.152,-1.152 1.729,-1.959 1.729,-2.42c1.843,-2.304 4.378,-5.069 7.604,-8.295c8.295,-4.609 17.398,-8.757 27.306,-12.444c9.909,-3.687 19.702,-5.53 29.38,-5.53l1.383,0c0.461,0.461 1.152,0.691 2.074,0.691l7.604,0c0.461,0.461 1.152,0.692 2.074,0.692l4.148,0l0,-1.383Zm254.398,364.314c-4.148,0.461 -10.6,1.613 -19.357,3.457c-6.452,1.382 -12.443,2.995 -17.974,4.839l0,48.391l37.331,13.134l38.712,-17.282l0,-44.243c-0.921,0 -4.148,-0.691 -9.678,-2.074c-1.843,0 -5.069,-0.691 -9.678,-2.074c-5.991,-1.843 -12.443,-2.765 -19.356,-2.765l0,-1.383Zm-27.652,-324.219c-11.983,2.765 -21.2,7.374 -27.652,13.826c-8.757,8.757 -15.209,17.513 -19.357,26.27c-0.461,0.921 -1.497,3.341 -3.111,7.258c-1.613,3.918 -2.419,7.028 -2.419,9.333l0,195.637c0,29.496 -10.254,53.115 -30.763,70.858c-20.508,17.744 -43.206,32.607 -68.093,44.589c2.765,0 4.839,-0.23 6.222,-0.691l6.222,0c3.687,0 7.834,-0.461 12.443,-1.383l11.752,0c2.765,0 4.839,-0.23 6.222,-0.691l18.665,0c3.226,0 7.374,0.23 12.443,0.691c1.844,0 6.222,0.461 13.135,1.383c5.53,0.461 9.908,0.691 13.135,0.691l2.073,0c0.461,0.461 1.383,0.691 2.766,0.691l5.53,0c2.765,0.922 5.07,1.383 6.913,1.383l8.296,0l0,-257.163l15.899,0l0,72.586c17.052,-8.295 32.722,-22.352 47.009,-42.169c13.365,-18.435 20.047,-38.252 20.047,-59.452c0,-3.226 -0.46,-7.143 -1.382,-11.752l0,-3.456c-0.461,-1.383 -0.692,-2.535 -0.692,-3.457c-0.921,-2.765 -1.613,-5.184 -2.073,-7.258l-2.42,-10.024c-0.691,-3.226 -2.189,-6.452 -4.493,-9.678c-1.383,-1.383 -3.457,-3.457 -6.222,-6.222l-6.222,-8.296c-5.53,-5.53 -13.826,-12.212 -24.886,-20.047c-2.766,-0.922 -5.761,-1.613 -8.987,-2.074l0,-1.383Zm-9.679,311.085c4.148,0 10.37,-0.461 18.666,-1.383c8.295,-0.922 14.517,-1.383 18.665,-1.383l6.221,0c1.383,0.461 3.687,0.692 6.913,0.692c6.452,0.921 11.061,1.613 13.826,2.074c2.765,0.46 4.839,0.691 6.222,0.691l2.765,0c0.461,0.461 1.383,0.691 2.765,0.691l0,-49.773c-2.304,1.843 -4.608,2.765 -6.913,2.765l-3.456,0c-1.383,0.461 -2.535,0.691 -3.457,0.691l-3.456,0c-1.383,0.461 -2.535,0.691 -3.457,0.691l-6.913,0c-6.452,0 -11.291,-0.23 -14.517,-0.691l-14.517,-2.074c-2.765,0 -5.761,-0.23 -8.987,-0.691c-3.226,-0.461 -6.683,-1.152 -10.37,-2.074l0,49.774Zm38.713,-128.582l-38.713,28.343l0,30.417c0.461,1.383 0.922,2.19 1.383,2.42c0.461,0.23 1.267,0.461 2.42,0.691c1.152,0.231 2.419,0.576 3.802,1.037c6.913,2.305 10.83,3.457 11.752,3.457c9.217,2.304 15.669,3.456 19.356,3.456c3.226,0 5.761,-0.23 7.604,-0.691c-0.921,0 5.07,-1.613 17.974,-4.839c2.765,-2.305 5.531,-3.687 8.296,-4.148l0,-14.517c0,-8.757 -3.226,-18.204 -9.678,-28.343c-5.531,-8.757 -13.596,-14.057 -24.196,-15.9l0,-1.383Z" style="fill:#545350;fill-rule:nonzero;"/><path d="M695.597,20.048l20.048,0c-12.904,11.521 -21.43,22.582 -25.578,33.182c-4.609,12.443 -8.065,25.578 -10.37,39.404l0,306.936l37.33,28.344l12.444,-9.679l10.369,11.753l-65.673,58.069c-13.826,-13.826 -27.191,-25.118 -40.095,-33.874c-14.748,-10.139 -30.418,-18.435 -47.009,-24.887c17.974,-11.521 26.961,-27.191 26.961,-47.008l0,-304.171c-5.07,-18.435 -14.978,-33.643 -29.726,-45.626l4.148,-1.383c1.383,1.383 3.111,2.074 5.185,2.074c2.074,0 4.839,0.692 8.295,2.074c3.457,1.383 5.991,2.42 7.605,3.111c1.613,0.691 4.378,2.074 8.295,4.148c3.917,2.074 8.872,5.876 14.863,11.406l2.074,2.074c0,2.304 1.152,3.457 3.456,3.457c0,0.921 0.461,1.382 1.383,1.382c9.678,-11.061 17.974,-19.126 24.887,-24.195c8.756,-7.374 19.126,-12.444 31.108,-15.209l0,-1.382Z" style="fill:#545350;fill-rule:nonzero;"/><path d="M887.778,139.642l92.634,35.948l0,0.691l1.383,-1.383c0.921,-1.382 3.341,-3.686 7.258,-6.913c3.918,-3.226 7.259,-5.069 10.024,-5.53c0.461,0 1.152,-0.23 2.074,-0.691l2.074,0c0.461,0 1.152,-0.231 2.074,-0.691l2.074,0l2.765,-1.383c-1.844,3.226 -4.378,7.604 -7.604,13.135c-1.844,2.765 -4.033,7.028 -6.568,12.789c-2.534,5.76 -6.337,14.632 -11.406,26.615l-1.383,194.946c0.461,1.843 0.807,2.995 1.037,3.456c0.231,0.461 0.576,1.152 1.037,2.074l0,2.074c0,0.461 0.231,1.152 0.691,2.074l0,1.382c0.922,1.383 2.535,3.687 4.84,6.913c0.46,0.461 2.765,2.305 6.913,5.531c0,0.922 0.46,1.382 1.382,1.382l0.691,0c0,0.461 0.231,0.692 0.692,0.692l12.443,-8.987l10.37,8.987l-60.143,52.538l-4.148,0c-7.835,0 -14.517,-3.226 -20.048,-9.678c-6.913,-9.217 -11.291,-17.282 -13.135,-24.195c-1.382,-3.226 -2.88,-8.526 -4.493,-15.9c-1.613,-7.374 -2.419,-11.752 -2.419,-13.135l0,-4.839c-0.461,0 -0.692,-0.461 -0.692,-1.382l0,-3.457c-0.461,-0.461 -0.691,-1.152 -0.691,-2.074l0,-4.148l-91.251,78.808c-16.592,-9.217 -30.072,-22.006 -40.441,-38.367c-10.37,-16.36 -15.555,-33.528 -15.555,-51.501l0,-3.457c0,-0.461 0.231,-1.152 0.692,-2.074l0,-6.913c0,-0.461 0.23,-1.152 0.691,-2.074l0,-1.382c0,-0.461 1.843,-7.604 5.53,-21.43c10.139,-37.331 29.726,-67.748 58.761,-91.252l-33.874,-96.782c0.461,1.383 1.152,2.074 2.074,2.074l4.148,0c0,0.461 0.461,0.692 1.382,0.692l9.679,0c1.382,0 2.534,-0.116 3.456,-0.346c0.922,-0.23 1.844,-0.576 2.765,-1.037l1.383,0c9.678,-1.383 20.508,-4.839 32.491,-10.369c10.6,-5.07 20.048,-11.753 28.343,-20.048l0,-1.383Zm-37.33,140.334c-8.296,11.061 -13.941,21.2 -16.937,30.417c-2.995,9.217 -4.493,19.356 -4.493,30.417l0,9.678c0,3.687 0.461,6.913 1.382,9.678c3.687,24.426 14.518,49.083 32.491,73.969l7.605,-4.147l48.391,-42.861l0,-67.747l-68.439,-39.404Zm-26.961,-94.708l26.961,76.043l67.056,38.712l0,-80.19l-85.721,-34.565l-8.296,0Z" style="fill:#545350;fill-rule:nonzero;"/><path d="M1169.83,138.26l0,1.382l-3.457,0c-2.765,-0.461 -5.645,0.692 -8.641,3.457c-2.996,2.765 -5.415,4.839 -7.259,6.221l-16.591,16.592c-3.687,2.304 -6.682,4.493 -8.987,6.567c-2.304,2.074 -4.378,3.802 -6.221,5.185c-13.826,9.678 -25.348,15.669 -34.565,17.973l0,197.02c0,16.131 -6.222,31.339 -18.665,45.626c28.113,5.531 60.373,21.2 96.782,47.008l87.103,-65.673c-2.765,-2.765 -4.148,-5.3 -4.148,-7.604l-2.074,-2.074c-0.921,-0.922 -1.613,-1.844 -2.073,-2.765c-0.461,-0.922 -0.922,-1.613 -1.383,-2.074l-34.565,26.269c-6.452,-3.226 -11.867,-6.106 -16.245,-8.641c-4.379,-2.535 -8.181,-4.724 -11.407,-6.567c-11.061,-4.609 -20.278,-10.6 -27.652,-17.974l0,-197.02c19.817,16.13 40.326,27.652 61.526,34.565l31.108,-46.317l-72.586,-51.156Z" style="fill:#545350;fill-rule:nonzero;"/><path d="M1402.8,20.048l15.9,0c-22.121,16.591 -33.182,37.791 -33.182,63.599l0,143.099l84.338,-88.486l5.531,0l60.143,72.586l-65.674,61.526c19.357,18.434 34.104,39.404 44.243,62.908c9.218,21.2 15.439,45.395 18.665,72.586c0,0.461 0.231,1.843 0.692,4.148l0,4.148c0,0.921 0.23,2.073 0.691,3.456l0,4.148l8.296,6.222l13.134,-6.222l8.296,8.987l-60.834,52.538c-1.844,0 -4.148,-0.46 -6.913,-1.382c-2.766,-0.922 -4.839,-1.383 -6.222,-1.383c-14.748,-24.426 -23.735,-45.856 -26.961,-64.291l-81.573,67.056c-14.287,-9.217 -26.961,-16.591 -38.021,-22.121c-4.609,-2.304 -11.292,-5.53 -20.048,-9.678c-4.148,-1.844 -11.061,-4.609 -20.739,-8.296c2.304,-2.304 4.033,-4.378 5.185,-6.222c1.152,-1.843 2.189,-4.378 3.111,-7.604c0.921,-0.922 1.613,-2.189 2.074,-3.802c0.46,-1.613 1.037,-2.765 1.728,-3.456c0.691,-0.692 1.498,-2.65 2.419,-5.877l0,-228.819l-35.947,0l0,-39.404l35.947,0l0,-49.082c-4.608,-25.348 -14.517,-47.7 -29.725,-67.056c10.599,0 19.586,1.728 26.96,5.184c7.374,3.457 15.9,8.872 25.578,16.246l2.765,2.765c9.679,-11.522 18.435,-19.587 26.27,-24.195c10.139,-7.374 21.43,-11.522 33.873,-12.444l0,-1.382Zm18.665,304.171l-37.33,36.639l0,54.612l38.713,18.665l38.713,-34.565c-4.148,-26.73 -17.513,-51.386 -40.096,-73.968l0,-1.383Zm15.209,-124.434l-35.256,31.109l-15.9,29.034l0,75.352l91.251,-89.869l-40.095,-45.626Z" style="fill:#545350;fill-rule:nonzero;"/><path d="M2158.38,4.148c5.07,3.226 11.983,8.295 20.739,15.208l17.974,15.9c0,0.922 0.346,1.959 1.037,3.111c0.691,1.152 1.267,1.728 1.728,1.728c2.305,5.531 5.761,13.365 10.37,23.504c2.304,5.07 4.608,12.905 6.913,23.505l114.064,-81.574l74.66,51.156c2.765,-3.226 7.374,-7.373 13.826,-12.443c4.609,-2.765 10.831,-5.53 18.665,-8.295l2.074,0c0.461,0 0.922,-0.231 1.383,-0.692l0.691,0l0,6.913c-0.461,0.461 -0.691,1.152 -0.691,2.074l0,4.148c-0.461,0.461 -0.692,0.922 -0.692,1.382l0,2.766c-1.382,1.382 -2.304,2.765 -2.765,4.147l-2.765,2.766c-8.295,10.6 -14.517,23.504 -18.665,38.712l0,304.172l14.517,25.578c1.383,0.461 2.765,0.461 4.148,0c1.844,-0.461 2.996,-1.037 3.457,-1.729c0.46,-0.691 1.497,-1.382 3.11,-2.073c1.613,-0.692 2.766,-1.268 3.457,-1.729c0.691,-0.461 1.498,-1.152 2.419,-2.074l2.074,-2.074l11.061,9.679l-65.673,61.525l-6.913,0c-15.67,-8.295 -27.537,-18.55 -35.602,-30.763c-8.065,-12.212 -13.25,-28.458 -15.554,-48.736l0,-317.306l-49.082,-34.565c-0.461,1.383 -1.153,2.074 -2.074,2.074l-1.383,0l-0.691,0.691c-1.383,1.383 -2.65,2.42 -3.802,3.111c-1.153,0.691 -2.19,1.267 -3.111,1.728l-1.383,1.383l0,148.629l41.478,0l-44.243,59.452l0,116.138c0,0 3.456,-0.691 10.369,-2.074c1.844,-0.922 4.379,-2.765 7.605,-5.53l11.752,7.604l-112.682,98.164c-6.913,-8.295 -17.974,-20.278 -33.182,-35.947c-10.139,-9.678 -23.504,-20.509 -40.095,-32.491c5.53,-3.687 10.023,-8.296 13.48,-13.826c3.456,-5.531 5.415,-10.6 5.876,-15.209l0,-2.074c0,-0.461 0.23,-0.921 0.691,-1.382l0,-113.373l-79.499,0l0,134.803c-2.765,26.269 -9.102,49.197 -19.011,68.784c-9.908,19.587 -27.537,33.298 -52.884,41.132c-0.461,0 -1.383,0.231 -2.765,0.692l-3.457,0c-0.461,0 -1.382,0.23 -2.765,0.691l-15.209,0c-3.687,0 -9.678,-0.461 -17.973,-1.383l-18.665,-2.074c-4.148,-0.921 -10.6,-2.073 -19.357,-3.456c-4.148,-0.461 -10.139,-0.691 -17.974,-0.691c-10.599,0 -20.508,2.419 -29.725,7.258c-9.218,4.839 -17.052,13.941 -23.504,27.307c0,-0.461 -0.231,-1.153 -0.692,-2.074l0,-2.766c0,-0.921 -0.461,-2.765 -1.382,-5.53l0,-6.222c0,-0.46 -0.231,-1.382 -0.692,-2.765l0,-2.074c0,-15.669 6.222,-30.417 18.665,-44.243c13.365,-11.982 27.883,-20.278 43.552,-24.886c0,0 1.383,-0.461 4.148,-1.383c0.461,0 1.152,-0.231 2.074,-0.691l1.382,0c1.383,0 2.535,-0.116 3.457,-0.346c0.922,-0.23 1.843,-0.576 2.765,-1.037l1.383,0c41.478,0 65.212,-14.748 71.203,-44.243l0,-13.135c0,-37.791 -16.13,-67.747 -48.39,-89.869c-1.844,-1.382 -5.992,-2.765 -12.444,-4.147c-2.765,-0.922 -4.839,-1.383 -6.221,-1.383c-3.687,-0.922 -5.877,-1.383 -6.568,-1.383c-0.691,0 -1.498,-0.23 -2.419,-0.691l-9.679,0c-1.382,0.461 -2.534,0.691 -3.456,0.691l-3.457,0c-1.382,0.461 -2.534,0.692 -3.456,0.692c-2.304,0.461 -6.452,1.382 -12.443,2.765c-3.226,1.383 -5.185,2.074 -5.876,2.074c-0.692,0 -1.613,0.346 -2.766,1.037c-1.152,0.691 -2.189,1.267 -3.11,1.728l0,-0.691l-0.692,0l0,-2.074l-0.691,0l0,-1.383c0,-27.652 17.513,-47.469 52.539,-59.451c1.382,-0.461 3.687,-1.153 6.913,-2.074l6.221,-2.074c2.765,-0.922 4.955,-1.498 6.568,-1.728c1.613,-0.231 3.802,-0.346 6.567,-0.346c2.304,-32.722 8.296,-60.604 17.974,-83.647c10.6,-25.809 29.265,-47.469 55.995,-64.982c50.695,-33.643 99.777,-61.756 147.246,-84.339l0,-1.382Zm-102.312,78.117c-5.53,5.069 -13.365,13.365 -23.504,24.886c-7.374,10.6 -12.443,20.048 -15.208,28.343l0,259.929c0,12.904 -4.724,25.002 -14.172,36.293c-9.448,11.291 -19.472,19.702 -30.072,25.232c0.922,0 1.844,0.346 2.766,1.037c0.921,0.691 1.613,1.268 2.074,1.728c2.765,0.922 4.839,1.383 6.221,1.383l1.383,0c0.461,0.461 0.922,0.807 1.382,1.037c0.461,0.23 1.153,0.346 2.074,0.346l9.679,0c-1.383,0 3.456,-1.613 14.517,-4.839c8.756,-2.305 15.208,-7.835 19.356,-16.592c0,-0.461 0.231,-0.921 0.691,-1.382l0,-0.692c0,-0.46 0.231,-0.921 0.692,-1.382l0,-0.691c0.461,-0.922 0.921,-1.959 1.382,-3.111c0.461,-1.152 0.692,-1.844 0.692,-2.074c0,-0.231 1.152,-4.954 3.456,-14.172c0,-1.382 0.231,-2.765 0.691,-4.148l0,-279.284c0,-1.844 0.231,-3.917 0.692,-6.222c0.461,-2.304 0.921,-4.378 1.382,-6.221c0.461,-1.844 0.922,-2.996 1.383,-3.457c0.922,-4.148 2.535,-10.139 4.839,-17.974c0.922,-3.226 3.456,-8.756 7.604,-16.591l0,-1.382Zm161.073,192.872l0,118.903c0,9.678 1.152,17.283 3.456,22.813c2.765,7.374 6.452,13.595 11.061,18.665c5.53,-0.922 10.254,-2.65 14.172,-5.185c3.917,-2.535 7.719,-5.645 11.406,-9.332l0,-145.864l-40.095,0Zm-112.682,-214.303l-4.148,0c-0.46,0.922 -1.152,1.383 -2.074,1.383l-0.691,0l-0.691,0.691l-2.074,0c-0.922,0.922 -1.843,1.383 -2.765,1.383l-2.074,0c-3.226,3.226 -8.987,11.061 -17.283,23.504c-5.991,8.756 -10.599,17.513 -13.826,26.269l0,144.482l31.109,-45.626l47.008,0l0,-118.903c-0.461,-5.531 -4.032,-11.752 -10.715,-18.665c-6.682,-6.913 -13.941,-11.292 -21.776,-13.135l0,-1.383Zm152.777,24.887l-41.478,29.726l0,100.238l41.478,0l0,-129.964Z" style="fill:#545350;fill-rule:nonzero;"/><path d="M2628.47,139.642l92.634,35.948l0,0.691l1.383,-1.383c0.922,-1.382 3.341,-3.686 7.259,-6.913c3.917,-3.226 7.258,-5.069 10.023,-5.53c0.461,0 1.153,-0.23 2.074,-0.691l2.074,0c0.461,0 1.152,-0.231 2.074,-0.691l2.074,0l2.765,-1.383c-1.843,3.226 -4.378,7.604 -7.604,13.135c-1.844,2.765 -4.033,7.028 -6.567,12.789c-2.535,5.76 -6.337,14.632 -11.407,26.615l-1.383,194.946c0.461,1.843 0.807,2.995 1.037,3.456c0.231,0.461 0.577,1.152 1.037,2.074l0,2.074c0,0.461 0.231,1.152 0.692,2.074l0,1.382c0.921,1.383 2.534,3.687 4.839,6.913c0.461,0.461 2.765,2.305 6.913,5.531c0,0.922 0.461,1.382 1.382,1.382l0.692,0c0,0.461 0.23,0.692 0.691,0.692l12.443,-8.987l10.37,8.987l-60.143,52.538l-4.148,0c-7.835,0 -14.517,-3.226 -20.048,-9.678c-6.913,-9.217 -11.291,-17.282 -13.134,-24.195c-1.383,-3.226 -2.881,-8.526 -4.494,-15.9c-1.613,-7.374 -2.419,-11.752 -2.419,-13.135l0,-4.839c-0.461,0 -0.692,-0.461 -0.692,-1.382l0,-3.457c-0.46,-0.461 -0.691,-1.152 -0.691,-2.074l0,-4.148l-91.251,78.808c-16.591,-9.217 -30.072,-22.006 -40.441,-38.367c-10.37,-16.36 -15.554,-33.528 -15.554,-51.501l0,-3.457c0,-0.461 0.23,-1.152 0.691,-2.074l0,-6.913c0,-0.461 0.23,-1.152 0.691,-2.074l0,-1.382c0,-0.461 1.844,-7.604 5.531,-21.43c10.139,-37.331 29.725,-67.748 58.76,-91.252l-33.874,-96.782c0.461,1.383 1.152,2.074 2.074,2.074l4.148,0c0,0.461 0.461,0.692 1.383,0.692l9.678,0c1.382,0 2.535,-0.116 3.456,-0.346c0.922,-0.23 1.844,-0.576 2.765,-1.037l1.383,0c9.678,-1.383 20.509,-4.839 32.491,-10.369c10.6,-5.07 20.048,-11.753 28.343,-20.048l0,-1.383Zm-37.33,140.334c-8.295,11.061 -13.941,21.2 -16.937,30.417c-2.995,9.217 -4.493,19.356 -4.493,30.417l0,9.678c0,3.687 0.461,6.913 1.383,9.678c3.686,24.426 14.517,49.083 32.491,73.969l7.604,-4.147l48.391,-42.861l0,-67.747l-68.439,-39.404Zm-26.96,-94.708l26.96,76.043l67.056,38.712l0,-80.19l-85.721,-34.565l-8.295,0Z" style="fill:#545350;fill-rule:nonzero;"/><path d="M3023.2,94.017l6.913,0c6.913,2.765 11.291,5.991 13.134,9.678c3.687,7.374 5.761,12.904 6.222,16.591c0,0.461 0.23,1.152 0.691,2.074l0,11.061c-0.461,1.382 -0.691,2.995 -0.691,4.839l-2.074,8.295l0,2.074c-0.461,0.461 -0.691,0.922 -0.691,1.383l0,1.382c-0.461,0.461 -0.691,0.922 -0.691,1.383l-74.661,107.151l64.291,40.095l0,132.73c-19.817,8.295 -34.104,15.208 -42.86,20.739c-15.67,9.217 -28.574,17.973 -38.713,26.269c-0.461,0 -1.152,0.346 -2.074,1.037c-0.922,0.691 -1.728,1.152 -2.42,1.383c-0.691,0.23 -1.267,0.576 -1.728,1.037c-0.461,0.46 -1.037,0.921 -1.728,1.382c-0.691,0.461 -1.267,0.691 -1.728,0.691c-5.07,-2.765 -12.905,-6.452 -23.504,-11.06c-7.374,-2.766 -15.67,-5.3 -24.887,-7.605c-0.922,0 -2.765,-0.46 -5.531,-1.382c-0.921,0 -2.074,-0.231 -3.456,-0.692l-2.765,0c-2.765,0 -4.839,-0.23 -6.222,-0.691l-12.443,0c-1.383,0.461 -3.457,0.691 -6.222,0.691c-5.991,0.922 -16.591,3.687 -31.8,8.296c-3.687,1.383 -9.448,4.609 -17.282,9.678l-9.678,-6.913l82.264,-120.286l-62.908,-38.712l0,-118.212c22.122,-7.374 46.087,-23.965 71.895,-49.774l4.148,-4.148c0.461,-0.461 0.922,-1.037 1.382,-1.728c0.461,-0.691 0.692,-1.037 0.692,-1.037c0,0 0.691,-0.691 2.074,-2.074l71.203,25.578c1.844,1.844 3.226,2.765 4.148,2.765l2.074,0c0.461,0.461 1.152,0.692 2.074,0.692c4.148,1.382 6.567,2.189 7.259,2.419c0.691,0.231 2.189,0.346 4.493,0.346c4.148,0 6.913,-0.23 8.296,-0.691c4.147,-1.383 9.678,-3.226 16.591,-5.531c2.765,-2.304 5.3,-4.032 7.604,-5.184c2.304,-1.153 4.378,-5.416 6.222,-12.789l0,-13.135c-0.461,-0.922 -1.844,-1.844 -4.148,-2.765c0,-0.922 -1.383,-2.535 -4.148,-4.839c-0.461,-2.305 -1.498,-3.803 -3.111,-4.494c-1.613,-0.691 -2.419,-1.267 -2.419,-1.728l-2.074,-2.074l0,-0.691c-0.461,0 -0.692,-0.231 -0.692,-0.692l0,-1.382c-0.46,0 -0.921,-0.346 -1.382,-1.037c-0.461,-0.691 -0.691,-1.268 -0.691,-1.728l0,-2.766c0,-0.46 0.115,-1.152 0.345,-2.073c0.231,-0.922 1.498,-2.996 3.802,-6.222c1.383,-1.844 3.457,-3.687 6.222,-5.531l0.691,-0.691l0.692,0l0,-1.382Zm-91.252,221.215l-67.056,97.473c0.922,0.922 2.305,1.383 4.148,1.383c0.461,0 1.152,-0.231 2.074,-0.692l2.074,0c6.452,-0.921 10.715,-1.382 12.789,-1.382c2.074,0 4.033,-0.231 5.876,-0.691l10.369,0c0.461,0.46 2.074,0.691 4.84,0.691l5.53,0c1.383,0.461 3.456,0.806 6.222,1.037c2.765,0.23 7.604,1.037 14.517,2.419c3.226,0.922 8.065,2.535 14.517,4.839c9.678,3.687 19.126,8.296 28.343,13.826l0,-89.868l-44.243,-29.035Zm-50.464,-33.874l38.712,22.813l61.526,-88.486c-1.844,1.844 -3.918,2.765 -6.222,2.765l-3.456,0c-1.383,0.461 -2.535,0.692 -3.457,0.692l-4.148,0c-0.461,0.46 -1.613,0.691 -3.456,0.691l-6.222,0c1.383,0 -10.83,-1.613 -36.639,-4.839c-8.295,-2.305 -20.508,-6.452 -36.638,-12.444l0,78.808Z" style="fill:#545350;fill-rule:nonzero;"/><path d="M3322.53,94.017l6.913,0c6.913,2.765 11.291,5.991 13.135,9.678c3.686,7.374 5.76,12.904 6.221,16.591c0,0.461 0.231,1.152 0.691,2.074l0,11.061c-0.46,1.382 -0.691,2.995 -0.691,4.839l-2.074,8.295l0,2.074c-0.461,0.461 -0.691,0.922 -0.691,1.383l0,1.382c-0.461,0.461 -0.691,0.922 -0.691,1.383l-74.661,107.151l64.291,40.095l0,132.73c-19.817,8.295 -34.104,15.208 -42.86,20.739c-15.67,9.217 -28.574,17.973 -38.713,26.269c-0.461,0 -1.152,0.346 -2.074,1.037c-0.922,0.691 -1.728,1.152 -2.419,1.383c-0.692,0.23 -1.268,0.576 -1.729,1.037c-0.461,0.46 -1.037,0.921 -1.728,1.382c-0.691,0.461 -1.267,0.691 -1.728,0.691c-5.07,-2.765 -12.904,-6.452 -23.504,-11.06c-7.374,-2.766 -15.67,-5.3 -24.887,-7.605c-0.922,0 -2.765,-0.46 -5.53,-1.382c-0.922,0 -2.074,-0.231 -3.457,-0.692l-2.765,0c-2.765,0 -4.839,-0.23 -6.222,-0.691l-12.443,0c-1.383,0.461 -3.457,0.691 -6.222,0.691c-5.991,0.922 -16.591,3.687 -31.8,8.296c-3.686,1.383 -9.447,4.609 -17.282,9.678l-9.678,-6.913l82.264,-120.286l-62.908,-38.712l0,-118.212c22.122,-7.374 46.087,-23.965 71.895,-49.774l4.148,-4.148c0.461,-0.461 0.922,-1.037 1.383,-1.728c0.46,-0.691 0.691,-1.037 0.691,-1.037c0,0 0.691,-0.691 2.074,-2.074l71.203,25.578c1.844,1.844 3.227,2.765 4.148,2.765l2.074,0c0.461,0.461 1.152,0.692 2.074,0.692c4.148,1.382 6.567,2.189 7.259,2.419c0.691,0.231 2.189,0.346 4.493,0.346c4.148,0 6.913,-0.23 8.296,-0.691c4.148,-1.383 9.678,-3.226 16.591,-5.531c2.765,-2.304 5.3,-4.032 7.604,-5.184c2.304,-1.153 4.378,-5.416 6.222,-12.789l0,-13.135c-0.461,-0.922 -1.844,-1.844 -4.148,-2.765c0,-0.922 -1.383,-2.535 -4.148,-4.839c-0.461,-2.305 -1.498,-3.803 -3.111,-4.494c-1.613,-0.691 -2.419,-1.267 -2.419,-1.728l-2.074,-2.074l0,-0.691c-0.461,0 -0.691,-0.231 -0.691,-0.692l0,-1.382c-0.461,0 -0.922,-0.346 -1.383,-1.037c-0.461,-0.691 -0.691,-1.268 -0.691,-1.728l0,-2.766c0,-0.46 0.115,-1.152 0.345,-2.073c0.231,-0.922 1.498,-2.996 3.803,-6.222c1.382,-1.844 3.456,-3.687 6.221,-5.531l0.692,-0.691l0.691,0l0,-1.382Zm-91.252,221.215l-67.055,97.473c0.921,0.922 2.304,1.383 4.147,1.383c0.461,0 1.152,-0.231 2.074,-0.692l2.074,0c6.452,-0.921 10.715,-1.382 12.789,-1.382c2.074,0 4.033,-0.231 5.876,-0.691l10.37,0c0.461,0.46 2.074,0.691 4.839,0.691l5.53,0c1.383,0.461 3.457,0.806 6.222,1.037c2.765,0.23 7.604,1.037 14.517,2.419c3.226,0.922 8.065,2.535 14.517,4.839c9.679,3.687 19.126,8.296 28.344,13.826l0,-89.868l-44.244,-29.035Zm-50.464,-33.874l38.712,22.813l61.526,-88.486c-1.844,1.844 -3.917,2.765 -6.222,2.765l-3.456,0c-1.383,0.461 -2.535,0.692 -3.457,0.692l-4.148,0c-0.46,0.46 -1.613,0.691 -3.456,0.691l-6.222,0c1.383,0 -10.83,-1.613 -36.638,-4.839c-8.296,-2.305 -20.509,-6.452 -36.639,-12.444l0,78.808Z" style="fill:#545350;fill-rule:nonzero;"/><path d="M4098.17,31.8c-0.461,0.461 -0.692,1.843 -0.692,4.148l0,3.456c-0.461,1.383 -0.691,2.535 -0.691,3.456c-3.226,18.435 -13.365,36.409 -30.417,53.922c-15.67,15.669 -33.182,24.656 -52.539,26.96l-4.148,0c-0.46,0.461 -1.843,0.692 -4.147,0.692l-4.148,0c-0.461,0.461 -1.844,0.691 -4.148,0.691c-3.687,0.922 -6.452,1.383 -8.296,1.383l-10.369,0c-0.461,0 -1.152,-0.231 -2.074,-0.692l-5.53,0c-0.461,0 -0.922,-0.23 -1.383,-0.691l-1.382,0l0,298.641l2.765,1.382c15.669,1.844 32.26,-4.032 49.773,-17.628c17.513,-13.595 31.339,-27.075 41.478,-40.441l14.517,-18.665c5.531,-7.373 9.679,-13.134 12.444,-17.282l6.221,-1.383l0,9.678c0,39.174 -21.43,75.813 -64.29,109.917c-2.766,2.304 -7.144,5.761 -13.135,10.369c-13.365,10.6 -28.343,18.205 -44.934,22.813c-2.305,0.461 -13.826,3.226 -34.565,8.296c-20.739,2.304 -34.104,3.456 -40.096,3.456c-52.077,0 -99.316,-15.439 -141.716,-46.317c-44.243,-31.799 -70.051,-73.508 -77.425,-125.125l0,-2.074c-0.461,-0.46 -0.691,-1.382 -0.691,-2.765l0,-2.765c-0.461,-0.461 -0.692,-1.383 -0.692,-2.765l0,-2.074l-0.691,0l0,-2.765c-0.461,-0.461 -0.691,-1.152 -0.691,-2.074l0,-12.444c0,-1.382 0.23,-2.88 0.691,-4.493c0.461,-1.613 0.922,-2.65 1.383,-3.111l0,-4.148c0,-0.46 0.23,-1.037 0.691,-1.728c0.461,-0.691 0.691,-1.613 0.691,-2.765c0,-1.152 0.461,-3.572 1.383,-7.259c0,-1.843 0.461,-4.608 1.382,-8.295c17.513,-70.974 56.917,-125.356 118.212,-163.147c-0.921,0 -2.074,-0.23 -3.456,-0.691l-4.148,0c-0.922,0 -2.074,-0.23 -3.456,-0.691l-4.148,0c-2.765,0 -4.378,-0.231 -4.839,-0.692l-5.531,0c-1.843,0 -3.456,-0.23 -4.839,-0.691l-4.148,0c-49.773,0 -87.794,20.048 -114.064,60.143l-5.53,-2.765c1.382,0.461 1.843,0.691 1.382,0.691l-0.691,-0.691l0,-1.383l-0.691,-0.691l0,-0.691c0,-33.183 13.134,-60.604 39.404,-82.265c28.113,-23.043 57.608,-37.56 88.486,-43.552c1.843,-0.46 8.296,-1.382 19.356,-2.765c1.383,0 3.226,-0.23 5.531,-0.691l4.839,0c1.843,-0.461 5.069,-0.691 9.678,-0.691l8.296,0c0.46,0.461 1.613,0.691 3.456,0.691l5.53,0c1.383,0.461 2.535,0.691 3.457,0.691l6.222,0l181.12,29.726c0.922,0.922 1.498,1.498 1.728,1.728c0.23,0.231 0.807,0.346 1.728,0.346l4.839,0c0,0.461 0.461,0.691 1.383,0.691l11.061,0c1.382,0 2.88,-0.23 4.493,-0.691c1.613,-0.461 2.996,-0.807 4.148,-1.037c1.152,-0.23 3.111,-0.806 5.876,-1.728l6.222,-2.074c1.382,-0.922 3.341,-2.189 5.876,-3.802c2.534,-1.613 4.263,-2.881 5.184,-3.802c0.922,-0.922 1.844,-1.959 2.766,-3.111c0.921,-1.152 2.074,-2.881 3.456,-5.185l5.531,-8.987c0.921,-1.382 1.382,-2.074 1.382,-2.074l1.383,0l0.691,-0.691l0,-0.691l1.383,0l0.691,-0.692l1.383,0c0.46,0 0.921,-0.23 1.382,-0.691l1.383,0c0.461,0 0.921,-0.23 1.382,-0.691l0.692,0l0,13.826Zm-188.725,86.412l0,163.146c0,23.965 -7.835,45.857 -23.504,65.674c-15.669,19.817 -32.491,35.947 -50.465,48.391c-0.922,0.921 -1.843,1.382 -2.765,1.382c-1.383,1.383 -2.996,2.535 -4.839,3.457c0,0 -0.346,0.23 -1.037,0.691c-0.691,0.461 -1.267,0.922 -1.728,1.383c14.747,11.982 30.647,20.739 47.699,26.269c17.052,5.53 34.565,8.296 52.539,8.296l6.222,0c1.382,0 3.917,-0.461 7.604,-1.383c0.461,0 1.613,-0.23 3.456,-0.691l3.457,0c0.461,0 1.613,-0.231 3.456,-0.692l2.766,0l0,-310.393l-42.861,-5.53Zm-91.251,-17.282c-9.218,5.53 -15.9,11.521 -20.048,17.973c-9.217,13.365 -17.052,27.422 -23.504,42.17c-0.461,0.921 -2.535,5.76 -6.222,14.517c-2.765,6.913 -5.761,15.208 -8.987,24.887c-0.921,5.991 -2.765,14.747 -5.53,26.269c-0.461,3.687 -1.152,9.217 -2.074,16.591c-0.461,3.687 -0.691,9.217 -0.691,16.591c0,13.826 1.843,28.113 5.53,42.861c6.452,18.434 12.213,32.26 17.283,41.478c0.461,1.382 0.806,2.304 1.037,2.765c0.23,0.461 0.806,1.152 1.728,2.074l2.074,2.074c0,0.46 0.461,1.267 1.382,2.419c0.922,1.152 4.379,6.107 10.37,14.863c3.226,2.765 7.374,7.143 12.443,13.135c0.922,0.461 1.844,1.497 2.765,3.111c0.922,1.613 1.498,2.65 1.729,3.11c0.23,0.461 0.806,0.692 1.728,0.692c0.461,0 1.152,-0.461 2.074,-1.383l2.765,-2.765c0.461,-0.461 1.037,-0.922 1.728,-1.383c0.692,-0.461 1.152,-0.921 1.383,-1.382c0.23,-0.461 0.806,-1.152 1.728,-2.074l2.765,-2.765c0.461,-0.922 1.152,-1.844 2.074,-2.766c0,3.687 2.074,-2.765 6.222,-19.356c0,0 0.691,-2.765 2.074,-8.296c1.382,-3.686 2.074,-9.678 2.074,-17.973l0,-219.142l-0.692,0l0,-0.691c-0.461,0 -0.691,-0.231 -0.691,-0.691l0,-0.692l-0.691,0l0,-1.382c-0.922,0 -1.383,-0.461 -1.383,-1.383l0,-2.074l-12.443,-1.382Z" style="fill:#545350;fill-rule:nonzero;"/><path d="M4246.11,139.642l92.634,35.948l0,0.691l1.383,-1.383c0.922,-1.382 3.341,-3.686 7.259,-6.913c3.917,-3.226 7.258,-5.069 10.023,-5.53c0.461,0 1.153,-0.23 2.074,-0.691l2.074,0c0.461,0 1.152,-0.231 2.074,-0.691l2.074,0l2.765,-1.383c-1.843,3.226 -4.378,7.604 -7.604,13.135c-1.843,2.765 -4.033,7.028 -6.567,12.789c-2.535,5.76 -6.337,14.632 -11.407,26.615l-1.382,194.946c0.46,1.843 0.806,2.995 1.037,3.456c0.23,0.461 0.576,1.152 1.037,2.074l0,2.074c0,0.461 0.23,1.152 0.691,2.074l0,1.382c0.922,1.383 2.535,3.687 4.839,6.913c0.461,0.461 2.765,2.305 6.913,5.531c0,0.922 0.461,1.382 1.382,1.382l0.692,0c0,0.461 0.23,0.692 0.691,0.692l12.443,-8.987l10.37,8.987l-60.143,52.538l-4.148,0c-7.835,0 -14.517,-3.226 -20.047,-9.678c-6.913,-9.217 -11.292,-17.282 -13.135,-24.195c-1.383,-3.226 -2.881,-8.526 -4.494,-15.9c-1.613,-7.374 -2.419,-11.752 -2.419,-13.135l0,-4.839c-0.461,0 -0.691,-0.461 -0.691,-1.382l0,-3.457c-0.461,-0.461 -0.692,-1.152 -0.692,-2.074l0,-4.148l-91.251,78.808c-16.591,-9.217 -30.072,-22.006 -40.441,-38.367c-10.37,-16.36 -15.554,-33.528 -15.554,-51.501l0,-3.457c0,-0.461 0.23,-1.152 0.691,-2.074l0,-6.913c0,-0.461 0.23,-1.152 0.691,-2.074l0,-1.382c0,-0.461 1.844,-7.604 5.531,-21.43c10.139,-37.331 29.726,-67.748 58.76,-91.252l-33.874,-96.782c0.461,1.383 1.153,2.074 2.074,2.074l4.148,0c0,0.461 0.461,0.692 1.383,0.692l9.678,0c1.383,0 2.535,-0.116 3.456,-0.346c0.922,-0.23 1.844,-0.576 2.766,-1.037l1.382,0c9.678,-1.383 20.509,-4.839 32.491,-10.369c10.6,-5.07 20.048,-11.753 28.343,-20.048l0,-1.383Zm-37.33,140.334c-8.295,11.061 -13.941,21.2 -16.936,30.417c-2.996,9.217 -4.494,19.356 -4.494,30.417l0,9.678c0,3.687 0.461,6.913 1.383,9.678c3.687,24.426 14.517,49.083 32.491,73.969l7.604,-4.147l48.391,-42.861l0,-67.747l-68.439,-39.404Zm-26.96,-94.708l26.96,76.043l67.056,38.712l0,-80.19l-85.721,-34.565l-8.295,0Z" style="fill:#545350;fill-rule:nonzero;"/><path d="M4515.02,49.773l0,103.004l71.203,0l0,33.874l-72.586,0l0,217.067l32.491,27.652l24.887,-18.665l9.678,11.061l-73.969,64.291c-15.209,-14.287 -27.422,-24.657 -36.639,-31.109c-15.208,-10.6 -29.265,-18.665 -42.169,-24.195c5.991,-8.296 10.369,-16.591 13.135,-24.887c4.608,-14.287 6.913,-23.274 6.913,-26.961l0,-191.489l-25.578,-2.765l4.147,-12.444l88.487,-124.434Z" style="fill:#545350;fill-rule:nonzero;"/><path d="M4723.1,49.773l0,103.004l71.204,0l0,33.874l-72.586,0l0,217.067l32.491,27.652l24.886,-18.665l9.679,11.061l-73.969,64.291c-15.209,-14.287 -27.422,-24.657 -36.639,-31.109c-15.209,-10.6 -29.265,-18.665 -42.169,-24.195c5.991,-8.296 10.369,-16.591 13.134,-24.887c4.609,-14.287 6.913,-23.274 6.913,-26.961l0,-191.489l-25.578,-2.765l4.148,-12.444l88.486,-124.434Z" style="fill:#545350;fill-rule:nonzero;"/><path d="M4947.08,138.26c12.443,10.6 27.191,20.163 44.243,28.689c17.052,8.526 32.261,14.632 45.626,18.319l22.813,6.222l0,238.498l-104.386,55.303l-88.487,-45.625l-35.947,-9.678l14.517,-21.431l4.148,-22.813l0,-190.107c17.513,-3.226 34.795,-10.023 51.847,-20.393c17.052,-10.369 32.261,-22.237 45.626,-35.602l0,-1.382Zm-30.417,61.525l0,198.403l76.043,33.182l0,-199.094l-76.043,-32.491Z" style="fill:#545350;fill-rule:nonzero;"/><path d="M5229.13,138.26c12.443,10.6 27.191,20.163 44.243,28.689c17.052,8.526 32.26,14.632 45.625,18.319l22.813,6.222l0,238.498l-104.386,55.303l-88.486,-45.625l-35.947,-9.678l14.517,-21.431l4.148,-22.813l0,-190.107c17.513,-3.226 34.795,-10.023 51.847,-20.393c17.052,-10.369 32.261,-22.237 45.626,-35.602l0,-1.382Zm-30.417,61.525l0,198.403l76.042,33.182l0,-199.094l-76.042,-32.491Z" style="fill:#545350;fill-rule:nonzero;"/></g><g><path d="M109.916,0l72.587,18.665c0.461,1.383 1.152,2.074 2.074,2.074l3.456,0c0,0.461 0.461,0.691 1.383,0.691l14.863,-0.345c2.534,-0.231 4.608,-0.461 6.221,-0.692c1.613,-0.23 3.802,-0.806 6.568,-1.728c1.382,0 5.53,-0.691 12.443,-2.074c1.844,0 4.148,-0.461 6.913,-1.382l6.222,-2.074c3.226,-0.922 7.374,-1.844 12.443,-2.766c2.304,0 6.452,-0.691 12.443,-2.073c7.835,-1.844 16.131,-2.766 24.887,-2.766c-0.461,0 -1.267,0.576 -2.419,1.729c-1.153,1.152 -2.074,1.958 -2.766,2.419l-6.221,4.494c-1.152,0.691 -2.881,2.189 -5.185,4.493c-1.843,0.461 -3.572,1.498 -5.185,3.111c-1.613,1.613 -2.995,2.535 -4.147,2.765c-1.153,0.231 -2.305,0.691 -3.457,1.383c-1.152,0.691 -2.88,2.189 -5.185,4.493c-16.591,11.983 -27.882,20.509 -33.873,25.578c-11.983,11.061 -20.509,22.352 -25.578,33.874c-0.922,0.922 -1.498,2.074 -1.729,3.456c-0.23,1.383 -0.806,3.226 -1.728,5.531c-2.765,9.678 -4.148,14.056 -4.148,13.134c0,0.461 -0.23,1.152 -0.691,2.074c-0.461,0.922 -1.037,1.844 -1.728,2.765c-0.691,0.922 -1.152,1.959 -1.383,3.111c-0.23,1.152 -0.806,2.881 -1.728,5.185l0,15.9c0,3.687 0.461,8.756 1.383,15.208l0,16.592c0,3.687 0.23,6.221 0.691,7.604l0,27.652c0,0.461 -0.231,7.374 -0.691,20.739c-0.922,15.669 -2.535,39.173 -4.84,70.512c-1.382,20.739 -2.073,30.878 -2.073,30.417l0,4.839c-0.461,1.383 -0.692,3.226 -0.692,5.531l0,4.839c-0.461,1.382 -0.691,2.996 -0.691,4.839c-4.148,13.826 -9.448,25.348 -15.9,34.565c-0.922,1.843 -8.295,12.213 -22.121,31.108c-0.922,0.922 -1.383,1.613 -1.383,2.074l-2.074,2.074c-1.383,1.383 -2.304,2.765 -2.765,4.148c19.817,-12.443 37.1,-27.076 51.847,-43.898c14.748,-16.821 23.735,-36.984 26.961,-60.488l0,-174.207c0,-48.852 39.865,-90.791 119.595,-125.817c2.765,-0.921 6.452,-2.534 11.06,-4.839l11.407,-4.839l11.06,-3.456c1.153,-0.461 2.996,-1.152 5.531,-2.074c2.535,-0.922 4.263,-1.383 5.185,-1.383l3.456,0c0.461,0 1.152,-0.23 2.074,-0.691l4.148,0c0.461,0 1.152,-0.231 2.074,-0.691l7.604,0c0.461,0.46 1.152,0.691 2.074,0.691c23.504,4.148 44.473,18.665 62.908,43.552c0.461,1.843 0.807,2.995 1.037,3.456c0.23,0.461 0.576,1.152 1.037,2.074l0,2.074c0,1.843 0.461,4.609 1.382,8.296l0,8.986c0,0.461 0.231,1.844 0.692,4.148l0,3.457c0,24.426 -7.835,47.008 -23.504,67.747c-8.757,11.522 -25.578,29.726 -50.465,54.613l-2.765,2.765c0,0 -0.346,0.23 -1.037,0.691c-0.692,0.461 -1.268,0.922 -1.729,1.383l4.84,0c0.46,0.46 2.073,0.691 4.839,0.691c4.608,0.922 8.065,1.383 10.369,1.383c46.087,8.756 71.665,30.877 76.734,66.364l0,138.951l-64.291,15.209c-13.825,5.991 -34.334,15.669 -61.525,29.034c-18.896,10.139 -38.252,21.43 -58.069,33.874l-87.104,-28.343c-4.147,0.46 -10.139,0.23 -17.973,-0.692c-9.679,-0.921 -15.9,-1.382 -18.666,-1.382c-2.765,0 -4.378,-0.231 -4.839,-0.692l-27.652,0c-0.921,0.461 -2.534,0.692 -4.839,0.692c-24.426,1.382 -47.93,8.756 -70.512,22.121c-0.461,0.922 -1.152,2.074 -2.074,3.457c-0.922,1.382 -1.728,2.419 -2.419,3.111c-0.692,0.691 -2.19,3.571 -4.494,8.641c-1.843,3.226 -2.765,6.682 -2.765,10.369c0,-1.382 1.382,4.839 4.148,18.665c0,0.461 0.23,1.153 0.691,2.074c0.461,0.922 0.922,1.844 1.383,2.765c0.46,0.922 0.691,1.613 0.691,2.074c1.382,2.766 2.995,6.683 4.839,11.752c-1.844,6.453 -5.3,10.6 -10.37,12.444c-0.921,0.921 -1.958,1.382 -3.11,1.382c-1.153,0 -1.959,0.231 -2.42,0.692l-2.765,0c-0.461,-0.461 -1.152,-0.692 -2.074,-0.692l-1.383,0c-0.46,-0.461 -0.921,-0.691 -1.382,-0.691c-5.07,-2.304 -9.102,-5.3 -12.098,-8.987c-2.996,-3.687 -4.493,-8.526 -4.493,-14.517l0,-2.765c-0.461,-0.461 -0.692,-0.922 -0.692,-1.383l0,-2.765c-0.461,-0.461 -0.691,-0.922 -0.691,-1.383l0,-1.382c0,-14.287 4.148,-26.73 12.443,-37.33c0.922,-1.383 5.3,-6.452 13.135,-15.209c3.226,-3.687 8.065,-8.987 14.517,-15.9l17.283,-17.282c5.069,-5.07 9.678,-10.37 13.826,-15.9c0.461,-1.383 1.152,-2.65 2.074,-3.802c0.921,-1.152 1.728,-2.189 2.419,-3.111c0.692,-0.922 1.037,-1.613 1.037,-2.074c1.844,-2.765 3.341,-5.761 4.494,-8.987c1.152,-3.226 2.419,-7.143 3.802,-11.752c0.921,-2.304 1.382,-3.917 1.382,-4.839c0,-0.922 0.231,-2.304 0.692,-4.148l0,-4.839c-0.461,-0.461 -0.692,-1.152 -0.692,-2.074l0,-2.074c-0.461,-0.461 -0.691,-1.152 -0.691,-2.074c0,-0.921 -0.23,-1.843 -0.691,-2.765l-4.494,-6.913c-1.152,-1.843 -4.263,-3.917 -9.332,-6.221l-2.765,0c-0.461,0 -1.383,-0.231 -2.766,-0.692l-5.53,0c-0.461,0 -0.922,-0.23 -1.383,-0.691l-1.382,0c-5.531,0 -12.674,1.613 -21.43,4.839c-4.609,2.304 -11.292,6.452 -20.048,12.443l-2.765,-2.765c-0.461,0 -0.692,-0.461 -0.692,-1.382l0,-4.839c-0.46,0 -0.691,-0.461 -0.691,-1.383l0,-5.53c0,-0.461 0.231,-0.922 0.691,-1.383l0,-4.148c0,-0.461 0.231,-0.922 0.692,-1.382l0,-1.383c5.991,-11.983 14.517,-20.969 25.578,-26.961c11.061,-7.834 23.273,-11.982 36.639,-12.443c0.46,0 1.152,-0.23 2.073,-0.691l6.913,0l4.148,-1.383c0,0.461 0.231,0.461 0.692,0l0,-1.383c0,-0.46 0.23,-1.036 0.691,-1.728c0.461,-0.691 0.691,-1.267 0.691,-1.728l0,-2.765c0,-0.461 0.231,-0.922 0.691,-1.383l0,-1.382c0,-7.835 -3.917,-16.015 -11.752,-24.542c-7.834,-8.526 -15.9,-14.402 -24.195,-17.628c-0.922,-0.46 -2.765,-1.152 -5.53,-2.074c-0.461,0 -2.074,-0.46 -4.84,-1.382c-4.608,-0.922 -7.604,-1.383 -8.986,-1.383c-12.444,1.383 -25.118,5.3 -38.022,11.752c-0.461,0.461 -1.843,1.153 -4.148,2.074c-0.461,0 -0.921,0.231 -1.382,0.692c-0.461,0.46 -1.037,0.691 -1.728,0.691c-0.692,0 -1.614,0.346 -2.766,1.037c-1.152,0.691 -2.074,1.152 -2.765,1.382c-0.691,0.231 -1.498,0.692 -2.419,1.383c-0.922,0.691 -1.844,1.037 -2.766,1.037l-1.382,-4.148c0,-29.034 21.43,-50.465 64.291,-64.291c1.382,-0.46 3.917,-1.152 7.604,-2.073c0.922,0 3.226,-0.461 6.913,-1.383c1.843,-0.461 4.263,-0.922 7.258,-1.383c2.996,-0.461 5.185,-0.691 6.568,-0.691l0,-4.148c0,-0.461 0.23,-1.152 0.691,-2.074l0,-2.074c0.461,-5.069 1.613,-12.673 3.457,-22.812c3.226,-20.278 12.904,-41.017 29.034,-62.217l57.378,-45.626c-1.844,1.844 -6.222,3.917 -13.135,6.222c-3.226,0.461 -7.604,1.843 -13.134,4.148c-3.227,0.46 -7.835,1.152 -13.826,2.073c-3.227,0.461 -7.605,0.692 -13.135,0.692l-6.222,0c-0.922,0 -2.074,-0.231 -3.456,-0.692l-2.765,0c-0.922,0 -2.074,-0.23 -3.457,-0.691l-3.456,0c-1.383,0 -3.227,-0.346 -5.531,-1.037c-2.304,-0.691 -3.572,-1.152 -3.802,-1.382c-0.23,-0.231 -1.498,-0.692 -3.802,-1.383c-2.304,-0.691 -3.687,-1.152 -4.148,-1.383c-0.461,-0.23 -1.152,-0.576 -2.074,-1.037l-2.074,0c-8.295,-2.765 -14.517,-4.378 -18.665,-4.839c-5.53,-1.382 -11.291,-2.074 -17.282,-2.074c-6.452,0 -14.057,1.613 -22.813,4.84c-7.835,4.608 -14.517,10.139 -20.048,16.591c-1.382,1.382 -2.534,2.765 -3.456,4.148c-0.922,1.382 -2.074,4.378 -3.457,8.986c-0.461,0.461 -1.152,1.844 -2.074,4.148c-0.921,0 -1.382,-0.461 -1.382,-1.382l0,-0.692c-0.461,0 -0.692,-0.23 -0.692,-0.691c-2.304,-6.913 -3.456,-10.83 -3.456,-11.752c0,-4.609 0.691,-8.065 2.074,-10.37l0,-2.073c0.461,-0.922 0.691,-1.613 0.691,-2.074c0,-0.461 0.231,-1.153 0.691,-2.074c0,0.461 0.692,-1.383 2.074,-5.531c1.383,-2.304 3.457,-5.991 6.222,-11.06c0.922,-1.844 3.457,-5.3 7.604,-10.37c0.922,-0.922 1.844,-1.959 2.766,-3.111c0.921,-1.152 1.613,-2.074 2.073,-2.765c0.461,-0.691 1.268,-1.613 2.42,-2.765c1.152,-1.152 1.728,-1.959 1.728,-2.42c1.844,-2.304 4.378,-5.069 7.605,-8.295c8.295,-4.609 17.397,-8.757 27.306,-12.444c9.908,-3.687 19.702,-5.53 29.38,-5.53l1.383,0c0.46,0.461 1.152,0.691 2.073,0.691l7.605,0c0.461,0.461 1.152,0.692 2.074,0.692l4.147,0l0,-1.383Zm254.398,364.314c-4.148,0.461 -10.6,1.613 -19.356,3.457c-6.452,1.382 -12.443,2.995 -17.974,4.839l0,48.391l37.33,13.134l38.713,-17.282l0,-44.243c-0.922,0 -4.148,-0.691 -9.678,-2.074c-1.844,0 -5.07,-0.691 -9.678,-2.074c-5.992,-1.843 -12.444,-2.765 -19.357,-2.765l0,-1.383Zm-27.652,-324.219c-11.982,2.765 -21.2,7.374 -27.652,13.826c-8.756,8.757 -15.208,17.513 -19.356,26.27c-0.461,0.921 -1.498,3.341 -3.111,7.258c-1.613,3.918 -2.419,7.028 -2.419,9.333l0,195.637c0,29.496 -10.255,53.115 -30.763,70.858c-20.509,17.744 -43.206,32.607 -68.093,44.589c2.765,0 4.839,-0.23 6.222,-0.691l6.221,0c3.687,0 7.835,-0.461 12.444,-1.383l11.752,0c2.765,0 4.839,-0.23 6.221,-0.691l18.666,0c3.226,0 7.373,0.23 12.443,0.691c1.843,0 6.222,0.461 13.135,1.383c5.53,0.461 9.908,0.691 13.134,0.691l2.074,0c0.461,0.461 1.383,0.691 2.765,0.691l5.531,0c2.765,0.922 5.069,1.383 6.913,1.383l8.295,0l0,-257.163l15.9,0l0,72.586c17.052,-8.295 32.722,-22.352 47.008,-42.169c13.366,-18.435 20.048,-38.252 20.048,-59.452c0,-3.226 -0.461,-7.143 -1.383,-11.752l0,-3.456c-0.46,-1.383 -0.691,-2.535 -0.691,-3.457c-0.922,-2.765 -1.613,-5.184 -2.074,-7.258l-2.419,-10.024c-0.692,-3.226 -2.189,-6.452 -4.494,-9.678c-1.382,-1.383 -3.456,-3.457 -6.221,-6.222l-6.222,-8.296c-5.53,-5.53 -13.826,-12.212 -24.887,-20.047c-2.765,-0.922 -5.761,-1.613 -8.987,-2.074l0,-1.383Zm-9.678,311.085c4.148,0 10.37,-0.461 18.665,-1.383c8.296,-0.922 14.517,-1.383 18.665,-1.383l6.222,0c1.383,0.461 3.687,0.692 6.913,0.692c6.452,0.921 11.061,1.613 13.826,2.074c2.765,0.46 4.839,0.691 6.222,0.691l2.765,0c0.461,0.461 1.382,0.691 2.765,0.691l0,-49.773c-2.304,1.843 -4.609,2.765 -6.913,2.765l-3.457,0c-1.382,0.461 -2.534,0.691 -3.456,0.691l-3.457,0c-1.382,0.461 -2.534,0.691 -3.456,0.691l-6.913,0c-6.452,0 -11.291,-0.23 -14.517,-0.691l-14.518,-2.074c-2.765,0 -5.76,-0.23 -8.986,-0.691c-3.226,-0.461 -6.683,-1.152 -10.37,-2.074l0,49.774Zm38.713,-128.582l-38.713,28.343l0,30.417c0.461,1.383 0.922,2.19 1.383,2.42c0.461,0.23 1.267,0.461 2.419,0.691c1.152,0.231 2.42,0.576 3.802,1.037c6.913,2.305 10.831,3.457 11.752,3.457c9.218,2.304 15.67,3.456 19.357,3.456c3.226,0 5.761,-0.23 7.604,-0.691c-0.922,0 5.07,-1.613 17.974,-4.839c2.765,-2.305 5.53,-3.687 8.295,-4.148l0,-14.517c0,-8.757 -3.226,-18.204 -9.678,-28.343c-5.53,-8.757 -13.595,-14.057 -24.195,-15.9l0,-1.383Z" style="fill:#fff;fill-rule:nonzero;"/><path d="M662.264,20.048l20.047,0c-12.904,11.521 -21.43,22.582 -25.578,33.182c-4.608,12.443 -8.065,25.578 -10.369,39.404l0,306.936l37.33,28.344l12.443,-9.679l10.37,11.753l-65.673,58.069c-13.826,-13.826 -27.192,-25.118 -40.096,-33.874c-14.747,-10.139 -30.417,-18.435 -47.008,-24.887c17.974,-11.521 26.961,-27.191 26.961,-47.008l0,-304.171c-5.07,-18.435 -14.979,-33.643 -29.726,-45.626l4.148,-1.383c1.382,1.383 3.11,2.074 5.184,2.074c2.074,0 4.839,0.692 8.296,2.074c3.456,1.383 5.991,2.42 7.604,3.111c1.613,0.691 4.378,2.074 8.296,4.148c3.917,2.074 8.871,5.876 14.863,11.406l2.074,2.074c0,2.304 1.152,3.457 3.456,3.457c0,0.921 0.461,1.382 1.383,1.382c9.678,-11.061 17.973,-19.126 24.886,-24.195c8.757,-7.374 19.126,-12.444 31.109,-15.209l0,-1.382Z" style="fill:#fff;fill-rule:nonzero;"/><path d="M854.445,139.642l92.634,35.948l0,0.691l1.382,-1.383c0.922,-1.382 3.342,-3.686 7.259,-6.913c3.917,-3.226 7.259,-5.069 10.024,-5.53c0.461,0 1.152,-0.23 2.074,-0.691l2.074,0c0.46,0 1.152,-0.231 2.073,-0.691l2.074,0l2.766,-1.383c-1.844,3.226 -4.379,7.604 -7.605,13.135c-1.843,2.765 -4.032,7.028 -6.567,12.789c-2.535,5.76 -6.337,14.632 -11.406,26.615l-1.383,194.946c0.461,1.843 0.806,2.995 1.037,3.456c0.23,0.461 0.576,1.152 1.037,2.074l0,2.074c0,0.461 0.23,1.152 0.691,2.074l0,1.382c0.922,1.383 2.535,3.687 4.839,6.913c0.461,0.461 2.765,2.305 6.913,5.531c0,0.922 0.461,1.382 1.383,1.382l0.691,0c0,0.461 0.231,0.692 0.691,0.692l12.444,-8.987l10.369,8.987l-60.143,52.538l-4.148,0c-7.834,0 -14.517,-3.226 -20.047,-9.678c-6.913,-9.217 -11.291,-17.282 -13.135,-24.195c-1.382,-3.226 -2.88,-8.526 -4.493,-15.9c-1.613,-7.374 -2.42,-11.752 -2.42,-13.135l0,-4.839c-0.461,0 -0.691,-0.461 -0.691,-1.382l0,-3.457c-0.461,-0.461 -0.691,-1.152 -0.691,-2.074l0,-4.148l-91.252,78.808c-16.591,-9.217 -30.071,-22.006 -40.441,-38.367c-10.369,-16.36 -15.554,-33.528 -15.554,-51.501l0,-3.457c0,-0.461 0.23,-1.152 0.691,-2.074l0,-6.913c0,-0.461 0.231,-1.152 0.692,-2.074l0,-1.382c0,-0.461 1.843,-7.604 5.53,-21.43c10.139,-37.331 29.726,-67.748 58.76,-91.252l-33.873,-96.782c0.461,1.383 1.152,2.074 2.074,2.074l4.147,0c0,0.461 0.461,0.692 1.383,0.692l9.678,0c1.383,0 2.535,-0.116 3.457,-0.346c0.921,-0.23 1.843,-0.576 2.765,-1.037l1.382,0c9.679,-1.383 20.509,-4.839 32.492,-10.369c10.599,-5.07 20.047,-11.753 28.343,-20.048l0,-1.383Zm-37.33,140.334c-8.296,11.061 -13.942,21.2 -16.937,30.417c-2.996,9.217 -4.494,19.356 -4.494,30.417l0,9.678c0,3.687 0.461,6.913 1.383,9.678c3.687,24.426 14.517,49.083 32.491,73.969l7.604,-4.147l48.391,-42.861l0,-67.747l-68.438,-39.404Zm-26.961,-94.708l26.961,76.043l67.056,38.712l0,-80.19l-85.721,-34.565l-8.296,0Z" style="fill:#fff;fill-rule:nonzero;"/><path d="M1136.49,138.26l0,1.382l-3.456,0c-2.765,-0.461 -5.646,0.692 -8.641,3.457c-2.996,2.765 -5.415,4.839 -7.259,6.221l-16.591,16.592c-3.687,2.304 -6.683,4.493 -8.987,6.567c-2.304,2.074 -4.378,3.802 -6.222,5.185c-13.826,9.678 -25.347,15.669 -34.565,17.973l0,197.02c0,16.131 -6.221,31.339 -18.665,45.626c28.113,5.531 60.374,21.2 96.782,47.008l87.104,-65.673c-2.765,-2.765 -4.148,-5.3 -4.148,-7.604l-2.074,-2.074c-0.922,-0.922 -1.613,-1.844 -2.074,-2.765c-0.461,-0.922 -0.922,-1.613 -1.382,-2.074l-34.565,26.269c-6.452,-3.226 -11.868,-6.106 -16.246,-8.641c-4.378,-2.535 -8.18,-4.724 -11.406,-6.567c-11.061,-4.609 -20.278,-10.6 -27.652,-17.974l0,-197.02c19.817,16.13 40.326,27.652 61.525,34.565l31.109,-46.317l-72.587,-51.156Z" style="fill:#fff;fill-rule:nonzero;"/><path d="M1369.46,20.048l15.9,0c-22.122,16.591 -33.182,37.791 -33.182,63.599l0,143.099l84.338,-88.486l5.53,0l60.143,72.586l-65.673,61.526c19.356,18.434 34.104,39.404 44.243,62.908c9.217,21.2 15.439,45.395 18.665,72.586c0,0.461 0.231,1.843 0.691,4.148l0,4.148c0,0.921 0.231,2.073 0.692,3.456l0,4.148l8.295,6.222l13.135,-6.222l8.296,8.987l-60.835,52.538c-1.843,0 -4.148,-0.46 -6.913,-1.382c-2.765,-0.922 -4.839,-1.383 -6.221,-1.383c-14.748,-24.426 -23.735,-45.856 -26.961,-64.291l-81.573,67.056c-14.287,-9.217 -26.961,-16.591 -38.022,-22.121c-4.608,-2.304 -11.291,-5.53 -20.047,-9.678c-4.148,-1.844 -11.061,-4.609 -20.739,-8.296c2.304,-2.304 4.032,-4.378 5.184,-6.222c1.153,-1.843 2.19,-4.378 3.111,-7.604c0.922,-0.922 1.613,-2.189 2.074,-3.802c0.461,-1.613 1.037,-2.765 1.728,-3.456c0.692,-0.692 1.498,-2.65 2.42,-5.877l0,-228.819l-35.947,0l0,-39.404l35.947,0l0,-49.082c-4.609,-25.348 -14.517,-47.7 -29.726,-67.056c10.6,0 19.587,1.728 26.961,5.184c7.374,3.457 15.9,8.872 25.578,16.246l2.765,2.765c9.678,-11.522 18.435,-19.587 26.269,-24.195c10.139,-7.374 21.431,-11.522 33.874,-12.444l0,-1.382Zm18.665,304.171l-37.33,36.639l0,54.612l38.713,18.665l38.712,-34.565c-4.147,-26.73 -17.513,-51.386 -40.095,-73.968l0,-1.383Zm15.209,-124.434l-35.257,31.109l-15.899,29.034l0,75.352l91.251,-89.869l-40.095,-45.626Z" style="fill:#fff;fill-rule:nonzero;"/><path d="M2125.05,4.148c5.07,3.226 11.983,8.295 20.739,15.208l17.974,15.9c0,0.922 0.345,1.959 1.037,3.111c0.691,1.152 1.267,1.728 1.728,1.728c2.304,5.531 5.761,13.365 10.369,23.504c2.305,5.07 4.609,12.905 6.913,23.505l114.065,-81.574l74.66,51.156c2.765,-3.226 7.374,-7.373 13.826,-12.443c4.609,-2.765 10.83,-5.53 18.665,-8.295l2.074,0c0.461,0 0.922,-0.231 1.382,-0.692l0.692,0l0,6.913c-0.461,0.461 -0.692,1.152 -0.692,2.074l0,4.148c-0.46,0.461 -0.691,0.922 -0.691,1.382l0,2.766c-1.382,1.382 -2.304,2.765 -2.765,4.147l-2.765,2.766c-8.296,10.6 -14.518,23.504 -18.665,38.712l0,304.172l14.517,25.578c1.383,0.461 2.765,0.461 4.148,0c1.843,-0.461 2.995,-1.037 3.456,-1.729c0.461,-0.691 1.498,-1.382 3.111,-2.073c1.613,-0.692 2.765,-1.268 3.457,-1.729c0.691,-0.461 1.497,-1.152 2.419,-2.074l2.074,-2.074l11.061,9.679l-65.674,61.525l-6.913,0c-15.669,-8.295 -27.536,-18.55 -35.601,-30.763c-8.066,-12.212 -13.25,-28.458 -15.555,-48.736l0,-317.306l-49.082,-34.565c-0.461,1.383 -1.152,2.074 -2.074,2.074l-1.382,0l-0.692,0.691c-1.382,1.383 -2.65,2.42 -3.802,3.111c-1.152,0.691 -2.189,1.267 -3.111,1.728l-1.382,1.383l0,148.629l41.478,0l-44.243,59.452l0,116.138c0,0 3.456,-0.691 10.369,-2.074c1.844,-0.922 4.378,-2.765 7.604,-5.53l11.752,7.604l-112.681,98.164c-6.913,-8.295 -17.974,-20.278 -33.182,-35.947c-10.14,-9.678 -23.505,-20.509 -40.096,-32.491c5.531,-3.687 10.024,-8.296 13.481,-13.826c3.456,-5.531 5.415,-10.6 5.876,-15.209l0,-2.074c0,-0.461 0.23,-0.921 0.691,-1.382l0,-113.373l-79.499,0l0,134.803c-2.766,26.269 -9.103,49.197 -19.011,68.784c-9.909,19.587 -27.537,33.298 -52.884,41.132c-0.461,0 -1.383,0.231 -2.766,0.692l-3.456,0c-0.461,0 -1.383,0.23 -2.765,0.691l-15.209,0c-3.687,0 -9.678,-0.461 -17.974,-1.383l-18.665,-2.074c-4.148,-0.921 -10.6,-2.073 -19.356,-3.456c-4.148,-0.461 -10.139,-0.691 -17.974,-0.691c-10.6,0 -20.508,2.419 -29.726,7.258c-9.217,4.839 -17.052,13.941 -23.504,27.307c0,-0.461 -0.23,-1.153 -0.691,-2.074l0,-2.766c0,-0.921 -0.461,-2.765 -1.383,-5.53l0,-6.222c0,-0.46 -0.23,-1.382 -0.691,-2.765l0,-2.074c0,-15.669 6.222,-30.417 18.665,-44.243c13.365,-11.982 27.882,-20.278 43.552,-24.886c0,0 1.382,-0.461 4.148,-1.383c0.461,0 1.152,-0.231 2.074,-0.691l1.382,0c1.383,0 2.535,-0.116 3.457,-0.346c0.921,-0.23 1.843,-0.576 2.765,-1.037l1.382,0c41.478,0 65.213,-14.748 71.204,-44.243l0,-13.135c0,-37.791 -16.13,-67.747 -48.391,-89.869c-1.843,-1.382 -5.991,-2.765 -12.443,-4.147c-2.765,-0.922 -4.839,-1.383 -6.222,-1.383c-3.687,-0.922 -5.876,-1.383 -6.567,-1.383c-0.691,0 -1.498,-0.23 -2.42,-0.691l-9.678,0c-1.382,0.461 -2.535,0.691 -3.456,0.691l-3.457,0c-1.382,0.461 -2.535,0.692 -3.456,0.692c-2.305,0.461 -6.452,1.382 -12.444,2.765c-3.226,1.383 -5.184,2.074 -5.876,2.074c-0.691,0 -1.613,0.346 -2.765,1.037c-1.152,0.691 -2.189,1.267 -3.111,1.728l0,-0.691l-0.691,0l0,-2.074l-0.691,0l0,-1.383c0,-27.652 17.513,-47.469 52.538,-59.451c1.383,-0.461 3.687,-1.153 6.913,-2.074l6.222,-2.074c2.765,-0.922 4.954,-1.498 6.567,-1.728c1.613,-0.231 3.802,-0.346 6.568,-0.346c2.304,-32.722 8.295,-60.604 17.973,-83.647c10.6,-25.809 29.265,-47.469 55.996,-64.982c50.695,-33.643 99.777,-61.756 147.246,-84.339l0,-1.382Zm-102.312,78.117c-5.53,5.069 -13.365,13.365 -23.504,24.886c-7.374,10.6 -12.444,20.048 -15.209,28.343l0,259.929c0,12.904 -4.724,25.002 -14.171,36.293c-9.448,11.291 -19.472,19.702 -30.072,25.232c0.922,0 1.844,0.346 2.765,1.037c0.922,0.691 1.613,1.268 2.074,1.728c2.765,0.922 4.839,1.383 6.222,1.383l1.383,0c0.46,0.461 0.921,0.807 1.382,1.037c0.461,0.23 1.152,0.346 2.074,0.346l9.678,0c-1.382,0 3.457,-1.613 14.517,-4.839c8.757,-2.305 15.209,-7.835 19.357,-16.592c0,-0.461 0.23,-0.921 0.691,-1.382l0,-0.692c0,-0.46 0.231,-0.921 0.691,-1.382l0,-0.691c0.461,-0.922 0.922,-1.959 1.383,-3.111c0.461,-1.152 0.691,-1.844 0.691,-2.074c0,-0.231 1.152,-4.954 3.457,-14.172c0,-1.382 0.23,-2.765 0.691,-4.148l0,-279.284c0,-1.844 0.231,-3.917 0.691,-6.222c0.461,-2.304 0.922,-4.378 1.383,-6.221c0.461,-1.844 0.922,-2.996 1.383,-3.457c0.921,-4.148 2.534,-10.139 4.839,-17.974c0.921,-3.226 3.456,-8.756 7.604,-16.591l0,-1.382Zm161.072,192.872l0,118.903c0,9.678 1.153,17.283 3.457,22.813c2.765,7.374 6.452,13.595 11.061,18.665c5.53,-0.922 10.254,-2.65 14.171,-5.185c3.918,-2.535 7.72,-5.645 11.407,-9.332l0,-145.864l-40.096,0Zm-112.681,-214.303l-4.148,0c-0.461,0.922 -1.152,1.383 -2.074,1.383l-0.691,0l-0.691,0.691l-2.074,0c-0.922,0.922 -1.844,1.383 -2.766,1.383l-2.073,0c-3.226,3.226 -8.987,11.061 -17.283,23.504c-5.991,8.756 -10.6,17.513 -13.826,26.269l0,144.482l31.109,-45.626l47.008,0l0,-118.903c-0.461,-5.531 -4.033,-11.752 -10.715,-18.665c-6.683,-6.913 -13.941,-11.292 -21.776,-13.135l0,-1.383Zm152.777,24.887l-41.478,29.726l0,100.238l41.478,0l0,-129.964Z" style="fill:#fff;fill-rule:nonzero;"/><path d="M2595.13,139.642l92.634,35.948l0,0.691l1.383,-1.383c0.921,-1.382 3.341,-3.686 7.258,-6.913c3.918,-3.226 7.259,-5.069 10.024,-5.53c0.461,0 1.152,-0.23 2.074,-0.691l2.074,0c0.461,0 1.152,-0.231 2.074,-0.691l2.074,0l2.765,-1.383c-1.844,3.226 -4.378,7.604 -7.604,13.135c-1.844,2.765 -4.033,7.028 -6.568,12.789c-2.535,5.76 -6.337,14.632 -11.406,26.615l-1.383,194.946c0.461,1.843 0.807,2.995 1.037,3.456c0.231,0.461 0.576,1.152 1.037,2.074l0,2.074c0,0.461 0.23,1.152 0.691,2.074l0,1.382c0.922,1.383 2.535,3.687 4.839,6.913c0.461,0.461 2.766,2.305 6.913,5.531c0,0.922 0.461,1.382 1.383,1.382l0.691,0c0,0.461 0.231,0.692 0.692,0.692l12.443,-8.987l10.369,8.987l-60.142,52.538l-4.148,0c-7.835,0 -14.518,-3.226 -20.048,-9.678c-6.913,-9.217 -11.291,-17.282 -13.135,-24.195c-1.382,-3.226 -2.88,-8.526 -4.493,-15.9c-1.613,-7.374 -2.42,-11.752 -2.42,-13.135l0,-4.839c-0.46,0 -0.691,-0.461 -0.691,-1.382l0,-3.457c-0.461,-0.461 -0.691,-1.152 -0.691,-2.074l0,-4.148l-91.252,78.808c-16.591,-9.217 -30.071,-22.006 -40.441,-38.367c-10.369,-16.36 -15.554,-33.528 -15.554,-51.501l0,-3.457c0,-0.461 0.231,-1.152 0.692,-2.074l0,-6.913c0,-0.461 0.23,-1.152 0.691,-2.074l0,-1.382c0,-0.461 1.843,-7.604 5.53,-21.43c10.139,-37.331 29.726,-67.748 58.761,-91.252l-33.874,-96.782c0.461,1.383 1.152,2.074 2.074,2.074l4.148,0c0,0.461 0.461,0.692 1.382,0.692l9.678,0c1.383,0 2.535,-0.116 3.457,-0.346c0.922,-0.23 1.843,-0.576 2.765,-1.037l1.383,0c9.678,-1.383 20.508,-4.839 32.491,-10.369c10.6,-5.07 20.047,-11.753 28.343,-20.048l0,-1.383Zm-37.33,140.334c-8.296,11.061 -13.941,21.2 -16.937,30.417c-2.996,9.217 -4.493,19.356 -4.493,30.417l0,9.678c0,3.687 0.46,6.913 1.382,9.678c3.687,24.426 14.517,49.083 32.491,73.969l7.605,-4.147l48.39,-42.861l0,-67.747l-68.438,-39.404Zm-26.961,-94.708l26.961,76.043l67.056,38.712l0,-80.19l-85.721,-34.565l-8.296,0Z" style="fill:#fff;fill-rule:nonzero;"/><path d="M2989.87,94.017l6.913,0c6.913,2.765 11.292,5.991 13.135,9.678c3.687,7.374 5.761,12.904 6.222,16.591c0,0.461 0.23,1.152 0.691,2.074l0,11.061c-0.461,1.382 -0.691,2.995 -0.691,4.839l-2.074,8.295l0,2.074c-0.461,0.461 -0.692,0.922 -0.692,1.383l0,1.382c-0.46,0.461 -0.691,0.922 -0.691,1.383l-74.66,107.151l64.291,40.095l0,132.73c-19.818,8.295 -34.104,15.208 -42.861,20.739c-15.669,9.217 -28.573,17.973 -38.712,26.269c-0.461,0 -1.153,0.346 -2.074,1.037c-0.922,0.691 -1.729,1.152 -2.42,1.383c-0.691,0.23 -1.267,0.576 -1.728,1.037c-0.461,0.46 -1.037,0.921 -1.728,1.382c-0.692,0.461 -1.268,0.691 -1.729,0.691c-5.069,-2.765 -12.904,-6.452 -23.504,-11.06c-7.374,-2.766 -15.669,-5.3 -24.887,-7.605c-0.921,0 -2.765,-0.46 -5.53,-1.382c-0.922,0 -2.074,-0.231 -3.456,-0.692l-2.766,0c-2.765,0 -4.839,-0.23 -6.221,-0.691l-12.444,0c-1.382,0.461 -3.456,0.691 -6.221,0.691c-5.992,0.922 -16.592,3.687 -31.8,8.296c-3.687,1.383 -9.448,4.609 -17.283,9.678l-9.678,-6.913l82.265,-120.286l-62.908,-38.712l0,-118.212c22.121,-7.374 46.086,-23.965 71.895,-49.774l4.147,-4.148c0.461,-0.461 0.922,-1.037 1.383,-1.728c0.461,-0.691 0.691,-1.037 0.691,-1.037c0,0 0.692,-0.691 2.074,-2.074l71.204,25.578c1.843,1.844 3.226,2.765 4.148,2.765l2.074,0c0.461,0.461 1.152,0.692 2.074,0.692c4.147,1.382 6.567,2.189 7.258,2.419c0.691,0.231 2.189,0.346 4.494,0.346c4.147,0 6.913,-0.23 8.295,-0.691c4.148,-1.383 9.678,-3.226 16.591,-5.531c2.766,-2.304 5.3,-4.032 7.605,-5.184c2.304,-1.153 4.378,-5.416 6.221,-12.789l0,-13.135c-0.461,-0.922 -1.843,-1.844 -4.147,-2.765c0,-0.922 -1.383,-2.535 -4.148,-4.839c-0.461,-2.305 -1.498,-3.803 -3.111,-4.494c-1.613,-0.691 -2.42,-1.267 -2.42,-1.728l-2.074,-2.074l0,-0.691c-0.46,0 -0.691,-0.231 -0.691,-0.692l0,-1.382c-0.461,0 -0.922,-0.346 -1.382,-1.037c-0.461,-0.691 -0.692,-1.268 -0.692,-1.728l0,-2.766c0,-0.46 0.115,-1.152 0.346,-2.073c0.23,-0.922 1.498,-2.996 3.802,-6.222c1.383,-1.844 3.457,-3.687 6.222,-5.531l0.691,-0.691l0.691,0l0,-1.382Zm-91.251,221.215l-67.056,97.473c0.922,0.922 2.304,1.383 4.148,1.383c0.461,0 1.152,-0.231 2.074,-0.692l2.074,0c6.452,-0.921 10.715,-1.382 12.789,-1.382c2.074,0 4.032,-0.231 5.876,-0.691l10.369,0c0.461,0.46 2.074,0.691 4.839,0.691l5.531,0c1.382,0.461 3.456,0.806 6.221,1.037c2.765,0.23 7.605,1.037 14.518,2.419c3.226,0.922 8.065,2.535 14.517,4.839c9.678,3.687 19.126,8.296 28.343,13.826l0,-89.868l-44.243,-29.035Zm-50.465,-33.874l38.713,22.813l61.525,-88.486c-1.843,1.844 -3.917,2.765 -6.221,2.765l-3.457,0c-1.382,0.461 -2.534,0.692 -3.456,0.692l-4.148,0c-0.461,0.46 -1.613,0.691 -3.457,0.691l-6.221,0c1.382,0 -10.831,-1.613 -36.639,-4.839c-8.296,-2.305 -20.509,-6.452 -36.639,-12.444l0,78.808Z" style="fill:#fff;fill-rule:nonzero;"/><path d="M3289.2,94.017l6.913,0c6.912,2.765 11.291,5.991 13.134,9.678c3.687,7.374 5.761,12.904 6.222,16.591c0,0.461 0.23,1.152 0.691,2.074l0,11.061c-0.461,1.382 -0.691,2.995 -0.691,4.839l-2.074,8.295l0,2.074c-0.461,0.461 -0.691,0.922 -0.691,1.383l0,1.382c-0.461,0.461 -0.692,0.922 -0.692,1.383l-74.66,107.151l64.291,40.095l0,132.73c-19.817,8.295 -34.104,15.208 -42.861,20.739c-15.669,9.217 -28.573,17.973 -38.712,26.269c-0.461,0 -1.152,0.346 -2.074,1.037c-0.922,0.691 -1.728,1.152 -2.42,1.383c-0.691,0.23 -1.267,0.576 -1.728,1.037c-0.461,0.46 -1.037,0.921 -1.728,1.382c-0.692,0.461 -1.268,0.691 -1.728,0.691c-5.07,-2.765 -12.905,-6.452 -23.505,-11.06c-7.373,-2.766 -15.669,-5.3 -24.886,-7.605c-0.922,0 -2.766,-0.46 -5.531,-1.382c-0.921,0 -2.074,-0.231 -3.456,-0.692l-2.765,0c-2.766,0 -4.84,-0.23 -6.222,-0.691l-12.443,0c-1.383,0.461 -3.457,0.691 -6.222,0.691c-5.991,0.922 -16.591,3.687 -31.8,8.296c-3.687,1.383 -9.448,4.609 -17.282,9.678l-9.679,-6.913l82.265,-120.286l-62.908,-38.712l0,-118.212c22.121,-7.374 46.086,-23.965 71.895,-49.774l4.148,-4.148c0.46,-0.461 0.921,-1.037 1.382,-1.728c0.461,-0.691 0.692,-1.037 0.692,-1.037c0,0 0.691,-0.691 2.073,-2.074l71.204,25.578c1.844,1.844 3.226,2.765 4.148,2.765l2.074,0c0.461,0.461 1.152,0.692 2.074,0.692c4.148,1.382 6.567,2.189 7.258,2.419c0.692,0.231 2.189,0.346 4.494,0.346c4.148,0 6.913,-0.23 8.295,-0.691c4.148,-1.383 9.679,-3.226 16.592,-5.531c2.765,-2.304 5.299,-4.032 7.604,-5.184c2.304,-1.153 4.378,-5.416 6.222,-12.789l0,-13.135c-0.461,-0.922 -1.844,-1.844 -4.148,-2.765c0,-0.922 -1.383,-2.535 -4.148,-4.839c-0.461,-2.305 -1.498,-3.803 -3.111,-4.494c-1.613,-0.691 -2.419,-1.267 -2.419,-1.728l-2.074,-2.074l0,-0.691c-0.461,0 -0.692,-0.231 -0.692,-0.692l0,-1.382c-0.461,0 -0.921,-0.346 -1.382,-1.037c-0.461,-0.691 -0.692,-1.268 -0.692,-1.728l0,-2.766c0,-0.46 0.116,-1.152 0.346,-2.073c0.231,-0.922 1.498,-2.996 3.802,-6.222c1.383,-1.844 3.457,-3.687 6.222,-5.531l0.691,-0.691l0.692,0l0,-1.382Zm-91.252,221.215l-67.056,97.473c0.922,0.922 2.305,1.383 4.148,1.383c0.461,0 1.152,-0.231 2.074,-0.692l2.074,0c6.452,-0.921 10.715,-1.382 12.789,-1.382c2.074,0 4.032,-0.231 5.876,-0.691l10.369,0c0.461,0.46 2.074,0.691 4.839,0.691l5.531,0c1.382,0.461 3.456,0.806 6.221,1.037c2.766,0.23 7.605,1.037 14.518,2.419c3.226,0.922 8.065,2.535 14.517,4.839c9.678,3.687 19.126,8.296 28.343,13.826l0,-89.868l-44.243,-29.035Zm-50.465,-33.874l38.713,22.813l61.526,-88.486c-1.844,1.844 -3.918,2.765 -6.222,2.765l-3.457,0c-1.382,0.461 -2.534,0.692 -3.456,0.692l-4.148,0c-0.461,0.46 -1.613,0.691 -3.456,0.691l-6.222,0c1.383,0 -10.83,-1.613 -36.639,-4.839c-8.295,-2.305 -20.508,-6.452 -36.639,-12.444l0,78.808Z" style="fill:#fff;fill-rule:nonzero;"/><path d="M4064.83,31.8c-0.461,0.461 -0.691,1.843 -0.691,4.148l0,3.456c-0.461,1.383 -0.691,2.535 -0.691,3.456c-3.226,18.435 -13.365,36.409 -30.417,53.922c-15.67,15.669 -33.183,24.656 -52.539,26.96l-4.148,0c-0.461,0.461 -1.843,0.692 -4.148,0.692l-4.148,0c-0.46,0.461 -1.843,0.691 -4.147,0.691c-3.687,0.922 -6.452,1.383 -8.296,1.383l-10.369,0c-0.461,0 -1.153,-0.231 -2.074,-0.692l-5.531,0c-0.46,0 -0.921,-0.23 -1.382,-0.691l-1.383,0l0,298.641l2.765,1.382c15.67,1.844 32.261,-4.032 49.774,-17.628c17.513,-13.595 31.339,-27.075 41.478,-40.441l14.517,-18.665c5.53,-7.373 9.678,-13.134 12.443,-17.282l6.222,-1.383l0,9.678c0,39.174 -21.43,75.813 -64.291,109.917c-2.765,2.304 -7.143,5.761 -13.134,10.369c-13.365,10.6 -28.344,18.205 -44.935,22.813c-2.304,0.461 -13.826,3.226 -34.565,8.296c-20.739,2.304 -34.104,3.456 -40.095,3.456c-52.078,0 -99.316,-15.439 -141.716,-46.317c-44.243,-31.799 -70.052,-73.508 -77.426,-125.125l0,-2.074c-0.46,-0.46 -0.691,-1.382 -0.691,-2.765l0,-2.765c-0.461,-0.461 -0.691,-1.383 -0.691,-2.765l0,-2.074l-0.691,0l0,-2.765c-0.461,-0.461 -0.692,-1.152 -0.692,-2.074l0,-12.444c0,-1.382 0.231,-2.88 0.692,-4.493c0.46,-1.613 0.921,-2.65 1.382,-3.111l0,-4.148c0,-0.46 0.231,-1.037 0.691,-1.728c0.461,-0.691 0.692,-1.613 0.692,-2.765c0,-1.152 0.461,-3.572 1.382,-7.259c0,-1.843 0.461,-4.608 1.383,-8.295c17.513,-70.974 56.917,-125.356 118.212,-163.147c-0.922,0 -2.074,-0.23 -3.457,-0.691l-4.147,0c-0.922,0 -2.074,-0.23 -3.457,-0.691l-4.148,0c-2.765,0 -4.378,-0.231 -4.839,-0.692l-5.53,0c-1.844,0 -3.457,-0.23 -4.839,-0.691l-4.148,0c-49.773,0 -87.795,20.048 -114.064,60.143l-5.531,-2.765c1.383,0.461 1.844,0.691 1.383,0.691l-0.691,-0.691l0,-1.383l-0.692,-0.691l0,-0.691c0,-33.183 13.135,-60.604 39.404,-82.265c28.113,-23.043 57.609,-37.56 88.487,-43.552c1.843,-0.46 8.295,-1.382 19.356,-2.765c1.383,0 3.226,-0.23 5.53,-0.691l4.839,0c1.844,-0.461 5.07,-0.691 9.679,-0.691l8.295,0c0.461,0.461 1.613,0.691 3.457,0.691l5.53,0c1.383,0.461 2.535,0.691 3.457,0.691l6.221,0l181.12,29.726c0.922,0.922 1.498,1.498 1.729,1.728c0.23,0.231 0.806,0.346 1.728,0.346l4.839,0c0,0.461 0.461,0.691 1.383,0.691l11.06,0c1.383,0 2.881,-0.23 4.494,-0.691c1.613,-0.461 2.995,-0.807 4.148,-1.037c1.152,-0.23 3.11,-0.806 5.876,-1.728l6.221,-2.074c1.383,-0.922 3.342,-2.189 5.876,-3.802c2.535,-1.613 4.263,-2.881 5.185,-3.802c0.922,-0.922 1.844,-1.959 2.765,-3.111c0.922,-1.152 2.074,-2.881 3.457,-5.185l5.53,-8.987c0.922,-1.382 1.383,-2.074 1.383,-2.074l1.382,0l0.692,-0.691l0,-0.691l1.382,0l0.692,-0.692l1.382,0c0.461,0 0.922,-0.23 1.383,-0.691l1.382,0c0.461,0 0.922,-0.23 1.383,-0.691l0.691,0l0,13.826Zm-188.724,86.412l0,163.146c0,23.965 -7.835,45.857 -23.504,65.674c-15.67,19.817 -32.491,35.947 -50.465,48.391c-0.922,0.921 -1.844,1.382 -2.765,1.382c-1.383,1.383 -2.996,2.535 -4.839,3.457c0,0 -0.346,0.23 -1.037,0.691c-0.692,0.461 -1.268,0.922 -1.729,1.383c14.748,11.982 30.648,20.739 47.7,26.269c17.052,5.53 34.565,8.296 52.539,8.296l6.221,0c1.383,0 3.918,-0.461 7.605,-1.383c0.461,0 1.613,-0.23 3.456,-0.691l3.457,0c0.46,0 1.613,-0.231 3.456,-0.692l2.765,0l0,-310.393l-42.86,-5.53Zm-91.252,-17.282c-9.217,5.53 -15.899,11.521 -20.047,17.973c-9.218,13.365 -17.052,27.422 -23.504,42.17c-0.461,0.921 -2.535,5.76 -6.222,14.517c-2.765,6.913 -5.761,15.208 -8.987,24.887c-0.922,5.991 -2.765,14.747 -5.53,26.269c-0.461,3.687 -1.152,9.217 -2.074,16.591c-0.461,3.687 -0.692,9.217 -0.692,16.591c0,13.826 1.844,28.113 5.531,42.861c6.452,18.434 12.213,32.26 17.282,41.478c0.461,1.382 0.807,2.304 1.037,2.765c0.231,0.461 0.807,1.152 1.729,2.074l2.073,2.074c0,0.46 0.461,1.267 1.383,2.419c0.922,1.152 4.378,6.107 10.37,14.863c3.226,2.765 7.373,7.143 12.443,13.135c0.922,0.461 1.843,1.497 2.765,3.111c0.922,1.613 1.498,2.65 1.728,3.11c0.231,0.461 0.807,0.692 1.729,0.692c0.46,0 1.152,-0.461 2.073,-1.383l2.766,-2.765c0.461,-0.461 1.037,-0.922 1.728,-1.383c0.691,-0.461 1.152,-0.921 1.382,-1.382c0.231,-0.461 0.807,-1.152 1.729,-2.074l2.765,-2.765c0.461,-0.922 1.152,-1.844 2.074,-2.766c0,3.687 2.074,-2.765 6.222,-19.356c0,0 0.691,-2.765 2.073,-8.296c1.383,-3.686 2.074,-9.678 2.074,-17.973l0,-219.142l-0.691,0l0,-0.691c-0.461,0 -0.691,-0.231 -0.691,-0.691l0,-0.692l-0.692,0l0,-1.382c-0.921,0 -1.382,-0.461 -1.382,-1.383l0,-2.074l-12.444,-1.382Z" style="fill:#fff;fill-rule:nonzero;"/><path d="M4212.77,139.642l92.634,35.948l0,0.691l1.383,-1.383c0.921,-1.382 3.341,-3.686 7.258,-6.913c3.918,-3.226 7.259,-5.069 10.024,-5.53c0.461,0 1.152,-0.23 2.074,-0.691l2.074,0c0.461,0 1.152,-0.231 2.074,-0.691l2.074,0l2.765,-1.383c-1.844,3.226 -4.378,7.604 -7.604,13.135c-1.844,2.765 -4.033,7.028 -6.568,12.789c-2.534,5.76 -6.337,14.632 -11.406,26.615l-1.383,194.946c0.461,1.843 0.807,2.995 1.037,3.456c0.231,0.461 0.576,1.152 1.037,2.074l0,2.074c0,0.461 0.231,1.152 0.691,2.074l0,1.382c0.922,1.383 2.535,3.687 4.84,6.913c0.46,0.461 2.765,2.305 6.913,5.531c0,0.922 0.46,1.382 1.382,1.382l0.691,0c0,0.461 0.231,0.692 0.692,0.692l12.443,-8.987l10.37,8.987l-60.143,52.538l-4.148,0c-7.835,0 -14.517,-3.226 -20.048,-9.678c-6.913,-9.217 -11.291,-17.282 -13.134,-24.195c-1.383,-3.226 -2.881,-8.526 -4.494,-15.9c-1.613,-7.374 -2.419,-11.752 -2.419,-13.135l0,-4.839c-0.461,0 -0.692,-0.461 -0.692,-1.382l0,-3.457c-0.461,-0.461 -0.691,-1.152 -0.691,-2.074l0,-4.148l-91.251,78.808c-16.592,-9.217 -30.072,-22.006 -40.441,-38.367c-10.37,-16.36 -15.555,-33.528 -15.555,-51.501l0,-3.457c0,-0.461 0.231,-1.152 0.692,-2.074l0,-6.913c0,-0.461 0.23,-1.152 0.691,-2.074l0,-1.382c0,-0.461 1.843,-7.604 5.53,-21.43c10.139,-37.331 29.726,-67.748 58.761,-91.252l-33.874,-96.782c0.461,1.383 1.152,2.074 2.074,2.074l4.148,0c0,0.461 0.461,0.692 1.382,0.692l9.679,0c1.382,0 2.534,-0.116 3.456,-0.346c0.922,-0.23 1.844,-0.576 2.765,-1.037l1.383,0c9.678,-1.383 20.508,-4.839 32.491,-10.369c10.6,-5.07 20.048,-11.753 28.343,-20.048l0,-1.383Zm-37.33,140.334c-8.296,11.061 -13.941,21.2 -16.937,30.417c-2.995,9.217 -4.493,19.356 -4.493,30.417l0,9.678c0,3.687 0.461,6.913 1.382,9.678c3.687,24.426 14.518,49.083 32.491,73.969l7.605,-4.147l48.391,-42.861l0,-67.747l-68.439,-39.404Zm-26.961,-94.708l26.961,76.043l67.056,38.712l0,-80.19l-85.721,-34.565l-8.296,0Z" style="fill:#fff;fill-rule:nonzero;"/><path d="M4481.69,49.773l0,103.004l71.204,0l0,33.874l-72.586,0l0,217.067l32.491,27.652l24.886,-18.665l9.679,11.061l-73.969,64.291c-15.209,-14.287 -27.422,-24.657 -36.639,-31.109c-15.209,-10.6 -29.265,-18.665 -42.169,-24.195c5.991,-8.296 10.369,-16.591 13.134,-24.887c4.609,-14.287 6.913,-23.274 6.913,-26.961l0,-191.489l-25.578,-2.765l4.148,-12.444l88.486,-124.434Z" style="fill:#fff;fill-rule:nonzero;"/><path d="M4689.77,49.773l0,103.004l71.204,0l0,33.874l-72.587,0l0,217.067l32.491,27.652l24.887,-18.665l9.678,11.061l-73.969,64.291c-15.208,-14.287 -27.421,-24.657 -36.638,-31.109c-15.209,-10.6 -29.265,-18.665 -42.17,-24.195c5.992,-8.296 10.37,-16.591 13.135,-24.887c4.609,-14.287 6.913,-23.274 6.913,-26.961l0,-191.489l-25.578,-2.765l4.148,-12.444l88.486,-124.434Z" style="fill:#fff;fill-rule:nonzero;"/><path d="M4913.75,138.26c12.443,10.6 27.191,20.163 44.243,28.689c17.052,8.526 32.26,14.632 45.625,18.319l22.813,6.222l0,238.498l-104.386,55.303l-88.486,-45.625l-35.947,-9.678l14.517,-21.431l4.148,-22.813l0,-190.107c17.512,-3.226 34.795,-10.023 51.847,-20.393c17.052,-10.369 32.261,-22.237 45.626,-35.602l0,-1.382Zm-30.417,61.525l0,198.403l76.042,33.182l0,-199.094l-76.042,-32.491Z" style="fill:#fff;fill-rule:nonzero;"/><path d="M5195.8,138.26c12.444,10.6 27.191,20.163 44.243,28.689c17.052,8.526 32.261,14.632 45.626,18.319l22.813,6.222l0,238.498l-104.386,55.303l-88.486,-45.625l-35.948,-9.678l14.518,-21.431l4.147,-22.813l0,-190.107c17.513,-3.226 34.796,-10.023 51.848,-20.393c17.052,-10.369 32.26,-22.237 45.625,-35.602l0,-1.382Zm-30.417,61.525l0,198.403l76.043,33.182l0,-199.094l-76.043,-32.491Z" style="fill:#fff;fill-rule:nonzero;"/></g></svg>