<?xml version="1.0" encoding="UTF-8" standalone="no"?>
<!DOCTYPE svg PUBLIC "-//W3C//DTD SVG 1.1//EN" "http://www.w3.org/Graphics/SVG/1.1/DTD/svg11.dtd">
<svg width="100%" height="100%" viewBox="0 0 816 831" version="1.1" xmlns="http://www.w3.org/2000/svg" xmlns:xlink="http://www.w3.org/1999/xlink" xml:space="preserve" xmlns:serif="http://www.serif.com/" style="fill-rule:evenodd;clip-rule:evenodd;stroke-linecap:round;stroke-linejoin:round;stroke-miterlimit:1.5;">
    <g transform="matrix(1,0,0,1,-95.5162,-395.64)">
        <g transform="matrix(1.22055,-1.19558,1.19558,1.22055,-1113.97,875.424)">
            <path d="M702.638,298.246L702.638,373.841" style="fill:none;stroke:rgb(234,234,234);stroke-width:4.39px;"/>
        </g>
        <g transform="matrix(1.22055,-1.19558,1.19558,1.22055,-876.475,1118.08)">
            <path d="M702.638,298.246L702.638,373.841" style="fill:none;stroke:rgb(234,234,234);stroke-width:4.39px;"/>
        </g>
        <g transform="matrix(1.22055,-1.19558,1.19558,1.22055,-635.685,1363.9)">
            <path d="M702.638,298.246L702.638,373.841" style="fill:none;stroke:rgb(234,234,234);stroke-width:4.39px;"/>
        </g>
        <g transform="matrix(1.22055,-1.19558,1.19558,1.22055,-398.137,1606.43)">
            <path d="M702.638,298.246L702.638,373.841" style="fill:none;stroke:rgb(234,234,234);stroke-width:4.39px;"/>
        </g>
        <g transform="matrix(1.19558,1.22055,-1.22055,1.19558,-284.501,-813.851)">
            <path d="M702.638,298.246L702.638,373.841" style="fill:none;stroke:rgb(234,234,234);stroke-width:4.39px;"/>
        </g>
        <g transform="matrix(1.19558,1.22055,-1.22055,1.19558,-47.0013,-571.193)">
            <path d="M702.638,298.246L702.638,373.841" style="fill:none;stroke:rgb(234,234,234);stroke-width:4.39px;"/>
        </g>
        <g transform="matrix(1.19558,1.22055,-1.22055,1.19558,193.789,-325.373)">
            <path d="M702.638,298.246L702.638,373.841" style="fill:none;stroke:rgb(234,234,234);stroke-width:4.39px;"/>
        </g>
        <g transform="matrix(1.19558,1.22055,-1.22055,1.19558,431.337,-82.8473)">
            <path d="M702.638,298.246L702.638,373.841" style="fill:none;stroke:rgb(234,234,234);stroke-width:4.39px;"/>
        </g>
    </g>
</svg>
