<?xml version="1.0" encoding="UTF-8" standalone="no"?>
<!DOCTYPE svg PUBLIC "-//W3C//DTD SVG 1.1//EN" "http://www.w3.org/Graphics/SVG/1.1/DTD/svg11.dtd">
<svg width="100%" height="100%" viewBox="0 0 118 118" version="1.1" xmlns="http://www.w3.org/2000/svg" xmlns:xlink="http://www.w3.org/1999/xlink" xml:space="preserve" xmlns:serif="http://www.serif.com/" style="fill-rule:evenodd;clip-rule:evenodd;stroke-linecap:round;stroke-linejoin:round;stroke-miterlimit:1.5;">
    <g transform="matrix(1,0,0,1,-1435.16,-725.516)">
        <g transform="matrix(0.588105,0,0,0.588105,578.794,398.003)">
            <g transform="matrix(1.19615,0,0,1.13533,-305.261,-89.3921)">
                <path d="M1633.98,614.349C1633.98,603.779 1630,593.642 1622.9,586.168C1615.81,578.693 1606.19,574.494 1596.15,574.494L1515.37,574.494C1505.33,574.494 1495.71,578.693 1488.62,586.168C1481.52,593.642 1477.54,603.779 1477.54,614.349L1477.54,699.769C1477.54,710.339 1481.52,720.477 1488.62,727.951C1495.71,735.425 1505.33,739.624 1515.37,739.624L1596.15,739.624C1606.19,739.624 1615.81,735.425 1622.9,727.951C1630,720.477 1633.98,710.339 1633.98,699.769L1633.98,614.349Z" style="fill:none;stroke:white;stroke-width:10.21px;"/>
            </g>
            <g transform="matrix(0.891714,0,0,0.891714,131.97,23.599)">
                <circle cx="1597.5" cy="710.27" r="50.744" style="fill:none;stroke:white;stroke-width:13.35px;"/>
            </g>
            <g transform="matrix(1,0,0,1,-5.72574,-2)">
                <circle cx="1617.11" cy="604.262" r="5.158" style="fill:white;stroke:white;stroke-width:11.9px;"/>
            </g>
        </g>
    </g>
</svg>
