<?xml version="1.0" encoding="UTF-8" standalone="no"?><!DOCTYPE svg PUBLIC "-//W3C//DTD SVG 1.1//EN" "http://www.w3.org/Graphics/SVG/1.1/DTD/svg11.dtd"><svg width="100%" height="100%" viewBox="0 0 3318 1843" version="1.1" xmlns="http://www.w3.org/2000/svg" xmlns:xlink="http://www.w3.org/1999/xlink" xml:space="preserve" xmlns:serif="http://www.serif.com/" style="fill-rule:evenodd;clip-rule:evenodd;stroke-linejoin:round;stroke-miterlimit:2;"><rect x="0" y="0" width="3317.49" height="1842.9" style="fill:#0d1b2a;"/><clipPath id="_clip1"><rect x="0" y="0" width="3317.49" height="1842.9"/></clipPath><g clip-path="url(#_clip1)"><g id="Layer2"><g><g><g transform="matrix(0.965926,-0.258819,0.258819,0.965926,1205,-1994.46)"><text x="-2194.49px" y="2841.22px" style="font-family:'BeVietnam-Regular', 'Be Vietnam';font-size:222.233px;fill:url(#_Linear2);">b<tspan x="-2062.39px -1929.87px -1852.71px -1720.61px -1588.09px -1529.74px -1475.66px " y="2841.22px 2841.22px 2841.22px 2841.22px 2841.22px 2841.22px 2841.22px ">arba.js</tspan></text></g><g transform="matrix(0.965926,-0.258819,0.258819,0.965926,1298.12,-1769.66)"><text x="-1294.17px" y="2599.98px" style="font-family:'BeVietnam-Regular', 'Be Vietnam';font-size:222.233px;fill:url(#_Linear3);">b<tspan x="-1162.07px -1029.55px -952.386px -820.29px -687.768px -629.415px -575.337px " y="2599.98px 2599.98px 2599.98px 2599.98px 2599.98px 2599.98px 2599.98px ">arba.js</tspan></text></g><g transform="matrix(0.965926,-0.258819,0.258819,0.965926,1390.04,-1547.74)"><text x="-405.389px" y="2361.83px" style="font-family:'BeVietnam-Regular', 'Be Vietnam';font-size:222.233px;fill:url(#_Linear4);">b<tspan x="-273.293px -140.77px -63.608px 68.487px 201.01px 259.363px 313.441px " y="2361.83px 2361.83px 2361.83px 2361.83px 2361.83px 2361.83px 2361.83px ">arba.js</tspan></text></g><g transform="matrix(0.965926,-0.258819,0.258819,0.965926,1483.15,-1322.94)"><text x="494.935px" y="2120.59px" style="font-family:'BeVietnam-Regular', 'Be Vietnam';font-size:222.233px;fill:url(#_Linear5);">b<tspan x="627.03px 759.553px 836.715px 968.811px 1101.33px 1159.69px 1213.76px " y="2120.59px 2120.59px 2120.59px 2120.59px 2120.59px 2120.59px 2120.59px ">arba.js</tspan></text></g></g><g><g transform="matrix(0.965926,-0.258819,0.258819,0.965926,1141.66,-1968.22)"><text x="-2126.52px" y="3094.9px" style="font-family:'BeVietnam-Regular', 'Be Vietnam';font-size:222.233px;fill:url(#_Linear6);">b<tspan x="-1994.42px -1861.9px -1784.74px -1652.64px -1520.12px -1461.77px -1407.69px " y="3094.9px 3094.9px 3094.9px 3094.9px 3094.9px 3094.9px 3094.9px ">arba.js</tspan></text></g><g transform="matrix(0.965926,-0.258819,0.258819,0.965926,1234.77,-1743.42)"><text x="-1226.19px" y="2853.66px" style="font-family:'BeVietnam-Regular', 'Be Vietnam';font-size:222.233px;fill:url(#_Linear7);">b<tspan x="-1094.1px -961.575px -884.413px -752.317px -619.794px -561.442px -507.364px " y="2853.66px 2853.66px 2853.66px 2853.66px 2853.66px 2853.66px 2853.66px ">arba.js</tspan></text></g><g transform="matrix(0.965926,-0.258819,0.258819,0.965926,1326.7,-1521.51)"><text x="-337.415px" y="2615.51px" style="font-family:'BeVietnam-Regular', 'Be Vietnam';font-size:222.233px;fill:url(#_Linear8);">b<tspan x="-205.32px -72.797px 4.365px 136.461px 268.983px 327.336px 381.414px " y="2615.51px 2615.51px 2615.51px 2615.51px 2615.51px 2615.51px 2615.51px ">arba.js</tspan></text></g><g transform="matrix(0.965926,-0.258819,0.258819,0.965926,1419.81,-1296.7)"><text x="562.908px" y="2374.27px" style="font-family:'BeVietnam-Regular', 'Be Vietnam';font-size:222.233px;fill:url(#_Linear9);">b<tspan x="695.003px 827.526px 904.688px 1036.78px 1169.31px 1227.66px 1281.74px " y="2374.27px 2374.27px 2374.27px 2374.27px 2374.27px 2374.27px 2374.27px ">arba.js</tspan></text></g></g><g><g transform="matrix(0.965926,-0.258819,0.258819,0.965926,1078.51,-1942.07)"><text x="-2058.75px" y="3347.8px" style="font-family:'BeVietnam-Regular', 'Be Vietnam';font-size:222.233px;fill:url(#_Linear10);">b<tspan x="-1926.66px -1794.13px -1716.97px -1584.88px -1452.35px -1394px -1339.92px " y="3347.8px 3347.8px 3347.8px 3347.8px 3347.8px 3347.8px 3347.8px ">arba.js</tspan></text></g><g transform="matrix(0.965926,-0.258819,0.258819,0.965926,1171.63,-1717.27)"><text x="-1158.43px" y="3106.56px" style="font-family:'BeVietnam-Regular', 'Be Vietnam';font-size:222.233px;fill:url(#_Linear11);">b<tspan x="-1026.33px -893.811px -816.649px -684.553px -552.03px -493.678px -439.6px " y="3106.56px 3106.56px 3106.56px 3106.56px 3106.56px 3106.56px 3106.56px ">arba.js</tspan></text></g><g transform="matrix(0.965926,-0.258819,0.258819,0.965926,1263.55,-1495.35)"><text x="-269.651px" y="2868.41px" style="font-family:'BeVietnam-Regular', 'Be Vietnam';font-size:222.233px;fill:url(#_Linear12);">b<tspan x="-137.556px -5.033px 72.129px 204.225px 336.748px 395.1px 449.178px " y="2868.41px 2868.41px 2868.41px 2868.41px 2868.41px 2868.41px 2868.41px ">arba.js</tspan></text></g><g transform="matrix(0.965926,-0.258819,0.258819,0.965926,1356.66,-1270.55)"><text x="630.672px" y="2627.17px" style="font-family:'BeVietnam-Regular', 'Be Vietnam';font-size:222.233px;fill:url(#_Linear13);">b<tspan x="762.767px 895.29px 972.453px 1104.55px 1237.07px 1295.42px 1349.5px " y="2627.17px 2627.17px 2627.17px 2627.17px 2627.17px 2627.17px 2627.17px ">arba.js</tspan></text></g></g><g><g transform="matrix(0.965926,-0.258819,0.258819,0.965926,1015.21,-1915.85)"><text x="-1990.82px" y="3601.34px" style="font-family:'BeVietnam-Regular', 'Be Vietnam';font-size:222.233px;fill:url(#_Linear14);">b<tspan x="-1858.72px -1726.2px -1649.04px -1516.94px -1384.42px -1326.06px -1271.99px " y="3601.34px 3601.34px 3601.34px 3601.34px 3601.34px 3601.34px 3601.34px ">arba.js</tspan></text></g><g transform="matrix(0.965926,-0.258819,0.258819,0.965926,1108.32,-1691.04)"><text x="-1090.49px" y="3360.1px" style="font-family:'BeVietnam-Regular', 'Be Vietnam';font-size:222.233px;fill:url(#_Linear15);">b<tspan x="-958.397px -825.874px -748.712px -616.616px -484.094px -425.741px -371.663px " y="3360.1px 3360.1px 3360.1px 3360.1px 3360.1px 3360.1px 3360.1px ">arba.js</tspan></text></g><g transform="matrix(0.965926,-0.258819,0.258819,0.965926,1200.24,-1469.13)"><text x="-201.715px" y="3121.95px" style="font-family:'BeVietnam-Regular', 'Be Vietnam';font-size:222.233px;fill:url(#_Linear16);">b<tspan x="-69.619px 62.904px 140.066px 272.161px 404.684px 463.037px 517.115px " y="3121.95px 3121.95px 3121.95px 3121.95px 3121.95px 3121.95px 3121.95px ">arba.js</tspan></text></g><g transform="matrix(0.965926,-0.258819,0.258819,0.965926,1293.36,-1244.33)"><text x="698.609px" y="2880.71px" style="font-family:'BeVietnam-Regular', 'Be Vietnam';font-size:222.233px;fill:url(#_Linear17);">b<tspan x="830.704px 963.227px 1040.39px 1172.49px 1305.01px 1363.36px 1417.44px " y="2880.71px 2880.71px 2880.71px 2880.71px 2880.71px 2880.71px 2880.71px ">arba.js</tspan></text></g></g><g><g transform="matrix(0.965926,-0.258819,0.258819,0.965926,1045.81,-1665.15)"><text x="-1023.41px" y="3610.47px" style="font-family:'BeVietnam-Regular', 'Be Vietnam';font-size:222.233px;fill:url(#_Linear18);">b<tspan x="-891.31px -758.788px -681.625px -549.53px -417.007px -358.654px -304.576px " y="3610.47px 3610.47px 3610.47px 3610.47px 3610.47px 3610.47px 3610.47px ">arba.js</tspan></text></g><g transform="matrix(0.965926,-0.258819,0.258819,0.965926,1137.73,-1443.23)"><text x="-134.628px" y="3372.32px" style="font-family:'BeVietnam-Regular', 'Be Vietnam';font-size:222.233px;fill:url(#_Linear19);">b<tspan x="-2.533px 129.99px 207.153px 339.248px 471.771px 530.124px 584.202px " y="3372.32px 3372.32px 3372.32px 3372.32px 3372.32px 3372.32px 3372.32px ">arba.js</tspan></text></g><g transform="matrix(0.965926,-0.258819,0.258819,0.965926,1230.84,-1218.43)"><text x="765.695px" y="3131.08px" style="font-family:'BeVietnam-Regular', 'Be Vietnam';font-size:222.233px;fill:url(#_Linear20);">b<tspan x="897.791px 1030.31px 1107.48px 1239.57px 1372.09px 1430.45px 1484.53px " y="3131.08px 3131.08px 3131.08px 3131.08px 3131.08px 3131.08px 3131.08px ">arba.js</tspan></text></g></g><g><g transform="matrix(0.965926,-0.258819,0.258819,0.965926,1073.25,-1416.53)"><text x="-65.438px" y="3630.54px" style="font-family:'BeVietnam-Regular', 'Be Vietnam';font-size:222.233px;fill:url(#_Linear21);">b<tspan x="66.657px 199.18px 276.342px 408.438px 540.961px 599.313px 653.391px " y="3630.54px 3630.54px 3630.54px 3630.54px 3630.54px 3630.54px 3630.54px ">arba.js</tspan></text></g><g transform="matrix(0.965926,-0.258819,0.258819,0.965926,1166.37,-1191.73)"><text x="834.885px" y="3389.3px" style="font-family:'BeVietnam-Regular', 'Be Vietnam';font-size:222.233px;fill:url(#_Linear22);">b<tspan x="966.98px 1099.5px 1176.67px 1308.76px 1441.28px 1499.64px 1553.72px " y="3389.3px 3389.3px 3389.3px 3389.3px 3389.3px 3389.3px 3389.3px ">arba.js</tspan></text></g></g><g><g transform="matrix(0.965926,-0.258819,0.258819,0.965926,1270.16,-2021.45)"><text x="-2264.42px" y="2580.24px" style="font-family:'BeVietnam-Regular', 'Be Vietnam';font-size:222.233px;fill:url(#_Linear23);">b<tspan x="-2132.32px -1999.8px -1922.64px -1790.54px -1658.02px -1599.67px -1545.59px " y="2580.24px 2580.24px 2580.24px 2580.24px 2580.24px 2580.24px 2580.24px ">arba.js</tspan></text></g><g transform="matrix(0.965926,-0.258819,0.258819,0.965926,1363.28,-1796.65)"><text x="-1364.1px" y="2339px" style="font-family:'BeVietnam-Regular', 'Be Vietnam';font-size:222.233px;fill:url(#_Linear24);">b<tspan x="-1232px -1099.48px -1022.31px -890.219px -757.696px -699.343px -645.266px " y="2339px 2339px 2339px 2339px 2339px 2339px 2339px ">arba.js</tspan></text></g><g transform="matrix(0.965926,-0.258819,0.258819,0.965926,1455.2,-1574.73)"><text x="-475.317px" y="2100.85px" style="font-family:'BeVietnam-Regular', 'Be Vietnam';font-size:222.233px;fill:url(#_Linear25);">b<tspan x="-343.222px -210.699px -133.537px -1.441px 131.082px 189.434px 243.512px " y="2100.85px 2100.85px 2100.85px 2100.85px 2100.85px 2100.85px 2100.85px ">arba.js</tspan></text></g><g transform="matrix(0.965926,-0.258819,0.258819,0.965926,1548.32,-1349.93)"><text x="425.006px" y="1859.61px" style="font-family:'BeVietnam-Regular', 'Be Vietnam';font-size:222.233px;fill:url(#_Linear26);">b<tspan x="557.101px 689.624px 766.787px 898.882px 1031.4px 1089.76px 1143.84px " y="1859.61px 1859.61px 1859.61px 1859.61px 1859.61px 1859.61px 1859.61px ">arba.js</tspan></text></g></g><g><g transform="matrix(0.965926,-0.258819,0.258819,0.965926,1336.12,-2048.77)"><text x="-2335.2px" y="2316.1px" style="font-family:'BeVietnam-Regular', 'Be Vietnam';font-size:222.233px;fill:url(#_Linear27);">b<tspan x="-2203.1px -2070.58px -1993.41px -1861.32px -1728.8px -1670.44px -1616.37px " y="2316.1px 2316.1px 2316.1px 2316.1px 2316.1px 2316.1px 2316.1px ">arba.js</tspan></text></g><g transform="matrix(0.965926,-0.258819,0.258819,0.965926,1429.23,-1823.97)"><text x="-1434.87px" y="2074.86px" style="font-family:'BeVietnam-Regular', 'Be Vietnam';font-size:222.233px;fill:url(#_Linear28);">b<tspan x="-1302.78px -1170.25px -1093.09px -960.996px -828.474px -770.121px -716.043px " y="2074.86px 2074.86px 2074.86px 2074.86px 2074.86px 2074.86px 2074.86px ">arba.js</tspan></text></g><g transform="matrix(0.965926,-0.258819,0.258819,0.965926,1521.15,-1602.05)"><text x="-546.095px" y="1836.71px" style="font-family:'BeVietnam-Regular', 'Be Vietnam';font-size:222.233px;fill:url(#_Linear29);">b<tspan x="-413.999px -281.476px -204.314px -72.219px 60.304px 118.657px 172.735px " y="1836.71px 1836.71px 1836.71px 1836.71px 1836.71px 1836.71px 1836.71px ">arba.js</tspan></text></g><g transform="matrix(0.965926,-0.258819,0.258819,0.965926,1614.27,-1377.25)"><text x="354.229px" y="1595.47px" style="font-family:'BeVietnam-Regular', 'Be Vietnam';font-size:222.233px;fill:url(#_Linear30);">b<tspan x="486.324px 618.847px 696.009px 828.105px 960.627px 1018.98px 1073.06px " y="1595.47px 1595.47px 1595.47px 1595.47px 1595.47px 1595.47px 1595.47px ">arba.js</tspan></text></g></g><g><g transform="matrix(0.965926,-0.258819,0.258819,0.965926,1399.78,-2075.14)"><text x="-2403.51px" y="2061.13px" style="font-family:'BeVietnam-Regular', 'Be Vietnam';font-size:222.233px;fill:url(#_Linear31);">b<tspan x="-2271.42px -2138.9px -2061.73px -1929.64px -1797.12px -1738.76px -1684.68px " y="2061.13px 2061.13px 2061.13px 2061.13px 2061.13px 2061.13px 2061.13px ">arba.js</tspan></text></g><g transform="matrix(0.965926,-0.258819,0.258819,0.965926,1492.9,-1850.34)"><text x="-1503.19px" y="1819.89px" style="font-family:'BeVietnam-Regular', 'Be Vietnam';font-size:222.233px;fill:url(#_Linear32);">b<tspan x="-1371.1px -1238.57px -1161.41px -1029.32px -896.792px -838.44px -784.362px " y="1819.89px 1819.89px 1819.89px 1819.89px 1819.89px 1819.89px 1819.89px ">arba.js</tspan></text></g><g transform="matrix(0.965926,-0.258819,0.258819,0.965926,1584.82,-1628.42)"><text x="-614.413px" y="1581.74px" style="font-family:'BeVietnam-Regular', 'Be Vietnam';font-size:222.233px;fill:url(#_Linear33);">b<tspan x="-482.318px -349.795px -272.633px -140.537px -8.015px 50.338px 104.416px " y="1581.74px 1581.74px 1581.74px 1581.74px 1581.74px 1581.74px 1581.74px ">arba.js</tspan></text></g></g><g><g transform="matrix(0.965926,-0.258819,0.258819,0.965926,1461.33,-2100.64)"><text x="-2469.57px" y="1814.61px" style="font-family:'BeVietnam-Regular', 'Be Vietnam';font-size:222.233px;fill:url(#_Linear34);">b<tspan x="-2337.47px -2204.95px -2127.79px -1995.69px -1863.17px -1804.82px -1750.74px " y="1814.61px 1814.61px 1814.61px 1814.61px 1814.61px 1814.61px 1814.61px ">arba.js</tspan></text></g><g transform="matrix(0.965926,-0.258819,0.258819,0.965926,1554.45,-1875.84)"><text x="-1569.25px" y="1573.37px" style="font-family:'BeVietnam-Regular', 'Be Vietnam';font-size:222.233px;fill:url(#_Linear35);">b<tspan x="-1437.15px -1304.63px -1227.46px -1095.37px -962.847px -904.494px -850.416px " y="1573.37px 1573.37px 1573.37px 1573.37px 1573.37px 1573.37px 1573.37px ">arba.js</tspan></text></g></g></g><rect x="-303.147" y="-262.389" width="2298.1" height="2470.36" style="fill:#e7ff93;"/><path d="M2010.64,2379.94l61.421,-449.166l21.749,-194.959l-66.447,-214.132l22.263,-146.305l-29.233,-166.439l-26.883,-189.214l37.916,-202.861l63.575,-164.234l-36.287,-187.794l16.725,-184.071l-52.563,-174.8l29.998,-238.92l-334.702,-56.918l30.784,2440.32l261.684,129.497Z" style="fill:#e7ff93;"/></g></g><defs><linearGradient id="_Linear2" x1="0" y1="0" x2="1" y2="0" gradientUnits="userSpaceOnUse" gradientTransform="matrix(17666.4,0,0,15249.2,-6295.83,1033.89)"><stop offset="0" style="stop-color:#c7ff00;stop-opacity:1"/><stop offset="0.2" style="stop-color:#deff68;stop-opacity:1"/><stop offset="0.41" style="stop-color:#f5ffd0;stop-opacity:1"/><stop offset="1" style="stop-color:#fff;stop-opacity:1"/></linearGradient><linearGradient id="_Linear3" x1="0" y1="0" x2="1" y2="0" gradientUnits="userSpaceOnUse" gradientTransform="matrix(17666.4,0,0,15249.2,-5395.5,792.646)"><stop offset="0" style="stop-color:#c7ff00;stop-opacity:1"/><stop offset="0.2" style="stop-color:#deff68;stop-opacity:1"/><stop offset="0.41" style="stop-color:#f5ffd0;stop-opacity:1"/><stop offset="1" style="stop-color:#fff;stop-opacity:1"/></linearGradient><linearGradient id="_Linear4" x1="0" y1="0" x2="1" y2="0" gradientUnits="userSpaceOnUse" gradientTransform="matrix(17666.4,0,0,15249.2,-4506.73,554.499)"><stop offset="0" style="stop-color:#c7ff00;stop-opacity:1"/><stop offset="0.2" style="stop-color:#deff68;stop-opacity:1"/><stop offset="0.41" style="stop-color:#f5ffd0;stop-opacity:1"/><stop offset="1" style="stop-color:#fff;stop-opacity:1"/></linearGradient><linearGradient id="_Linear5" x1="0" y1="0" x2="1" y2="0" gradientUnits="userSpaceOnUse" gradientTransform="matrix(17666.4,0,0,15249.2,-3606.4,313.258)"><stop offset="0" style="stop-color:#c7ff00;stop-opacity:1"/><stop offset="0.2" style="stop-color:#deff68;stop-opacity:1"/><stop offset="0.41" style="stop-color:#f5ffd0;stop-opacity:1"/><stop offset="1" style="stop-color:#fff;stop-opacity:1"/></linearGradient><linearGradient id="_Linear6" x1="0" y1="0" x2="1" y2="0" gradientUnits="userSpaceOnUse" gradientTransform="matrix(17666.4,0,0,15249.2,-6227.85,1287.57)"><stop offset="0" style="stop-color:#c7ff00;stop-opacity:1"/><stop offset="0.2" style="stop-color:#deff68;stop-opacity:1"/><stop offset="0.41" style="stop-color:#f5ffd0;stop-opacity:1"/><stop offset="1" style="stop-color:#fff;stop-opacity:1"/></linearGradient><linearGradient id="_Linear7" x1="0" y1="0" x2="1" y2="0" gradientUnits="userSpaceOnUse" gradientTransform="matrix(17666.4,0,0,15249.2,-5327.53,1046.33)"><stop offset="0" style="stop-color:#c7ff00;stop-opacity:1"/><stop offset="0.2" style="stop-color:#deff68;stop-opacity:1"/><stop offset="0.41" style="stop-color:#f5ffd0;stop-opacity:1"/><stop offset="1" style="stop-color:#fff;stop-opacity:1"/></linearGradient><linearGradient id="_Linear8" x1="0" y1="0" x2="1" y2="0" gradientUnits="userSpaceOnUse" gradientTransform="matrix(17666.4,0,0,15249.2,-4438.75,808.178)"><stop offset="0" style="stop-color:#c7ff00;stop-opacity:1"/><stop offset="0.2" style="stop-color:#deff68;stop-opacity:1"/><stop offset="0.41" style="stop-color:#f5ffd0;stop-opacity:1"/><stop offset="1" style="stop-color:#fff;stop-opacity:1"/></linearGradient><linearGradient id="_Linear9" x1="0" y1="0" x2="1" y2="0" gradientUnits="userSpaceOnUse" gradientTransform="matrix(17666.4,0,0,15249.2,-3538.43,566.938)"><stop offset="0" style="stop-color:#c7ff00;stop-opacity:1"/><stop offset="0.2" style="stop-color:#deff68;stop-opacity:1"/><stop offset="0.41" style="stop-color:#f5ffd0;stop-opacity:1"/><stop offset="1" style="stop-color:#fff;stop-opacity:1"/></linearGradient><linearGradient id="_Linear10" x1="0" y1="0" x2="1" y2="0" gradientUnits="userSpaceOnUse" gradientTransform="matrix(17666.4,0,0,15249.2,-6160.09,1540.47)"><stop offset="0" style="stop-color:#c7ff00;stop-opacity:1"/><stop offset="0.2" style="stop-color:#deff68;stop-opacity:1"/><stop offset="0.41" style="stop-color:#f5ffd0;stop-opacity:1"/><stop offset="1" style="stop-color:#fff;stop-opacity:1"/></linearGradient><linearGradient id="_Linear11" x1="0" y1="0" x2="1" y2="0" gradientUnits="userSpaceOnUse" gradientTransform="matrix(17666.4,0,0,15249.2,-5259.77,1299.22)"><stop offset="0" style="stop-color:#c7ff00;stop-opacity:1"/><stop offset="0.2" style="stop-color:#deff68;stop-opacity:1"/><stop offset="0.41" style="stop-color:#f5ffd0;stop-opacity:1"/><stop offset="1" style="stop-color:#fff;stop-opacity:1"/></linearGradient><linearGradient id="_Linear12" x1="0" y1="0" x2="1" y2="0" gradientUnits="userSpaceOnUse" gradientTransform="matrix(17666.4,0,0,15249.2,-4370.99,1061.08)"><stop offset="0" style="stop-color:#c7ff00;stop-opacity:1"/><stop offset="0.2" style="stop-color:#deff68;stop-opacity:1"/><stop offset="0.41" style="stop-color:#f5ffd0;stop-opacity:1"/><stop offset="1" style="stop-color:#fff;stop-opacity:1"/></linearGradient><linearGradient id="_Linear13" x1="0" y1="0" x2="1" y2="0" gradientUnits="userSpaceOnUse" gradientTransform="matrix(17666.4,0,0,15249.2,-3470.66,819.837)"><stop offset="0" style="stop-color:#c7ff00;stop-opacity:1"/><stop offset="0.2" style="stop-color:#deff68;stop-opacity:1"/><stop offset="0.41" style="stop-color:#f5ffd0;stop-opacity:1"/><stop offset="1" style="stop-color:#fff;stop-opacity:1"/></linearGradient><linearGradient id="_Linear14" x1="0" y1="0" x2="1" y2="0" gradientUnits="userSpaceOnUse" gradientTransform="matrix(17666.4,0,0,15249.2,-6092.15,1794.01)"><stop offset="0" style="stop-color:#c7ff00;stop-opacity:1"/><stop offset="0.2" style="stop-color:#deff68;stop-opacity:1"/><stop offset="0.41" style="stop-color:#f5ffd0;stop-opacity:1"/><stop offset="1" style="stop-color:#fff;stop-opacity:1"/></linearGradient><linearGradient id="_Linear15" x1="0" y1="0" x2="1" y2="0" gradientUnits="userSpaceOnUse" gradientTransform="matrix(17666.4,0,0,15249.2,-5191.83,1552.77)"><stop offset="0" style="stop-color:#c7ff00;stop-opacity:1"/><stop offset="0.2" style="stop-color:#deff68;stop-opacity:1"/><stop offset="0.41" style="stop-color:#f5ffd0;stop-opacity:1"/><stop offset="1" style="stop-color:#fff;stop-opacity:1"/></linearGradient><linearGradient id="_Linear16" x1="0" y1="0" x2="1" y2="0" gradientUnits="userSpaceOnUse" gradientTransform="matrix(17666.4,0,0,15249.2,-4303.05,1314.62)"><stop offset="0" style="stop-color:#c7ff00;stop-opacity:1"/><stop offset="0.2" style="stop-color:#deff68;stop-opacity:1"/><stop offset="0.41" style="stop-color:#f5ffd0;stop-opacity:1"/><stop offset="1" style="stop-color:#fff;stop-opacity:1"/></linearGradient><linearGradient id="_Linear17" x1="0" y1="0" x2="1" y2="0" gradientUnits="userSpaceOnUse" gradientTransform="matrix(17666.4,0,0,15249.2,-3402.73,1073.38)"><stop offset="0" style="stop-color:#c7ff00;stop-opacity:1"/><stop offset="0.2" style="stop-color:#deff68;stop-opacity:1"/><stop offset="0.41" style="stop-color:#f5ffd0;stop-opacity:1"/><stop offset="1" style="stop-color:#fff;stop-opacity:1"/></linearGradient><linearGradient id="_Linear18" x1="0" y1="0" x2="1" y2="0" gradientUnits="userSpaceOnUse" gradientTransform="matrix(17666.4,0,0,15249.2,-5124.74,1803.14)"><stop offset="0" style="stop-color:#c7ff00;stop-opacity:1"/><stop offset="0.2" style="stop-color:#deff68;stop-opacity:1"/><stop offset="0.41" style="stop-color:#f5ffd0;stop-opacity:1"/><stop offset="1" style="stop-color:#fff;stop-opacity:1"/></linearGradient><linearGradient id="_Linear19" x1="0" y1="0" x2="1" y2="0" gradientUnits="userSpaceOnUse" gradientTransform="matrix(17666.4,0,0,15249.2,-4235.96,1564.99)"><stop offset="0" style="stop-color:#c7ff00;stop-opacity:1"/><stop offset="0.2" style="stop-color:#deff68;stop-opacity:1"/><stop offset="0.41" style="stop-color:#f5ffd0;stop-opacity:1"/><stop offset="1" style="stop-color:#fff;stop-opacity:1"/></linearGradient><linearGradient id="_Linear20" x1="0" y1="0" x2="1" y2="0" gradientUnits="userSpaceOnUse" gradientTransform="matrix(17666.4,0,0,15249.2,-3335.64,1323.75)"><stop offset="0" style="stop-color:#c7ff00;stop-opacity:1"/><stop offset="0.2" style="stop-color:#deff68;stop-opacity:1"/><stop offset="0.41" style="stop-color:#f5ffd0;stop-opacity:1"/><stop offset="1" style="stop-color:#fff;stop-opacity:1"/></linearGradient><linearGradient id="_Linear21" x1="0" y1="0" x2="1" y2="0" gradientUnits="userSpaceOnUse" gradientTransform="matrix(17666.4,0,0,15249.2,-4166.77,1823.21)"><stop offset="0" style="stop-color:#c7ff00;stop-opacity:1"/><stop offset="0.2" style="stop-color:#deff68;stop-opacity:1"/><stop offset="0.41" style="stop-color:#f5ffd0;stop-opacity:1"/><stop offset="1" style="stop-color:#fff;stop-opacity:1"/></linearGradient><linearGradient id="_Linear22" x1="0" y1="0" x2="1" y2="0" gradientUnits="userSpaceOnUse" gradientTransform="matrix(17666.4,0,0,15249.2,-3266.45,1581.97)"><stop offset="0" style="stop-color:#c7ff00;stop-opacity:1"/><stop offset="0.2" style="stop-color:#deff68;stop-opacity:1"/><stop offset="0.41" style="stop-color:#f5ffd0;stop-opacity:1"/><stop offset="1" style="stop-color:#fff;stop-opacity:1"/></linearGradient><linearGradient id="_Linear23" x1="0" y1="0" x2="1" y2="0" gradientUnits="userSpaceOnUse" gradientTransform="matrix(17666.4,0,0,15249.2,-6365.75,772.91)"><stop offset="0" style="stop-color:#c7ff00;stop-opacity:1"/><stop offset="0.2" style="stop-color:#deff68;stop-opacity:1"/><stop offset="0.41" style="stop-color:#f5ffd0;stop-opacity:1"/><stop offset="1" style="stop-color:#fff;stop-opacity:1"/></linearGradient><linearGradient id="_Linear24" x1="0" y1="0" x2="1" y2="0" gradientUnits="userSpaceOnUse" gradientTransform="matrix(17666.4,0,0,15249.2,-5465.43,531.669)"><stop offset="0" style="stop-color:#c7ff00;stop-opacity:1"/><stop offset="0.2" style="stop-color:#deff68;stop-opacity:1"/><stop offset="0.41" style="stop-color:#f5ffd0;stop-opacity:1"/><stop offset="1" style="stop-color:#fff;stop-opacity:1"/></linearGradient><linearGradient id="_Linear25" x1="0" y1="0" x2="1" y2="0" gradientUnits="userSpaceOnUse" gradientTransform="matrix(17666.4,0,0,15249.2,-4576.65,293.522)"><stop offset="0" style="stop-color:#c7ff00;stop-opacity:1"/><stop offset="0.2" style="stop-color:#deff68;stop-opacity:1"/><stop offset="0.41" style="stop-color:#f5ffd0;stop-opacity:1"/><stop offset="1" style="stop-color:#fff;stop-opacity:1"/></linearGradient><linearGradient id="_Linear26" x1="0" y1="0" x2="1" y2="0" gradientUnits="userSpaceOnUse" gradientTransform="matrix(17666.4,0,0,15249.2,-3676.33,52.2806)"><stop offset="0" style="stop-color:#c7ff00;stop-opacity:1"/><stop offset="0.2" style="stop-color:#deff68;stop-opacity:1"/><stop offset="0.41" style="stop-color:#f5ffd0;stop-opacity:1"/><stop offset="1" style="stop-color:#fff;stop-opacity:1"/></linearGradient><linearGradient id="_Linear27" x1="0" y1="0" x2="1" y2="0" gradientUnits="userSpaceOnUse" gradientTransform="matrix(17666.4,0,0,15249.2,-6436.53,508.765)"><stop offset="0" style="stop-color:#c7ff00;stop-opacity:1"/><stop offset="0.2" style="stop-color:#deff68;stop-opacity:1"/><stop offset="0.41" style="stop-color:#f5ffd0;stop-opacity:1"/><stop offset="1" style="stop-color:#fff;stop-opacity:1"/></linearGradient><linearGradient id="_Linear28" x1="0" y1="0" x2="1" y2="0" gradientUnits="userSpaceOnUse" gradientTransform="matrix(17666.4,0,0,15249.2,-5536.21,267.524)"><stop offset="0" style="stop-color:#c7ff00;stop-opacity:1"/><stop offset="0.2" style="stop-color:#deff68;stop-opacity:1"/><stop offset="0.41" style="stop-color:#f5ffd0;stop-opacity:1"/><stop offset="1" style="stop-color:#fff;stop-opacity:1"/></linearGradient><linearGradient id="_Linear29" x1="0" y1="0" x2="1" y2="0" gradientUnits="userSpaceOnUse" gradientTransform="matrix(17666.4,0,0,15249.2,-4647.43,29.377)"><stop offset="0" style="stop-color:#c7ff00;stop-opacity:1"/><stop offset="0.2" style="stop-color:#deff68;stop-opacity:1"/><stop offset="0.41" style="stop-color:#f5ffd0;stop-opacity:1"/><stop offset="1" style="stop-color:#fff;stop-opacity:1"/></linearGradient><linearGradient id="_Linear30" x1="0" y1="0" x2="1" y2="0" gradientUnits="userSpaceOnUse" gradientTransform="matrix(17666.4,0,0,15249.2,-3747.11,-211.864)"><stop offset="0" style="stop-color:#c7ff00;stop-opacity:1"/><stop offset="0.2" style="stop-color:#deff68;stop-opacity:1"/><stop offset="0.41" style="stop-color:#f5ffd0;stop-opacity:1"/><stop offset="1" style="stop-color:#fff;stop-opacity:1"/></linearGradient><linearGradient id="_Linear31" x1="0" y1="0" x2="1" y2="0" gradientUnits="userSpaceOnUse" gradientTransform="matrix(17666.4,0,0,15249.2,-6504.85,253.796)"><stop offset="0" style="stop-color:#c7ff00;stop-opacity:1"/><stop offset="0.2" style="stop-color:#deff68;stop-opacity:1"/><stop offset="0.41" style="stop-color:#f5ffd0;stop-opacity:1"/><stop offset="1" style="stop-color:#fff;stop-opacity:1"/></linearGradient><linearGradient id="_Linear32" x1="0" y1="0" x2="1" y2="0" gradientUnits="userSpaceOnUse" gradientTransform="matrix(17666.4,0,0,15249.2,-5604.53,12.5551)"><stop offset="0" style="stop-color:#c7ff00;stop-opacity:1"/><stop offset="0.2" style="stop-color:#deff68;stop-opacity:1"/><stop offset="0.41" style="stop-color:#f5ffd0;stop-opacity:1"/><stop offset="1" style="stop-color:#fff;stop-opacity:1"/></linearGradient><linearGradient id="_Linear33" x1="0" y1="0" x2="1" y2="0" gradientUnits="userSpaceOnUse" gradientTransform="matrix(17666.4,0,0,15249.2,-4715.75,-225.592)"><stop offset="0" style="stop-color:#c7ff00;stop-opacity:1"/><stop offset="0.2" style="stop-color:#deff68;stop-opacity:1"/><stop offset="0.41" style="stop-color:#f5ffd0;stop-opacity:1"/><stop offset="1" style="stop-color:#fff;stop-opacity:1"/></linearGradient><linearGradient id="_Linear34" x1="0" y1="0" x2="1" y2="0" gradientUnits="userSpaceOnUse" gradientTransform="matrix(17666.4,0,0,15249.2,-6570.91,7.27865)"><stop offset="0" style="stop-color:#c7ff00;stop-opacity:1"/><stop offset="0.2" style="stop-color:#deff68;stop-opacity:1"/><stop offset="0.41" style="stop-color:#f5ffd0;stop-opacity:1"/><stop offset="1" style="stop-color:#fff;stop-opacity:1"/></linearGradient><linearGradient id="_Linear35" x1="0" y1="0" x2="1" y2="0" gradientUnits="userSpaceOnUse" gradientTransform="matrix(17666.4,0,0,15249.2,-5670.58,-233.962)"><stop offset="0" style="stop-color:#c7ff00;stop-opacity:1"/><stop offset="0.2" style="stop-color:#deff68;stop-opacity:1"/><stop offset="0.41" style="stop-color:#f5ffd0;stop-opacity:1"/><stop offset="1" style="stop-color:#fff;stop-opacity:1"/></linearGradient></defs></svg>