<?xml version="1.0" encoding="UTF-8" standalone="no"?>
<!DOCTYPE svg PUBLIC "-//W3C//DTD SVG 1.1//EN" "http://www.w3.org/Graphics/SVG/1.1/DTD/svg11.dtd">
<svg width="100%" height="100%" viewBox="0 0 2376 1188" version="1.1" xmlns="http://www.w3.org/2000/svg" xmlns:xlink="http://www.w3.org/1999/xlink" xml:space="preserve" xmlns:serif="http://www.serif.com/" style="fill-rule:evenodd;clip-rule:evenodd;stroke-linecap:round;stroke-linejoin:round;stroke-miterlimit:1.5;">
    <g transform="matrix(1,0,0,1,-11.4288,-265.035)">
        <g transform="matrix(1.31568,0,0,1.31568,-672.555,-76.7)">
            <g transform="matrix(1.568,0,0,1.59945,-115.138,-655.028)">
                <rect x="404.98" y="571.927" width="1151.4" height="563.576" style="fill:rgb(240,240,240);"/>
            </g>
            <g transform="matrix(1.568,0,0,1.59945,-115.138,-655.028)">
                <rect x="404.98" y="571.927" width="1151.4" height="563.576" style="fill:rgb(255,255,98);"/>
                <clipPath id="_clip1">
                    <rect x="404.98" y="571.927" width="1151.4" height="563.576"/>
                </clipPath>
                <g clip-path="url(#_clip1)">
                    <g transform="matrix(0.484734,0,0,0.475202,399.44,445.981)">
                        <path d="M556.567,1543.04C556.567,1543.04 599.155,1155.42 919.594,1023.26C1240.03,891.106 1555.07,968.659 1662.01,638.193C1768.95,307.726 2046.13,109.007 2149.28,182" style="fill:none;stroke:black;stroke-width:2px;"/>
                    </g>
                    <g>
                        <g transform="matrix(0.484734,0,0,0.475202,450.921,445.981)">
                            <path d="M556.567,1543.04C556.567,1543.04 599.155,1155.42 919.594,1023.26C1240.03,891.106 1555.07,968.659 1662.01,638.193C1768.95,307.726 2046.13,109.007 2149.28,182" style="fill:none;stroke:white;stroke-width:2px;"/>
                        </g>
                        <g transform="matrix(0.484734,0,0,0.475202,-80.6605,319.648)">
                            <path d="M556.567,1543.04C556.567,1543.04 599.155,1155.42 919.594,1023.26C1240.03,891.106 1555.07,968.659 1662.01,638.193C1768.95,307.726 1846.93,348.22 1950.09,421.214" style="fill:none;stroke:white;stroke-width:2px;"/>
                        </g>
                        <g transform="matrix(0.484734,0,0,0.475202,990.126,627.225)">
                            <path d="M556.567,1543.04C556.567,1543.04 599.155,1155.42 919.594,1023.26C1240.03,891.106 1555.07,968.659 1662.01,638.193C1768.95,307.726 1846.93,348.22 1950.09,421.214" style="fill:none;stroke:white;stroke-width:2px;"/>
                        </g>
                        <g transform="matrix(0.484734,0,0,0.475202,422.311,445.981)">
                            <path d="M273.818,1515.89C273.818,1515.89 110.163,1199.79 265.531,1008.81C420.899,817.835 748.346,963.237 1053.12,685.264C1357.9,407.29 1193.19,261.965 1692.88,181.177" style="fill:none;stroke:white;stroke-width:2px;"/>
                        </g>
                        <g transform="matrix(0.484734,0,0,0.475202,450.921,445.981)">
                            <path d="M1544.15,1576.65C1544.15,1576.65 1354.01,1215.72 1662.3,1093.27C1965.11,972.989 2167.92,1103.53 2181.54,594.772C2189.8,286.445 2701.79,53.55 2831.91,138.034" style="fill:none;stroke:white;stroke-width:2px;"/>
                        </g>
                    </g>
                    <g transform="matrix(0.484734,0,0,0.475202,-132.142,319.648)">
                        <path d="M556.567,1543.04C556.567,1543.04 599.155,1155.42 919.594,1023.26C1240.03,891.106 1555.07,968.659 1662.01,638.193C1768.95,307.726 1846.93,348.22 1950.09,421.214" style="fill:none;stroke:black;stroke-width:2px;"/>
                    </g>
                    <g transform="matrix(0.484734,0,0,0.475202,938.645,627.225)">
                        <path d="M556.567,1543.04C556.567,1543.04 599.155,1155.42 919.594,1023.26C1240.03,891.106 1555.07,968.659 1662.01,638.193C1768.95,307.726 1846.93,348.22 1950.09,421.214" style="fill:none;stroke:black;stroke-width:2px;"/>
                    </g>
                    <g transform="matrix(0.484734,0,0,0.475202,370.83,445.981)">
                        <path d="M273.818,1515.89C273.818,1515.89 110.163,1199.79 265.531,1008.81C420.899,817.835 748.346,963.237 1053.12,685.264C1357.9,407.29 1193.19,261.965 1692.88,181.177" style="fill:none;stroke:black;stroke-width:2px;"/>
                    </g>
                    <g transform="matrix(0.484734,0,0,0.475202,399.44,445.981)">
                        <path d="M1544.15,1576.65C1544.15,1576.65 1354.01,1215.72 1662.3,1093.27C1965.11,972.989 2167.92,1103.53 2181.54,594.772C2189.8,286.445 2701.79,53.55 2831.91,138.034" style="fill:none;stroke:black;stroke-width:2px;"/>
                    </g>
                </g>
            </g>
        </g>
        <g transform="matrix(1,0,0,1,440.686,732.634)">
            <rect x="691.76" y="457.9" width="66.837" height="261.247" style="fill:rgb(48,45,45);"/>
        </g>
        <g transform="matrix(1,0,0,1,641.061,89.6163)">
            <rect x="691.76" y="457.9" width="66.837" height="261.247" style="fill:rgb(48,45,45);"/>
        </g>
        <g transform="matrix(1,0,0,1,1085.88,401.308)">
            <rect x="691.76" y="457.9" width="66.837" height="261.247" style="fill:rgb(48,45,45);"/>
        </g>
        <g transform="matrix(1,0,0,1,267.954,589.147)">
            <rect x="691.76" y="457.9" width="66.837" height="261.247" style="fill:rgb(48,45,45);"/>
        </g>
        <g transform="matrix(6.12323e-17,-1,1,6.12323e-17,50.386,1999.77)">
            <rect x="691.76" y="457.9" width="66.837" height="261.247" style="fill:rgb(48,45,45);"/>
        </g>
        <g transform="matrix(6.12323e-17,-1,1,6.12323e-17,1566.37,1532.89)">
            <rect x="691.76" y="457.9" width="66.837" height="261.247" style="fill:rgb(48,45,45);"/>
        </g>
        <g transform="matrix(1,0,0,1,-18.7397,198.528)">
            <g transform="matrix(1,0,0,0.72769,593.067,666.018)">
                <rect x="691.76" y="457.9" width="66.837" height="261.247" style="fill:rgb(48,45,45);"/>
            </g>
            <g transform="matrix(6.12323e-17,-1,0.263585,1.61399e-17,1229.56,1881.1)">
                <rect x="691.76" y="457.9" width="66.837" height="261.247" style="fill:rgb(48,45,45);"/>
            </g>
        </g>
        <g transform="matrix(-6.12323e-17,-1,-1,6.12323e-17,2823.31,1763.31)">
            <g transform="matrix(1,0,0,0.72769,593.067,666.018)">
                <rect x="691.76" y="457.9" width="66.837" height="261.247" style="fill:rgb(48,45,45);"/>
            </g>
            <g transform="matrix(6.12323e-17,-1,0.263585,1.61399e-17,1229.56,1881.1)">
                <rect x="691.76" y="457.9" width="66.837" height="261.247" style="fill:rgb(48,45,45);"/>
            </g>
        </g>
        <g transform="matrix(6.12323e-17,-1,1,6.12323e-17,-700.938,2439.86)">
            <g transform="matrix(1,0,0,0.72769,593.067,666.018)">
                <rect x="691.76" y="457.9" width="66.837" height="261.247" style="fill:rgb(48,45,45);"/>
            </g>
            <g transform="matrix(6.12323e-17,-1,0.263585,1.61399e-17,1229.56,1881.1)">
                <rect x="691.76" y="457.9" width="66.837" height="261.247" style="fill:rgb(48,45,45);"/>
            </g>
        </g>
        <g transform="matrix(-1,1.22465e-16,-1.22465e-16,-1,2549.83,1982.1)">
            <g transform="matrix(1,0,0,0.72769,593.067,666.018)">
                <rect x="691.76" y="457.9" width="66.837" height="261.247" style="fill:rgb(48,45,45);"/>
            </g>
            <g transform="matrix(6.12323e-17,-1,0.263585,1.61399e-17,1229.56,1881.1)">
                <rect x="691.76" y="457.9" width="66.837" height="261.247" style="fill:rgb(48,45,45);"/>
            </g>
        </g>
        <g transform="matrix(1,1.22465e-16,1.22465e-16,-1,-393.957,1655.73)">
            <g transform="matrix(1,0,0,0.72769,593.067,666.018)">
                <rect x="691.76" y="457.9" width="66.837" height="261.247" style="fill:rgb(48,45,45);"/>
            </g>
            <g transform="matrix(6.12323e-17,-1,0.263585,1.61399e-17,1229.56,1881.1)">
                <rect x="691.76" y="457.9" width="66.837" height="261.247" style="fill:rgb(48,45,45);"/>
            </g>
        </g>
        <g transform="matrix(-1,1.22465e-16,-1.22465e-16,-1,3189.65,2450.1)">
            <g transform="matrix(1,0,0,0.72769,593.067,666.018)">
                <rect x="691.76" y="457.9" width="66.837" height="261.247" style="fill:rgb(48,45,45);"/>
            </g>
            <g transform="matrix(6.12323e-17,-1,0.210628,1.28973e-17,1253.81,1881.1)">
                <rect x="691.76" y="457.9" width="66.837" height="261.247" style="fill:rgb(48,45,45);"/>
            </g>
            <g transform="matrix(6.12323e-17,-1,0.23054,1.41165e-17,1120.93,1757.89)">
                <rect x="691.76" y="457.9" width="66.837" height="261.247" style="fill:rgb(48,45,45);"/>
            </g>
        </g>
        <g transform="matrix(6.12323e-17,1,-1,6.12323e-17,1985.27,694.396)">
            <rect x="691.76" y="457.9" width="66.837" height="261.247" style="fill:rgb(48,45,45);"/>
        </g>
        <g transform="matrix(2.09072,0,0,0.555807,-559.55,1052.07)">
            <rect x="691.76" y="457.9" width="66.837" height="261.247" style="fill:rgb(48,45,45);"/>
        </g>
        <g transform="matrix(1.9865,0,0,0.555807,20.4245,992.43)">
            <rect x="691.76" y="457.9" width="66.837" height="261.247" style="fill:rgb(48,45,45);"/>
        </g>
        <g transform="matrix(1.9865,0,0,0.555807,177.304,720.288)">
            <rect x="691.76" y="457.9" width="66.837" height="261.247" style="fill:rgb(48,45,45);"/>
        </g>
        <g transform="matrix(1.9865,0,0,0.555807,766.799,1052.28)">
            <rect x="691.76" y="457.9" width="66.837" height="261.247" style="fill:rgb(48,45,45);"/>
        </g>
    </g>
</svg>
